G04 #@! TF.GenerationSoftware,KiCad,Pcbnew,6.0.9-8da3e8f707~116~ubuntu20.04.1*
G04 #@! TF.CreationDate,2023-03-15T20:52:10+01:00*
G04 #@! TF.ProjectId,six_to_six,7369785f-746f-45f7-9369-782e6b696361,rev?*
G04 #@! TF.SameCoordinates,Original*
G04 #@! TF.FileFunction,Soldermask,Bot*
G04 #@! TF.FilePolarity,Negative*
%FSLAX46Y46*%
G04 Gerber Fmt 4.6, Leading zero omitted, Abs format (unit mm)*
G04 Created by KiCad (PCBNEW 6.0.9-8da3e8f707~116~ubuntu20.04.1) date 2023-03-15 20:52:10*
%MOMM*%
%LPD*%
G01*
G04 APERTURE LIST*
G04 Aperture macros list*
%AMRoundRect*
0 Rectangle with rounded corners*
0 $1 Rounding radius*
0 $2 $3 $4 $5 $6 $7 $8 $9 X,Y pos of 4 corners*
0 Add a 4 corners polygon primitive as box body*
4,1,4,$2,$3,$4,$5,$6,$7,$8,$9,$2,$3,0*
0 Add four circle primitives for the rounded corners*
1,1,$1+$1,$2,$3*
1,1,$1+$1,$4,$5*
1,1,$1+$1,$6,$7*
1,1,$1+$1,$8,$9*
0 Add four rect primitives between the rounded corners*
20,1,$1+$1,$2,$3,$4,$5,0*
20,1,$1+$1,$4,$5,$6,$7,0*
20,1,$1+$1,$6,$7,$8,$9,0*
20,1,$1+$1,$8,$9,$2,$3,0*%
G04 Aperture macros list end*
%ADD10R,1.700000X1.700000*%
%ADD11O,1.700000X1.700000*%
%ADD12R,1.308000X1.308000*%
%ADD13C,1.308000*%
%ADD14O,3.000000X1.500000*%
%ADD15O,1.500000X3.000000*%
%ADD16C,5.600000*%
%ADD17R,1.800000X1.800000*%
%ADD18C,1.800000*%
%ADD19C,3.500000*%
%ADD20R,1.478000X1.478000*%
%ADD21C,1.478000*%
%ADD22C,1.270000*%
%ADD23RoundRect,0.237500X0.237500X-0.300000X0.237500X0.300000X-0.237500X0.300000X-0.237500X-0.300000X0*%
%ADD24R,1.200000X0.900000*%
%ADD25RoundRect,0.237500X0.300000X0.237500X-0.300000X0.237500X-0.300000X-0.237500X0.300000X-0.237500X0*%
%ADD26RoundRect,0.250000X-0.625000X0.400000X-0.625000X-0.400000X0.625000X-0.400000X0.625000X0.400000X0*%
%ADD27RoundRect,0.150000X0.587500X0.150000X-0.587500X0.150000X-0.587500X-0.150000X0.587500X-0.150000X0*%
%ADD28RoundRect,0.250000X0.400000X1.075000X-0.400000X1.075000X-0.400000X-1.075000X0.400000X-1.075000X0*%
%ADD29RoundRect,0.250000X0.337500X0.475000X-0.337500X0.475000X-0.337500X-0.475000X0.337500X-0.475000X0*%
%ADD30RoundRect,0.237500X0.237500X-0.250000X0.237500X0.250000X-0.237500X0.250000X-0.237500X-0.250000X0*%
%ADD31RoundRect,0.237500X-0.237500X0.300000X-0.237500X-0.300000X0.237500X-0.300000X0.237500X0.300000X0*%
%ADD32RoundRect,0.250000X-0.475000X0.337500X-0.475000X-0.337500X0.475000X-0.337500X0.475000X0.337500X0*%
%ADD33RoundRect,0.250000X0.400000X0.625000X-0.400000X0.625000X-0.400000X-0.625000X0.400000X-0.625000X0*%
G04 APERTURE END LIST*
D10*
X732790000Y-234315000D03*
D11*
X732790000Y-231775000D03*
X735330000Y-234315000D03*
X735330000Y-231775000D03*
X737870000Y-234315000D03*
X737870000Y-231775000D03*
X740410000Y-234315000D03*
X740410000Y-231775000D03*
D12*
X727710000Y-203835000D03*
D13*
X735330000Y-203835000D03*
X740410000Y-203835000D03*
X745490000Y-203835000D03*
X745490000Y-196215000D03*
X740410000Y-196215000D03*
X735330000Y-196215000D03*
X727710000Y-196215000D03*
D14*
X659130000Y-163830000D03*
X659130000Y-168910000D03*
X659130000Y-166370000D03*
X659130000Y-171450000D03*
D12*
X727710000Y-192405000D03*
D13*
X735330000Y-192405000D03*
X740410000Y-192405000D03*
X745490000Y-192405000D03*
X745490000Y-184785000D03*
X740410000Y-184785000D03*
X735330000Y-184785000D03*
X727710000Y-184785000D03*
D15*
X652145000Y-201803000D03*
X652145000Y-233299000D03*
X647065000Y-201803000D03*
X647065000Y-233299000D03*
D14*
X659130000Y-209550000D03*
X659130000Y-214630000D03*
X659130000Y-212090000D03*
X659130000Y-217170000D03*
D16*
X751205000Y-163830000D03*
D14*
X693420000Y-163830000D03*
X693420000Y-168910000D03*
X693420000Y-166370000D03*
X693420000Y-171450000D03*
D12*
X727710000Y-169545000D03*
D13*
X735330000Y-169545000D03*
X740410000Y-169545000D03*
X745490000Y-169545000D03*
X745490000Y-161925000D03*
X740410000Y-161925000D03*
X735330000Y-161925000D03*
X727710000Y-161925000D03*
D16*
X645795000Y-163830000D03*
D14*
X693420000Y-191770000D03*
X693420000Y-199390000D03*
X693420000Y-194310000D03*
X693420000Y-201930000D03*
X693420000Y-196850000D03*
X693420000Y-204470000D03*
X693420000Y-209550000D03*
X693420000Y-214630000D03*
X693420000Y-212090000D03*
X693420000Y-217170000D03*
D12*
X727710000Y-180975000D03*
D13*
X735330000Y-180975000D03*
X740410000Y-180975000D03*
X745490000Y-180975000D03*
X745490000Y-173355000D03*
X740410000Y-173355000D03*
X735330000Y-173355000D03*
X727710000Y-173355000D03*
D10*
X749365000Y-184785000D03*
D11*
X751905000Y-184785000D03*
X749365000Y-187325000D03*
X751905000Y-187325000D03*
X749365000Y-189865000D03*
X751905000Y-189865000D03*
X749365000Y-192405000D03*
X751905000Y-192405000D03*
X749365000Y-194945000D03*
X751905000Y-194945000D03*
X749365000Y-197485000D03*
X751905000Y-197485000D03*
D14*
X671830000Y-179070000D03*
X671830000Y-184150000D03*
X671830000Y-181610000D03*
X671830000Y-186690000D03*
D17*
X652780000Y-177800000D03*
D18*
X650240000Y-177800000D03*
D12*
X727710000Y-215265000D03*
D13*
X735330000Y-215265000D03*
X740410000Y-215265000D03*
X745490000Y-215265000D03*
X745490000Y-207645000D03*
X740410000Y-207645000D03*
X735330000Y-207645000D03*
X727710000Y-207645000D03*
D19*
X648970000Y-196215000D03*
X648970000Y-186055000D03*
D20*
X654050000Y-191135000D03*
D21*
X654050000Y-193675000D03*
D16*
X751205000Y-232410000D03*
D10*
X663575000Y-179070000D03*
D11*
X663575000Y-181610000D03*
D22*
X660390000Y-199860000D03*
X665490000Y-201460000D03*
D12*
X727710000Y-226695000D03*
D13*
X735330000Y-226695000D03*
X740410000Y-226695000D03*
X745490000Y-226695000D03*
X745490000Y-219075000D03*
X740410000Y-219075000D03*
X735330000Y-219075000D03*
X727710000Y-219075000D03*
D14*
X659130000Y-222250000D03*
X659130000Y-229870000D03*
X659130000Y-224790000D03*
X659130000Y-232410000D03*
X659130000Y-227330000D03*
X659130000Y-234950000D03*
X693420000Y-224790000D03*
X693420000Y-229870000D03*
X693420000Y-227330000D03*
X693420000Y-232410000D03*
X693420000Y-176530000D03*
X693420000Y-184150000D03*
X693420000Y-179070000D03*
X693420000Y-186690000D03*
X693420000Y-181610000D03*
X693420000Y-189230000D03*
X671830000Y-194310000D03*
X671830000Y-199390000D03*
X671830000Y-196850000D03*
X671830000Y-201930000D03*
D23*
X647065000Y-227964500D03*
X647065000Y-226239500D03*
D24*
X727710000Y-201675000D03*
X727710000Y-198375000D03*
X727710000Y-224535000D03*
X727710000Y-221235000D03*
D25*
X732382500Y-219075000D03*
X730657500Y-219075000D03*
D24*
X665734000Y-186309000D03*
X665734000Y-189609000D03*
D26*
X698500000Y-227050000D03*
X698500000Y-230150000D03*
X698500000Y-211810000D03*
X698500000Y-214910000D03*
X664083000Y-166344000D03*
X664083000Y-169444000D03*
D27*
X732457500Y-199075000D03*
X732457500Y-200975000D03*
X730582500Y-200025000D03*
D25*
X732382500Y-161925000D03*
X730657500Y-161925000D03*
D28*
X743738000Y-211201000D03*
X740638000Y-211201000D03*
D25*
X732382500Y-207645000D03*
X730657500Y-207645000D03*
D29*
X689377500Y-214630000D03*
X687302500Y-214630000D03*
D30*
X735330000Y-223797500D03*
X735330000Y-221972500D03*
D31*
X729615000Y-232182500D03*
X729615000Y-233907500D03*
D26*
X676910000Y-196824000D03*
X676910000Y-199924000D03*
D30*
X735330000Y-178354500D03*
X735330000Y-176529500D03*
D27*
X732457500Y-221935000D03*
X732457500Y-223835000D03*
X730582500Y-222885000D03*
D24*
X665734000Y-192278000D03*
X665734000Y-195578000D03*
D25*
X732382500Y-184785000D03*
X730657500Y-184785000D03*
D30*
X735330000Y-189507500D03*
X735330000Y-187682500D03*
D24*
X727710000Y-167385000D03*
X727710000Y-164085000D03*
D26*
X664210000Y-211810000D03*
X664210000Y-214910000D03*
D27*
X732457500Y-187645000D03*
X732457500Y-189545000D03*
X730582500Y-188595000D03*
X732457500Y-210251000D03*
X732457500Y-212151000D03*
X730582500Y-211201000D03*
D28*
X743738000Y-188595000D03*
X740638000Y-188595000D03*
D25*
X732282500Y-173355000D03*
X730557500Y-173355000D03*
D29*
X689356500Y-229870000D03*
X687281500Y-229870000D03*
D30*
X735330000Y-200937500D03*
X735330000Y-199112500D03*
D29*
X689356500Y-168910000D03*
X687281500Y-168910000D03*
D28*
X743738000Y-222885000D03*
X740638000Y-222885000D03*
D24*
X727710000Y-178815000D03*
X727710000Y-175515000D03*
X660400000Y-195578000D03*
X660400000Y-192278000D03*
D32*
X676910000Y-184382500D03*
X676910000Y-186457500D03*
D24*
X660400000Y-189610000D03*
X660400000Y-186310000D03*
D26*
X698373000Y-166090000D03*
X698373000Y-169190000D03*
D33*
X680746000Y-211836000D03*
X677646000Y-211836000D03*
D28*
X743738000Y-165735000D03*
X740638000Y-165735000D03*
X743738000Y-200025000D03*
X740638000Y-200025000D03*
D27*
X732457500Y-164785000D03*
X732457500Y-166685000D03*
X730582500Y-165735000D03*
D24*
X727710000Y-190245000D03*
X727710000Y-186945000D03*
X727710000Y-213105000D03*
X727710000Y-209805000D03*
D30*
X736092000Y-166647500D03*
X736092000Y-164822500D03*
X735330000Y-212113500D03*
X735330000Y-210288500D03*
D27*
X732457500Y-176469000D03*
X732457500Y-178369000D03*
X730582500Y-177419000D03*
D25*
X732382500Y-196215000D03*
X730657500Y-196215000D03*
D28*
X743738000Y-177165000D03*
X740638000Y-177165000D03*
M02*
