M48
; DRILL file {KiCad 6.0.9-8da3e8f707~116~ubuntu20.04.1} date ned 12 mar 2023 22:42:52
; FORMAT={-:-/ absolute / metric / decimal}
; #@! TF.CreationDate,2023-03-12T22:42:52+01:00
; #@! TF.GenerationSoftware,Kicad,Pcbnew,6.0.9-8da3e8f707~116~ubuntu20.04.1
; #@! TF.FileFunction,Plated,1,2,PTH
FMAT,2
METRIC
; #@! TA.AperFunction,Plated,PTH,ViaDrill
T1C0.400
; #@! TA.AperFunction,Plated,PTH,ComponentDrill
T2C0.710
; #@! TA.AperFunction,Plated,PTH,ComponentDrill
T3C0.800
; #@! TA.AperFunction,Plated,PTH,ComponentDrill
T4C0.900
; #@! TA.AperFunction,Plated,PTH,ComponentDrill
T5C0.970
; #@! TA.AperFunction,Plated,PTH,ComponentDrill
T6C1.000
; #@! TA.AperFunction,Plated,PTH,ComponentDrill
T7C3.200
%
G90
G05
T1
X649.098Y-184.022
X652.092Y-216.863
X654.051Y-184.022
X687.281Y-170.604
X687.281Y-227.119
X687.302Y-201.063
X717.242Y-198.89
X725.17Y-177.165
X725.17Y-188.595
X725.805Y-165.735
X726.018Y-213.528
X726.018Y-220.767
X726.44Y-198.12
T2
X649.458Y-162.687
X654.558Y-164.287
T3
X647.065Y-170.688
X647.065Y-202.184
X652.145Y-170.688
X652.145Y-202.184
X659.13Y-163.83
X659.13Y-166.37
X659.13Y-168.91
X659.13Y-171.45
X659.13Y-179.07
X659.13Y-181.61
X659.13Y-184.15
X659.13Y-186.69
X659.13Y-194.31
X659.13Y-196.85
X659.13Y-199.39
X659.13Y-201.93
X659.13Y-209.55
X659.13Y-212.09
X659.13Y-214.63
X659.13Y-217.17
X659.13Y-222.25
X659.13Y-224.79
X659.13Y-227.33
X659.13Y-229.87
X659.13Y-232.41
X659.13Y-234.95
X680.72Y-176.53
X680.72Y-179.07
X680.72Y-181.61
X680.72Y-184.15
X680.72Y-186.69
X680.72Y-189.23
X680.72Y-207.01
X680.72Y-209.55
X680.72Y-212.09
X680.72Y-214.63
X680.72Y-217.17
X680.72Y-219.71
X693.42Y-163.83
X693.42Y-166.37
X693.42Y-168.91
X693.42Y-171.45
X693.42Y-194.31
X693.42Y-196.85
X693.42Y-199.39
X693.42Y-201.93
X693.42Y-224.79
X693.42Y-227.33
X693.42Y-229.87
X693.42Y-232.41
X714.375Y-161.925
X714.375Y-169.545
X714.375Y-173.355
X714.375Y-180.975
X714.375Y-184.785
X714.375Y-192.405
X714.375Y-196.215
X714.375Y-203.835
X714.375Y-207.645
X714.375Y-215.265
X714.375Y-219.075
X714.375Y-226.695
X721.995Y-161.925
X721.995Y-169.545
X721.995Y-173.355
X721.995Y-180.975
X721.995Y-184.785
X721.995Y-192.405
X721.995Y-196.215
X721.995Y-203.835
X721.995Y-207.645
X721.995Y-215.265
X721.995Y-219.075
X721.995Y-226.695
X727.075Y-161.925
X727.075Y-169.545
X727.075Y-173.355
X727.075Y-180.975
X727.075Y-184.785
X727.075Y-192.405
X727.075Y-196.215
X727.075Y-203.835
X727.075Y-207.645
X727.075Y-215.265
X727.075Y-219.075
X727.075Y-226.695
X732.155Y-161.925
X732.155Y-169.545
X732.155Y-173.355
X732.155Y-180.975
X732.155Y-184.785
X732.155Y-192.405
X732.155Y-196.215
X732.155Y-203.835
X732.155Y-207.645
X732.155Y-215.265
X732.155Y-219.075
X732.155Y-226.695
T4
X650.748Y-208.026
X653.288Y-208.026
T5
X654.05Y-219.075
X654.05Y-221.615
T6
X645.414Y-162.687
X645.414Y-165.227
X719.455Y-231.775
X719.455Y-234.315
X721.995Y-231.775
X721.995Y-234.315
X724.535Y-231.775
X724.535Y-234.315
X727.075Y-231.775
X727.075Y-234.315
X735.965Y-187.96
X735.965Y-190.5
X735.965Y-193.04
X735.965Y-195.58
X735.965Y-198.12
X735.965Y-200.66
X738.505Y-187.96
X738.505Y-190.5
X738.505Y-193.04
X738.505Y-195.58
X738.505Y-198.12
X738.505Y-200.66
T7
X646.43Y-232.41
X738.505Y-163.83
X738.505Y-232.41
T0
M30
