G04 #@! TF.GenerationSoftware,KiCad,Pcbnew,6.0.9-8da3e8f707~116~ubuntu20.04.1*
G04 #@! TF.CreationDate,2023-03-25T19:03:31+01:00*
G04 #@! TF.ProjectId,six_to_six,7369785f-746f-45f7-9369-782e6b696361,rev?*
G04 #@! TF.SameCoordinates,Original*
G04 #@! TF.FileFunction,Legend,Bot*
G04 #@! TF.FilePolarity,Positive*
%FSLAX46Y46*%
G04 Gerber Fmt 4.6, Leading zero omitted, Abs format (unit mm)*
G04 Created by KiCad (PCBNEW 6.0.9-8da3e8f707~116~ubuntu20.04.1) date 2023-03-25 19:03:31*
%MOMM*%
%LPD*%
G01*
G04 APERTURE LIST*
G04 Aperture macros list*
%AMRoundRect*
0 Rectangle with rounded corners*
0 $1 Rounding radius*
0 $2 $3 $4 $5 $6 $7 $8 $9 X,Y pos of 4 corners*
0 Add a 4 corners polygon primitive as box body*
4,1,4,$2,$3,$4,$5,$6,$7,$8,$9,$2,$3,0*
0 Add four circle primitives for the rounded corners*
1,1,$1+$1,$2,$3*
1,1,$1+$1,$4,$5*
1,1,$1+$1,$6,$7*
1,1,$1+$1,$8,$9*
0 Add four rect primitives between the rounded corners*
20,1,$1+$1,$2,$3,$4,$5,0*
20,1,$1+$1,$4,$5,$6,$7,0*
20,1,$1+$1,$6,$7,$8,$9,0*
20,1,$1+$1,$8,$9,$2,$3,0*%
G04 Aperture macros list end*
%ADD10C,0.150000*%
%ADD11C,0.120000*%
%ADD12R,1.700000X1.700000*%
%ADD13O,1.700000X1.700000*%
%ADD14R,1.308000X1.308000*%
%ADD15C,1.308000*%
%ADD16O,3.000000X1.500000*%
%ADD17O,1.500000X3.000000*%
%ADD18C,5.600000*%
%ADD19R,1.800000X1.800000*%
%ADD20C,1.800000*%
%ADD21C,3.500000*%
%ADD22R,1.478000X1.478000*%
%ADD23C,1.478000*%
%ADD24C,1.270000*%
%ADD25RoundRect,0.237500X0.237500X-0.300000X0.237500X0.300000X-0.237500X0.300000X-0.237500X-0.300000X0*%
%ADD26R,1.200000X0.900000*%
%ADD27RoundRect,0.237500X0.300000X0.237500X-0.300000X0.237500X-0.300000X-0.237500X0.300000X-0.237500X0*%
%ADD28RoundRect,0.250000X-0.625000X0.400000X-0.625000X-0.400000X0.625000X-0.400000X0.625000X0.400000X0*%
%ADD29RoundRect,0.150000X0.587500X0.150000X-0.587500X0.150000X-0.587500X-0.150000X0.587500X-0.150000X0*%
%ADD30RoundRect,0.250000X0.400000X1.075000X-0.400000X1.075000X-0.400000X-1.075000X0.400000X-1.075000X0*%
%ADD31RoundRect,0.250000X0.337500X0.475000X-0.337500X0.475000X-0.337500X-0.475000X0.337500X-0.475000X0*%
%ADD32RoundRect,0.237500X0.237500X-0.250000X0.237500X0.250000X-0.237500X0.250000X-0.237500X-0.250000X0*%
%ADD33RoundRect,0.237500X-0.237500X0.300000X-0.237500X-0.300000X0.237500X-0.300000X0.237500X0.300000X0*%
%ADD34RoundRect,0.250000X-0.475000X0.337500X-0.475000X-0.337500X0.475000X-0.337500X0.475000X0.337500X0*%
%ADD35RoundRect,0.250000X0.400000X0.625000X-0.400000X0.625000X-0.400000X-0.625000X0.400000X-0.625000X0*%
G04 APERTURE END LIST*
D10*
X647231666Y-230126142D02*
X647279285Y-230173761D01*
X647422142Y-230221380D01*
X647517380Y-230221380D01*
X647660238Y-230173761D01*
X647755476Y-230078523D01*
X647803095Y-229983285D01*
X647850714Y-229792809D01*
X647850714Y-229649952D01*
X647803095Y-229459476D01*
X647755476Y-229364238D01*
X647660238Y-229269000D01*
X647517380Y-229221380D01*
X647422142Y-229221380D01*
X647279285Y-229269000D01*
X647231666Y-229316619D01*
X646898333Y-229221380D02*
X646231666Y-229221380D01*
X646660238Y-230221380D01*
X730067380Y-202461904D02*
X729067380Y-202461904D01*
X729067380Y-202700000D01*
X729115000Y-202842857D01*
X729210238Y-202938095D01*
X729305476Y-202985714D01*
X729495952Y-203033333D01*
X729638809Y-203033333D01*
X729829285Y-202985714D01*
X729924523Y-202938095D01*
X730019761Y-202842857D01*
X730067380Y-202700000D01*
X730067380Y-202461904D01*
X729400714Y-203890476D02*
X730067380Y-203890476D01*
X729019761Y-203652380D02*
X729734047Y-203414285D01*
X729734047Y-204033333D01*
X730067380Y-225321904D02*
X729067380Y-225321904D01*
X729067380Y-225560000D01*
X729115000Y-225702857D01*
X729210238Y-225798095D01*
X729305476Y-225845714D01*
X729495952Y-225893333D01*
X729638809Y-225893333D01*
X729829285Y-225845714D01*
X729924523Y-225798095D01*
X730019761Y-225702857D01*
X730067380Y-225560000D01*
X730067380Y-225321904D01*
X729067380Y-226750476D02*
X729067380Y-226560000D01*
X729115000Y-226464761D01*
X729162619Y-226417142D01*
X729305476Y-226321904D01*
X729495952Y-226274285D01*
X729876904Y-226274285D01*
X729972142Y-226321904D01*
X730019761Y-226369523D01*
X730067380Y-226464761D01*
X730067380Y-226655238D01*
X730019761Y-226750476D01*
X729972142Y-226798095D01*
X729876904Y-226845714D01*
X729638809Y-226845714D01*
X729543571Y-226798095D01*
X729495952Y-226750476D01*
X729448333Y-226655238D01*
X729448333Y-226464761D01*
X729495952Y-226369523D01*
X729543571Y-226321904D01*
X729638809Y-226274285D01*
X731686666Y-218002142D02*
X731734285Y-218049761D01*
X731877142Y-218097380D01*
X731972380Y-218097380D01*
X732115238Y-218049761D01*
X732210476Y-217954523D01*
X732258095Y-217859285D01*
X732305714Y-217668809D01*
X732305714Y-217525952D01*
X732258095Y-217335476D01*
X732210476Y-217240238D01*
X732115238Y-217145000D01*
X731972380Y-217097380D01*
X731877142Y-217097380D01*
X731734285Y-217145000D01*
X731686666Y-217192619D01*
X730829523Y-217097380D02*
X731020000Y-217097380D01*
X731115238Y-217145000D01*
X731162857Y-217192619D01*
X731258095Y-217335476D01*
X731305714Y-217525952D01*
X731305714Y-217906904D01*
X731258095Y-218002142D01*
X731210476Y-218049761D01*
X731115238Y-218097380D01*
X730924761Y-218097380D01*
X730829523Y-218049761D01*
X730781904Y-218002142D01*
X730734285Y-217906904D01*
X730734285Y-217668809D01*
X730781904Y-217573571D01*
X730829523Y-217525952D01*
X730924761Y-217478333D01*
X731115238Y-217478333D01*
X731210476Y-217525952D01*
X731258095Y-217573571D01*
X731305714Y-217668809D01*
X668218380Y-187220904D02*
X667218380Y-187220904D01*
X667218380Y-187459000D01*
X667266000Y-187601857D01*
X667361238Y-187697095D01*
X667456476Y-187744714D01*
X667646952Y-187792333D01*
X667789809Y-187792333D01*
X667980285Y-187744714D01*
X668075523Y-187697095D01*
X668170761Y-187601857D01*
X668218380Y-187459000D01*
X668218380Y-187220904D01*
X667218380Y-188125666D02*
X667218380Y-188792333D01*
X668218380Y-188363761D01*
X701111380Y-227957142D02*
X700635190Y-227623809D01*
X701111380Y-227385714D02*
X700111380Y-227385714D01*
X700111380Y-227766666D01*
X700159000Y-227861904D01*
X700206619Y-227909523D01*
X700301857Y-227957142D01*
X700444714Y-227957142D01*
X700539952Y-227909523D01*
X700587571Y-227861904D01*
X700635190Y-227766666D01*
X700635190Y-227385714D01*
X701111380Y-228909523D02*
X701111380Y-228338095D01*
X701111380Y-228623809D02*
X700111380Y-228623809D01*
X700254238Y-228528571D01*
X700349476Y-228433333D01*
X700397095Y-228338095D01*
X701111380Y-229385714D02*
X701111380Y-229576190D01*
X701063761Y-229671428D01*
X701016142Y-229719047D01*
X700873285Y-229814285D01*
X700682809Y-229861904D01*
X700301857Y-229861904D01*
X700206619Y-229814285D01*
X700159000Y-229766666D01*
X700111380Y-229671428D01*
X700111380Y-229480952D01*
X700159000Y-229385714D01*
X700206619Y-229338095D01*
X700301857Y-229290476D01*
X700539952Y-229290476D01*
X700635190Y-229338095D01*
X700682809Y-229385714D01*
X700730428Y-229480952D01*
X700730428Y-229671428D01*
X700682809Y-229766666D01*
X700635190Y-229814285D01*
X700539952Y-229861904D01*
X700984380Y-212717142D02*
X700508190Y-212383809D01*
X700984380Y-212145714D02*
X699984380Y-212145714D01*
X699984380Y-212526666D01*
X700032000Y-212621904D01*
X700079619Y-212669523D01*
X700174857Y-212717142D01*
X700317714Y-212717142D01*
X700412952Y-212669523D01*
X700460571Y-212621904D01*
X700508190Y-212526666D01*
X700508190Y-212145714D01*
X700984380Y-213669523D02*
X700984380Y-213098095D01*
X700984380Y-213383809D02*
X699984380Y-213383809D01*
X700127238Y-213288571D01*
X700222476Y-213193333D01*
X700270095Y-213098095D01*
X700412952Y-214240952D02*
X700365333Y-214145714D01*
X700317714Y-214098095D01*
X700222476Y-214050476D01*
X700174857Y-214050476D01*
X700079619Y-214098095D01*
X700032000Y-214145714D01*
X699984380Y-214240952D01*
X699984380Y-214431428D01*
X700032000Y-214526666D01*
X700079619Y-214574285D01*
X700174857Y-214621904D01*
X700222476Y-214621904D01*
X700317714Y-214574285D01*
X700365333Y-214526666D01*
X700412952Y-214431428D01*
X700412952Y-214240952D01*
X700460571Y-214145714D01*
X700508190Y-214098095D01*
X700603428Y-214050476D01*
X700793904Y-214050476D01*
X700889142Y-214098095D01*
X700936761Y-214145714D01*
X700984380Y-214240952D01*
X700984380Y-214431428D01*
X700936761Y-214526666D01*
X700889142Y-214574285D01*
X700793904Y-214621904D01*
X700603428Y-214621904D01*
X700508190Y-214574285D01*
X700460571Y-214526666D01*
X700412952Y-214431428D01*
X666821380Y-167251142D02*
X666345190Y-166917809D01*
X666821380Y-166679714D02*
X665821380Y-166679714D01*
X665821380Y-167060666D01*
X665869000Y-167155904D01*
X665916619Y-167203523D01*
X666011857Y-167251142D01*
X666154714Y-167251142D01*
X666249952Y-167203523D01*
X666297571Y-167155904D01*
X666345190Y-167060666D01*
X666345190Y-166679714D01*
X666821380Y-168203523D02*
X666821380Y-167632095D01*
X666821380Y-167917809D02*
X665821380Y-167917809D01*
X665964238Y-167822571D01*
X666059476Y-167727333D01*
X666107095Y-167632095D01*
X666154714Y-169060666D02*
X666821380Y-169060666D01*
X665773761Y-168822571D02*
X666488047Y-168584476D01*
X666488047Y-169203523D01*
X732631238Y-203239619D02*
X732726476Y-203192000D01*
X732821714Y-203096761D01*
X732964571Y-202953904D01*
X733059809Y-202906285D01*
X733155047Y-202906285D01*
X733107428Y-203144380D02*
X733202666Y-203096761D01*
X733297904Y-203001523D01*
X733345523Y-202811047D01*
X733345523Y-202477714D01*
X733297904Y-202287238D01*
X733202666Y-202192000D01*
X733107428Y-202144380D01*
X732916952Y-202144380D01*
X732821714Y-202192000D01*
X732726476Y-202287238D01*
X732678857Y-202477714D01*
X732678857Y-202811047D01*
X732726476Y-203001523D01*
X732821714Y-203096761D01*
X732916952Y-203144380D01*
X733107428Y-203144380D01*
X731821714Y-202477714D02*
X731821714Y-203144380D01*
X732059809Y-202096761D02*
X732297904Y-202811047D01*
X731678857Y-202811047D01*
X731686666Y-160852142D02*
X731734285Y-160899761D01*
X731877142Y-160947380D01*
X731972380Y-160947380D01*
X732115238Y-160899761D01*
X732210476Y-160804523D01*
X732258095Y-160709285D01*
X732305714Y-160518809D01*
X732305714Y-160375952D01*
X732258095Y-160185476D01*
X732210476Y-160090238D01*
X732115238Y-159995000D01*
X731972380Y-159947380D01*
X731877142Y-159947380D01*
X731734285Y-159995000D01*
X731686666Y-160042619D01*
X730734285Y-160947380D02*
X731305714Y-160947380D01*
X731020000Y-160947380D02*
X731020000Y-159947380D01*
X731115238Y-160090238D01*
X731210476Y-160185476D01*
X731305714Y-160233095D01*
X742354666Y-214193380D02*
X742688000Y-213717190D01*
X742926095Y-214193380D02*
X742926095Y-213193380D01*
X742545142Y-213193380D01*
X742449904Y-213241000D01*
X742402285Y-213288619D01*
X742354666Y-213383857D01*
X742354666Y-213526714D01*
X742402285Y-213621952D01*
X742449904Y-213669571D01*
X742545142Y-213717190D01*
X742926095Y-213717190D01*
X741449904Y-213193380D02*
X741926095Y-213193380D01*
X741973714Y-213669571D01*
X741926095Y-213621952D01*
X741830857Y-213574333D01*
X741592761Y-213574333D01*
X741497523Y-213621952D01*
X741449904Y-213669571D01*
X741402285Y-213764809D01*
X741402285Y-214002904D01*
X741449904Y-214098142D01*
X741497523Y-214145761D01*
X741592761Y-214193380D01*
X741830857Y-214193380D01*
X741926095Y-214145761D01*
X741973714Y-214098142D01*
X731686666Y-206572142D02*
X731734285Y-206619761D01*
X731877142Y-206667380D01*
X731972380Y-206667380D01*
X732115238Y-206619761D01*
X732210476Y-206524523D01*
X732258095Y-206429285D01*
X732305714Y-206238809D01*
X732305714Y-206095952D01*
X732258095Y-205905476D01*
X732210476Y-205810238D01*
X732115238Y-205715000D01*
X731972380Y-205667380D01*
X731877142Y-205667380D01*
X731734285Y-205715000D01*
X731686666Y-205762619D01*
X730781904Y-205667380D02*
X731258095Y-205667380D01*
X731305714Y-206143571D01*
X731258095Y-206095952D01*
X731162857Y-206048333D01*
X730924761Y-206048333D01*
X730829523Y-206095952D01*
X730781904Y-206143571D01*
X730734285Y-206238809D01*
X730734285Y-206476904D01*
X730781904Y-206572142D01*
X730829523Y-206619761D01*
X730924761Y-206667380D01*
X731162857Y-206667380D01*
X731258095Y-206619761D01*
X731305714Y-206572142D01*
X688982857Y-213307142D02*
X689030476Y-213354761D01*
X689173333Y-213402380D01*
X689268571Y-213402380D01*
X689411428Y-213354761D01*
X689506666Y-213259523D01*
X689554285Y-213164285D01*
X689601904Y-212973809D01*
X689601904Y-212830952D01*
X689554285Y-212640476D01*
X689506666Y-212545238D01*
X689411428Y-212450000D01*
X689268571Y-212402380D01*
X689173333Y-212402380D01*
X689030476Y-212450000D01*
X688982857Y-212497619D01*
X688030476Y-213402380D02*
X688601904Y-213402380D01*
X688316190Y-213402380D02*
X688316190Y-212402380D01*
X688411428Y-212545238D01*
X688506666Y-212640476D01*
X688601904Y-212688095D01*
X687411428Y-212402380D02*
X687316190Y-212402380D01*
X687220952Y-212450000D01*
X687173333Y-212497619D01*
X687125714Y-212592857D01*
X687078095Y-212783333D01*
X687078095Y-213021428D01*
X687125714Y-213211904D01*
X687173333Y-213307142D01*
X687220952Y-213354761D01*
X687316190Y-213402380D01*
X687411428Y-213402380D01*
X687506666Y-213354761D01*
X687554285Y-213307142D01*
X687601904Y-213211904D01*
X687649523Y-213021428D01*
X687649523Y-212783333D01*
X687601904Y-212592857D01*
X687554285Y-212497619D01*
X687506666Y-212450000D01*
X687411428Y-212402380D01*
X737212380Y-222242142D02*
X736736190Y-221908809D01*
X737212380Y-221670714D02*
X736212380Y-221670714D01*
X736212380Y-222051666D01*
X736260000Y-222146904D01*
X736307619Y-222194523D01*
X736402857Y-222242142D01*
X736545714Y-222242142D01*
X736640952Y-222194523D01*
X736688571Y-222146904D01*
X736736190Y-222051666D01*
X736736190Y-221670714D01*
X737212380Y-223194523D02*
X737212380Y-222623095D01*
X737212380Y-222908809D02*
X736212380Y-222908809D01*
X736355238Y-222813571D01*
X736450476Y-222718333D01*
X736498095Y-222623095D01*
X736307619Y-223575476D02*
X736260000Y-223623095D01*
X736212380Y-223718333D01*
X736212380Y-223956428D01*
X736260000Y-224051666D01*
X736307619Y-224099285D01*
X736402857Y-224146904D01*
X736498095Y-224146904D01*
X736640952Y-224099285D01*
X737212380Y-223527857D01*
X737212380Y-224146904D01*
X727717857Y-233402142D02*
X727765476Y-233449761D01*
X727908333Y-233497380D01*
X728003571Y-233497380D01*
X728146428Y-233449761D01*
X728241666Y-233354523D01*
X728289285Y-233259285D01*
X728336904Y-233068809D01*
X728336904Y-232925952D01*
X728289285Y-232735476D01*
X728241666Y-232640238D01*
X728146428Y-232545000D01*
X728003571Y-232497380D01*
X727908333Y-232497380D01*
X727765476Y-232545000D01*
X727717857Y-232592619D01*
X726765476Y-233497380D02*
X727336904Y-233497380D01*
X727051190Y-233497380D02*
X727051190Y-232497380D01*
X727146428Y-232640238D01*
X727241666Y-232735476D01*
X727336904Y-232783095D01*
X726384523Y-232592619D02*
X726336904Y-232545000D01*
X726241666Y-232497380D01*
X726003571Y-232497380D01*
X725908333Y-232545000D01*
X725860714Y-232592619D01*
X725813095Y-232687857D01*
X725813095Y-232783095D01*
X725860714Y-232925952D01*
X726432142Y-233497380D01*
X725813095Y-233497380D01*
X679521380Y-197731142D02*
X679045190Y-197397809D01*
X679521380Y-197159714D02*
X678521380Y-197159714D01*
X678521380Y-197540666D01*
X678569000Y-197635904D01*
X678616619Y-197683523D01*
X678711857Y-197731142D01*
X678854714Y-197731142D01*
X678949952Y-197683523D01*
X678997571Y-197635904D01*
X679045190Y-197540666D01*
X679045190Y-197159714D01*
X679521380Y-198683523D02*
X679521380Y-198112095D01*
X679521380Y-198397809D02*
X678521380Y-198397809D01*
X678664238Y-198302571D01*
X678759476Y-198207333D01*
X678807095Y-198112095D01*
X678521380Y-199016857D02*
X678521380Y-199635904D01*
X678902333Y-199302571D01*
X678902333Y-199445428D01*
X678949952Y-199540666D01*
X678997571Y-199588285D01*
X679092809Y-199635904D01*
X679330904Y-199635904D01*
X679426142Y-199588285D01*
X679473761Y-199540666D01*
X679521380Y-199445428D01*
X679521380Y-199159714D01*
X679473761Y-199064476D01*
X679426142Y-199016857D01*
X737212380Y-177275333D02*
X736736190Y-176942000D01*
X737212380Y-176703904D02*
X736212380Y-176703904D01*
X736212380Y-177084857D01*
X736260000Y-177180095D01*
X736307619Y-177227714D01*
X736402857Y-177275333D01*
X736545714Y-177275333D01*
X736640952Y-177227714D01*
X736688571Y-177180095D01*
X736736190Y-177084857D01*
X736736190Y-176703904D01*
X736640952Y-177846761D02*
X736593333Y-177751523D01*
X736545714Y-177703904D01*
X736450476Y-177656285D01*
X736402857Y-177656285D01*
X736307619Y-177703904D01*
X736260000Y-177751523D01*
X736212380Y-177846761D01*
X736212380Y-178037238D01*
X736260000Y-178132476D01*
X736307619Y-178180095D01*
X736402857Y-178227714D01*
X736450476Y-178227714D01*
X736545714Y-178180095D01*
X736593333Y-178132476D01*
X736640952Y-178037238D01*
X736640952Y-177846761D01*
X736688571Y-177751523D01*
X736736190Y-177703904D01*
X736831428Y-177656285D01*
X737021904Y-177656285D01*
X737117142Y-177703904D01*
X737164761Y-177751523D01*
X737212380Y-177846761D01*
X737212380Y-178037238D01*
X737164761Y-178132476D01*
X737117142Y-178180095D01*
X737021904Y-178227714D01*
X736831428Y-178227714D01*
X736736190Y-178180095D01*
X736688571Y-178132476D01*
X736640952Y-178037238D01*
X732631238Y-226226619D02*
X732726476Y-226179000D01*
X732821714Y-226083761D01*
X732964571Y-225940904D01*
X733059809Y-225893285D01*
X733155047Y-225893285D01*
X733107428Y-226131380D02*
X733202666Y-226083761D01*
X733297904Y-225988523D01*
X733345523Y-225798047D01*
X733345523Y-225464714D01*
X733297904Y-225274238D01*
X733202666Y-225179000D01*
X733107428Y-225131380D01*
X732916952Y-225131380D01*
X732821714Y-225179000D01*
X732726476Y-225274238D01*
X732678857Y-225464714D01*
X732678857Y-225798047D01*
X732726476Y-225988523D01*
X732821714Y-226083761D01*
X732916952Y-226131380D01*
X733107428Y-226131380D01*
X731821714Y-225131380D02*
X732012190Y-225131380D01*
X732107428Y-225179000D01*
X732155047Y-225226619D01*
X732250285Y-225369476D01*
X732297904Y-225559952D01*
X732297904Y-225940904D01*
X732250285Y-226036142D01*
X732202666Y-226083761D01*
X732107428Y-226131380D01*
X731916952Y-226131380D01*
X731821714Y-226083761D01*
X731774095Y-226036142D01*
X731726476Y-225940904D01*
X731726476Y-225702809D01*
X731774095Y-225607571D01*
X731821714Y-225559952D01*
X731916952Y-225512333D01*
X732107428Y-225512333D01*
X732202666Y-225559952D01*
X732250285Y-225607571D01*
X732297904Y-225702809D01*
X668345380Y-193189904D02*
X667345380Y-193189904D01*
X667345380Y-193428000D01*
X667393000Y-193570857D01*
X667488238Y-193666095D01*
X667583476Y-193713714D01*
X667773952Y-193761333D01*
X667916809Y-193761333D01*
X668107285Y-193713714D01*
X668202523Y-193666095D01*
X668297761Y-193570857D01*
X668345380Y-193428000D01*
X668345380Y-193189904D01*
X667773952Y-194332761D02*
X667726333Y-194237523D01*
X667678714Y-194189904D01*
X667583476Y-194142285D01*
X667535857Y-194142285D01*
X667440619Y-194189904D01*
X667393000Y-194237523D01*
X667345380Y-194332761D01*
X667345380Y-194523238D01*
X667393000Y-194618476D01*
X667440619Y-194666095D01*
X667535857Y-194713714D01*
X667583476Y-194713714D01*
X667678714Y-194666095D01*
X667726333Y-194618476D01*
X667773952Y-194523238D01*
X667773952Y-194332761D01*
X667821571Y-194237523D01*
X667869190Y-194189904D01*
X667964428Y-194142285D01*
X668154904Y-194142285D01*
X668250142Y-194189904D01*
X668297761Y-194237523D01*
X668345380Y-194332761D01*
X668345380Y-194523238D01*
X668297761Y-194618476D01*
X668250142Y-194666095D01*
X668154904Y-194713714D01*
X667964428Y-194713714D01*
X667869190Y-194666095D01*
X667821571Y-194618476D01*
X667773952Y-194523238D01*
X731686666Y-183712142D02*
X731734285Y-183759761D01*
X731877142Y-183807380D01*
X731972380Y-183807380D01*
X732115238Y-183759761D01*
X732210476Y-183664523D01*
X732258095Y-183569285D01*
X732305714Y-183378809D01*
X732305714Y-183235952D01*
X732258095Y-183045476D01*
X732210476Y-182950238D01*
X732115238Y-182855000D01*
X731972380Y-182807380D01*
X731877142Y-182807380D01*
X731734285Y-182855000D01*
X731686666Y-182902619D01*
X731353333Y-182807380D02*
X730734285Y-182807380D01*
X731067619Y-183188333D01*
X730924761Y-183188333D01*
X730829523Y-183235952D01*
X730781904Y-183283571D01*
X730734285Y-183378809D01*
X730734285Y-183616904D01*
X730781904Y-183712142D01*
X730829523Y-183759761D01*
X730924761Y-183807380D01*
X731210476Y-183807380D01*
X731305714Y-183759761D01*
X731353333Y-183712142D01*
X737212380Y-188428333D02*
X736736190Y-188095000D01*
X737212380Y-187856904D02*
X736212380Y-187856904D01*
X736212380Y-188237857D01*
X736260000Y-188333095D01*
X736307619Y-188380714D01*
X736402857Y-188428333D01*
X736545714Y-188428333D01*
X736640952Y-188380714D01*
X736688571Y-188333095D01*
X736736190Y-188237857D01*
X736736190Y-187856904D01*
X737212380Y-188904523D02*
X737212380Y-189095000D01*
X737164761Y-189190238D01*
X737117142Y-189237857D01*
X736974285Y-189333095D01*
X736783809Y-189380714D01*
X736402857Y-189380714D01*
X736307619Y-189333095D01*
X736260000Y-189285476D01*
X736212380Y-189190238D01*
X736212380Y-188999761D01*
X736260000Y-188904523D01*
X736307619Y-188856904D01*
X736402857Y-188809285D01*
X736640952Y-188809285D01*
X736736190Y-188856904D01*
X736783809Y-188904523D01*
X736831428Y-188999761D01*
X736831428Y-189190238D01*
X736783809Y-189285476D01*
X736736190Y-189333095D01*
X736640952Y-189380714D01*
X730067380Y-168171904D02*
X729067380Y-168171904D01*
X729067380Y-168410000D01*
X729115000Y-168552857D01*
X729210238Y-168648095D01*
X729305476Y-168695714D01*
X729495952Y-168743333D01*
X729638809Y-168743333D01*
X729829285Y-168695714D01*
X729924523Y-168648095D01*
X730019761Y-168552857D01*
X730067380Y-168410000D01*
X730067380Y-168171904D01*
X730067380Y-169695714D02*
X730067380Y-169124285D01*
X730067380Y-169410000D02*
X729067380Y-169410000D01*
X729210238Y-169314761D01*
X729305476Y-169219523D01*
X729353095Y-169124285D01*
X667202380Y-212717142D02*
X666726190Y-212383809D01*
X667202380Y-212145714D02*
X666202380Y-212145714D01*
X666202380Y-212526666D01*
X666250000Y-212621904D01*
X666297619Y-212669523D01*
X666392857Y-212717142D01*
X666535714Y-212717142D01*
X666630952Y-212669523D01*
X666678571Y-212621904D01*
X666726190Y-212526666D01*
X666726190Y-212145714D01*
X667202380Y-213669523D02*
X667202380Y-213098095D01*
X667202380Y-213383809D02*
X666202380Y-213383809D01*
X666345238Y-213288571D01*
X666440476Y-213193333D01*
X666488095Y-213098095D01*
X666202380Y-214574285D02*
X666202380Y-214098095D01*
X666678571Y-214050476D01*
X666630952Y-214098095D01*
X666583333Y-214193333D01*
X666583333Y-214431428D01*
X666630952Y-214526666D01*
X666678571Y-214574285D01*
X666773809Y-214621904D01*
X667011904Y-214621904D01*
X667107142Y-214574285D01*
X667154761Y-214526666D01*
X667202380Y-214431428D01*
X667202380Y-214193333D01*
X667154761Y-214098095D01*
X667107142Y-214050476D01*
X732631238Y-191936619D02*
X732726476Y-191889000D01*
X732821714Y-191793761D01*
X732964571Y-191650904D01*
X733059809Y-191603285D01*
X733155047Y-191603285D01*
X733107428Y-191841380D02*
X733202666Y-191793761D01*
X733297904Y-191698523D01*
X733345523Y-191508047D01*
X733345523Y-191174714D01*
X733297904Y-190984238D01*
X733202666Y-190889000D01*
X733107428Y-190841380D01*
X732916952Y-190841380D01*
X732821714Y-190889000D01*
X732726476Y-190984238D01*
X732678857Y-191174714D01*
X732678857Y-191508047D01*
X732726476Y-191698523D01*
X732821714Y-191793761D01*
X732916952Y-191841380D01*
X733107428Y-191841380D01*
X732345523Y-190841380D02*
X731726476Y-190841380D01*
X732059809Y-191222333D01*
X731916952Y-191222333D01*
X731821714Y-191269952D01*
X731774095Y-191317571D01*
X731726476Y-191412809D01*
X731726476Y-191650904D01*
X731774095Y-191746142D01*
X731821714Y-191793761D01*
X731916952Y-191841380D01*
X732202666Y-191841380D01*
X732297904Y-191793761D01*
X732345523Y-191746142D01*
X732631238Y-214415619D02*
X732726476Y-214368000D01*
X732821714Y-214272761D01*
X732964571Y-214129904D01*
X733059809Y-214082285D01*
X733155047Y-214082285D01*
X733107428Y-214320380D02*
X733202666Y-214272761D01*
X733297904Y-214177523D01*
X733345523Y-213987047D01*
X733345523Y-213653714D01*
X733297904Y-213463238D01*
X733202666Y-213368000D01*
X733107428Y-213320380D01*
X732916952Y-213320380D01*
X732821714Y-213368000D01*
X732726476Y-213463238D01*
X732678857Y-213653714D01*
X732678857Y-213987047D01*
X732726476Y-214177523D01*
X732821714Y-214272761D01*
X732916952Y-214320380D01*
X733107428Y-214320380D01*
X731774095Y-213320380D02*
X732250285Y-213320380D01*
X732297904Y-213796571D01*
X732250285Y-213748952D01*
X732155047Y-213701333D01*
X731916952Y-213701333D01*
X731821714Y-213748952D01*
X731774095Y-213796571D01*
X731726476Y-213891809D01*
X731726476Y-214129904D01*
X731774095Y-214225142D01*
X731821714Y-214272761D01*
X731916952Y-214320380D01*
X732155047Y-214320380D01*
X732250285Y-214272761D01*
X732297904Y-214225142D01*
X742380666Y-191587380D02*
X742714000Y-191111190D01*
X742952095Y-191587380D02*
X742952095Y-190587380D01*
X742571142Y-190587380D01*
X742475904Y-190635000D01*
X742428285Y-190682619D01*
X742380666Y-190777857D01*
X742380666Y-190920714D01*
X742428285Y-191015952D01*
X742475904Y-191063571D01*
X742571142Y-191111190D01*
X742952095Y-191111190D01*
X742047333Y-190587380D02*
X741428285Y-190587380D01*
X741761619Y-190968333D01*
X741618761Y-190968333D01*
X741523523Y-191015952D01*
X741475904Y-191063571D01*
X741428285Y-191158809D01*
X741428285Y-191396904D01*
X741475904Y-191492142D01*
X741523523Y-191539761D01*
X741618761Y-191587380D01*
X741904476Y-191587380D01*
X741999714Y-191539761D01*
X742047333Y-191492142D01*
X731586666Y-172282142D02*
X731634285Y-172329761D01*
X731777142Y-172377380D01*
X731872380Y-172377380D01*
X732015238Y-172329761D01*
X732110476Y-172234523D01*
X732158095Y-172139285D01*
X732205714Y-171948809D01*
X732205714Y-171805952D01*
X732158095Y-171615476D01*
X732110476Y-171520238D01*
X732015238Y-171425000D01*
X731872380Y-171377380D01*
X731777142Y-171377380D01*
X731634285Y-171425000D01*
X731586666Y-171472619D01*
X731205714Y-171472619D02*
X731158095Y-171425000D01*
X731062857Y-171377380D01*
X730824761Y-171377380D01*
X730729523Y-171425000D01*
X730681904Y-171472619D01*
X730634285Y-171567857D01*
X730634285Y-171663095D01*
X730681904Y-171805952D01*
X731253333Y-172377380D01*
X730634285Y-172377380D01*
X688961857Y-228547142D02*
X689009476Y-228594761D01*
X689152333Y-228642380D01*
X689247571Y-228642380D01*
X689390428Y-228594761D01*
X689485666Y-228499523D01*
X689533285Y-228404285D01*
X689580904Y-228213809D01*
X689580904Y-228070952D01*
X689533285Y-227880476D01*
X689485666Y-227785238D01*
X689390428Y-227690000D01*
X689247571Y-227642380D01*
X689152333Y-227642380D01*
X689009476Y-227690000D01*
X688961857Y-227737619D01*
X688009476Y-228642380D02*
X688580904Y-228642380D01*
X688295190Y-228642380D02*
X688295190Y-227642380D01*
X688390428Y-227785238D01*
X688485666Y-227880476D01*
X688580904Y-227928095D01*
X687057095Y-228642380D02*
X687628523Y-228642380D01*
X687342809Y-228642380D02*
X687342809Y-227642380D01*
X687438047Y-227785238D01*
X687533285Y-227880476D01*
X687628523Y-227928095D01*
X737212380Y-199382142D02*
X736736190Y-199048809D01*
X737212380Y-198810714D02*
X736212380Y-198810714D01*
X736212380Y-199191666D01*
X736260000Y-199286904D01*
X736307619Y-199334523D01*
X736402857Y-199382142D01*
X736545714Y-199382142D01*
X736640952Y-199334523D01*
X736688571Y-199286904D01*
X736736190Y-199191666D01*
X736736190Y-198810714D01*
X737212380Y-200334523D02*
X737212380Y-199763095D01*
X737212380Y-200048809D02*
X736212380Y-200048809D01*
X736355238Y-199953571D01*
X736450476Y-199858333D01*
X736498095Y-199763095D01*
X736212380Y-200953571D02*
X736212380Y-201048809D01*
X736260000Y-201144047D01*
X736307619Y-201191666D01*
X736402857Y-201239285D01*
X736593333Y-201286904D01*
X736831428Y-201286904D01*
X737021904Y-201239285D01*
X737117142Y-201191666D01*
X737164761Y-201144047D01*
X737212380Y-201048809D01*
X737212380Y-200953571D01*
X737164761Y-200858333D01*
X737117142Y-200810714D01*
X737021904Y-200763095D01*
X736831428Y-200715476D01*
X736593333Y-200715476D01*
X736402857Y-200763095D01*
X736307619Y-200810714D01*
X736260000Y-200858333D01*
X736212380Y-200953571D01*
X688485666Y-167587142D02*
X688533285Y-167634761D01*
X688676142Y-167682380D01*
X688771380Y-167682380D01*
X688914238Y-167634761D01*
X689009476Y-167539523D01*
X689057095Y-167444285D01*
X689104714Y-167253809D01*
X689104714Y-167110952D01*
X689057095Y-166920476D01*
X689009476Y-166825238D01*
X688914238Y-166730000D01*
X688771380Y-166682380D01*
X688676142Y-166682380D01*
X688533285Y-166730000D01*
X688485666Y-166777619D01*
X688009476Y-167682380D02*
X687819000Y-167682380D01*
X687723761Y-167634761D01*
X687676142Y-167587142D01*
X687580904Y-167444285D01*
X687533285Y-167253809D01*
X687533285Y-166872857D01*
X687580904Y-166777619D01*
X687628523Y-166730000D01*
X687723761Y-166682380D01*
X687914238Y-166682380D01*
X688009476Y-166730000D01*
X688057095Y-166777619D01*
X688104714Y-166872857D01*
X688104714Y-167110952D01*
X688057095Y-167206190D01*
X688009476Y-167253809D01*
X687914238Y-167301428D01*
X687723761Y-167301428D01*
X687628523Y-167253809D01*
X687580904Y-167206190D01*
X687533285Y-167110952D01*
X742354666Y-225877380D02*
X742688000Y-225401190D01*
X742926095Y-225877380D02*
X742926095Y-224877380D01*
X742545142Y-224877380D01*
X742449904Y-224925000D01*
X742402285Y-224972619D01*
X742354666Y-225067857D01*
X742354666Y-225210714D01*
X742402285Y-225305952D01*
X742449904Y-225353571D01*
X742545142Y-225401190D01*
X742926095Y-225401190D01*
X741497523Y-224877380D02*
X741688000Y-224877380D01*
X741783238Y-224925000D01*
X741830857Y-224972619D01*
X741926095Y-225115476D01*
X741973714Y-225305952D01*
X741973714Y-225686904D01*
X741926095Y-225782142D01*
X741878476Y-225829761D01*
X741783238Y-225877380D01*
X741592761Y-225877380D01*
X741497523Y-225829761D01*
X741449904Y-225782142D01*
X741402285Y-225686904D01*
X741402285Y-225448809D01*
X741449904Y-225353571D01*
X741497523Y-225305952D01*
X741592761Y-225258333D01*
X741783238Y-225258333D01*
X741878476Y-225305952D01*
X741926095Y-225353571D01*
X741973714Y-225448809D01*
X730067380Y-179601904D02*
X729067380Y-179601904D01*
X729067380Y-179840000D01*
X729115000Y-179982857D01*
X729210238Y-180078095D01*
X729305476Y-180125714D01*
X729495952Y-180173333D01*
X729638809Y-180173333D01*
X729829285Y-180125714D01*
X729924523Y-180078095D01*
X730019761Y-179982857D01*
X730067380Y-179840000D01*
X730067380Y-179601904D01*
X729162619Y-180554285D02*
X729115000Y-180601904D01*
X729067380Y-180697142D01*
X729067380Y-180935238D01*
X729115000Y-181030476D01*
X729162619Y-181078095D01*
X729257857Y-181125714D01*
X729353095Y-181125714D01*
X729495952Y-181078095D01*
X730067380Y-180506666D01*
X730067380Y-181125714D01*
X662757380Y-192587714D02*
X661757380Y-192587714D01*
X661757380Y-192825809D01*
X661805000Y-192968666D01*
X661900238Y-193063904D01*
X661995476Y-193111523D01*
X662185952Y-193159142D01*
X662328809Y-193159142D01*
X662519285Y-193111523D01*
X662614523Y-193063904D01*
X662709761Y-192968666D01*
X662757380Y-192825809D01*
X662757380Y-192587714D01*
X662757380Y-194111523D02*
X662757380Y-193540095D01*
X662757380Y-193825809D02*
X661757380Y-193825809D01*
X661900238Y-193730571D01*
X661995476Y-193635333D01*
X662043095Y-193540095D01*
X661757380Y-194730571D02*
X661757380Y-194825809D01*
X661805000Y-194921047D01*
X661852619Y-194968666D01*
X661947857Y-195016285D01*
X662138333Y-195063904D01*
X662376428Y-195063904D01*
X662566904Y-195016285D01*
X662662142Y-194968666D01*
X662709761Y-194921047D01*
X662757380Y-194825809D01*
X662757380Y-194730571D01*
X662709761Y-194635333D01*
X662662142Y-194587714D01*
X662566904Y-194540095D01*
X662376428Y-194492476D01*
X662138333Y-194492476D01*
X661947857Y-194540095D01*
X661852619Y-194587714D01*
X661805000Y-194635333D01*
X661757380Y-194730571D01*
X679045142Y-185253333D02*
X679092761Y-185205714D01*
X679140380Y-185062857D01*
X679140380Y-184967619D01*
X679092761Y-184824761D01*
X678997523Y-184729523D01*
X678902285Y-184681904D01*
X678711809Y-184634285D01*
X678568952Y-184634285D01*
X678378476Y-184681904D01*
X678283238Y-184729523D01*
X678188000Y-184824761D01*
X678140380Y-184967619D01*
X678140380Y-185062857D01*
X678188000Y-185205714D01*
X678235619Y-185253333D01*
X678568952Y-185824761D02*
X678521333Y-185729523D01*
X678473714Y-185681904D01*
X678378476Y-185634285D01*
X678330857Y-185634285D01*
X678235619Y-185681904D01*
X678188000Y-185729523D01*
X678140380Y-185824761D01*
X678140380Y-186015238D01*
X678188000Y-186110476D01*
X678235619Y-186158095D01*
X678330857Y-186205714D01*
X678378476Y-186205714D01*
X678473714Y-186158095D01*
X678521333Y-186110476D01*
X678568952Y-186015238D01*
X678568952Y-185824761D01*
X678616571Y-185729523D01*
X678664190Y-185681904D01*
X678759428Y-185634285D01*
X678949904Y-185634285D01*
X679045142Y-185681904D01*
X679092761Y-185729523D01*
X679140380Y-185824761D01*
X679140380Y-186015238D01*
X679092761Y-186110476D01*
X679045142Y-186158095D01*
X678949904Y-186205714D01*
X678759428Y-186205714D01*
X678664190Y-186158095D01*
X678616571Y-186110476D01*
X678568952Y-186015238D01*
X662852380Y-187221904D02*
X661852380Y-187221904D01*
X661852380Y-187460000D01*
X661900000Y-187602857D01*
X661995238Y-187698095D01*
X662090476Y-187745714D01*
X662280952Y-187793333D01*
X662423809Y-187793333D01*
X662614285Y-187745714D01*
X662709523Y-187698095D01*
X662804761Y-187602857D01*
X662852380Y-187460000D01*
X662852380Y-187221904D01*
X662852380Y-188269523D02*
X662852380Y-188460000D01*
X662804761Y-188555238D01*
X662757142Y-188602857D01*
X662614285Y-188698095D01*
X662423809Y-188745714D01*
X662042857Y-188745714D01*
X661947619Y-188698095D01*
X661900000Y-188650476D01*
X661852380Y-188555238D01*
X661852380Y-188364761D01*
X661900000Y-188269523D01*
X661947619Y-188221904D01*
X662042857Y-188174285D01*
X662280952Y-188174285D01*
X662376190Y-188221904D01*
X662423809Y-188269523D01*
X662471428Y-188364761D01*
X662471428Y-188555238D01*
X662423809Y-188650476D01*
X662376190Y-188698095D01*
X662280952Y-188745714D01*
X701111380Y-166997142D02*
X700635190Y-166663809D01*
X701111380Y-166425714D02*
X700111380Y-166425714D01*
X700111380Y-166806666D01*
X700159000Y-166901904D01*
X700206619Y-166949523D01*
X700301857Y-166997142D01*
X700444714Y-166997142D01*
X700539952Y-166949523D01*
X700587571Y-166901904D01*
X700635190Y-166806666D01*
X700635190Y-166425714D01*
X701111380Y-167949523D02*
X701111380Y-167378095D01*
X701111380Y-167663809D02*
X700111380Y-167663809D01*
X700254238Y-167568571D01*
X700349476Y-167473333D01*
X700397095Y-167378095D01*
X700111380Y-168282857D02*
X700111380Y-168949523D01*
X701111380Y-168520952D01*
X679838857Y-210468380D02*
X680172190Y-209992190D01*
X680410285Y-210468380D02*
X680410285Y-209468380D01*
X680029333Y-209468380D01*
X679934095Y-209516000D01*
X679886476Y-209563619D01*
X679838857Y-209658857D01*
X679838857Y-209801714D01*
X679886476Y-209896952D01*
X679934095Y-209944571D01*
X680029333Y-209992190D01*
X680410285Y-209992190D01*
X678886476Y-210468380D02*
X679457904Y-210468380D01*
X679172190Y-210468380D02*
X679172190Y-209468380D01*
X679267428Y-209611238D01*
X679362666Y-209706476D01*
X679457904Y-209754095D01*
X678029333Y-209468380D02*
X678219809Y-209468380D01*
X678315047Y-209516000D01*
X678362666Y-209563619D01*
X678457904Y-209706476D01*
X678505523Y-209896952D01*
X678505523Y-210277904D01*
X678457904Y-210373142D01*
X678410285Y-210420761D01*
X678315047Y-210468380D01*
X678124571Y-210468380D01*
X678029333Y-210420761D01*
X677981714Y-210373142D01*
X677934095Y-210277904D01*
X677934095Y-210039809D01*
X677981714Y-209944571D01*
X678029333Y-209896952D01*
X678124571Y-209849333D01*
X678315047Y-209849333D01*
X678410285Y-209896952D01*
X678457904Y-209944571D01*
X678505523Y-210039809D01*
X742354666Y-168854380D02*
X742688000Y-168378190D01*
X742926095Y-168854380D02*
X742926095Y-167854380D01*
X742545142Y-167854380D01*
X742449904Y-167902000D01*
X742402285Y-167949619D01*
X742354666Y-168044857D01*
X742354666Y-168187714D01*
X742402285Y-168282952D01*
X742449904Y-168330571D01*
X742545142Y-168378190D01*
X742926095Y-168378190D01*
X741402285Y-168854380D02*
X741973714Y-168854380D01*
X741688000Y-168854380D02*
X741688000Y-167854380D01*
X741783238Y-167997238D01*
X741878476Y-168092476D01*
X741973714Y-168140095D01*
X742354666Y-203017380D02*
X742688000Y-202541190D01*
X742926095Y-203017380D02*
X742926095Y-202017380D01*
X742545142Y-202017380D01*
X742449904Y-202065000D01*
X742402285Y-202112619D01*
X742354666Y-202207857D01*
X742354666Y-202350714D01*
X742402285Y-202445952D01*
X742449904Y-202493571D01*
X742545142Y-202541190D01*
X742926095Y-202541190D01*
X741497523Y-202350714D02*
X741497523Y-203017380D01*
X741735619Y-201969761D02*
X741973714Y-202684047D01*
X741354666Y-202684047D01*
X732504238Y-168949619D02*
X732599476Y-168902000D01*
X732694714Y-168806761D01*
X732837571Y-168663904D01*
X732932809Y-168616285D01*
X733028047Y-168616285D01*
X732980428Y-168854380D02*
X733075666Y-168806761D01*
X733170904Y-168711523D01*
X733218523Y-168521047D01*
X733218523Y-168187714D01*
X733170904Y-167997238D01*
X733075666Y-167902000D01*
X732980428Y-167854380D01*
X732789952Y-167854380D01*
X732694714Y-167902000D01*
X732599476Y-167997238D01*
X732551857Y-168187714D01*
X732551857Y-168521047D01*
X732599476Y-168711523D01*
X732694714Y-168806761D01*
X732789952Y-168854380D01*
X732980428Y-168854380D01*
X731599476Y-168854380D02*
X732170904Y-168854380D01*
X731885190Y-168854380D02*
X731885190Y-167854380D01*
X731980428Y-167997238D01*
X732075666Y-168092476D01*
X732170904Y-168140095D01*
X730162380Y-191031904D02*
X729162380Y-191031904D01*
X729162380Y-191270000D01*
X729210000Y-191412857D01*
X729305238Y-191508095D01*
X729400476Y-191555714D01*
X729590952Y-191603333D01*
X729733809Y-191603333D01*
X729924285Y-191555714D01*
X730019523Y-191508095D01*
X730114761Y-191412857D01*
X730162380Y-191270000D01*
X730162380Y-191031904D01*
X729162380Y-191936666D02*
X729162380Y-192555714D01*
X729543333Y-192222380D01*
X729543333Y-192365238D01*
X729590952Y-192460476D01*
X729638571Y-192508095D01*
X729733809Y-192555714D01*
X729971904Y-192555714D01*
X730067142Y-192508095D01*
X730114761Y-192460476D01*
X730162380Y-192365238D01*
X730162380Y-192079523D01*
X730114761Y-191984285D01*
X730067142Y-191936666D01*
X730067380Y-213891904D02*
X729067380Y-213891904D01*
X729067380Y-214130000D01*
X729115000Y-214272857D01*
X729210238Y-214368095D01*
X729305476Y-214415714D01*
X729495952Y-214463333D01*
X729638809Y-214463333D01*
X729829285Y-214415714D01*
X729924523Y-214368095D01*
X730019761Y-214272857D01*
X730067380Y-214130000D01*
X730067380Y-213891904D01*
X729067380Y-215368095D02*
X729067380Y-214891904D01*
X729543571Y-214844285D01*
X729495952Y-214891904D01*
X729448333Y-214987142D01*
X729448333Y-215225238D01*
X729495952Y-215320476D01*
X729543571Y-215368095D01*
X729638809Y-215415714D01*
X729876904Y-215415714D01*
X729972142Y-215368095D01*
X730019761Y-215320476D01*
X730067380Y-215225238D01*
X730067380Y-214987142D01*
X730019761Y-214891904D01*
X729972142Y-214844285D01*
X737974380Y-165568333D02*
X737498190Y-165235000D01*
X737974380Y-164996904D02*
X736974380Y-164996904D01*
X736974380Y-165377857D01*
X737022000Y-165473095D01*
X737069619Y-165520714D01*
X737164857Y-165568333D01*
X737307714Y-165568333D01*
X737402952Y-165520714D01*
X737450571Y-165473095D01*
X737498190Y-165377857D01*
X737498190Y-164996904D01*
X736974380Y-165901666D02*
X736974380Y-166568333D01*
X737974380Y-166139761D01*
X737212380Y-210558142D02*
X736736190Y-210224809D01*
X737212380Y-209986714D02*
X736212380Y-209986714D01*
X736212380Y-210367666D01*
X736260000Y-210462904D01*
X736307619Y-210510523D01*
X736402857Y-210558142D01*
X736545714Y-210558142D01*
X736640952Y-210510523D01*
X736688571Y-210462904D01*
X736736190Y-210367666D01*
X736736190Y-209986714D01*
X737212380Y-211510523D02*
X737212380Y-210939095D01*
X737212380Y-211224809D02*
X736212380Y-211224809D01*
X736355238Y-211129571D01*
X736450476Y-211034333D01*
X736498095Y-210939095D01*
X737212380Y-212462904D02*
X737212380Y-211891476D01*
X737212380Y-212177190D02*
X736212380Y-212177190D01*
X736355238Y-212081952D01*
X736450476Y-211986714D01*
X736498095Y-211891476D01*
X732631238Y-180760619D02*
X732726476Y-180713000D01*
X732821714Y-180617761D01*
X732964571Y-180474904D01*
X733059809Y-180427285D01*
X733155047Y-180427285D01*
X733107428Y-180665380D02*
X733202666Y-180617761D01*
X733297904Y-180522523D01*
X733345523Y-180332047D01*
X733345523Y-179998714D01*
X733297904Y-179808238D01*
X733202666Y-179713000D01*
X733107428Y-179665380D01*
X732916952Y-179665380D01*
X732821714Y-179713000D01*
X732726476Y-179808238D01*
X732678857Y-179998714D01*
X732678857Y-180332047D01*
X732726476Y-180522523D01*
X732821714Y-180617761D01*
X732916952Y-180665380D01*
X733107428Y-180665380D01*
X732297904Y-179760619D02*
X732250285Y-179713000D01*
X732155047Y-179665380D01*
X731916952Y-179665380D01*
X731821714Y-179713000D01*
X731774095Y-179760619D01*
X731726476Y-179855857D01*
X731726476Y-179951095D01*
X731774095Y-180093952D01*
X732345523Y-180665380D01*
X731726476Y-180665380D01*
X731686666Y-195142142D02*
X731734285Y-195189761D01*
X731877142Y-195237380D01*
X731972380Y-195237380D01*
X732115238Y-195189761D01*
X732210476Y-195094523D01*
X732258095Y-194999285D01*
X732305714Y-194808809D01*
X732305714Y-194665952D01*
X732258095Y-194475476D01*
X732210476Y-194380238D01*
X732115238Y-194285000D01*
X731972380Y-194237380D01*
X731877142Y-194237380D01*
X731734285Y-194285000D01*
X731686666Y-194332619D01*
X730829523Y-194570714D02*
X730829523Y-195237380D01*
X731067619Y-194189761D02*
X731305714Y-194904047D01*
X730686666Y-194904047D01*
X742354666Y-179903380D02*
X742688000Y-179427190D01*
X742926095Y-179903380D02*
X742926095Y-178903380D01*
X742545142Y-178903380D01*
X742449904Y-178951000D01*
X742402285Y-178998619D01*
X742354666Y-179093857D01*
X742354666Y-179236714D01*
X742402285Y-179331952D01*
X742449904Y-179379571D01*
X742545142Y-179427190D01*
X742926095Y-179427190D01*
X741973714Y-178998619D02*
X741926095Y-178951000D01*
X741830857Y-178903380D01*
X741592761Y-178903380D01*
X741497523Y-178951000D01*
X741449904Y-178998619D01*
X741402285Y-179093857D01*
X741402285Y-179189095D01*
X741449904Y-179331952D01*
X742021333Y-179903380D01*
X741402285Y-179903380D01*
D11*
X646555000Y-227248267D02*
X646555000Y-226955733D01*
X647575000Y-227248267D02*
X647575000Y-226955733D01*
X726710000Y-202275000D02*
X726710000Y-198375000D01*
X728710000Y-202275000D02*
X728710000Y-198375000D01*
X728710000Y-202275000D02*
X726710000Y-202275000D01*
X728710000Y-225135000D02*
X728710000Y-221235000D01*
X726710000Y-225135000D02*
X726710000Y-221235000D01*
X728710000Y-225135000D02*
X726710000Y-225135000D01*
X731666267Y-218565000D02*
X731373733Y-218565000D01*
X731666267Y-219585000D02*
X731373733Y-219585000D01*
X664734000Y-185709000D02*
X664734000Y-189609000D01*
X664734000Y-185709000D02*
X666734000Y-185709000D01*
X666734000Y-185709000D02*
X666734000Y-189609000D01*
X697590000Y-227872936D02*
X697590000Y-229327064D01*
X699410000Y-227872936D02*
X699410000Y-229327064D01*
X697590000Y-212632936D02*
X697590000Y-214087064D01*
X699410000Y-212632936D02*
X699410000Y-214087064D01*
X664993000Y-167166936D02*
X664993000Y-168621064D01*
X663173000Y-167166936D02*
X663173000Y-168621064D01*
X731520000Y-201585000D02*
X732170000Y-201585000D01*
X731520000Y-198465000D02*
X733195000Y-198465000D01*
X731520000Y-201585000D02*
X730870000Y-201585000D01*
X731520000Y-198465000D02*
X730870000Y-198465000D01*
X731666267Y-162435000D02*
X731373733Y-162435000D01*
X731666267Y-161415000D02*
X731373733Y-161415000D01*
X742911737Y-212556000D02*
X741464263Y-212556000D01*
X742911737Y-209846000D02*
X741464263Y-209846000D01*
X731666267Y-207135000D02*
X731373733Y-207135000D01*
X731666267Y-208155000D02*
X731373733Y-208155000D01*
X688601252Y-215365000D02*
X688078748Y-215365000D01*
X688601252Y-213895000D02*
X688078748Y-213895000D01*
X735852500Y-223139724D02*
X735852500Y-222630276D01*
X734807500Y-223139724D02*
X734807500Y-222630276D01*
X730125000Y-232898733D02*
X730125000Y-233191267D01*
X729105000Y-232898733D02*
X729105000Y-233191267D01*
X676000000Y-197646936D02*
X676000000Y-199101064D01*
X677820000Y-197646936D02*
X677820000Y-199101064D01*
X734807500Y-177696724D02*
X734807500Y-177187276D01*
X735852500Y-177696724D02*
X735852500Y-177187276D01*
X731520000Y-224445000D02*
X732170000Y-224445000D01*
X731520000Y-221325000D02*
X733195000Y-221325000D01*
X731520000Y-224445000D02*
X730870000Y-224445000D01*
X731520000Y-221325000D02*
X730870000Y-221325000D01*
X664734000Y-191678000D02*
X664734000Y-195578000D01*
X666734000Y-191678000D02*
X666734000Y-195578000D01*
X664734000Y-191678000D02*
X666734000Y-191678000D01*
X731666267Y-184275000D02*
X731373733Y-184275000D01*
X731666267Y-185295000D02*
X731373733Y-185295000D01*
X735852500Y-188849724D02*
X735852500Y-188340276D01*
X734807500Y-188849724D02*
X734807500Y-188340276D01*
X726710000Y-167985000D02*
X726710000Y-164085000D01*
X728710000Y-167985000D02*
X726710000Y-167985000D01*
X728710000Y-167985000D02*
X728710000Y-164085000D01*
X663300000Y-212632936D02*
X663300000Y-214087064D01*
X665120000Y-212632936D02*
X665120000Y-214087064D01*
X731520000Y-190155000D02*
X730870000Y-190155000D01*
X731520000Y-190155000D02*
X732170000Y-190155000D01*
X731520000Y-187035000D02*
X733195000Y-187035000D01*
X731520000Y-187035000D02*
X730870000Y-187035000D01*
X731520000Y-209641000D02*
X730870000Y-209641000D01*
X731520000Y-212761000D02*
X732170000Y-212761000D01*
X731520000Y-212761000D02*
X730870000Y-212761000D01*
X731520000Y-209641000D02*
X733195000Y-209641000D01*
X742911737Y-187240000D02*
X741464263Y-187240000D01*
X742911737Y-189950000D02*
X741464263Y-189950000D01*
X731566267Y-172845000D02*
X731273733Y-172845000D01*
X731566267Y-173865000D02*
X731273733Y-173865000D01*
X688580252Y-229135000D02*
X688057748Y-229135000D01*
X688580252Y-230605000D02*
X688057748Y-230605000D01*
X734807500Y-200279724D02*
X734807500Y-199770276D01*
X735852500Y-200279724D02*
X735852500Y-199770276D01*
X688580252Y-168175000D02*
X688057748Y-168175000D01*
X688580252Y-169645000D02*
X688057748Y-169645000D01*
X742911737Y-221530000D02*
X741464263Y-221530000D01*
X742911737Y-224240000D02*
X741464263Y-224240000D01*
X726710000Y-179415000D02*
X726710000Y-175515000D01*
X728710000Y-179415000D02*
X726710000Y-179415000D01*
X728710000Y-179415000D02*
X728710000Y-175515000D01*
X661400000Y-196178000D02*
X661400000Y-192278000D01*
X661400000Y-196178000D02*
X659400000Y-196178000D01*
X659400000Y-196178000D02*
X659400000Y-192278000D01*
X676175000Y-185158748D02*
X676175000Y-185681252D01*
X677645000Y-185158748D02*
X677645000Y-185681252D01*
X661400000Y-190210000D02*
X659400000Y-190210000D01*
X661400000Y-190210000D02*
X661400000Y-186310000D01*
X659400000Y-190210000D02*
X659400000Y-186310000D01*
X699283000Y-166912936D02*
X699283000Y-168367064D01*
X697463000Y-166912936D02*
X697463000Y-168367064D01*
X679923064Y-210926000D02*
X678468936Y-210926000D01*
X679923064Y-212746000D02*
X678468936Y-212746000D01*
X742911737Y-167090000D02*
X741464263Y-167090000D01*
X742911737Y-164380000D02*
X741464263Y-164380000D01*
X742911737Y-201380000D02*
X741464263Y-201380000D01*
X742911737Y-198670000D02*
X741464263Y-198670000D01*
X731520000Y-164175000D02*
X730870000Y-164175000D01*
X731520000Y-167295000D02*
X730870000Y-167295000D01*
X731520000Y-164175000D02*
X733195000Y-164175000D01*
X731520000Y-167295000D02*
X732170000Y-167295000D01*
X728710000Y-190845000D02*
X726710000Y-190845000D01*
X728710000Y-190845000D02*
X728710000Y-186945000D01*
X726710000Y-190845000D02*
X726710000Y-186945000D01*
X726710000Y-213705000D02*
X726710000Y-209805000D01*
X728710000Y-213705000D02*
X728710000Y-209805000D01*
X728710000Y-213705000D02*
X726710000Y-213705000D01*
X736614500Y-165989724D02*
X736614500Y-165480276D01*
X735569500Y-165989724D02*
X735569500Y-165480276D01*
X734807500Y-211455724D02*
X734807500Y-210946276D01*
X735852500Y-211455724D02*
X735852500Y-210946276D01*
X731520000Y-178979000D02*
X730870000Y-178979000D01*
X731520000Y-175859000D02*
X733195000Y-175859000D01*
X731520000Y-175859000D02*
X730870000Y-175859000D01*
X731520000Y-178979000D02*
X732170000Y-178979000D01*
X731666267Y-196725000D02*
X731373733Y-196725000D01*
X731666267Y-195705000D02*
X731373733Y-195705000D01*
X742911737Y-175810000D02*
X741464263Y-175810000D01*
X742911737Y-178520000D02*
X741464263Y-178520000D01*
%LPC*%
D12*
X732790000Y-234315000D03*
D13*
X732790000Y-231775000D03*
X735330000Y-234315000D03*
X735330000Y-231775000D03*
X737870000Y-234315000D03*
X737870000Y-231775000D03*
X740410000Y-234315000D03*
X740410000Y-231775000D03*
D14*
X727710000Y-203835000D03*
D15*
X735330000Y-203835000D03*
X740410000Y-203835000D03*
X745490000Y-203835000D03*
X745490000Y-196215000D03*
X740410000Y-196215000D03*
X735330000Y-196215000D03*
X727710000Y-196215000D03*
D16*
X659130000Y-163830000D03*
X659130000Y-168910000D03*
X659130000Y-166370000D03*
X659130000Y-171450000D03*
D14*
X727710000Y-192405000D03*
D15*
X735330000Y-192405000D03*
X740410000Y-192405000D03*
X745490000Y-192405000D03*
X745490000Y-184785000D03*
X740410000Y-184785000D03*
X735330000Y-184785000D03*
X727710000Y-184785000D03*
D17*
X652145000Y-201803000D03*
X652145000Y-233299000D03*
X647065000Y-201803000D03*
X647065000Y-233299000D03*
D16*
X659130000Y-209550000D03*
X659130000Y-214630000D03*
X659130000Y-212090000D03*
X659130000Y-217170000D03*
D18*
X751205000Y-163830000D03*
D16*
X693420000Y-163830000D03*
X693420000Y-168910000D03*
X693420000Y-166370000D03*
X693420000Y-171450000D03*
D14*
X727710000Y-169545000D03*
D15*
X735330000Y-169545000D03*
X740410000Y-169545000D03*
X745490000Y-169545000D03*
X745490000Y-161925000D03*
X740410000Y-161925000D03*
X735330000Y-161925000D03*
X727710000Y-161925000D03*
D18*
X652145000Y-163830000D03*
D16*
X693420000Y-191770000D03*
X693420000Y-199390000D03*
X693420000Y-194310000D03*
X693420000Y-201930000D03*
X693420000Y-196850000D03*
X693420000Y-204470000D03*
X693420000Y-209550000D03*
X693420000Y-214630000D03*
X693420000Y-212090000D03*
X693420000Y-217170000D03*
D14*
X727710000Y-180975000D03*
D15*
X735330000Y-180975000D03*
X740410000Y-180975000D03*
X745490000Y-180975000D03*
X745490000Y-173355000D03*
X740410000Y-173355000D03*
X735330000Y-173355000D03*
X727710000Y-173355000D03*
D12*
X749365000Y-184785000D03*
D13*
X751905000Y-184785000D03*
X749365000Y-187325000D03*
X751905000Y-187325000D03*
X749365000Y-189865000D03*
X751905000Y-189865000D03*
X749365000Y-192405000D03*
X751905000Y-192405000D03*
X749365000Y-194945000D03*
X751905000Y-194945000D03*
X749365000Y-197485000D03*
X751905000Y-197485000D03*
D16*
X671830000Y-179070000D03*
X671830000Y-184150000D03*
X671830000Y-181610000D03*
X671830000Y-186690000D03*
D19*
X652780000Y-177800000D03*
D20*
X650240000Y-177800000D03*
D14*
X727710000Y-215265000D03*
D15*
X735330000Y-215265000D03*
X740410000Y-215265000D03*
X745490000Y-215265000D03*
X745490000Y-207645000D03*
X740410000Y-207645000D03*
X735330000Y-207645000D03*
X727710000Y-207645000D03*
D21*
X648970000Y-196215000D03*
X648970000Y-186055000D03*
D22*
X654050000Y-191135000D03*
D23*
X654050000Y-193675000D03*
D18*
X751205000Y-232410000D03*
D12*
X663575000Y-179070000D03*
D13*
X663575000Y-181610000D03*
D24*
X660390000Y-199860000D03*
X665490000Y-201460000D03*
D14*
X727710000Y-226695000D03*
D15*
X735330000Y-226695000D03*
X740410000Y-226695000D03*
X745490000Y-226695000D03*
X745490000Y-219075000D03*
X740410000Y-219075000D03*
X735330000Y-219075000D03*
X727710000Y-219075000D03*
D16*
X659130000Y-222250000D03*
X659130000Y-229870000D03*
X659130000Y-224790000D03*
X659130000Y-232410000D03*
X659130000Y-227330000D03*
X659130000Y-234950000D03*
X693420000Y-224790000D03*
X693420000Y-229870000D03*
X693420000Y-227330000D03*
X693420000Y-232410000D03*
X693420000Y-176530000D03*
X693420000Y-184150000D03*
X693420000Y-179070000D03*
X693420000Y-186690000D03*
X693420000Y-181610000D03*
X693420000Y-189230000D03*
X671830000Y-194310000D03*
X671830000Y-199390000D03*
X671830000Y-196850000D03*
X671830000Y-201930000D03*
D25*
X647065000Y-227964500D03*
X647065000Y-226239500D03*
D26*
X727710000Y-201675000D03*
X727710000Y-198375000D03*
X727710000Y-224535000D03*
X727710000Y-221235000D03*
D27*
X732382500Y-219075000D03*
X730657500Y-219075000D03*
D26*
X665734000Y-186309000D03*
X665734000Y-189609000D03*
D28*
X698500000Y-227050000D03*
X698500000Y-230150000D03*
X698500000Y-211810000D03*
X698500000Y-214910000D03*
X664083000Y-166344000D03*
X664083000Y-169444000D03*
D29*
X732457500Y-199075000D03*
X732457500Y-200975000D03*
X730582500Y-200025000D03*
D27*
X732382500Y-161925000D03*
X730657500Y-161925000D03*
D30*
X743738000Y-211201000D03*
X740638000Y-211201000D03*
D27*
X732382500Y-207645000D03*
X730657500Y-207645000D03*
D31*
X689377500Y-214630000D03*
X687302500Y-214630000D03*
D32*
X735330000Y-223797500D03*
X735330000Y-221972500D03*
D33*
X729615000Y-232182500D03*
X729615000Y-233907500D03*
D28*
X676910000Y-196824000D03*
X676910000Y-199924000D03*
D32*
X735330000Y-178354500D03*
X735330000Y-176529500D03*
D29*
X732457500Y-221935000D03*
X732457500Y-223835000D03*
X730582500Y-222885000D03*
D26*
X665734000Y-192278000D03*
X665734000Y-195578000D03*
D27*
X732382500Y-184785000D03*
X730657500Y-184785000D03*
D32*
X735330000Y-189507500D03*
X735330000Y-187682500D03*
D26*
X727710000Y-167385000D03*
X727710000Y-164085000D03*
D28*
X664210000Y-211810000D03*
X664210000Y-214910000D03*
D29*
X732457500Y-187645000D03*
X732457500Y-189545000D03*
X730582500Y-188595000D03*
X732457500Y-210251000D03*
X732457500Y-212151000D03*
X730582500Y-211201000D03*
D30*
X743738000Y-188595000D03*
X740638000Y-188595000D03*
D27*
X732282500Y-173355000D03*
X730557500Y-173355000D03*
D31*
X689356500Y-229870000D03*
X687281500Y-229870000D03*
D32*
X735330000Y-200937500D03*
X735330000Y-199112500D03*
D31*
X689356500Y-168910000D03*
X687281500Y-168910000D03*
D30*
X743738000Y-222885000D03*
X740638000Y-222885000D03*
D26*
X727710000Y-178815000D03*
X727710000Y-175515000D03*
X660400000Y-195578000D03*
X660400000Y-192278000D03*
D34*
X676910000Y-184382500D03*
X676910000Y-186457500D03*
D26*
X660400000Y-189610000D03*
X660400000Y-186310000D03*
D28*
X698373000Y-166090000D03*
X698373000Y-169190000D03*
D35*
X680746000Y-211836000D03*
X677646000Y-211836000D03*
D30*
X743738000Y-165735000D03*
X740638000Y-165735000D03*
X743738000Y-200025000D03*
X740638000Y-200025000D03*
D29*
X732457500Y-164785000D03*
X732457500Y-166685000D03*
X730582500Y-165735000D03*
D26*
X727710000Y-190245000D03*
X727710000Y-186945000D03*
X727710000Y-213105000D03*
X727710000Y-209805000D03*
D32*
X736092000Y-166647500D03*
X736092000Y-164822500D03*
X735330000Y-212113500D03*
X735330000Y-210288500D03*
D29*
X732457500Y-176469000D03*
X732457500Y-178369000D03*
X730582500Y-177419000D03*
D27*
X732382500Y-196215000D03*
X730657500Y-196215000D03*
D30*
X743738000Y-177165000D03*
X740638000Y-177165000D03*
M02*
