%TF.GenerationSoftware,KiCad,Pcbnew,6.0.9-8da3e8f707~116~ubuntu20.04.1*%
%TF.CreationDate,2023-03-27T15:32:51+02:00*%
%TF.ProjectId,six_to_six,7369785f-746f-45f7-9369-782e6b696361,rev?*%
%TF.SameCoordinates,Original*%
%TF.FileFunction,Drillmap*%
%TF.FilePolarity,Positive*%
%FSLAX45Y45*%
G04 Gerber Fmt 4.5, Leading zero omitted, Abs format (unit mm)*
G04 Created by KiCad (PCBNEW 6.0.9-8da3e8f707~116~ubuntu20.04.1) date 2023-03-27 15:32:51*
%MOMM*%
%LPD*%
G01*
G04 APERTURE LIST*
%ADD10C,0.100000*%
%ADD11C,0.200000*%
%ADD12C,0.040000*%
%ADD13C,0.071000*%
%ADD14C,0.080000*%
%ADD15C,0.090000*%
%ADD16C,0.097000*%
%ADD17C,0.220000*%
%ADD18C,0.320000*%
G04 APERTURE END LIST*
D10*
X64198500Y-15938500D02*
G75*
G03*
X64135000Y-16002000I0J-63500D01*
G01*
X75501500Y-15938500D02*
X64198500Y-15938500D01*
X75501500Y-23685500D02*
X64198500Y-23685500D01*
X75501500Y-23685500D02*
G75*
G03*
X75565000Y-23622000I0J63500D01*
G01*
X64135000Y-23622000D02*
G75*
G03*
X64198500Y-23685500I63500J0D01*
G01*
X75565000Y-16002000D02*
G75*
G03*
X75501500Y-15938500I-63500J0D01*
G01*
X64135000Y-16002000D02*
X64135000Y-23622000D01*
X75565000Y-16002000D02*
X75565000Y-23622000D01*
D11*
D12*
X64750000Y-20579400D02*
X64790000Y-20619400D01*
X64790000Y-20579400D02*
X64750000Y-20619400D01*
X66318000Y-19538000D02*
X66358000Y-19578000D01*
X66358000Y-19538000D02*
X66318000Y-19578000D01*
X66883600Y-18649000D02*
X66923600Y-18689000D01*
X66923600Y-18649000D02*
X66883600Y-18689000D01*
X67671000Y-18788700D02*
X67711000Y-18828700D01*
X67711000Y-18788700D02*
X67671000Y-18828700D01*
X68521900Y-21443000D02*
X68561900Y-21483000D01*
X68561900Y-21443000D02*
X68521900Y-21483000D01*
X68547300Y-16871000D02*
X68587300Y-16911000D01*
X68587300Y-16871000D02*
X68547300Y-16911000D01*
X68710200Y-22639000D02*
X68750200Y-22679000D01*
X68750200Y-22639000D02*
X68710200Y-22679000D01*
X68712400Y-23157500D02*
X68752400Y-23197500D01*
X68752400Y-23157500D02*
X68712400Y-23197500D01*
X72776400Y-23525800D02*
X72816400Y-23565800D01*
X72816400Y-23525800D02*
X72776400Y-23565800D01*
X72979600Y-17506000D02*
X73019600Y-17546000D01*
X73019600Y-17506000D02*
X72979600Y-17546000D01*
X73015000Y-19863600D02*
X73055000Y-19903600D01*
X73055000Y-19863600D02*
X73015000Y-19903600D01*
X73043100Y-16324900D02*
X73083100Y-16364900D01*
X73083100Y-16324900D02*
X73043100Y-16364900D01*
X73043100Y-18610900D02*
X73083100Y-18650900D01*
X73083100Y-18610900D02*
X73043100Y-18650900D01*
X73043100Y-20871500D02*
X73083100Y-20911500D01*
X73083100Y-20871500D02*
X73043100Y-20911500D01*
X73043100Y-22039900D02*
X73083100Y-22079900D01*
X73083100Y-22039900D02*
X73043100Y-22079900D01*
X73045700Y-19446500D02*
X73085700Y-19486500D01*
X73085700Y-19446500D02*
X73045700Y-19486500D01*
X73068500Y-20211100D02*
X73108500Y-20251100D01*
X73108500Y-20211100D02*
X73068500Y-20251100D01*
X73068500Y-21316000D02*
X73108500Y-21356000D01*
X73108500Y-21316000D02*
X73068500Y-21356000D01*
X73081200Y-16782100D02*
X73121200Y-16822100D01*
X73121200Y-16782100D02*
X73081200Y-16822100D01*
X73081200Y-22497100D02*
X73121200Y-22537100D01*
X73121200Y-22497100D02*
X73081200Y-22537100D01*
X73093900Y-17937800D02*
X73133900Y-17977800D01*
X73133900Y-17937800D02*
X73093900Y-17977800D01*
X73093900Y-19068100D02*
X73133900Y-19108100D01*
X73133900Y-19068100D02*
X73093900Y-19108100D01*
X73830500Y-16553500D02*
X73870500Y-16593500D01*
X73870500Y-16553500D02*
X73830500Y-16593500D01*
X73830500Y-17685500D02*
X73870500Y-17725500D01*
X73870500Y-17685500D02*
X73830500Y-17725500D01*
X73830500Y-18839500D02*
X73870500Y-18879500D01*
X73870500Y-18839500D02*
X73830500Y-18879500D01*
X73830500Y-19982500D02*
X73870500Y-20022500D01*
X73870500Y-19982500D02*
X73830500Y-20022500D01*
X73881300Y-21100100D02*
X73921300Y-21140100D01*
X73921300Y-21100100D02*
X73881300Y-21140100D01*
X74046400Y-22484400D02*
X74086400Y-22524400D01*
X74086400Y-22484400D02*
X74046400Y-22524400D01*
D13*
X66074500Y-19986000D02*
G75*
G03*
X66074500Y-19986000I-35500J0D01*
G01*
X66584500Y-20146000D02*
G75*
G03*
X66584500Y-20146000I-35500J0D01*
G01*
D14*
X64516000Y-20280000D02*
X64516000Y-20360000D01*
X64476000Y-20320000D02*
X64556000Y-20320000D01*
X64770000Y-20280000D02*
X64770000Y-20360000D01*
X64730000Y-20320000D02*
X64810000Y-20320000D01*
X65024000Y-20280000D02*
X65024000Y-20360000D01*
X64984000Y-20320000D02*
X65064000Y-20320000D01*
X65278000Y-20280000D02*
X65278000Y-20360000D01*
X65238000Y-20320000D02*
X65318000Y-20320000D01*
X65913000Y-16343000D02*
X65913000Y-16423000D01*
X65873000Y-16383000D02*
X65953000Y-16383000D01*
X65913000Y-16597000D02*
X65913000Y-16677000D01*
X65873000Y-16637000D02*
X65953000Y-16637000D01*
X65913000Y-16851000D02*
X65913000Y-16931000D01*
X65873000Y-16891000D02*
X65953000Y-16891000D01*
X65913000Y-17105000D02*
X65913000Y-17185000D01*
X65873000Y-17145000D02*
X65953000Y-17145000D01*
X65913000Y-20915000D02*
X65913000Y-20995000D01*
X65873000Y-20955000D02*
X65953000Y-20955000D01*
X65913000Y-21169000D02*
X65913000Y-21249000D01*
X65873000Y-21209000D02*
X65953000Y-21209000D01*
X65913000Y-21423000D02*
X65913000Y-21503000D01*
X65873000Y-21463000D02*
X65953000Y-21463000D01*
X65913000Y-21677000D02*
X65913000Y-21757000D01*
X65873000Y-21717000D02*
X65953000Y-21717000D01*
X65913000Y-22185000D02*
X65913000Y-22265000D01*
X65873000Y-22225000D02*
X65953000Y-22225000D01*
X65913000Y-22439000D02*
X65913000Y-22519000D01*
X65873000Y-22479000D02*
X65953000Y-22479000D01*
X65913000Y-22693000D02*
X65913000Y-22773000D01*
X65873000Y-22733000D02*
X65953000Y-22733000D01*
X65913000Y-22947000D02*
X65913000Y-23027000D01*
X65873000Y-22987000D02*
X65953000Y-22987000D01*
X65913000Y-23201000D02*
X65913000Y-23281000D01*
X65873000Y-23241000D02*
X65953000Y-23241000D01*
X65913000Y-23455000D02*
X65913000Y-23535000D01*
X65873000Y-23495000D02*
X65953000Y-23495000D01*
X67183000Y-17867000D02*
X67183000Y-17947000D01*
X67143000Y-17907000D02*
X67223000Y-17907000D01*
X67183000Y-18121000D02*
X67183000Y-18201000D01*
X67143000Y-18161000D02*
X67223000Y-18161000D01*
X67183000Y-18375000D02*
X67183000Y-18455000D01*
X67143000Y-18415000D02*
X67223000Y-18415000D01*
X67183000Y-18629000D02*
X67183000Y-18709000D01*
X67143000Y-18669000D02*
X67223000Y-18669000D01*
X67183000Y-19391000D02*
X67183000Y-19471000D01*
X67143000Y-19431000D02*
X67223000Y-19431000D01*
X67183000Y-19645000D02*
X67183000Y-19725000D01*
X67143000Y-19685000D02*
X67223000Y-19685000D01*
X67183000Y-19899000D02*
X67183000Y-19979000D01*
X67143000Y-19939000D02*
X67223000Y-19939000D01*
X67183000Y-20153000D02*
X67183000Y-20233000D01*
X67143000Y-20193000D02*
X67223000Y-20193000D01*
X69342000Y-16343000D02*
X69342000Y-16423000D01*
X69302000Y-16383000D02*
X69382000Y-16383000D01*
X69342000Y-16597000D02*
X69342000Y-16677000D01*
X69302000Y-16637000D02*
X69382000Y-16637000D01*
X69342000Y-16851000D02*
X69342000Y-16931000D01*
X69302000Y-16891000D02*
X69382000Y-16891000D01*
X69342000Y-17105000D02*
X69342000Y-17185000D01*
X69302000Y-17145000D02*
X69382000Y-17145000D01*
X69342000Y-17613000D02*
X69342000Y-17693000D01*
X69302000Y-17653000D02*
X69382000Y-17653000D01*
X69342000Y-17867000D02*
X69342000Y-17947000D01*
X69302000Y-17907000D02*
X69382000Y-17907000D01*
X69342000Y-18121000D02*
X69342000Y-18201000D01*
X69302000Y-18161000D02*
X69382000Y-18161000D01*
X69342000Y-18375000D02*
X69342000Y-18455000D01*
X69302000Y-18415000D02*
X69382000Y-18415000D01*
X69342000Y-18629000D02*
X69342000Y-18709000D01*
X69302000Y-18669000D02*
X69382000Y-18669000D01*
X69342000Y-18883000D02*
X69342000Y-18963000D01*
X69302000Y-18923000D02*
X69382000Y-18923000D01*
X69342000Y-19137000D02*
X69342000Y-19217000D01*
X69302000Y-19177000D02*
X69382000Y-19177000D01*
X69342000Y-19391000D02*
X69342000Y-19471000D01*
X69302000Y-19431000D02*
X69382000Y-19431000D01*
X69342000Y-19645000D02*
X69342000Y-19725000D01*
X69302000Y-19685000D02*
X69382000Y-19685000D01*
X69342000Y-19899000D02*
X69342000Y-19979000D01*
X69302000Y-19939000D02*
X69382000Y-19939000D01*
X69342000Y-20153000D02*
X69342000Y-20233000D01*
X69302000Y-20193000D02*
X69382000Y-20193000D01*
X69342000Y-20407000D02*
X69342000Y-20487000D01*
X69302000Y-20447000D02*
X69382000Y-20447000D01*
X69342000Y-20915000D02*
X69342000Y-20995000D01*
X69302000Y-20955000D02*
X69382000Y-20955000D01*
X69342000Y-21169000D02*
X69342000Y-21249000D01*
X69302000Y-21209000D02*
X69382000Y-21209000D01*
X69342000Y-21423000D02*
X69342000Y-21503000D01*
X69302000Y-21463000D02*
X69382000Y-21463000D01*
X69342000Y-21677000D02*
X69342000Y-21757000D01*
X69302000Y-21717000D02*
X69382000Y-21717000D01*
X69342000Y-22439000D02*
X69342000Y-22519000D01*
X69302000Y-22479000D02*
X69382000Y-22479000D01*
X69342000Y-22693000D02*
X69342000Y-22773000D01*
X69302000Y-22733000D02*
X69382000Y-22733000D01*
X69342000Y-22947000D02*
X69342000Y-23027000D01*
X69302000Y-22987000D02*
X69382000Y-22987000D01*
X69342000Y-23201000D02*
X69342000Y-23281000D01*
X69302000Y-23241000D02*
X69382000Y-23241000D01*
X72771000Y-16152500D02*
X72771000Y-16232500D01*
X72731000Y-16192500D02*
X72811000Y-16192500D01*
X72771000Y-16914500D02*
X72771000Y-16994500D01*
X72731000Y-16954500D02*
X72811000Y-16954500D01*
X72771000Y-17295500D02*
X72771000Y-17375500D01*
X72731000Y-17335500D02*
X72811000Y-17335500D01*
X72771000Y-18057500D02*
X72771000Y-18137500D01*
X72731000Y-18097500D02*
X72811000Y-18097500D01*
X72771000Y-18438500D02*
X72771000Y-18518500D01*
X72731000Y-18478500D02*
X72811000Y-18478500D01*
X72771000Y-19200500D02*
X72771000Y-19280500D01*
X72731000Y-19240500D02*
X72811000Y-19240500D01*
X72771000Y-19581500D02*
X72771000Y-19661500D01*
X72731000Y-19621500D02*
X72811000Y-19621500D01*
X72771000Y-20343500D02*
X72771000Y-20423500D01*
X72731000Y-20383500D02*
X72811000Y-20383500D01*
X72771000Y-20724500D02*
X72771000Y-20804500D01*
X72731000Y-20764500D02*
X72811000Y-20764500D01*
X72771000Y-21486500D02*
X72771000Y-21566500D01*
X72731000Y-21526500D02*
X72811000Y-21526500D01*
X72771000Y-21867500D02*
X72771000Y-21947500D01*
X72731000Y-21907500D02*
X72811000Y-21907500D01*
X72771000Y-22629500D02*
X72771000Y-22709500D01*
X72731000Y-22669500D02*
X72811000Y-22669500D01*
X73533000Y-16152500D02*
X73533000Y-16232500D01*
X73493000Y-16192500D02*
X73573000Y-16192500D01*
X73533000Y-16914500D02*
X73533000Y-16994500D01*
X73493000Y-16954500D02*
X73573000Y-16954500D01*
X73533000Y-17295500D02*
X73533000Y-17375500D01*
X73493000Y-17335500D02*
X73573000Y-17335500D01*
X73533000Y-18057500D02*
X73533000Y-18137500D01*
X73493000Y-18097500D02*
X73573000Y-18097500D01*
X73533000Y-18438500D02*
X73533000Y-18518500D01*
X73493000Y-18478500D02*
X73573000Y-18478500D01*
X73533000Y-19200500D02*
X73533000Y-19280500D01*
X73493000Y-19240500D02*
X73573000Y-19240500D01*
X73533000Y-19581500D02*
X73533000Y-19661500D01*
X73493000Y-19621500D02*
X73573000Y-19621500D01*
X73533000Y-20343500D02*
X73533000Y-20423500D01*
X73493000Y-20383500D02*
X73573000Y-20383500D01*
X73533000Y-20724500D02*
X73533000Y-20804500D01*
X73493000Y-20764500D02*
X73573000Y-20764500D01*
X73533000Y-21486500D02*
X73533000Y-21566500D01*
X73493000Y-21526500D02*
X73573000Y-21526500D01*
X73533000Y-21867500D02*
X73533000Y-21947500D01*
X73493000Y-21907500D02*
X73573000Y-21907500D01*
X73533000Y-22629500D02*
X73533000Y-22709500D01*
X73493000Y-22669500D02*
X73573000Y-22669500D01*
X74041000Y-16152500D02*
X74041000Y-16232500D01*
X74001000Y-16192500D02*
X74081000Y-16192500D01*
X74041000Y-16914500D02*
X74041000Y-16994500D01*
X74001000Y-16954500D02*
X74081000Y-16954500D01*
X74041000Y-17295500D02*
X74041000Y-17375500D01*
X74001000Y-17335500D02*
X74081000Y-17335500D01*
X74041000Y-18057500D02*
X74041000Y-18137500D01*
X74001000Y-18097500D02*
X74081000Y-18097500D01*
X74041000Y-18438500D02*
X74041000Y-18518500D01*
X74001000Y-18478500D02*
X74081000Y-18478500D01*
X74041000Y-19200500D02*
X74041000Y-19280500D01*
X74001000Y-19240500D02*
X74081000Y-19240500D01*
X74041000Y-19581500D02*
X74041000Y-19661500D01*
X74001000Y-19621500D02*
X74081000Y-19621500D01*
X74041000Y-20343500D02*
X74041000Y-20423500D01*
X74001000Y-20383500D02*
X74081000Y-20383500D01*
X74041000Y-20724500D02*
X74041000Y-20804500D01*
X74001000Y-20764500D02*
X74081000Y-20764500D01*
X74041000Y-21486500D02*
X74041000Y-21566500D01*
X74001000Y-21526500D02*
X74081000Y-21526500D01*
X74041000Y-21867500D02*
X74041000Y-21947500D01*
X74001000Y-21907500D02*
X74081000Y-21907500D01*
X74041000Y-22629500D02*
X74041000Y-22709500D01*
X74001000Y-22669500D02*
X74081000Y-22669500D01*
X74549000Y-16152500D02*
X74549000Y-16232500D01*
X74509000Y-16192500D02*
X74589000Y-16192500D01*
X74549000Y-16914500D02*
X74549000Y-16994500D01*
X74509000Y-16954500D02*
X74589000Y-16954500D01*
X74549000Y-17295500D02*
X74549000Y-17375500D01*
X74509000Y-17335500D02*
X74589000Y-17335500D01*
X74549000Y-18057500D02*
X74549000Y-18137500D01*
X74509000Y-18097500D02*
X74589000Y-18097500D01*
X74549000Y-18438500D02*
X74549000Y-18518500D01*
X74509000Y-18478500D02*
X74589000Y-18478500D01*
X74549000Y-19200500D02*
X74549000Y-19280500D01*
X74509000Y-19240500D02*
X74589000Y-19240500D01*
X74549000Y-19581500D02*
X74549000Y-19661500D01*
X74509000Y-19621500D02*
X74589000Y-19621500D01*
X74549000Y-20343500D02*
X74549000Y-20423500D01*
X74509000Y-20383500D02*
X74589000Y-20383500D01*
X74549000Y-20724500D02*
X74549000Y-20804500D01*
X74509000Y-20764500D02*
X74589000Y-20764500D01*
X74549000Y-21486500D02*
X74549000Y-21566500D01*
X74509000Y-21526500D02*
X74589000Y-21526500D01*
X74549000Y-21867500D02*
X74549000Y-21947500D01*
X74509000Y-21907500D02*
X74589000Y-21907500D01*
X74549000Y-22629500D02*
X74549000Y-22709500D01*
X74509000Y-22669500D02*
X74589000Y-22669500D01*
D15*
X65055820Y-17811820D02*
X65055820Y-17748180D01*
X64992180Y-17748180D01*
X64992180Y-17811820D01*
X65055820Y-17811820D01*
X65309820Y-17811820D02*
X65309820Y-17748180D01*
X65246180Y-17748180D01*
X65246180Y-17811820D01*
X65309820Y-17811820D01*
D16*
X65405000Y-19162000D02*
X65453500Y-19113500D01*
X65405000Y-19065000D01*
X65356500Y-19113500D01*
X65405000Y-19162000D01*
X65405000Y-19416000D02*
X65453500Y-19367500D01*
X65405000Y-19319000D01*
X65356500Y-19367500D01*
X65405000Y-19416000D01*
D10*
X66307500Y-17857000D02*
X66407500Y-17957000D01*
X66407500Y-17857000D02*
X66307500Y-17957000D01*
X66407500Y-17907000D02*
G75*
G03*
X66407500Y-17907000I-50000J0D01*
G01*
X66307500Y-18111000D02*
X66407500Y-18211000D01*
X66407500Y-18111000D02*
X66307500Y-18211000D01*
X66407500Y-18161000D02*
G75*
G03*
X66407500Y-18161000I-50000J0D01*
G01*
X73229000Y-23127500D02*
X73329000Y-23227500D01*
X73329000Y-23127500D02*
X73229000Y-23227500D01*
X73329000Y-23177500D02*
G75*
G03*
X73329000Y-23177500I-50000J0D01*
G01*
X73229000Y-23381500D02*
X73329000Y-23481500D01*
X73329000Y-23381500D02*
X73229000Y-23481500D01*
X73329000Y-23431500D02*
G75*
G03*
X73329000Y-23431500I-50000J0D01*
G01*
X73483000Y-23127500D02*
X73583000Y-23227500D01*
X73583000Y-23127500D02*
X73483000Y-23227500D01*
X73583000Y-23177500D02*
G75*
G03*
X73583000Y-23177500I-50000J0D01*
G01*
X73483000Y-23381500D02*
X73583000Y-23481500D01*
X73583000Y-23381500D02*
X73483000Y-23481500D01*
X73583000Y-23431500D02*
G75*
G03*
X73583000Y-23431500I-50000J0D01*
G01*
X73737000Y-23127500D02*
X73837000Y-23227500D01*
X73837000Y-23127500D02*
X73737000Y-23227500D01*
X73837000Y-23177500D02*
G75*
G03*
X73837000Y-23177500I-50000J0D01*
G01*
X73737000Y-23381500D02*
X73837000Y-23481500D01*
X73837000Y-23381500D02*
X73737000Y-23481500D01*
X73837000Y-23431500D02*
G75*
G03*
X73837000Y-23431500I-50000J0D01*
G01*
X73991000Y-23127500D02*
X74091000Y-23227500D01*
X74091000Y-23127500D02*
X73991000Y-23227500D01*
X74091000Y-23177500D02*
G75*
G03*
X74091000Y-23177500I-50000J0D01*
G01*
X73991000Y-23381500D02*
X74091000Y-23481500D01*
X74091000Y-23381500D02*
X73991000Y-23481500D01*
X74091000Y-23431500D02*
G75*
G03*
X74091000Y-23431500I-50000J0D01*
G01*
X74886500Y-18428500D02*
X74986500Y-18528500D01*
X74986500Y-18428500D02*
X74886500Y-18528500D01*
X74986500Y-18478500D02*
G75*
G03*
X74986500Y-18478500I-50000J0D01*
G01*
X74886500Y-18682500D02*
X74986500Y-18782500D01*
X74986500Y-18682500D02*
X74886500Y-18782500D01*
X74986500Y-18732500D02*
G75*
G03*
X74986500Y-18732500I-50000J0D01*
G01*
X74886500Y-18936500D02*
X74986500Y-19036500D01*
X74986500Y-18936500D02*
X74886500Y-19036500D01*
X74986500Y-18986500D02*
G75*
G03*
X74986500Y-18986500I-50000J0D01*
G01*
X74886500Y-19190500D02*
X74986500Y-19290500D01*
X74986500Y-19190500D02*
X74886500Y-19290500D01*
X74986500Y-19240500D02*
G75*
G03*
X74986500Y-19240500I-50000J0D01*
G01*
X74886500Y-19444500D02*
X74986500Y-19544500D01*
X74986500Y-19444500D02*
X74886500Y-19544500D01*
X74986500Y-19494500D02*
G75*
G03*
X74986500Y-19494500I-50000J0D01*
G01*
X74886500Y-19698500D02*
X74986500Y-19798500D01*
X74986500Y-19698500D02*
X74886500Y-19798500D01*
X74986500Y-19748500D02*
G75*
G03*
X74986500Y-19748500I-50000J0D01*
G01*
X75140500Y-18428500D02*
X75240500Y-18528500D01*
X75240500Y-18428500D02*
X75140500Y-18528500D01*
X75240500Y-18478500D02*
G75*
G03*
X75240500Y-18478500I-50000J0D01*
G01*
X75140500Y-18682500D02*
X75240500Y-18782500D01*
X75240500Y-18682500D02*
X75140500Y-18782500D01*
X75240500Y-18732500D02*
G75*
G03*
X75240500Y-18732500I-50000J0D01*
G01*
X75140500Y-18936500D02*
X75240500Y-19036500D01*
X75240500Y-18936500D02*
X75140500Y-19036500D01*
X75240500Y-18986500D02*
G75*
G03*
X75240500Y-18986500I-50000J0D01*
G01*
X75140500Y-19190500D02*
X75240500Y-19290500D01*
X75240500Y-19190500D02*
X75140500Y-19290500D01*
X75240500Y-19240500D02*
G75*
G03*
X75240500Y-19240500I-50000J0D01*
G01*
X75140500Y-19444500D02*
X75240500Y-19544500D01*
X75240500Y-19444500D02*
X75140500Y-19544500D01*
X75240500Y-19494500D02*
G75*
G03*
X75240500Y-19494500I-50000J0D01*
G01*
X75140500Y-19698500D02*
X75240500Y-19798500D01*
X75240500Y-19698500D02*
X75140500Y-19798500D01*
X75240500Y-19748500D02*
G75*
G03*
X75240500Y-19748500I-50000J0D01*
G01*
D17*
X64787000Y-18495500D02*
X65007000Y-18715500D01*
X65007000Y-18495500D02*
X64787000Y-18715500D01*
X64897000Y-18495500D02*
X64897000Y-18715500D01*
X64787000Y-18605500D02*
X65007000Y-18605500D01*
X64787000Y-19511500D02*
X65007000Y-19731500D01*
X65007000Y-19511500D02*
X64787000Y-19731500D01*
X64897000Y-19511500D02*
X64897000Y-19731500D01*
X64787000Y-19621500D02*
X65007000Y-19621500D01*
D18*
X65054500Y-16223000D02*
X65374500Y-16543000D01*
X65374500Y-16223000D02*
X65054500Y-16543000D01*
X65327638Y-16496138D02*
X65327638Y-16269862D01*
X65101362Y-16269862D01*
X65101362Y-16496138D01*
X65327638Y-16496138D01*
X74960500Y-16223000D02*
X75280500Y-16543000D01*
X75280500Y-16223000D02*
X74960500Y-16543000D01*
X75233638Y-16496138D02*
X75233638Y-16269862D01*
X75007362Y-16269862D01*
X75007362Y-16496138D01*
X75233638Y-16496138D01*
X74960500Y-23081000D02*
X75280500Y-23401000D01*
X75280500Y-23081000D02*
X74960500Y-23401000D01*
X75233638Y-23354138D02*
X75233638Y-23127862D01*
X75007362Y-23127862D01*
X75007362Y-23354138D01*
X75233638Y-23354138D01*
D11*
X64387619Y-24000976D02*
X64387619Y-23800976D01*
X64435238Y-23800976D01*
X64463809Y-23810500D01*
X64482857Y-23829548D01*
X64492381Y-23848595D01*
X64501905Y-23886690D01*
X64501905Y-23915262D01*
X64492381Y-23953357D01*
X64482857Y-23972405D01*
X64463809Y-23991452D01*
X64435238Y-24000976D01*
X64387619Y-24000976D01*
X64587619Y-24000976D02*
X64587619Y-23867643D01*
X64587619Y-23905738D02*
X64597143Y-23886690D01*
X64606667Y-23877167D01*
X64625714Y-23867643D01*
X64644762Y-23867643D01*
X64711428Y-24000976D02*
X64711428Y-23867643D01*
X64711428Y-23800976D02*
X64701905Y-23810500D01*
X64711428Y-23820024D01*
X64720952Y-23810500D01*
X64711428Y-23800976D01*
X64711428Y-23820024D01*
X64835238Y-24000976D02*
X64816190Y-23991452D01*
X64806667Y-23972405D01*
X64806667Y-23800976D01*
X64940000Y-24000976D02*
X64920952Y-23991452D01*
X64911428Y-23972405D01*
X64911428Y-23800976D01*
X65168571Y-24000976D02*
X65168571Y-23800976D01*
X65235238Y-23943833D01*
X65301905Y-23800976D01*
X65301905Y-24000976D01*
X65482857Y-24000976D02*
X65482857Y-23896214D01*
X65473333Y-23877167D01*
X65454286Y-23867643D01*
X65416190Y-23867643D01*
X65397143Y-23877167D01*
X65482857Y-23991452D02*
X65463809Y-24000976D01*
X65416190Y-24000976D01*
X65397143Y-23991452D01*
X65387619Y-23972405D01*
X65387619Y-23953357D01*
X65397143Y-23934309D01*
X65416190Y-23924786D01*
X65463809Y-23924786D01*
X65482857Y-23915262D01*
X65578095Y-23867643D02*
X65578095Y-24067643D01*
X65578095Y-23877167D02*
X65597143Y-23867643D01*
X65635238Y-23867643D01*
X65654286Y-23877167D01*
X65663809Y-23886690D01*
X65673333Y-23905738D01*
X65673333Y-23962881D01*
X65663809Y-23981928D01*
X65654286Y-23991452D01*
X65635238Y-24000976D01*
X65597143Y-24000976D01*
X65578095Y-23991452D01*
X65759048Y-23981928D02*
X65768571Y-23991452D01*
X65759048Y-24000976D01*
X65749524Y-23991452D01*
X65759048Y-23981928D01*
X65759048Y-24000976D01*
X65759048Y-23877167D02*
X65768571Y-23886690D01*
X65759048Y-23896214D01*
X65749524Y-23886690D01*
X65759048Y-23877167D01*
X65759048Y-23896214D01*
D12*
X64090000Y-24310500D02*
X64130000Y-24350500D01*
X64130000Y-24310500D02*
X64090000Y-24350500D01*
D11*
X64425714Y-24220976D02*
X64444762Y-24220976D01*
X64463809Y-24230500D01*
X64473333Y-24240024D01*
X64482857Y-24259071D01*
X64492381Y-24297167D01*
X64492381Y-24344786D01*
X64482857Y-24382881D01*
X64473333Y-24401928D01*
X64463809Y-24411452D01*
X64444762Y-24420976D01*
X64425714Y-24420976D01*
X64406667Y-24411452D01*
X64397143Y-24401928D01*
X64387619Y-24382881D01*
X64378095Y-24344786D01*
X64378095Y-24297167D01*
X64387619Y-24259071D01*
X64397143Y-24240024D01*
X64406667Y-24230500D01*
X64425714Y-24220976D01*
X64578095Y-24401928D02*
X64587619Y-24411452D01*
X64578095Y-24420976D01*
X64568571Y-24411452D01*
X64578095Y-24401928D01*
X64578095Y-24420976D01*
X64759048Y-24287643D02*
X64759048Y-24420976D01*
X64711428Y-24211452D02*
X64663809Y-24354309D01*
X64787619Y-24354309D01*
X64901905Y-24220976D02*
X64920952Y-24220976D01*
X64940000Y-24230500D01*
X64949524Y-24240024D01*
X64959048Y-24259071D01*
X64968571Y-24297167D01*
X64968571Y-24344786D01*
X64959048Y-24382881D01*
X64949524Y-24401928D01*
X64940000Y-24411452D01*
X64920952Y-24420976D01*
X64901905Y-24420976D01*
X64882857Y-24411452D01*
X64873333Y-24401928D01*
X64863809Y-24382881D01*
X64854286Y-24344786D01*
X64854286Y-24297167D01*
X64863809Y-24259071D01*
X64873333Y-24240024D01*
X64882857Y-24230500D01*
X64901905Y-24220976D01*
X65092381Y-24220976D02*
X65111428Y-24220976D01*
X65130476Y-24230500D01*
X65140000Y-24240024D01*
X65149524Y-24259071D01*
X65159048Y-24297167D01*
X65159048Y-24344786D01*
X65149524Y-24382881D01*
X65140000Y-24401928D01*
X65130476Y-24411452D01*
X65111428Y-24420976D01*
X65092381Y-24420976D01*
X65073333Y-24411452D01*
X65063809Y-24401928D01*
X65054286Y-24382881D01*
X65044762Y-24344786D01*
X65044762Y-24297167D01*
X65054286Y-24259071D01*
X65063809Y-24240024D01*
X65073333Y-24230500D01*
X65092381Y-24220976D01*
X65244762Y-24420976D02*
X65244762Y-24287643D01*
X65244762Y-24306690D02*
X65254286Y-24297167D01*
X65273333Y-24287643D01*
X65301905Y-24287643D01*
X65320952Y-24297167D01*
X65330476Y-24316214D01*
X65330476Y-24420976D01*
X65330476Y-24316214D02*
X65340000Y-24297167D01*
X65359048Y-24287643D01*
X65387619Y-24287643D01*
X65406667Y-24297167D01*
X65416190Y-24316214D01*
X65416190Y-24420976D01*
X65511428Y-24420976D02*
X65511428Y-24287643D01*
X65511428Y-24306690D02*
X65520952Y-24297167D01*
X65540000Y-24287643D01*
X65568571Y-24287643D01*
X65587619Y-24297167D01*
X65597143Y-24316214D01*
X65597143Y-24420976D01*
X65597143Y-24316214D02*
X65606667Y-24297167D01*
X65625714Y-24287643D01*
X65654286Y-24287643D01*
X65673333Y-24297167D01*
X65682857Y-24316214D01*
X65682857Y-24420976D01*
X66073333Y-24211452D02*
X65901905Y-24468595D01*
X66330476Y-24220976D02*
X66349524Y-24220976D01*
X66368571Y-24230500D01*
X66378095Y-24240024D01*
X66387619Y-24259071D01*
X66397143Y-24297167D01*
X66397143Y-24344786D01*
X66387619Y-24382881D01*
X66378095Y-24401928D01*
X66368571Y-24411452D01*
X66349524Y-24420976D01*
X66330476Y-24420976D01*
X66311428Y-24411452D01*
X66301905Y-24401928D01*
X66292381Y-24382881D01*
X66282857Y-24344786D01*
X66282857Y-24297167D01*
X66292381Y-24259071D01*
X66301905Y-24240024D01*
X66311428Y-24230500D01*
X66330476Y-24220976D01*
X66482857Y-24401928D02*
X66492381Y-24411452D01*
X66482857Y-24420976D01*
X66473333Y-24411452D01*
X66482857Y-24401928D01*
X66482857Y-24420976D01*
X66616190Y-24220976D02*
X66635238Y-24220976D01*
X66654286Y-24230500D01*
X66663809Y-24240024D01*
X66673333Y-24259071D01*
X66682857Y-24297167D01*
X66682857Y-24344786D01*
X66673333Y-24382881D01*
X66663809Y-24401928D01*
X66654286Y-24411452D01*
X66635238Y-24420976D01*
X66616190Y-24420976D01*
X66597143Y-24411452D01*
X66587619Y-24401928D01*
X66578095Y-24382881D01*
X66568571Y-24344786D01*
X66568571Y-24297167D01*
X66578095Y-24259071D01*
X66587619Y-24240024D01*
X66597143Y-24230500D01*
X66616190Y-24220976D01*
X66873333Y-24420976D02*
X66759048Y-24420976D01*
X66816190Y-24420976D02*
X66816190Y-24220976D01*
X66797143Y-24249548D01*
X66778095Y-24268595D01*
X66759048Y-24278119D01*
X67054286Y-24220976D02*
X66959048Y-24220976D01*
X66949524Y-24316214D01*
X66959048Y-24306690D01*
X66978095Y-24297167D01*
X67025714Y-24297167D01*
X67044762Y-24306690D01*
X67054286Y-24316214D01*
X67063809Y-24335262D01*
X67063809Y-24382881D01*
X67054286Y-24401928D01*
X67044762Y-24411452D01*
X67025714Y-24420976D01*
X66978095Y-24420976D01*
X66959048Y-24411452D01*
X66949524Y-24401928D01*
X67130476Y-24220976D02*
X67263810Y-24220976D01*
X67178095Y-24420976D01*
X67330476Y-24220976D02*
X67330476Y-24259071D01*
X67406667Y-24220976D02*
X67406667Y-24259071D01*
X67701905Y-24497167D02*
X67692381Y-24487643D01*
X67673333Y-24459071D01*
X67663810Y-24440024D01*
X67654286Y-24411452D01*
X67644762Y-24363833D01*
X67644762Y-24325738D01*
X67654286Y-24278119D01*
X67663810Y-24249548D01*
X67673333Y-24230500D01*
X67692381Y-24201928D01*
X67701905Y-24192405D01*
X67768571Y-24240024D02*
X67778095Y-24230500D01*
X67797143Y-24220976D01*
X67844762Y-24220976D01*
X67863810Y-24230500D01*
X67873333Y-24240024D01*
X67882857Y-24259071D01*
X67882857Y-24278119D01*
X67873333Y-24306690D01*
X67759048Y-24420976D01*
X67882857Y-24420976D01*
X67997143Y-24306690D02*
X67978095Y-24297167D01*
X67968571Y-24287643D01*
X67959048Y-24268595D01*
X67959048Y-24259071D01*
X67968571Y-24240024D01*
X67978095Y-24230500D01*
X67997143Y-24220976D01*
X68035238Y-24220976D01*
X68054286Y-24230500D01*
X68063810Y-24240024D01*
X68073333Y-24259071D01*
X68073333Y-24268595D01*
X68063810Y-24287643D01*
X68054286Y-24297167D01*
X68035238Y-24306690D01*
X67997143Y-24306690D01*
X67978095Y-24316214D01*
X67968571Y-24325738D01*
X67959048Y-24344786D01*
X67959048Y-24382881D01*
X67968571Y-24401928D01*
X67978095Y-24411452D01*
X67997143Y-24420976D01*
X68035238Y-24420976D01*
X68054286Y-24411452D01*
X68063810Y-24401928D01*
X68073333Y-24382881D01*
X68073333Y-24344786D01*
X68063810Y-24325738D01*
X68054286Y-24316214D01*
X68035238Y-24306690D01*
X68311429Y-24420976D02*
X68311429Y-24220976D01*
X68397143Y-24420976D02*
X68397143Y-24316214D01*
X68387619Y-24297167D01*
X68368571Y-24287643D01*
X68340000Y-24287643D01*
X68320952Y-24297167D01*
X68311429Y-24306690D01*
X68520952Y-24420976D02*
X68501905Y-24411452D01*
X68492381Y-24401928D01*
X68482857Y-24382881D01*
X68482857Y-24325738D01*
X68492381Y-24306690D01*
X68501905Y-24297167D01*
X68520952Y-24287643D01*
X68549524Y-24287643D01*
X68568571Y-24297167D01*
X68578095Y-24306690D01*
X68587619Y-24325738D01*
X68587619Y-24382881D01*
X68578095Y-24401928D01*
X68568571Y-24411452D01*
X68549524Y-24420976D01*
X68520952Y-24420976D01*
X68701905Y-24420976D02*
X68682857Y-24411452D01*
X68673333Y-24392405D01*
X68673333Y-24220976D01*
X68854286Y-24411452D02*
X68835238Y-24420976D01*
X68797143Y-24420976D01*
X68778095Y-24411452D01*
X68768571Y-24392405D01*
X68768571Y-24316214D01*
X68778095Y-24297167D01*
X68797143Y-24287643D01*
X68835238Y-24287643D01*
X68854286Y-24297167D01*
X68863810Y-24316214D01*
X68863810Y-24335262D01*
X68768571Y-24354309D01*
X68940000Y-24411452D02*
X68959048Y-24420976D01*
X68997143Y-24420976D01*
X69016190Y-24411452D01*
X69025714Y-24392405D01*
X69025714Y-24382881D01*
X69016190Y-24363833D01*
X68997143Y-24354309D01*
X68968571Y-24354309D01*
X68949524Y-24344786D01*
X68940000Y-24325738D01*
X68940000Y-24316214D01*
X68949524Y-24297167D01*
X68968571Y-24287643D01*
X68997143Y-24287643D01*
X69016190Y-24297167D01*
X69092381Y-24497167D02*
X69101905Y-24487643D01*
X69120952Y-24459071D01*
X69130476Y-24440024D01*
X69140000Y-24411452D01*
X69149524Y-24363833D01*
X69149524Y-24325738D01*
X69140000Y-24278119D01*
X69130476Y-24249548D01*
X69120952Y-24230500D01*
X69101905Y-24201928D01*
X69092381Y-24192405D01*
D13*
X64130000Y-24594500D02*
G75*
G03*
X64130000Y-24594500I-35500J0D01*
G01*
D11*
X64425714Y-24484976D02*
X64444762Y-24484976D01*
X64463809Y-24494500D01*
X64473333Y-24504024D01*
X64482857Y-24523071D01*
X64492381Y-24561167D01*
X64492381Y-24608786D01*
X64482857Y-24646881D01*
X64473333Y-24665928D01*
X64463809Y-24675452D01*
X64444762Y-24684976D01*
X64425714Y-24684976D01*
X64406667Y-24675452D01*
X64397143Y-24665928D01*
X64387619Y-24646881D01*
X64378095Y-24608786D01*
X64378095Y-24561167D01*
X64387619Y-24523071D01*
X64397143Y-24504024D01*
X64406667Y-24494500D01*
X64425714Y-24484976D01*
X64578095Y-24665928D02*
X64587619Y-24675452D01*
X64578095Y-24684976D01*
X64568571Y-24675452D01*
X64578095Y-24665928D01*
X64578095Y-24684976D01*
X64654286Y-24484976D02*
X64787619Y-24484976D01*
X64701905Y-24684976D01*
X64968571Y-24684976D02*
X64854286Y-24684976D01*
X64911428Y-24684976D02*
X64911428Y-24484976D01*
X64892381Y-24513548D01*
X64873333Y-24532595D01*
X64854286Y-24542119D01*
X65092381Y-24484976D02*
X65111428Y-24484976D01*
X65130476Y-24494500D01*
X65140000Y-24504024D01*
X65149524Y-24523071D01*
X65159048Y-24561167D01*
X65159048Y-24608786D01*
X65149524Y-24646881D01*
X65140000Y-24665928D01*
X65130476Y-24675452D01*
X65111428Y-24684976D01*
X65092381Y-24684976D01*
X65073333Y-24675452D01*
X65063809Y-24665928D01*
X65054286Y-24646881D01*
X65044762Y-24608786D01*
X65044762Y-24561167D01*
X65054286Y-24523071D01*
X65063809Y-24504024D01*
X65073333Y-24494500D01*
X65092381Y-24484976D01*
X65244762Y-24684976D02*
X65244762Y-24551643D01*
X65244762Y-24570690D02*
X65254286Y-24561167D01*
X65273333Y-24551643D01*
X65301905Y-24551643D01*
X65320952Y-24561167D01*
X65330476Y-24580214D01*
X65330476Y-24684976D01*
X65330476Y-24580214D02*
X65340000Y-24561167D01*
X65359048Y-24551643D01*
X65387619Y-24551643D01*
X65406667Y-24561167D01*
X65416190Y-24580214D01*
X65416190Y-24684976D01*
X65511428Y-24684976D02*
X65511428Y-24551643D01*
X65511428Y-24570690D02*
X65520952Y-24561167D01*
X65540000Y-24551643D01*
X65568571Y-24551643D01*
X65587619Y-24561167D01*
X65597143Y-24580214D01*
X65597143Y-24684976D01*
X65597143Y-24580214D02*
X65606667Y-24561167D01*
X65625714Y-24551643D01*
X65654286Y-24551643D01*
X65673333Y-24561167D01*
X65682857Y-24580214D01*
X65682857Y-24684976D01*
X66073333Y-24475452D02*
X65901905Y-24732595D01*
X66330476Y-24484976D02*
X66349524Y-24484976D01*
X66368571Y-24494500D01*
X66378095Y-24504024D01*
X66387619Y-24523071D01*
X66397143Y-24561167D01*
X66397143Y-24608786D01*
X66387619Y-24646881D01*
X66378095Y-24665928D01*
X66368571Y-24675452D01*
X66349524Y-24684976D01*
X66330476Y-24684976D01*
X66311428Y-24675452D01*
X66301905Y-24665928D01*
X66292381Y-24646881D01*
X66282857Y-24608786D01*
X66282857Y-24561167D01*
X66292381Y-24523071D01*
X66301905Y-24504024D01*
X66311428Y-24494500D01*
X66330476Y-24484976D01*
X66482857Y-24665928D02*
X66492381Y-24675452D01*
X66482857Y-24684976D01*
X66473333Y-24675452D01*
X66482857Y-24665928D01*
X66482857Y-24684976D01*
X66616190Y-24484976D02*
X66635238Y-24484976D01*
X66654286Y-24494500D01*
X66663809Y-24504024D01*
X66673333Y-24523071D01*
X66682857Y-24561167D01*
X66682857Y-24608786D01*
X66673333Y-24646881D01*
X66663809Y-24665928D01*
X66654286Y-24675452D01*
X66635238Y-24684976D01*
X66616190Y-24684976D01*
X66597143Y-24675452D01*
X66587619Y-24665928D01*
X66578095Y-24646881D01*
X66568571Y-24608786D01*
X66568571Y-24561167D01*
X66578095Y-24523071D01*
X66587619Y-24504024D01*
X66597143Y-24494500D01*
X66616190Y-24484976D01*
X66759048Y-24504024D02*
X66768571Y-24494500D01*
X66787619Y-24484976D01*
X66835238Y-24484976D01*
X66854286Y-24494500D01*
X66863809Y-24504024D01*
X66873333Y-24523071D01*
X66873333Y-24542119D01*
X66863809Y-24570690D01*
X66749524Y-24684976D01*
X66873333Y-24684976D01*
X66987619Y-24570690D02*
X66968571Y-24561167D01*
X66959048Y-24551643D01*
X66949524Y-24532595D01*
X66949524Y-24523071D01*
X66959048Y-24504024D01*
X66968571Y-24494500D01*
X66987619Y-24484976D01*
X67025714Y-24484976D01*
X67044762Y-24494500D01*
X67054286Y-24504024D01*
X67063809Y-24523071D01*
X67063809Y-24532595D01*
X67054286Y-24551643D01*
X67044762Y-24561167D01*
X67025714Y-24570690D01*
X66987619Y-24570690D01*
X66968571Y-24580214D01*
X66959048Y-24589738D01*
X66949524Y-24608786D01*
X66949524Y-24646881D01*
X66959048Y-24665928D01*
X66968571Y-24675452D01*
X66987619Y-24684976D01*
X67025714Y-24684976D01*
X67044762Y-24675452D01*
X67054286Y-24665928D01*
X67063809Y-24646881D01*
X67063809Y-24608786D01*
X67054286Y-24589738D01*
X67044762Y-24580214D01*
X67025714Y-24570690D01*
X67187619Y-24484976D02*
X67206667Y-24484976D01*
X67225714Y-24494500D01*
X67235238Y-24504024D01*
X67244762Y-24523071D01*
X67254286Y-24561167D01*
X67254286Y-24608786D01*
X67244762Y-24646881D01*
X67235238Y-24665928D01*
X67225714Y-24675452D01*
X67206667Y-24684976D01*
X67187619Y-24684976D01*
X67168571Y-24675452D01*
X67159048Y-24665928D01*
X67149524Y-24646881D01*
X67140000Y-24608786D01*
X67140000Y-24561167D01*
X67149524Y-24523071D01*
X67159048Y-24504024D01*
X67168571Y-24494500D01*
X67187619Y-24484976D01*
X67330476Y-24484976D02*
X67330476Y-24523071D01*
X67406667Y-24484976D02*
X67406667Y-24523071D01*
X67701905Y-24761167D02*
X67692381Y-24751643D01*
X67673333Y-24723071D01*
X67663810Y-24704024D01*
X67654286Y-24675452D01*
X67644762Y-24627833D01*
X67644762Y-24589738D01*
X67654286Y-24542119D01*
X67663810Y-24513548D01*
X67673333Y-24494500D01*
X67692381Y-24465928D01*
X67701905Y-24456405D01*
X67768571Y-24504024D02*
X67778095Y-24494500D01*
X67797143Y-24484976D01*
X67844762Y-24484976D01*
X67863810Y-24494500D01*
X67873333Y-24504024D01*
X67882857Y-24523071D01*
X67882857Y-24542119D01*
X67873333Y-24570690D01*
X67759048Y-24684976D01*
X67882857Y-24684976D01*
X68120952Y-24684976D02*
X68120952Y-24484976D01*
X68206667Y-24684976D02*
X68206667Y-24580214D01*
X68197143Y-24561167D01*
X68178095Y-24551643D01*
X68149524Y-24551643D01*
X68130476Y-24561167D01*
X68120952Y-24570690D01*
X68330476Y-24684976D02*
X68311429Y-24675452D01*
X68301905Y-24665928D01*
X68292381Y-24646881D01*
X68292381Y-24589738D01*
X68301905Y-24570690D01*
X68311429Y-24561167D01*
X68330476Y-24551643D01*
X68359048Y-24551643D01*
X68378095Y-24561167D01*
X68387619Y-24570690D01*
X68397143Y-24589738D01*
X68397143Y-24646881D01*
X68387619Y-24665928D01*
X68378095Y-24675452D01*
X68359048Y-24684976D01*
X68330476Y-24684976D01*
X68511429Y-24684976D02*
X68492381Y-24675452D01*
X68482857Y-24656405D01*
X68482857Y-24484976D01*
X68663810Y-24675452D02*
X68644762Y-24684976D01*
X68606667Y-24684976D01*
X68587619Y-24675452D01*
X68578095Y-24656405D01*
X68578095Y-24580214D01*
X68587619Y-24561167D01*
X68606667Y-24551643D01*
X68644762Y-24551643D01*
X68663810Y-24561167D01*
X68673333Y-24580214D01*
X68673333Y-24599262D01*
X68578095Y-24618309D01*
X68749524Y-24675452D02*
X68768571Y-24684976D01*
X68806667Y-24684976D01*
X68825714Y-24675452D01*
X68835238Y-24656405D01*
X68835238Y-24646881D01*
X68825714Y-24627833D01*
X68806667Y-24618309D01*
X68778095Y-24618309D01*
X68759048Y-24608786D01*
X68749524Y-24589738D01*
X68749524Y-24580214D01*
X68759048Y-24561167D01*
X68778095Y-24551643D01*
X68806667Y-24551643D01*
X68825714Y-24561167D01*
X68901905Y-24761167D02*
X68911429Y-24751643D01*
X68930476Y-24723071D01*
X68940000Y-24704024D01*
X68949524Y-24675452D01*
X68959048Y-24627833D01*
X68959048Y-24589738D01*
X68949524Y-24542119D01*
X68940000Y-24513548D01*
X68930476Y-24494500D01*
X68911429Y-24465928D01*
X68901905Y-24456405D01*
D14*
X64090000Y-24818500D02*
X64090000Y-24898500D01*
X64050000Y-24858500D02*
X64130000Y-24858500D01*
D11*
X64425714Y-24748976D02*
X64444762Y-24748976D01*
X64463809Y-24758500D01*
X64473333Y-24768024D01*
X64482857Y-24787071D01*
X64492381Y-24825167D01*
X64492381Y-24872786D01*
X64482857Y-24910881D01*
X64473333Y-24929928D01*
X64463809Y-24939452D01*
X64444762Y-24948976D01*
X64425714Y-24948976D01*
X64406667Y-24939452D01*
X64397143Y-24929928D01*
X64387619Y-24910881D01*
X64378095Y-24872786D01*
X64378095Y-24825167D01*
X64387619Y-24787071D01*
X64397143Y-24768024D01*
X64406667Y-24758500D01*
X64425714Y-24748976D01*
X64578095Y-24929928D02*
X64587619Y-24939452D01*
X64578095Y-24948976D01*
X64568571Y-24939452D01*
X64578095Y-24929928D01*
X64578095Y-24948976D01*
X64701905Y-24834690D02*
X64682857Y-24825167D01*
X64673333Y-24815643D01*
X64663809Y-24796595D01*
X64663809Y-24787071D01*
X64673333Y-24768024D01*
X64682857Y-24758500D01*
X64701905Y-24748976D01*
X64740000Y-24748976D01*
X64759048Y-24758500D01*
X64768571Y-24768024D01*
X64778095Y-24787071D01*
X64778095Y-24796595D01*
X64768571Y-24815643D01*
X64759048Y-24825167D01*
X64740000Y-24834690D01*
X64701905Y-24834690D01*
X64682857Y-24844214D01*
X64673333Y-24853738D01*
X64663809Y-24872786D01*
X64663809Y-24910881D01*
X64673333Y-24929928D01*
X64682857Y-24939452D01*
X64701905Y-24948976D01*
X64740000Y-24948976D01*
X64759048Y-24939452D01*
X64768571Y-24929928D01*
X64778095Y-24910881D01*
X64778095Y-24872786D01*
X64768571Y-24853738D01*
X64759048Y-24844214D01*
X64740000Y-24834690D01*
X64901905Y-24748976D02*
X64920952Y-24748976D01*
X64940000Y-24758500D01*
X64949524Y-24768024D01*
X64959048Y-24787071D01*
X64968571Y-24825167D01*
X64968571Y-24872786D01*
X64959048Y-24910881D01*
X64949524Y-24929928D01*
X64940000Y-24939452D01*
X64920952Y-24948976D01*
X64901905Y-24948976D01*
X64882857Y-24939452D01*
X64873333Y-24929928D01*
X64863809Y-24910881D01*
X64854286Y-24872786D01*
X64854286Y-24825167D01*
X64863809Y-24787071D01*
X64873333Y-24768024D01*
X64882857Y-24758500D01*
X64901905Y-24748976D01*
X65092381Y-24748976D02*
X65111428Y-24748976D01*
X65130476Y-24758500D01*
X65140000Y-24768024D01*
X65149524Y-24787071D01*
X65159048Y-24825167D01*
X65159048Y-24872786D01*
X65149524Y-24910881D01*
X65140000Y-24929928D01*
X65130476Y-24939452D01*
X65111428Y-24948976D01*
X65092381Y-24948976D01*
X65073333Y-24939452D01*
X65063809Y-24929928D01*
X65054286Y-24910881D01*
X65044762Y-24872786D01*
X65044762Y-24825167D01*
X65054286Y-24787071D01*
X65063809Y-24768024D01*
X65073333Y-24758500D01*
X65092381Y-24748976D01*
X65244762Y-24948976D02*
X65244762Y-24815643D01*
X65244762Y-24834690D02*
X65254286Y-24825167D01*
X65273333Y-24815643D01*
X65301905Y-24815643D01*
X65320952Y-24825167D01*
X65330476Y-24844214D01*
X65330476Y-24948976D01*
X65330476Y-24844214D02*
X65340000Y-24825167D01*
X65359048Y-24815643D01*
X65387619Y-24815643D01*
X65406667Y-24825167D01*
X65416190Y-24844214D01*
X65416190Y-24948976D01*
X65511428Y-24948976D02*
X65511428Y-24815643D01*
X65511428Y-24834690D02*
X65520952Y-24825167D01*
X65540000Y-24815643D01*
X65568571Y-24815643D01*
X65587619Y-24825167D01*
X65597143Y-24844214D01*
X65597143Y-24948976D01*
X65597143Y-24844214D02*
X65606667Y-24825167D01*
X65625714Y-24815643D01*
X65654286Y-24815643D01*
X65673333Y-24825167D01*
X65682857Y-24844214D01*
X65682857Y-24948976D01*
X66073333Y-24739452D02*
X65901905Y-24996595D01*
X66330476Y-24748976D02*
X66349524Y-24748976D01*
X66368571Y-24758500D01*
X66378095Y-24768024D01*
X66387619Y-24787071D01*
X66397143Y-24825167D01*
X66397143Y-24872786D01*
X66387619Y-24910881D01*
X66378095Y-24929928D01*
X66368571Y-24939452D01*
X66349524Y-24948976D01*
X66330476Y-24948976D01*
X66311428Y-24939452D01*
X66301905Y-24929928D01*
X66292381Y-24910881D01*
X66282857Y-24872786D01*
X66282857Y-24825167D01*
X66292381Y-24787071D01*
X66301905Y-24768024D01*
X66311428Y-24758500D01*
X66330476Y-24748976D01*
X66482857Y-24929928D02*
X66492381Y-24939452D01*
X66482857Y-24948976D01*
X66473333Y-24939452D01*
X66482857Y-24929928D01*
X66482857Y-24948976D01*
X66616190Y-24748976D02*
X66635238Y-24748976D01*
X66654286Y-24758500D01*
X66663809Y-24768024D01*
X66673333Y-24787071D01*
X66682857Y-24825167D01*
X66682857Y-24872786D01*
X66673333Y-24910881D01*
X66663809Y-24929928D01*
X66654286Y-24939452D01*
X66635238Y-24948976D01*
X66616190Y-24948976D01*
X66597143Y-24939452D01*
X66587619Y-24929928D01*
X66578095Y-24910881D01*
X66568571Y-24872786D01*
X66568571Y-24825167D01*
X66578095Y-24787071D01*
X66587619Y-24768024D01*
X66597143Y-24758500D01*
X66616190Y-24748976D01*
X66749524Y-24748976D02*
X66873333Y-24748976D01*
X66806667Y-24825167D01*
X66835238Y-24825167D01*
X66854286Y-24834690D01*
X66863809Y-24844214D01*
X66873333Y-24863262D01*
X66873333Y-24910881D01*
X66863809Y-24929928D01*
X66854286Y-24939452D01*
X66835238Y-24948976D01*
X66778095Y-24948976D01*
X66759048Y-24939452D01*
X66749524Y-24929928D01*
X67063809Y-24948976D02*
X66949524Y-24948976D01*
X67006667Y-24948976D02*
X67006667Y-24748976D01*
X66987619Y-24777548D01*
X66968571Y-24796595D01*
X66949524Y-24806119D01*
X67244762Y-24748976D02*
X67149524Y-24748976D01*
X67140000Y-24844214D01*
X67149524Y-24834690D01*
X67168571Y-24825167D01*
X67216190Y-24825167D01*
X67235238Y-24834690D01*
X67244762Y-24844214D01*
X67254286Y-24863262D01*
X67254286Y-24910881D01*
X67244762Y-24929928D01*
X67235238Y-24939452D01*
X67216190Y-24948976D01*
X67168571Y-24948976D01*
X67149524Y-24939452D01*
X67140000Y-24929928D01*
X67330476Y-24748976D02*
X67330476Y-24787071D01*
X67406667Y-24748976D02*
X67406667Y-24787071D01*
X67701905Y-25025167D02*
X67692381Y-25015643D01*
X67673333Y-24987071D01*
X67663810Y-24968024D01*
X67654286Y-24939452D01*
X67644762Y-24891833D01*
X67644762Y-24853738D01*
X67654286Y-24806119D01*
X67663810Y-24777548D01*
X67673333Y-24758500D01*
X67692381Y-24729928D01*
X67701905Y-24720405D01*
X67787619Y-24948976D02*
X67825714Y-24948976D01*
X67844762Y-24939452D01*
X67854286Y-24929928D01*
X67873333Y-24901357D01*
X67882857Y-24863262D01*
X67882857Y-24787071D01*
X67873333Y-24768024D01*
X67863810Y-24758500D01*
X67844762Y-24748976D01*
X67806667Y-24748976D01*
X67787619Y-24758500D01*
X67778095Y-24768024D01*
X67768571Y-24787071D01*
X67768571Y-24834690D01*
X67778095Y-24853738D01*
X67787619Y-24863262D01*
X67806667Y-24872786D01*
X67844762Y-24872786D01*
X67863810Y-24863262D01*
X67873333Y-24853738D01*
X67882857Y-24834690D01*
X67997143Y-24834690D02*
X67978095Y-24825167D01*
X67968571Y-24815643D01*
X67959048Y-24796595D01*
X67959048Y-24787071D01*
X67968571Y-24768024D01*
X67978095Y-24758500D01*
X67997143Y-24748976D01*
X68035238Y-24748976D01*
X68054286Y-24758500D01*
X68063810Y-24768024D01*
X68073333Y-24787071D01*
X68073333Y-24796595D01*
X68063810Y-24815643D01*
X68054286Y-24825167D01*
X68035238Y-24834690D01*
X67997143Y-24834690D01*
X67978095Y-24844214D01*
X67968571Y-24853738D01*
X67959048Y-24872786D01*
X67959048Y-24910881D01*
X67968571Y-24929928D01*
X67978095Y-24939452D01*
X67997143Y-24948976D01*
X68035238Y-24948976D01*
X68054286Y-24939452D01*
X68063810Y-24929928D01*
X68073333Y-24910881D01*
X68073333Y-24872786D01*
X68063810Y-24853738D01*
X68054286Y-24844214D01*
X68035238Y-24834690D01*
X68311429Y-24948976D02*
X68311429Y-24748976D01*
X68397143Y-24948976D02*
X68397143Y-24844214D01*
X68387619Y-24825167D01*
X68368571Y-24815643D01*
X68340000Y-24815643D01*
X68320952Y-24825167D01*
X68311429Y-24834690D01*
X68520952Y-24948976D02*
X68501905Y-24939452D01*
X68492381Y-24929928D01*
X68482857Y-24910881D01*
X68482857Y-24853738D01*
X68492381Y-24834690D01*
X68501905Y-24825167D01*
X68520952Y-24815643D01*
X68549524Y-24815643D01*
X68568571Y-24825167D01*
X68578095Y-24834690D01*
X68587619Y-24853738D01*
X68587619Y-24910881D01*
X68578095Y-24929928D01*
X68568571Y-24939452D01*
X68549524Y-24948976D01*
X68520952Y-24948976D01*
X68701905Y-24948976D02*
X68682857Y-24939452D01*
X68673333Y-24920405D01*
X68673333Y-24748976D01*
X68854286Y-24939452D02*
X68835238Y-24948976D01*
X68797143Y-24948976D01*
X68778095Y-24939452D01*
X68768571Y-24920405D01*
X68768571Y-24844214D01*
X68778095Y-24825167D01*
X68797143Y-24815643D01*
X68835238Y-24815643D01*
X68854286Y-24825167D01*
X68863810Y-24844214D01*
X68863810Y-24863262D01*
X68768571Y-24882309D01*
X68940000Y-24939452D02*
X68959048Y-24948976D01*
X68997143Y-24948976D01*
X69016190Y-24939452D01*
X69025714Y-24920405D01*
X69025714Y-24910881D01*
X69016190Y-24891833D01*
X68997143Y-24882309D01*
X68968571Y-24882309D01*
X68949524Y-24872786D01*
X68940000Y-24853738D01*
X68940000Y-24844214D01*
X68949524Y-24825167D01*
X68968571Y-24815643D01*
X68997143Y-24815643D01*
X69016190Y-24825167D01*
X69092381Y-25025167D02*
X69101905Y-25015643D01*
X69120952Y-24987071D01*
X69130476Y-24968024D01*
X69140000Y-24939452D01*
X69149524Y-24891833D01*
X69149524Y-24853738D01*
X69140000Y-24806119D01*
X69130476Y-24777548D01*
X69120952Y-24758500D01*
X69101905Y-24729928D01*
X69092381Y-24720405D01*
D15*
X64116820Y-25154320D02*
X64116820Y-25090680D01*
X64053180Y-25090680D01*
X64053180Y-25154320D01*
X64116820Y-25154320D01*
D11*
X64425714Y-25012976D02*
X64444762Y-25012976D01*
X64463809Y-25022500D01*
X64473333Y-25032024D01*
X64482857Y-25051071D01*
X64492381Y-25089167D01*
X64492381Y-25136786D01*
X64482857Y-25174881D01*
X64473333Y-25193928D01*
X64463809Y-25203452D01*
X64444762Y-25212976D01*
X64425714Y-25212976D01*
X64406667Y-25203452D01*
X64397143Y-25193928D01*
X64387619Y-25174881D01*
X64378095Y-25136786D01*
X64378095Y-25089167D01*
X64387619Y-25051071D01*
X64397143Y-25032024D01*
X64406667Y-25022500D01*
X64425714Y-25012976D01*
X64578095Y-25193928D02*
X64587619Y-25203452D01*
X64578095Y-25212976D01*
X64568571Y-25203452D01*
X64578095Y-25193928D01*
X64578095Y-25212976D01*
X64682857Y-25212976D02*
X64720952Y-25212976D01*
X64740000Y-25203452D01*
X64749524Y-25193928D01*
X64768571Y-25165357D01*
X64778095Y-25127262D01*
X64778095Y-25051071D01*
X64768571Y-25032024D01*
X64759048Y-25022500D01*
X64740000Y-25012976D01*
X64701905Y-25012976D01*
X64682857Y-25022500D01*
X64673333Y-25032024D01*
X64663809Y-25051071D01*
X64663809Y-25098690D01*
X64673333Y-25117738D01*
X64682857Y-25127262D01*
X64701905Y-25136786D01*
X64740000Y-25136786D01*
X64759048Y-25127262D01*
X64768571Y-25117738D01*
X64778095Y-25098690D01*
X64901905Y-25012976D02*
X64920952Y-25012976D01*
X64940000Y-25022500D01*
X64949524Y-25032024D01*
X64959048Y-25051071D01*
X64968571Y-25089167D01*
X64968571Y-25136786D01*
X64959048Y-25174881D01*
X64949524Y-25193928D01*
X64940000Y-25203452D01*
X64920952Y-25212976D01*
X64901905Y-25212976D01*
X64882857Y-25203452D01*
X64873333Y-25193928D01*
X64863809Y-25174881D01*
X64854286Y-25136786D01*
X64854286Y-25089167D01*
X64863809Y-25051071D01*
X64873333Y-25032024D01*
X64882857Y-25022500D01*
X64901905Y-25012976D01*
X65092381Y-25012976D02*
X65111428Y-25012976D01*
X65130476Y-25022500D01*
X65140000Y-25032024D01*
X65149524Y-25051071D01*
X65159048Y-25089167D01*
X65159048Y-25136786D01*
X65149524Y-25174881D01*
X65140000Y-25193928D01*
X65130476Y-25203452D01*
X65111428Y-25212976D01*
X65092381Y-25212976D01*
X65073333Y-25203452D01*
X65063809Y-25193928D01*
X65054286Y-25174881D01*
X65044762Y-25136786D01*
X65044762Y-25089167D01*
X65054286Y-25051071D01*
X65063809Y-25032024D01*
X65073333Y-25022500D01*
X65092381Y-25012976D01*
X65244762Y-25212976D02*
X65244762Y-25079643D01*
X65244762Y-25098690D02*
X65254286Y-25089167D01*
X65273333Y-25079643D01*
X65301905Y-25079643D01*
X65320952Y-25089167D01*
X65330476Y-25108214D01*
X65330476Y-25212976D01*
X65330476Y-25108214D02*
X65340000Y-25089167D01*
X65359048Y-25079643D01*
X65387619Y-25079643D01*
X65406667Y-25089167D01*
X65416190Y-25108214D01*
X65416190Y-25212976D01*
X65511428Y-25212976D02*
X65511428Y-25079643D01*
X65511428Y-25098690D02*
X65520952Y-25089167D01*
X65540000Y-25079643D01*
X65568571Y-25079643D01*
X65587619Y-25089167D01*
X65597143Y-25108214D01*
X65597143Y-25212976D01*
X65597143Y-25108214D02*
X65606667Y-25089167D01*
X65625714Y-25079643D01*
X65654286Y-25079643D01*
X65673333Y-25089167D01*
X65682857Y-25108214D01*
X65682857Y-25212976D01*
X66073333Y-25003452D02*
X65901905Y-25260595D01*
X66330476Y-25012976D02*
X66349524Y-25012976D01*
X66368571Y-25022500D01*
X66378095Y-25032024D01*
X66387619Y-25051071D01*
X66397143Y-25089167D01*
X66397143Y-25136786D01*
X66387619Y-25174881D01*
X66378095Y-25193928D01*
X66368571Y-25203452D01*
X66349524Y-25212976D01*
X66330476Y-25212976D01*
X66311428Y-25203452D01*
X66301905Y-25193928D01*
X66292381Y-25174881D01*
X66282857Y-25136786D01*
X66282857Y-25089167D01*
X66292381Y-25051071D01*
X66301905Y-25032024D01*
X66311428Y-25022500D01*
X66330476Y-25012976D01*
X66482857Y-25193928D02*
X66492381Y-25203452D01*
X66482857Y-25212976D01*
X66473333Y-25203452D01*
X66482857Y-25193928D01*
X66482857Y-25212976D01*
X66616190Y-25012976D02*
X66635238Y-25012976D01*
X66654286Y-25022500D01*
X66663809Y-25032024D01*
X66673333Y-25051071D01*
X66682857Y-25089167D01*
X66682857Y-25136786D01*
X66673333Y-25174881D01*
X66663809Y-25193928D01*
X66654286Y-25203452D01*
X66635238Y-25212976D01*
X66616190Y-25212976D01*
X66597143Y-25203452D01*
X66587619Y-25193928D01*
X66578095Y-25174881D01*
X66568571Y-25136786D01*
X66568571Y-25089167D01*
X66578095Y-25051071D01*
X66587619Y-25032024D01*
X66597143Y-25022500D01*
X66616190Y-25012976D01*
X66749524Y-25012976D02*
X66873333Y-25012976D01*
X66806667Y-25089167D01*
X66835238Y-25089167D01*
X66854286Y-25098690D01*
X66863809Y-25108214D01*
X66873333Y-25127262D01*
X66873333Y-25174881D01*
X66863809Y-25193928D01*
X66854286Y-25203452D01*
X66835238Y-25212976D01*
X66778095Y-25212976D01*
X66759048Y-25203452D01*
X66749524Y-25193928D01*
X67054286Y-25012976D02*
X66959048Y-25012976D01*
X66949524Y-25108214D01*
X66959048Y-25098690D01*
X66978095Y-25089167D01*
X67025714Y-25089167D01*
X67044762Y-25098690D01*
X67054286Y-25108214D01*
X67063809Y-25127262D01*
X67063809Y-25174881D01*
X67054286Y-25193928D01*
X67044762Y-25203452D01*
X67025714Y-25212976D01*
X66978095Y-25212976D01*
X66959048Y-25203452D01*
X66949524Y-25193928D01*
X67235238Y-25079643D02*
X67235238Y-25212976D01*
X67187619Y-25003452D02*
X67140000Y-25146309D01*
X67263810Y-25146309D01*
X67330476Y-25012976D02*
X67330476Y-25051071D01*
X67406667Y-25012976D02*
X67406667Y-25051071D01*
X67701905Y-25289167D02*
X67692381Y-25279643D01*
X67673333Y-25251071D01*
X67663810Y-25232024D01*
X67654286Y-25203452D01*
X67644762Y-25155833D01*
X67644762Y-25117738D01*
X67654286Y-25070119D01*
X67663810Y-25041548D01*
X67673333Y-25022500D01*
X67692381Y-24993928D01*
X67701905Y-24984405D01*
X67768571Y-25032024D02*
X67778095Y-25022500D01*
X67797143Y-25012976D01*
X67844762Y-25012976D01*
X67863810Y-25022500D01*
X67873333Y-25032024D01*
X67882857Y-25051071D01*
X67882857Y-25070119D01*
X67873333Y-25098690D01*
X67759048Y-25212976D01*
X67882857Y-25212976D01*
X68120952Y-25212976D02*
X68120952Y-25012976D01*
X68206667Y-25212976D02*
X68206667Y-25108214D01*
X68197143Y-25089167D01*
X68178095Y-25079643D01*
X68149524Y-25079643D01*
X68130476Y-25089167D01*
X68120952Y-25098690D01*
X68330476Y-25212976D02*
X68311429Y-25203452D01*
X68301905Y-25193928D01*
X68292381Y-25174881D01*
X68292381Y-25117738D01*
X68301905Y-25098690D01*
X68311429Y-25089167D01*
X68330476Y-25079643D01*
X68359048Y-25079643D01*
X68378095Y-25089167D01*
X68387619Y-25098690D01*
X68397143Y-25117738D01*
X68397143Y-25174881D01*
X68387619Y-25193928D01*
X68378095Y-25203452D01*
X68359048Y-25212976D01*
X68330476Y-25212976D01*
X68511429Y-25212976D02*
X68492381Y-25203452D01*
X68482857Y-25184405D01*
X68482857Y-25012976D01*
X68663810Y-25203452D02*
X68644762Y-25212976D01*
X68606667Y-25212976D01*
X68587619Y-25203452D01*
X68578095Y-25184405D01*
X68578095Y-25108214D01*
X68587619Y-25089167D01*
X68606667Y-25079643D01*
X68644762Y-25079643D01*
X68663810Y-25089167D01*
X68673333Y-25108214D01*
X68673333Y-25127262D01*
X68578095Y-25146309D01*
X68749524Y-25203452D02*
X68768571Y-25212976D01*
X68806667Y-25212976D01*
X68825714Y-25203452D01*
X68835238Y-25184405D01*
X68835238Y-25174881D01*
X68825714Y-25155833D01*
X68806667Y-25146309D01*
X68778095Y-25146309D01*
X68759048Y-25136786D01*
X68749524Y-25117738D01*
X68749524Y-25108214D01*
X68759048Y-25089167D01*
X68778095Y-25079643D01*
X68806667Y-25079643D01*
X68825714Y-25089167D01*
X68901905Y-25289167D02*
X68911429Y-25279643D01*
X68930476Y-25251071D01*
X68940000Y-25232024D01*
X68949524Y-25203452D01*
X68959048Y-25155833D01*
X68959048Y-25117738D01*
X68949524Y-25070119D01*
X68940000Y-25041548D01*
X68930476Y-25022500D01*
X68911429Y-24993928D01*
X68901905Y-24984405D01*
D16*
X64081500Y-25435000D02*
X64130000Y-25386500D01*
X64081500Y-25338000D01*
X64033000Y-25386500D01*
X64081500Y-25435000D01*
D11*
X64425714Y-25276976D02*
X64444762Y-25276976D01*
X64463809Y-25286500D01*
X64473333Y-25296024D01*
X64482857Y-25315071D01*
X64492381Y-25353167D01*
X64492381Y-25400786D01*
X64482857Y-25438881D01*
X64473333Y-25457928D01*
X64463809Y-25467452D01*
X64444762Y-25476976D01*
X64425714Y-25476976D01*
X64406667Y-25467452D01*
X64397143Y-25457928D01*
X64387619Y-25438881D01*
X64378095Y-25400786D01*
X64378095Y-25353167D01*
X64387619Y-25315071D01*
X64397143Y-25296024D01*
X64406667Y-25286500D01*
X64425714Y-25276976D01*
X64578095Y-25457928D02*
X64587619Y-25467452D01*
X64578095Y-25476976D01*
X64568571Y-25467452D01*
X64578095Y-25457928D01*
X64578095Y-25476976D01*
X64682857Y-25476976D02*
X64720952Y-25476976D01*
X64740000Y-25467452D01*
X64749524Y-25457928D01*
X64768571Y-25429357D01*
X64778095Y-25391262D01*
X64778095Y-25315071D01*
X64768571Y-25296024D01*
X64759048Y-25286500D01*
X64740000Y-25276976D01*
X64701905Y-25276976D01*
X64682857Y-25286500D01*
X64673333Y-25296024D01*
X64663809Y-25315071D01*
X64663809Y-25362690D01*
X64673333Y-25381738D01*
X64682857Y-25391262D01*
X64701905Y-25400786D01*
X64740000Y-25400786D01*
X64759048Y-25391262D01*
X64768571Y-25381738D01*
X64778095Y-25362690D01*
X64844762Y-25276976D02*
X64978095Y-25276976D01*
X64892381Y-25476976D01*
X65092381Y-25276976D02*
X65111428Y-25276976D01*
X65130476Y-25286500D01*
X65140000Y-25296024D01*
X65149524Y-25315071D01*
X65159048Y-25353167D01*
X65159048Y-25400786D01*
X65149524Y-25438881D01*
X65140000Y-25457928D01*
X65130476Y-25467452D01*
X65111428Y-25476976D01*
X65092381Y-25476976D01*
X65073333Y-25467452D01*
X65063809Y-25457928D01*
X65054286Y-25438881D01*
X65044762Y-25400786D01*
X65044762Y-25353167D01*
X65054286Y-25315071D01*
X65063809Y-25296024D01*
X65073333Y-25286500D01*
X65092381Y-25276976D01*
X65244762Y-25476976D02*
X65244762Y-25343643D01*
X65244762Y-25362690D02*
X65254286Y-25353167D01*
X65273333Y-25343643D01*
X65301905Y-25343643D01*
X65320952Y-25353167D01*
X65330476Y-25372214D01*
X65330476Y-25476976D01*
X65330476Y-25372214D02*
X65340000Y-25353167D01*
X65359048Y-25343643D01*
X65387619Y-25343643D01*
X65406667Y-25353167D01*
X65416190Y-25372214D01*
X65416190Y-25476976D01*
X65511428Y-25476976D02*
X65511428Y-25343643D01*
X65511428Y-25362690D02*
X65520952Y-25353167D01*
X65540000Y-25343643D01*
X65568571Y-25343643D01*
X65587619Y-25353167D01*
X65597143Y-25372214D01*
X65597143Y-25476976D01*
X65597143Y-25372214D02*
X65606667Y-25353167D01*
X65625714Y-25343643D01*
X65654286Y-25343643D01*
X65673333Y-25353167D01*
X65682857Y-25372214D01*
X65682857Y-25476976D01*
X66073333Y-25267452D02*
X65901905Y-25524595D01*
X66330476Y-25276976D02*
X66349524Y-25276976D01*
X66368571Y-25286500D01*
X66378095Y-25296024D01*
X66387619Y-25315071D01*
X66397143Y-25353167D01*
X66397143Y-25400786D01*
X66387619Y-25438881D01*
X66378095Y-25457928D01*
X66368571Y-25467452D01*
X66349524Y-25476976D01*
X66330476Y-25476976D01*
X66311428Y-25467452D01*
X66301905Y-25457928D01*
X66292381Y-25438881D01*
X66282857Y-25400786D01*
X66282857Y-25353167D01*
X66292381Y-25315071D01*
X66301905Y-25296024D01*
X66311428Y-25286500D01*
X66330476Y-25276976D01*
X66482857Y-25457928D02*
X66492381Y-25467452D01*
X66482857Y-25476976D01*
X66473333Y-25467452D01*
X66482857Y-25457928D01*
X66482857Y-25476976D01*
X66616190Y-25276976D02*
X66635238Y-25276976D01*
X66654286Y-25286500D01*
X66663809Y-25296024D01*
X66673333Y-25315071D01*
X66682857Y-25353167D01*
X66682857Y-25400786D01*
X66673333Y-25438881D01*
X66663809Y-25457928D01*
X66654286Y-25467452D01*
X66635238Y-25476976D01*
X66616190Y-25476976D01*
X66597143Y-25467452D01*
X66587619Y-25457928D01*
X66578095Y-25438881D01*
X66568571Y-25400786D01*
X66568571Y-25353167D01*
X66578095Y-25315071D01*
X66587619Y-25296024D01*
X66597143Y-25286500D01*
X66616190Y-25276976D01*
X66749524Y-25276976D02*
X66873333Y-25276976D01*
X66806667Y-25353167D01*
X66835238Y-25353167D01*
X66854286Y-25362690D01*
X66863809Y-25372214D01*
X66873333Y-25391262D01*
X66873333Y-25438881D01*
X66863809Y-25457928D01*
X66854286Y-25467452D01*
X66835238Y-25476976D01*
X66778095Y-25476976D01*
X66759048Y-25467452D01*
X66749524Y-25457928D01*
X66987619Y-25362690D02*
X66968571Y-25353167D01*
X66959048Y-25343643D01*
X66949524Y-25324595D01*
X66949524Y-25315071D01*
X66959048Y-25296024D01*
X66968571Y-25286500D01*
X66987619Y-25276976D01*
X67025714Y-25276976D01*
X67044762Y-25286500D01*
X67054286Y-25296024D01*
X67063809Y-25315071D01*
X67063809Y-25324595D01*
X67054286Y-25343643D01*
X67044762Y-25353167D01*
X67025714Y-25362690D01*
X66987619Y-25362690D01*
X66968571Y-25372214D01*
X66959048Y-25381738D01*
X66949524Y-25400786D01*
X66949524Y-25438881D01*
X66959048Y-25457928D01*
X66968571Y-25467452D01*
X66987619Y-25476976D01*
X67025714Y-25476976D01*
X67044762Y-25467452D01*
X67054286Y-25457928D01*
X67063809Y-25438881D01*
X67063809Y-25400786D01*
X67054286Y-25381738D01*
X67044762Y-25372214D01*
X67025714Y-25362690D01*
X67140000Y-25296024D02*
X67149524Y-25286500D01*
X67168571Y-25276976D01*
X67216190Y-25276976D01*
X67235238Y-25286500D01*
X67244762Y-25296024D01*
X67254286Y-25315071D01*
X67254286Y-25334119D01*
X67244762Y-25362690D01*
X67130476Y-25476976D01*
X67254286Y-25476976D01*
X67330476Y-25276976D02*
X67330476Y-25315071D01*
X67406667Y-25276976D02*
X67406667Y-25315071D01*
X67701905Y-25553167D02*
X67692381Y-25543643D01*
X67673333Y-25515071D01*
X67663810Y-25496024D01*
X67654286Y-25467452D01*
X67644762Y-25419833D01*
X67644762Y-25381738D01*
X67654286Y-25334119D01*
X67663810Y-25305548D01*
X67673333Y-25286500D01*
X67692381Y-25257928D01*
X67701905Y-25248405D01*
X67768571Y-25296024D02*
X67778095Y-25286500D01*
X67797143Y-25276976D01*
X67844762Y-25276976D01*
X67863810Y-25286500D01*
X67873333Y-25296024D01*
X67882857Y-25315071D01*
X67882857Y-25334119D01*
X67873333Y-25362690D01*
X67759048Y-25476976D01*
X67882857Y-25476976D01*
X68120952Y-25476976D02*
X68120952Y-25276976D01*
X68206667Y-25476976D02*
X68206667Y-25372214D01*
X68197143Y-25353167D01*
X68178095Y-25343643D01*
X68149524Y-25343643D01*
X68130476Y-25353167D01*
X68120952Y-25362690D01*
X68330476Y-25476976D02*
X68311429Y-25467452D01*
X68301905Y-25457928D01*
X68292381Y-25438881D01*
X68292381Y-25381738D01*
X68301905Y-25362690D01*
X68311429Y-25353167D01*
X68330476Y-25343643D01*
X68359048Y-25343643D01*
X68378095Y-25353167D01*
X68387619Y-25362690D01*
X68397143Y-25381738D01*
X68397143Y-25438881D01*
X68387619Y-25457928D01*
X68378095Y-25467452D01*
X68359048Y-25476976D01*
X68330476Y-25476976D01*
X68511429Y-25476976D02*
X68492381Y-25467452D01*
X68482857Y-25448405D01*
X68482857Y-25276976D01*
X68663810Y-25467452D02*
X68644762Y-25476976D01*
X68606667Y-25476976D01*
X68587619Y-25467452D01*
X68578095Y-25448405D01*
X68578095Y-25372214D01*
X68587619Y-25353167D01*
X68606667Y-25343643D01*
X68644762Y-25343643D01*
X68663810Y-25353167D01*
X68673333Y-25372214D01*
X68673333Y-25391262D01*
X68578095Y-25410309D01*
X68749524Y-25467452D02*
X68768571Y-25476976D01*
X68806667Y-25476976D01*
X68825714Y-25467452D01*
X68835238Y-25448405D01*
X68835238Y-25438881D01*
X68825714Y-25419833D01*
X68806667Y-25410309D01*
X68778095Y-25410309D01*
X68759048Y-25400786D01*
X68749524Y-25381738D01*
X68749524Y-25372214D01*
X68759048Y-25353167D01*
X68778095Y-25343643D01*
X68806667Y-25343643D01*
X68825714Y-25353167D01*
X68901905Y-25553167D02*
X68911429Y-25543643D01*
X68930476Y-25515071D01*
X68940000Y-25496024D01*
X68949524Y-25467452D01*
X68959048Y-25419833D01*
X68959048Y-25381738D01*
X68949524Y-25334119D01*
X68940000Y-25305548D01*
X68930476Y-25286500D01*
X68911429Y-25257928D01*
X68901905Y-25248405D01*
D10*
X64030000Y-25600500D02*
X64130000Y-25700500D01*
X64130000Y-25600500D02*
X64030000Y-25700500D01*
X64130000Y-25650500D02*
G75*
G03*
X64130000Y-25650500I-50000J0D01*
G01*
D11*
X64492381Y-25740976D02*
X64378095Y-25740976D01*
X64435238Y-25740976D02*
X64435238Y-25540976D01*
X64416190Y-25569548D01*
X64397143Y-25588595D01*
X64378095Y-25598119D01*
X64578095Y-25721928D02*
X64587619Y-25731452D01*
X64578095Y-25740976D01*
X64568571Y-25731452D01*
X64578095Y-25721928D01*
X64578095Y-25740976D01*
X64711428Y-25540976D02*
X64730476Y-25540976D01*
X64749524Y-25550500D01*
X64759048Y-25560024D01*
X64768571Y-25579071D01*
X64778095Y-25617167D01*
X64778095Y-25664786D01*
X64768571Y-25702881D01*
X64759048Y-25721928D01*
X64749524Y-25731452D01*
X64730476Y-25740976D01*
X64711428Y-25740976D01*
X64692381Y-25731452D01*
X64682857Y-25721928D01*
X64673333Y-25702881D01*
X64663809Y-25664786D01*
X64663809Y-25617167D01*
X64673333Y-25579071D01*
X64682857Y-25560024D01*
X64692381Y-25550500D01*
X64711428Y-25540976D01*
X64901905Y-25540976D02*
X64920952Y-25540976D01*
X64940000Y-25550500D01*
X64949524Y-25560024D01*
X64959048Y-25579071D01*
X64968571Y-25617167D01*
X64968571Y-25664786D01*
X64959048Y-25702881D01*
X64949524Y-25721928D01*
X64940000Y-25731452D01*
X64920952Y-25740976D01*
X64901905Y-25740976D01*
X64882857Y-25731452D01*
X64873333Y-25721928D01*
X64863809Y-25702881D01*
X64854286Y-25664786D01*
X64854286Y-25617167D01*
X64863809Y-25579071D01*
X64873333Y-25560024D01*
X64882857Y-25550500D01*
X64901905Y-25540976D01*
X65092381Y-25540976D02*
X65111428Y-25540976D01*
X65130476Y-25550500D01*
X65140000Y-25560024D01*
X65149524Y-25579071D01*
X65159048Y-25617167D01*
X65159048Y-25664786D01*
X65149524Y-25702881D01*
X65140000Y-25721928D01*
X65130476Y-25731452D01*
X65111428Y-25740976D01*
X65092381Y-25740976D01*
X65073333Y-25731452D01*
X65063809Y-25721928D01*
X65054286Y-25702881D01*
X65044762Y-25664786D01*
X65044762Y-25617167D01*
X65054286Y-25579071D01*
X65063809Y-25560024D01*
X65073333Y-25550500D01*
X65092381Y-25540976D01*
X65244762Y-25740976D02*
X65244762Y-25607643D01*
X65244762Y-25626690D02*
X65254286Y-25617167D01*
X65273333Y-25607643D01*
X65301905Y-25607643D01*
X65320952Y-25617167D01*
X65330476Y-25636214D01*
X65330476Y-25740976D01*
X65330476Y-25636214D02*
X65340000Y-25617167D01*
X65359048Y-25607643D01*
X65387619Y-25607643D01*
X65406667Y-25617167D01*
X65416190Y-25636214D01*
X65416190Y-25740976D01*
X65511428Y-25740976D02*
X65511428Y-25607643D01*
X65511428Y-25626690D02*
X65520952Y-25617167D01*
X65540000Y-25607643D01*
X65568571Y-25607643D01*
X65587619Y-25617167D01*
X65597143Y-25636214D01*
X65597143Y-25740976D01*
X65597143Y-25636214D02*
X65606667Y-25617167D01*
X65625714Y-25607643D01*
X65654286Y-25607643D01*
X65673333Y-25617167D01*
X65682857Y-25636214D01*
X65682857Y-25740976D01*
X66073333Y-25531452D02*
X65901905Y-25788595D01*
X66330476Y-25540976D02*
X66349524Y-25540976D01*
X66368571Y-25550500D01*
X66378095Y-25560024D01*
X66387619Y-25579071D01*
X66397143Y-25617167D01*
X66397143Y-25664786D01*
X66387619Y-25702881D01*
X66378095Y-25721928D01*
X66368571Y-25731452D01*
X66349524Y-25740976D01*
X66330476Y-25740976D01*
X66311428Y-25731452D01*
X66301905Y-25721928D01*
X66292381Y-25702881D01*
X66282857Y-25664786D01*
X66282857Y-25617167D01*
X66292381Y-25579071D01*
X66301905Y-25560024D01*
X66311428Y-25550500D01*
X66330476Y-25540976D01*
X66482857Y-25721928D02*
X66492381Y-25731452D01*
X66482857Y-25740976D01*
X66473333Y-25731452D01*
X66482857Y-25721928D01*
X66482857Y-25740976D01*
X66616190Y-25540976D02*
X66635238Y-25540976D01*
X66654286Y-25550500D01*
X66663809Y-25560024D01*
X66673333Y-25579071D01*
X66682857Y-25617167D01*
X66682857Y-25664786D01*
X66673333Y-25702881D01*
X66663809Y-25721928D01*
X66654286Y-25731452D01*
X66635238Y-25740976D01*
X66616190Y-25740976D01*
X66597143Y-25731452D01*
X66587619Y-25721928D01*
X66578095Y-25702881D01*
X66568571Y-25664786D01*
X66568571Y-25617167D01*
X66578095Y-25579071D01*
X66587619Y-25560024D01*
X66597143Y-25550500D01*
X66616190Y-25540976D01*
X66749524Y-25540976D02*
X66873333Y-25540976D01*
X66806667Y-25617167D01*
X66835238Y-25617167D01*
X66854286Y-25626690D01*
X66863809Y-25636214D01*
X66873333Y-25655262D01*
X66873333Y-25702881D01*
X66863809Y-25721928D01*
X66854286Y-25731452D01*
X66835238Y-25740976D01*
X66778095Y-25740976D01*
X66759048Y-25731452D01*
X66749524Y-25721928D01*
X66968571Y-25740976D02*
X67006667Y-25740976D01*
X67025714Y-25731452D01*
X67035238Y-25721928D01*
X67054286Y-25693357D01*
X67063809Y-25655262D01*
X67063809Y-25579071D01*
X67054286Y-25560024D01*
X67044762Y-25550500D01*
X67025714Y-25540976D01*
X66987619Y-25540976D01*
X66968571Y-25550500D01*
X66959048Y-25560024D01*
X66949524Y-25579071D01*
X66949524Y-25626690D01*
X66959048Y-25645738D01*
X66968571Y-25655262D01*
X66987619Y-25664786D01*
X67025714Y-25664786D01*
X67044762Y-25655262D01*
X67054286Y-25645738D01*
X67063809Y-25626690D01*
X67235238Y-25607643D02*
X67235238Y-25740976D01*
X67187619Y-25531452D02*
X67140000Y-25674309D01*
X67263810Y-25674309D01*
X67330476Y-25540976D02*
X67330476Y-25579071D01*
X67406667Y-25540976D02*
X67406667Y-25579071D01*
X67701905Y-25817167D02*
X67692381Y-25807643D01*
X67673333Y-25779071D01*
X67663810Y-25760024D01*
X67654286Y-25731452D01*
X67644762Y-25683833D01*
X67644762Y-25645738D01*
X67654286Y-25598119D01*
X67663810Y-25569548D01*
X67673333Y-25550500D01*
X67692381Y-25521928D01*
X67701905Y-25512405D01*
X67768571Y-25560024D02*
X67778095Y-25550500D01*
X67797143Y-25540976D01*
X67844762Y-25540976D01*
X67863810Y-25550500D01*
X67873333Y-25560024D01*
X67882857Y-25579071D01*
X67882857Y-25598119D01*
X67873333Y-25626690D01*
X67759048Y-25740976D01*
X67882857Y-25740976D01*
X67959048Y-25560024D02*
X67968571Y-25550500D01*
X67987619Y-25540976D01*
X68035238Y-25540976D01*
X68054286Y-25550500D01*
X68063810Y-25560024D01*
X68073333Y-25579071D01*
X68073333Y-25598119D01*
X68063810Y-25626690D01*
X67949524Y-25740976D01*
X68073333Y-25740976D01*
X68311429Y-25740976D02*
X68311429Y-25540976D01*
X68397143Y-25740976D02*
X68397143Y-25636214D01*
X68387619Y-25617167D01*
X68368571Y-25607643D01*
X68340000Y-25607643D01*
X68320952Y-25617167D01*
X68311429Y-25626690D01*
X68520952Y-25740976D02*
X68501905Y-25731452D01*
X68492381Y-25721928D01*
X68482857Y-25702881D01*
X68482857Y-25645738D01*
X68492381Y-25626690D01*
X68501905Y-25617167D01*
X68520952Y-25607643D01*
X68549524Y-25607643D01*
X68568571Y-25617167D01*
X68578095Y-25626690D01*
X68587619Y-25645738D01*
X68587619Y-25702881D01*
X68578095Y-25721928D01*
X68568571Y-25731452D01*
X68549524Y-25740976D01*
X68520952Y-25740976D01*
X68701905Y-25740976D02*
X68682857Y-25731452D01*
X68673333Y-25712405D01*
X68673333Y-25540976D01*
X68854286Y-25731452D02*
X68835238Y-25740976D01*
X68797143Y-25740976D01*
X68778095Y-25731452D01*
X68768571Y-25712405D01*
X68768571Y-25636214D01*
X68778095Y-25617167D01*
X68797143Y-25607643D01*
X68835238Y-25607643D01*
X68854286Y-25617167D01*
X68863810Y-25636214D01*
X68863810Y-25655262D01*
X68768571Y-25674309D01*
X68940000Y-25731452D02*
X68959048Y-25740976D01*
X68997143Y-25740976D01*
X69016190Y-25731452D01*
X69025714Y-25712405D01*
X69025714Y-25702881D01*
X69016190Y-25683833D01*
X68997143Y-25674309D01*
X68968571Y-25674309D01*
X68949524Y-25664786D01*
X68940000Y-25645738D01*
X68940000Y-25636214D01*
X68949524Y-25617167D01*
X68968571Y-25607643D01*
X68997143Y-25607643D01*
X69016190Y-25617167D01*
X69092381Y-25817167D02*
X69101905Y-25807643D01*
X69120952Y-25779071D01*
X69130476Y-25760024D01*
X69140000Y-25731452D01*
X69149524Y-25683833D01*
X69149524Y-25645738D01*
X69140000Y-25598119D01*
X69130476Y-25569548D01*
X69120952Y-25550500D01*
X69101905Y-25521928D01*
X69092381Y-25512405D01*
X63930000Y-25814500D02*
X64130000Y-26014500D01*
X64130000Y-25814500D02*
X63930000Y-26014500D01*
X64030000Y-25814500D02*
X64030000Y-26014500D01*
X63930000Y-25914500D02*
X64130000Y-25914500D01*
X64378095Y-25824024D02*
X64387619Y-25814500D01*
X64406667Y-25804976D01*
X64454286Y-25804976D01*
X64473333Y-25814500D01*
X64482857Y-25824024D01*
X64492381Y-25843071D01*
X64492381Y-25862119D01*
X64482857Y-25890690D01*
X64368571Y-26004976D01*
X64492381Y-26004976D01*
X64578095Y-25985928D02*
X64587619Y-25995452D01*
X64578095Y-26004976D01*
X64568571Y-25995452D01*
X64578095Y-25985928D01*
X64578095Y-26004976D01*
X64663809Y-25824024D02*
X64673333Y-25814500D01*
X64692381Y-25804976D01*
X64740000Y-25804976D01*
X64759048Y-25814500D01*
X64768571Y-25824024D01*
X64778095Y-25843071D01*
X64778095Y-25862119D01*
X64768571Y-25890690D01*
X64654286Y-26004976D01*
X64778095Y-26004976D01*
X64901905Y-25804976D02*
X64920952Y-25804976D01*
X64940000Y-25814500D01*
X64949524Y-25824024D01*
X64959048Y-25843071D01*
X64968571Y-25881167D01*
X64968571Y-25928786D01*
X64959048Y-25966881D01*
X64949524Y-25985928D01*
X64940000Y-25995452D01*
X64920952Y-26004976D01*
X64901905Y-26004976D01*
X64882857Y-25995452D01*
X64873333Y-25985928D01*
X64863809Y-25966881D01*
X64854286Y-25928786D01*
X64854286Y-25881167D01*
X64863809Y-25843071D01*
X64873333Y-25824024D01*
X64882857Y-25814500D01*
X64901905Y-25804976D01*
X65092381Y-25804976D02*
X65111428Y-25804976D01*
X65130476Y-25814500D01*
X65140000Y-25824024D01*
X65149524Y-25843071D01*
X65159048Y-25881167D01*
X65159048Y-25928786D01*
X65149524Y-25966881D01*
X65140000Y-25985928D01*
X65130476Y-25995452D01*
X65111428Y-26004976D01*
X65092381Y-26004976D01*
X65073333Y-25995452D01*
X65063809Y-25985928D01*
X65054286Y-25966881D01*
X65044762Y-25928786D01*
X65044762Y-25881167D01*
X65054286Y-25843071D01*
X65063809Y-25824024D01*
X65073333Y-25814500D01*
X65092381Y-25804976D01*
X65244762Y-26004976D02*
X65244762Y-25871643D01*
X65244762Y-25890690D02*
X65254286Y-25881167D01*
X65273333Y-25871643D01*
X65301905Y-25871643D01*
X65320952Y-25881167D01*
X65330476Y-25900214D01*
X65330476Y-26004976D01*
X65330476Y-25900214D02*
X65340000Y-25881167D01*
X65359048Y-25871643D01*
X65387619Y-25871643D01*
X65406667Y-25881167D01*
X65416190Y-25900214D01*
X65416190Y-26004976D01*
X65511428Y-26004976D02*
X65511428Y-25871643D01*
X65511428Y-25890690D02*
X65520952Y-25881167D01*
X65540000Y-25871643D01*
X65568571Y-25871643D01*
X65587619Y-25881167D01*
X65597143Y-25900214D01*
X65597143Y-26004976D01*
X65597143Y-25900214D02*
X65606667Y-25881167D01*
X65625714Y-25871643D01*
X65654286Y-25871643D01*
X65673333Y-25881167D01*
X65682857Y-25900214D01*
X65682857Y-26004976D01*
X66073333Y-25795452D02*
X65901905Y-26052595D01*
X66330476Y-25804976D02*
X66349524Y-25804976D01*
X66368571Y-25814500D01*
X66378095Y-25824024D01*
X66387619Y-25843071D01*
X66397143Y-25881167D01*
X66397143Y-25928786D01*
X66387619Y-25966881D01*
X66378095Y-25985928D01*
X66368571Y-25995452D01*
X66349524Y-26004976D01*
X66330476Y-26004976D01*
X66311428Y-25995452D01*
X66301905Y-25985928D01*
X66292381Y-25966881D01*
X66282857Y-25928786D01*
X66282857Y-25881167D01*
X66292381Y-25843071D01*
X66301905Y-25824024D01*
X66311428Y-25814500D01*
X66330476Y-25804976D01*
X66482857Y-25985928D02*
X66492381Y-25995452D01*
X66482857Y-26004976D01*
X66473333Y-25995452D01*
X66482857Y-25985928D01*
X66482857Y-26004976D01*
X66616190Y-25804976D02*
X66635238Y-25804976D01*
X66654286Y-25814500D01*
X66663809Y-25824024D01*
X66673333Y-25843071D01*
X66682857Y-25881167D01*
X66682857Y-25928786D01*
X66673333Y-25966881D01*
X66663809Y-25985928D01*
X66654286Y-25995452D01*
X66635238Y-26004976D01*
X66616190Y-26004976D01*
X66597143Y-25995452D01*
X66587619Y-25985928D01*
X66578095Y-25966881D01*
X66568571Y-25928786D01*
X66568571Y-25881167D01*
X66578095Y-25843071D01*
X66587619Y-25824024D01*
X66597143Y-25814500D01*
X66616190Y-25804976D01*
X66797143Y-25890690D02*
X66778095Y-25881167D01*
X66768571Y-25871643D01*
X66759048Y-25852595D01*
X66759048Y-25843071D01*
X66768571Y-25824024D01*
X66778095Y-25814500D01*
X66797143Y-25804976D01*
X66835238Y-25804976D01*
X66854286Y-25814500D01*
X66863809Y-25824024D01*
X66873333Y-25843071D01*
X66873333Y-25852595D01*
X66863809Y-25871643D01*
X66854286Y-25881167D01*
X66835238Y-25890690D01*
X66797143Y-25890690D01*
X66778095Y-25900214D01*
X66768571Y-25909738D01*
X66759048Y-25928786D01*
X66759048Y-25966881D01*
X66768571Y-25985928D01*
X66778095Y-25995452D01*
X66797143Y-26004976D01*
X66835238Y-26004976D01*
X66854286Y-25995452D01*
X66863809Y-25985928D01*
X66873333Y-25966881D01*
X66873333Y-25928786D01*
X66863809Y-25909738D01*
X66854286Y-25900214D01*
X66835238Y-25890690D01*
X67044762Y-25804976D02*
X67006667Y-25804976D01*
X66987619Y-25814500D01*
X66978095Y-25824024D01*
X66959048Y-25852595D01*
X66949524Y-25890690D01*
X66949524Y-25966881D01*
X66959048Y-25985928D01*
X66968571Y-25995452D01*
X66987619Y-26004976D01*
X67025714Y-26004976D01*
X67044762Y-25995452D01*
X67054286Y-25985928D01*
X67063809Y-25966881D01*
X67063809Y-25919262D01*
X67054286Y-25900214D01*
X67044762Y-25890690D01*
X67025714Y-25881167D01*
X66987619Y-25881167D01*
X66968571Y-25890690D01*
X66959048Y-25900214D01*
X66949524Y-25919262D01*
X67235238Y-25804976D02*
X67197143Y-25804976D01*
X67178095Y-25814500D01*
X67168571Y-25824024D01*
X67149524Y-25852595D01*
X67140000Y-25890690D01*
X67140000Y-25966881D01*
X67149524Y-25985928D01*
X67159048Y-25995452D01*
X67178095Y-26004976D01*
X67216190Y-26004976D01*
X67235238Y-25995452D01*
X67244762Y-25985928D01*
X67254286Y-25966881D01*
X67254286Y-25919262D01*
X67244762Y-25900214D01*
X67235238Y-25890690D01*
X67216190Y-25881167D01*
X67178095Y-25881167D01*
X67159048Y-25890690D01*
X67149524Y-25900214D01*
X67140000Y-25919262D01*
X67330476Y-25804976D02*
X67330476Y-25843071D01*
X67406667Y-25804976D02*
X67406667Y-25843071D01*
X67701905Y-26081167D02*
X67692381Y-26071643D01*
X67673333Y-26043071D01*
X67663810Y-26024024D01*
X67654286Y-25995452D01*
X67644762Y-25947833D01*
X67644762Y-25909738D01*
X67654286Y-25862119D01*
X67663810Y-25833548D01*
X67673333Y-25814500D01*
X67692381Y-25785928D01*
X67701905Y-25776405D01*
X67768571Y-25824024D02*
X67778095Y-25814500D01*
X67797143Y-25804976D01*
X67844762Y-25804976D01*
X67863810Y-25814500D01*
X67873333Y-25824024D01*
X67882857Y-25843071D01*
X67882857Y-25862119D01*
X67873333Y-25890690D01*
X67759048Y-26004976D01*
X67882857Y-26004976D01*
X68120952Y-26004976D02*
X68120952Y-25804976D01*
X68206667Y-26004976D02*
X68206667Y-25900214D01*
X68197143Y-25881167D01*
X68178095Y-25871643D01*
X68149524Y-25871643D01*
X68130476Y-25881167D01*
X68120952Y-25890690D01*
X68330476Y-26004976D02*
X68311429Y-25995452D01*
X68301905Y-25985928D01*
X68292381Y-25966881D01*
X68292381Y-25909738D01*
X68301905Y-25890690D01*
X68311429Y-25881167D01*
X68330476Y-25871643D01*
X68359048Y-25871643D01*
X68378095Y-25881167D01*
X68387619Y-25890690D01*
X68397143Y-25909738D01*
X68397143Y-25966881D01*
X68387619Y-25985928D01*
X68378095Y-25995452D01*
X68359048Y-26004976D01*
X68330476Y-26004976D01*
X68511429Y-26004976D02*
X68492381Y-25995452D01*
X68482857Y-25976405D01*
X68482857Y-25804976D01*
X68663810Y-25995452D02*
X68644762Y-26004976D01*
X68606667Y-26004976D01*
X68587619Y-25995452D01*
X68578095Y-25976405D01*
X68578095Y-25900214D01*
X68587619Y-25881167D01*
X68606667Y-25871643D01*
X68644762Y-25871643D01*
X68663810Y-25881167D01*
X68673333Y-25900214D01*
X68673333Y-25919262D01*
X68578095Y-25938309D01*
X68749524Y-25995452D02*
X68768571Y-26004976D01*
X68806667Y-26004976D01*
X68825714Y-25995452D01*
X68835238Y-25976405D01*
X68835238Y-25966881D01*
X68825714Y-25947833D01*
X68806667Y-25938309D01*
X68778095Y-25938309D01*
X68759048Y-25928786D01*
X68749524Y-25909738D01*
X68749524Y-25900214D01*
X68759048Y-25881167D01*
X68778095Y-25871643D01*
X68806667Y-25871643D01*
X68825714Y-25881167D01*
X68901905Y-26081167D02*
X68911429Y-26071643D01*
X68930476Y-26043071D01*
X68940000Y-26024024D01*
X68949524Y-25995452D01*
X68959048Y-25947833D01*
X68959048Y-25909738D01*
X68949524Y-25862119D01*
X68940000Y-25833548D01*
X68930476Y-25814500D01*
X68911429Y-25785928D01*
X68901905Y-25776405D01*
X63930000Y-26134500D02*
X64130000Y-26334500D01*
X64130000Y-26134500D02*
X63930000Y-26334500D01*
X64100711Y-26305211D02*
X64100711Y-26163789D01*
X63959289Y-26163789D01*
X63959289Y-26305211D01*
X64100711Y-26305211D01*
X64368571Y-26124976D02*
X64492381Y-26124976D01*
X64425714Y-26201167D01*
X64454286Y-26201167D01*
X64473333Y-26210690D01*
X64482857Y-26220214D01*
X64492381Y-26239262D01*
X64492381Y-26286881D01*
X64482857Y-26305928D01*
X64473333Y-26315452D01*
X64454286Y-26324976D01*
X64397143Y-26324976D01*
X64378095Y-26315452D01*
X64368571Y-26305928D01*
X64578095Y-26305928D02*
X64587619Y-26315452D01*
X64578095Y-26324976D01*
X64568571Y-26315452D01*
X64578095Y-26305928D01*
X64578095Y-26324976D01*
X64663809Y-26144024D02*
X64673333Y-26134500D01*
X64692381Y-26124976D01*
X64740000Y-26124976D01*
X64759048Y-26134500D01*
X64768571Y-26144024D01*
X64778095Y-26163071D01*
X64778095Y-26182119D01*
X64768571Y-26210690D01*
X64654286Y-26324976D01*
X64778095Y-26324976D01*
X64901905Y-26124976D02*
X64920952Y-26124976D01*
X64940000Y-26134500D01*
X64949524Y-26144024D01*
X64959048Y-26163071D01*
X64968571Y-26201167D01*
X64968571Y-26248786D01*
X64959048Y-26286881D01*
X64949524Y-26305928D01*
X64940000Y-26315452D01*
X64920952Y-26324976D01*
X64901905Y-26324976D01*
X64882857Y-26315452D01*
X64873333Y-26305928D01*
X64863809Y-26286881D01*
X64854286Y-26248786D01*
X64854286Y-26201167D01*
X64863809Y-26163071D01*
X64873333Y-26144024D01*
X64882857Y-26134500D01*
X64901905Y-26124976D01*
X65092381Y-26124976D02*
X65111428Y-26124976D01*
X65130476Y-26134500D01*
X65140000Y-26144024D01*
X65149524Y-26163071D01*
X65159048Y-26201167D01*
X65159048Y-26248786D01*
X65149524Y-26286881D01*
X65140000Y-26305928D01*
X65130476Y-26315452D01*
X65111428Y-26324976D01*
X65092381Y-26324976D01*
X65073333Y-26315452D01*
X65063809Y-26305928D01*
X65054286Y-26286881D01*
X65044762Y-26248786D01*
X65044762Y-26201167D01*
X65054286Y-26163071D01*
X65063809Y-26144024D01*
X65073333Y-26134500D01*
X65092381Y-26124976D01*
X65244762Y-26324976D02*
X65244762Y-26191643D01*
X65244762Y-26210690D02*
X65254286Y-26201167D01*
X65273333Y-26191643D01*
X65301905Y-26191643D01*
X65320952Y-26201167D01*
X65330476Y-26220214D01*
X65330476Y-26324976D01*
X65330476Y-26220214D02*
X65340000Y-26201167D01*
X65359048Y-26191643D01*
X65387619Y-26191643D01*
X65406667Y-26201167D01*
X65416190Y-26220214D01*
X65416190Y-26324976D01*
X65511428Y-26324976D02*
X65511428Y-26191643D01*
X65511428Y-26210690D02*
X65520952Y-26201167D01*
X65540000Y-26191643D01*
X65568571Y-26191643D01*
X65587619Y-26201167D01*
X65597143Y-26220214D01*
X65597143Y-26324976D01*
X65597143Y-26220214D02*
X65606667Y-26201167D01*
X65625714Y-26191643D01*
X65654286Y-26191643D01*
X65673333Y-26201167D01*
X65682857Y-26220214D01*
X65682857Y-26324976D01*
X66073333Y-26115452D02*
X65901905Y-26372595D01*
X66330476Y-26124976D02*
X66349524Y-26124976D01*
X66368571Y-26134500D01*
X66378095Y-26144024D01*
X66387619Y-26163071D01*
X66397143Y-26201167D01*
X66397143Y-26248786D01*
X66387619Y-26286881D01*
X66378095Y-26305928D01*
X66368571Y-26315452D01*
X66349524Y-26324976D01*
X66330476Y-26324976D01*
X66311428Y-26315452D01*
X66301905Y-26305928D01*
X66292381Y-26286881D01*
X66282857Y-26248786D01*
X66282857Y-26201167D01*
X66292381Y-26163071D01*
X66301905Y-26144024D01*
X66311428Y-26134500D01*
X66330476Y-26124976D01*
X66482857Y-26305928D02*
X66492381Y-26315452D01*
X66482857Y-26324976D01*
X66473333Y-26315452D01*
X66482857Y-26305928D01*
X66482857Y-26324976D01*
X66682857Y-26324976D02*
X66568571Y-26324976D01*
X66625714Y-26324976D02*
X66625714Y-26124976D01*
X66606667Y-26153548D01*
X66587619Y-26172595D01*
X66568571Y-26182119D01*
X66759048Y-26144024D02*
X66768571Y-26134500D01*
X66787619Y-26124976D01*
X66835238Y-26124976D01*
X66854286Y-26134500D01*
X66863809Y-26144024D01*
X66873333Y-26163071D01*
X66873333Y-26182119D01*
X66863809Y-26210690D01*
X66749524Y-26324976D01*
X66873333Y-26324976D01*
X67044762Y-26124976D02*
X67006667Y-26124976D01*
X66987619Y-26134500D01*
X66978095Y-26144024D01*
X66959048Y-26172595D01*
X66949524Y-26210690D01*
X66949524Y-26286881D01*
X66959048Y-26305928D01*
X66968571Y-26315452D01*
X66987619Y-26324976D01*
X67025714Y-26324976D01*
X67044762Y-26315452D01*
X67054286Y-26305928D01*
X67063809Y-26286881D01*
X67063809Y-26239262D01*
X67054286Y-26220214D01*
X67044762Y-26210690D01*
X67025714Y-26201167D01*
X66987619Y-26201167D01*
X66968571Y-26210690D01*
X66959048Y-26220214D01*
X66949524Y-26239262D01*
X67187619Y-26124976D02*
X67206667Y-26124976D01*
X67225714Y-26134500D01*
X67235238Y-26144024D01*
X67244762Y-26163071D01*
X67254286Y-26201167D01*
X67254286Y-26248786D01*
X67244762Y-26286881D01*
X67235238Y-26305928D01*
X67225714Y-26315452D01*
X67206667Y-26324976D01*
X67187619Y-26324976D01*
X67168571Y-26315452D01*
X67159048Y-26305928D01*
X67149524Y-26286881D01*
X67140000Y-26248786D01*
X67140000Y-26201167D01*
X67149524Y-26163071D01*
X67159048Y-26144024D01*
X67168571Y-26134500D01*
X67187619Y-26124976D01*
X67330476Y-26124976D02*
X67330476Y-26163071D01*
X67406667Y-26124976D02*
X67406667Y-26163071D01*
X67701905Y-26401167D02*
X67692381Y-26391643D01*
X67673333Y-26363071D01*
X67663810Y-26344024D01*
X67654286Y-26315452D01*
X67644762Y-26267833D01*
X67644762Y-26229738D01*
X67654286Y-26182119D01*
X67663810Y-26153548D01*
X67673333Y-26134500D01*
X67692381Y-26105928D01*
X67701905Y-26096405D01*
X67759048Y-26124976D02*
X67882857Y-26124976D01*
X67816190Y-26201167D01*
X67844762Y-26201167D01*
X67863810Y-26210690D01*
X67873333Y-26220214D01*
X67882857Y-26239262D01*
X67882857Y-26286881D01*
X67873333Y-26305928D01*
X67863810Y-26315452D01*
X67844762Y-26324976D01*
X67787619Y-26324976D01*
X67768571Y-26315452D01*
X67759048Y-26305928D01*
X68120952Y-26324976D02*
X68120952Y-26124976D01*
X68206667Y-26324976D02*
X68206667Y-26220214D01*
X68197143Y-26201167D01*
X68178095Y-26191643D01*
X68149524Y-26191643D01*
X68130476Y-26201167D01*
X68120952Y-26210690D01*
X68330476Y-26324976D02*
X68311429Y-26315452D01*
X68301905Y-26305928D01*
X68292381Y-26286881D01*
X68292381Y-26229738D01*
X68301905Y-26210690D01*
X68311429Y-26201167D01*
X68330476Y-26191643D01*
X68359048Y-26191643D01*
X68378095Y-26201167D01*
X68387619Y-26210690D01*
X68397143Y-26229738D01*
X68397143Y-26286881D01*
X68387619Y-26305928D01*
X68378095Y-26315452D01*
X68359048Y-26324976D01*
X68330476Y-26324976D01*
X68511429Y-26324976D02*
X68492381Y-26315452D01*
X68482857Y-26296405D01*
X68482857Y-26124976D01*
X68663810Y-26315452D02*
X68644762Y-26324976D01*
X68606667Y-26324976D01*
X68587619Y-26315452D01*
X68578095Y-26296405D01*
X68578095Y-26220214D01*
X68587619Y-26201167D01*
X68606667Y-26191643D01*
X68644762Y-26191643D01*
X68663810Y-26201167D01*
X68673333Y-26220214D01*
X68673333Y-26239262D01*
X68578095Y-26258309D01*
X68749524Y-26315452D02*
X68768571Y-26324976D01*
X68806667Y-26324976D01*
X68825714Y-26315452D01*
X68835238Y-26296405D01*
X68835238Y-26286881D01*
X68825714Y-26267833D01*
X68806667Y-26258309D01*
X68778095Y-26258309D01*
X68759048Y-26248786D01*
X68749524Y-26229738D01*
X68749524Y-26220214D01*
X68759048Y-26201167D01*
X68778095Y-26191643D01*
X68806667Y-26191643D01*
X68825714Y-26201167D01*
X68901905Y-26401167D02*
X68911429Y-26391643D01*
X68930476Y-26363071D01*
X68940000Y-26344024D01*
X68949524Y-26315452D01*
X68959048Y-26267833D01*
X68959048Y-26229738D01*
X68949524Y-26182119D01*
X68940000Y-26153548D01*
X68930476Y-26134500D01*
X68911429Y-26105928D01*
X68901905Y-26096405D01*
M02*
