M48
; DRILL file {KiCad 6.0.9-8da3e8f707~116~ubuntu20.04.1} date sob 25 mar 2023 19:03:35
; FORMAT={-:-/ absolute / metric / decimal}
; #@! TF.CreationDate,2023-03-25T19:03:35+01:00
; #@! TF.GenerationSoftware,Kicad,Pcbnew,6.0.9-8da3e8f707~116~ubuntu20.04.1
; #@! TF.FileFunction,Plated,1,2,PTH
FMAT,2
METRIC
; #@! TA.AperFunction,Plated,PTH,ViaDrill
T1C0.400
; #@! TA.AperFunction,Plated,PTH,ComponentDrill
T2C0.710
; #@! TA.AperFunction,Plated,PTH,ComponentDrill
T3C0.800
; #@! TA.AperFunction,Plated,PTH,ComponentDrill
T4C0.900
; #@! TA.AperFunction,Plated,PTH,ComponentDrill
T5C0.970
; #@! TA.AperFunction,Plated,PTH,ComponentDrill
T6C1.000
; #@! TA.AperFunction,Plated,PTH,ComponentDrill
T7C2.200
; #@! TA.AperFunction,Plated,PTH,ComponentDrill
T8C3.200
%
G90
G05
T1
X654.304Y-233.299
X663.38Y-195.14
X676.91Y-188.087
X685.419Y-214.63
X685.673Y-168.91
X687.302Y-226.59
X687.324Y-231.775
X727.964Y-235.458
X729.996Y-175.26
X730.35Y-198.836
X730.631Y-163.449
X730.631Y-186.309
X730.631Y-208.915
X730.631Y-220.599
X730.657Y-194.665
X730.885Y-202.311
X730.885Y-213.36
X731.012Y-168.021
X731.012Y-225.171
X731.139Y-179.578
X731.139Y-190.881
X738.505Y-165.735
X738.505Y-177.055
X738.505Y-188.595
X738.505Y-200.025
X739.013Y-211.201
X740.664Y-225.044
T2
X660.39Y-199.86
X665.49Y-201.46
T3
X647.065Y-201.803
X647.065Y-233.299
X652.145Y-201.803
X652.145Y-233.299
X659.13Y-163.83
X659.13Y-166.37
X659.13Y-168.91
X659.13Y-171.45
X659.13Y-209.55
X659.13Y-212.09
X659.13Y-214.63
X659.13Y-217.17
X659.13Y-222.25
X659.13Y-224.79
X659.13Y-227.33
X659.13Y-229.87
X659.13Y-232.41
X659.13Y-234.95
X671.83Y-179.07
X671.83Y-181.61
X671.83Y-184.15
X671.83Y-186.69
X671.83Y-194.31
X671.83Y-196.85
X671.83Y-199.39
X671.83Y-201.93
X693.42Y-163.83
X693.42Y-166.37
X693.42Y-168.91
X693.42Y-171.45
X693.42Y-176.53
X693.42Y-179.07
X693.42Y-181.61
X693.42Y-184.15
X693.42Y-186.69
X693.42Y-189.23
X693.42Y-191.77
X693.42Y-194.31
X693.42Y-196.85
X693.42Y-199.39
X693.42Y-201.93
X693.42Y-204.47
X693.42Y-209.55
X693.42Y-212.09
X693.42Y-214.63
X693.42Y-217.17
X693.42Y-224.79
X693.42Y-227.33
X693.42Y-229.87
X693.42Y-232.41
X727.71Y-161.925
X727.71Y-169.545
X727.71Y-173.355
X727.71Y-180.975
X727.71Y-184.785
X727.71Y-192.405
X727.71Y-196.215
X727.71Y-203.835
X727.71Y-207.645
X727.71Y-215.265
X727.71Y-219.075
X727.71Y-226.695
X735.33Y-161.925
X735.33Y-169.545
X735.33Y-173.355
X735.33Y-180.975
X735.33Y-184.785
X735.33Y-192.405
X735.33Y-196.215
X735.33Y-203.835
X735.33Y-207.645
X735.33Y-215.265
X735.33Y-219.075
X735.33Y-226.695
X740.41Y-161.925
X740.41Y-169.545
X740.41Y-173.355
X740.41Y-180.975
X740.41Y-184.785
X740.41Y-192.405
X740.41Y-196.215
X740.41Y-203.835
X740.41Y-207.645
X740.41Y-215.265
X740.41Y-219.075
X740.41Y-226.695
X745.49Y-161.925
X745.49Y-169.545
X745.49Y-173.355
X745.49Y-180.975
X745.49Y-184.785
X745.49Y-192.405
X745.49Y-196.215
X745.49Y-203.835
X745.49Y-207.645
X745.49Y-215.265
X745.49Y-219.075
X745.49Y-226.695
T4
X650.24Y-177.8
X652.78Y-177.8
T5
X654.05Y-191.135
X654.05Y-193.675
T6
X663.575Y-179.07
X663.575Y-181.61
X732.79Y-231.775
X732.79Y-234.315
X735.33Y-231.775
X735.33Y-234.315
X737.87Y-231.775
X737.87Y-234.315
X740.41Y-231.775
X740.41Y-234.315
X749.365Y-184.785
X749.365Y-187.325
X749.365Y-189.865
X749.365Y-192.405
X749.365Y-194.945
X749.365Y-197.485
X751.905Y-184.785
X751.905Y-187.325
X751.905Y-189.865
X751.905Y-192.405
X751.905Y-194.945
X751.905Y-197.485
T7
X648.97Y-186.055
X648.97Y-196.215
T8
X652.145Y-163.83
X751.205Y-163.83
X751.205Y-232.41
T0
M30
