%TF.GenerationSoftware,KiCad,Pcbnew,6.0.9-8da3e8f707~116~ubuntu20.04.1*%
%TF.CreationDate,2023-03-13T18:02:22+01:00*%
%TF.ProjectId,six_to_six,7369785f-746f-45f7-9369-782e6b696361,rev?*%
%TF.SameCoordinates,Original*%
%TF.FileFunction,Drillmap*%
%TF.FilePolarity,Positive*%
%FSLAX45Y45*%
G04 Gerber Fmt 4.5, Leading zero omitted, Abs format (unit mm)*
G04 Created by KiCad (PCBNEW 6.0.9-8da3e8f707~116~ubuntu20.04.1) date 2023-03-13 18:02:22*
%MOMM*%
%LPD*%
G01*
G04 APERTURE LIST*
%ADD10C,0.100000*%
%ADD11C,0.200000*%
%ADD12C,0.040000*%
%ADD13C,0.071000*%
%ADD14C,0.080000*%
%ADD15C,0.090000*%
%ADD16C,0.097000*%
%ADD17C,0.220000*%
%ADD18C,0.320000*%
G04 APERTURE END LIST*
D10*
X64325500Y-15938500D02*
G75*
G03*
X64262000Y-16002000I0J-63500D01*
G01*
X74180700Y-15938500D02*
X64325500Y-15938500D01*
X74180700Y-23685500D02*
X64325500Y-23685500D01*
X74180700Y-23685500D02*
G75*
G03*
X74244200Y-23622000I0J63500D01*
G01*
X64262000Y-23622000D02*
G75*
G03*
X64325500Y-23685500I63500J0D01*
G01*
X74244200Y-16002000D02*
G75*
G03*
X74180700Y-15938500I-63500J0D01*
G01*
X64262000Y-16002000D02*
X64262000Y-23622000D01*
X74244200Y-16002000D02*
X74244200Y-23622000D01*
D11*
D12*
X64889800Y-18382200D02*
X64929800Y-18422200D01*
X64929800Y-18382200D02*
X64889800Y-18422200D01*
X65189250Y-21666350D02*
X65229250Y-21706350D01*
X65229250Y-21666350D02*
X65189250Y-21706350D01*
X65385100Y-18382200D02*
X65425100Y-18422200D01*
X65425100Y-18382200D02*
X65385100Y-18422200D01*
X68708100Y-17040400D02*
X68748100Y-17080400D01*
X68748100Y-17040400D02*
X68708100Y-17080400D01*
X68708100Y-22691900D02*
X68748100Y-22731900D01*
X68748100Y-22691900D02*
X68708100Y-22731900D01*
X68710200Y-20086300D02*
X68750200Y-20126300D01*
X68750200Y-20086300D02*
X68710200Y-20126300D01*
X71704200Y-19869000D02*
X71744200Y-19909000D01*
X71744200Y-19869000D02*
X71704200Y-19909000D01*
X72497000Y-17696500D02*
X72537000Y-17736500D01*
X72537000Y-17696500D02*
X72497000Y-17736500D01*
X72497000Y-18839500D02*
X72537000Y-18879500D01*
X72537000Y-18839500D02*
X72497000Y-18879500D01*
X72560500Y-16553500D02*
X72600500Y-16593500D01*
X72600500Y-16553500D02*
X72560500Y-16593500D01*
X72581800Y-21332800D02*
X72621800Y-21372800D01*
X72621800Y-21332800D02*
X72581800Y-21372800D01*
X72581800Y-22056700D02*
X72621800Y-22096700D01*
X72621800Y-22056700D02*
X72581800Y-22096700D01*
X72624000Y-19792000D02*
X72664000Y-19832000D01*
X72664000Y-19792000D02*
X72624000Y-19832000D01*
D13*
X64981300Y-16268700D02*
G75*
G03*
X64981300Y-16268700I-35500J0D01*
G01*
X65491300Y-16428700D02*
G75*
G03*
X65491300Y-16428700I-35500J0D01*
G01*
D14*
X64706500Y-17028800D02*
X64706500Y-17108800D01*
X64666500Y-17068800D02*
X64746500Y-17068800D01*
X64706500Y-20178400D02*
X64706500Y-20258400D01*
X64666500Y-20218400D02*
X64746500Y-20218400D01*
X65214500Y-17028800D02*
X65214500Y-17108800D01*
X65174500Y-17068800D02*
X65254500Y-17068800D01*
X65214500Y-20178400D02*
X65214500Y-20258400D01*
X65174500Y-20218400D02*
X65254500Y-20218400D01*
X65913000Y-16343000D02*
X65913000Y-16423000D01*
X65873000Y-16383000D02*
X65953000Y-16383000D01*
X65913000Y-16597000D02*
X65913000Y-16677000D01*
X65873000Y-16637000D02*
X65953000Y-16637000D01*
X65913000Y-16851000D02*
X65913000Y-16931000D01*
X65873000Y-16891000D02*
X65953000Y-16891000D01*
X65913000Y-17105000D02*
X65913000Y-17185000D01*
X65873000Y-17145000D02*
X65953000Y-17145000D01*
X65913000Y-17867000D02*
X65913000Y-17947000D01*
X65873000Y-17907000D02*
X65953000Y-17907000D01*
X65913000Y-18121000D02*
X65913000Y-18201000D01*
X65873000Y-18161000D02*
X65953000Y-18161000D01*
X65913000Y-18375000D02*
X65913000Y-18455000D01*
X65873000Y-18415000D02*
X65953000Y-18415000D01*
X65913000Y-18629000D02*
X65913000Y-18709000D01*
X65873000Y-18669000D02*
X65953000Y-18669000D01*
X65913000Y-19391000D02*
X65913000Y-19471000D01*
X65873000Y-19431000D02*
X65953000Y-19431000D01*
X65913000Y-19645000D02*
X65913000Y-19725000D01*
X65873000Y-19685000D02*
X65953000Y-19685000D01*
X65913000Y-19899000D02*
X65913000Y-19979000D01*
X65873000Y-19939000D02*
X65953000Y-19939000D01*
X65913000Y-20153000D02*
X65913000Y-20233000D01*
X65873000Y-20193000D02*
X65953000Y-20193000D01*
X65913000Y-20915000D02*
X65913000Y-20995000D01*
X65873000Y-20955000D02*
X65953000Y-20955000D01*
X65913000Y-21169000D02*
X65913000Y-21249000D01*
X65873000Y-21209000D02*
X65953000Y-21209000D01*
X65913000Y-21423000D02*
X65913000Y-21503000D01*
X65873000Y-21463000D02*
X65953000Y-21463000D01*
X65913000Y-21677000D02*
X65913000Y-21757000D01*
X65873000Y-21717000D02*
X65953000Y-21717000D01*
X65913000Y-22185000D02*
X65913000Y-22265000D01*
X65873000Y-22225000D02*
X65953000Y-22225000D01*
X65913000Y-22439000D02*
X65913000Y-22519000D01*
X65873000Y-22479000D02*
X65953000Y-22479000D01*
X65913000Y-22693000D02*
X65913000Y-22773000D01*
X65873000Y-22733000D02*
X65953000Y-22733000D01*
X65913000Y-22947000D02*
X65913000Y-23027000D01*
X65873000Y-22987000D02*
X65953000Y-22987000D01*
X65913000Y-23201000D02*
X65913000Y-23281000D01*
X65873000Y-23241000D02*
X65953000Y-23241000D01*
X65913000Y-23455000D02*
X65913000Y-23535000D01*
X65873000Y-23495000D02*
X65953000Y-23495000D01*
X68072000Y-17613000D02*
X68072000Y-17693000D01*
X68032000Y-17653000D02*
X68112000Y-17653000D01*
X68072000Y-17867000D02*
X68072000Y-17947000D01*
X68032000Y-17907000D02*
X68112000Y-17907000D01*
X68072000Y-18121000D02*
X68072000Y-18201000D01*
X68032000Y-18161000D02*
X68112000Y-18161000D01*
X68072000Y-18375000D02*
X68072000Y-18455000D01*
X68032000Y-18415000D02*
X68112000Y-18415000D01*
X68072000Y-18629000D02*
X68072000Y-18709000D01*
X68032000Y-18669000D02*
X68112000Y-18669000D01*
X68072000Y-18883000D02*
X68072000Y-18963000D01*
X68032000Y-18923000D02*
X68112000Y-18923000D01*
X68072000Y-20661000D02*
X68072000Y-20741000D01*
X68032000Y-20701000D02*
X68112000Y-20701000D01*
X68072000Y-20915000D02*
X68072000Y-20995000D01*
X68032000Y-20955000D02*
X68112000Y-20955000D01*
X68072000Y-21169000D02*
X68072000Y-21249000D01*
X68032000Y-21209000D02*
X68112000Y-21209000D01*
X68072000Y-21423000D02*
X68072000Y-21503000D01*
X68032000Y-21463000D02*
X68112000Y-21463000D01*
X68072000Y-21677000D02*
X68072000Y-21757000D01*
X68032000Y-21717000D02*
X68112000Y-21717000D01*
X68072000Y-21931000D02*
X68072000Y-22011000D01*
X68032000Y-21971000D02*
X68112000Y-21971000D01*
X69342000Y-16343000D02*
X69342000Y-16423000D01*
X69302000Y-16383000D02*
X69382000Y-16383000D01*
X69342000Y-16597000D02*
X69342000Y-16677000D01*
X69302000Y-16637000D02*
X69382000Y-16637000D01*
X69342000Y-16851000D02*
X69342000Y-16931000D01*
X69302000Y-16891000D02*
X69382000Y-16891000D01*
X69342000Y-17105000D02*
X69342000Y-17185000D01*
X69302000Y-17145000D02*
X69382000Y-17145000D01*
X69342000Y-19391000D02*
X69342000Y-19471000D01*
X69302000Y-19431000D02*
X69382000Y-19431000D01*
X69342000Y-19645000D02*
X69342000Y-19725000D01*
X69302000Y-19685000D02*
X69382000Y-19685000D01*
X69342000Y-19899000D02*
X69342000Y-19979000D01*
X69302000Y-19939000D02*
X69382000Y-19939000D01*
X69342000Y-20153000D02*
X69342000Y-20233000D01*
X69302000Y-20193000D02*
X69382000Y-20193000D01*
X69342000Y-22439000D02*
X69342000Y-22519000D01*
X69302000Y-22479000D02*
X69382000Y-22479000D01*
X69342000Y-22693000D02*
X69342000Y-22773000D01*
X69302000Y-22733000D02*
X69382000Y-22733000D01*
X69342000Y-22947000D02*
X69342000Y-23027000D01*
X69302000Y-22987000D02*
X69382000Y-22987000D01*
X69342000Y-23201000D02*
X69342000Y-23281000D01*
X69302000Y-23241000D02*
X69382000Y-23241000D01*
X71437500Y-16152500D02*
X71437500Y-16232500D01*
X71397500Y-16192500D02*
X71477500Y-16192500D01*
X71437500Y-16914500D02*
X71437500Y-16994500D01*
X71397500Y-16954500D02*
X71477500Y-16954500D01*
X71437500Y-17295500D02*
X71437500Y-17375500D01*
X71397500Y-17335500D02*
X71477500Y-17335500D01*
X71437500Y-18057500D02*
X71437500Y-18137500D01*
X71397500Y-18097500D02*
X71477500Y-18097500D01*
X71437500Y-18438500D02*
X71437500Y-18518500D01*
X71397500Y-18478500D02*
X71477500Y-18478500D01*
X71437500Y-19200500D02*
X71437500Y-19280500D01*
X71397500Y-19240500D02*
X71477500Y-19240500D01*
X71437500Y-19581500D02*
X71437500Y-19661500D01*
X71397500Y-19621500D02*
X71477500Y-19621500D01*
X71437500Y-20343500D02*
X71437500Y-20423500D01*
X71397500Y-20383500D02*
X71477500Y-20383500D01*
X71437500Y-20724500D02*
X71437500Y-20804500D01*
X71397500Y-20764500D02*
X71477500Y-20764500D01*
X71437500Y-21486500D02*
X71437500Y-21566500D01*
X71397500Y-21526500D02*
X71477500Y-21526500D01*
X71437500Y-21867500D02*
X71437500Y-21947500D01*
X71397500Y-21907500D02*
X71477500Y-21907500D01*
X71437500Y-22629500D02*
X71437500Y-22709500D01*
X71397500Y-22669500D02*
X71477500Y-22669500D01*
X72199500Y-16152500D02*
X72199500Y-16232500D01*
X72159500Y-16192500D02*
X72239500Y-16192500D01*
X72199500Y-16914500D02*
X72199500Y-16994500D01*
X72159500Y-16954500D02*
X72239500Y-16954500D01*
X72199500Y-17295500D02*
X72199500Y-17375500D01*
X72159500Y-17335500D02*
X72239500Y-17335500D01*
X72199500Y-18057500D02*
X72199500Y-18137500D01*
X72159500Y-18097500D02*
X72239500Y-18097500D01*
X72199500Y-18438500D02*
X72199500Y-18518500D01*
X72159500Y-18478500D02*
X72239500Y-18478500D01*
X72199500Y-19200500D02*
X72199500Y-19280500D01*
X72159500Y-19240500D02*
X72239500Y-19240500D01*
X72199500Y-19581500D02*
X72199500Y-19661500D01*
X72159500Y-19621500D02*
X72239500Y-19621500D01*
X72199500Y-20343500D02*
X72199500Y-20423500D01*
X72159500Y-20383500D02*
X72239500Y-20383500D01*
X72199500Y-20724500D02*
X72199500Y-20804500D01*
X72159500Y-20764500D02*
X72239500Y-20764500D01*
X72199500Y-21486500D02*
X72199500Y-21566500D01*
X72159500Y-21526500D02*
X72239500Y-21526500D01*
X72199500Y-21867500D02*
X72199500Y-21947500D01*
X72159500Y-21907500D02*
X72239500Y-21907500D01*
X72199500Y-22629500D02*
X72199500Y-22709500D01*
X72159500Y-22669500D02*
X72239500Y-22669500D01*
X72707500Y-16152500D02*
X72707500Y-16232500D01*
X72667500Y-16192500D02*
X72747500Y-16192500D01*
X72707500Y-16914500D02*
X72707500Y-16994500D01*
X72667500Y-16954500D02*
X72747500Y-16954500D01*
X72707500Y-17295500D02*
X72707500Y-17375500D01*
X72667500Y-17335500D02*
X72747500Y-17335500D01*
X72707500Y-18057500D02*
X72707500Y-18137500D01*
X72667500Y-18097500D02*
X72747500Y-18097500D01*
X72707500Y-18438500D02*
X72707500Y-18518500D01*
X72667500Y-18478500D02*
X72747500Y-18478500D01*
X72707500Y-19200500D02*
X72707500Y-19280500D01*
X72667500Y-19240500D02*
X72747500Y-19240500D01*
X72707500Y-19581500D02*
X72707500Y-19661500D01*
X72667500Y-19621500D02*
X72747500Y-19621500D01*
X72707500Y-20343500D02*
X72707500Y-20423500D01*
X72667500Y-20383500D02*
X72747500Y-20383500D01*
X72707500Y-20724500D02*
X72707500Y-20804500D01*
X72667500Y-20764500D02*
X72747500Y-20764500D01*
X72707500Y-21486500D02*
X72707500Y-21566500D01*
X72667500Y-21526500D02*
X72747500Y-21526500D01*
X72707500Y-21867500D02*
X72707500Y-21947500D01*
X72667500Y-21907500D02*
X72747500Y-21907500D01*
X72707500Y-22629500D02*
X72707500Y-22709500D01*
X72667500Y-22669500D02*
X72747500Y-22669500D01*
X73215500Y-16152500D02*
X73215500Y-16232500D01*
X73175500Y-16192500D02*
X73255500Y-16192500D01*
X73215500Y-16914500D02*
X73215500Y-16994500D01*
X73175500Y-16954500D02*
X73255500Y-16954500D01*
X73215500Y-17295500D02*
X73215500Y-17375500D01*
X73175500Y-17335500D02*
X73255500Y-17335500D01*
X73215500Y-18057500D02*
X73215500Y-18137500D01*
X73175500Y-18097500D02*
X73255500Y-18097500D01*
X73215500Y-18438500D02*
X73215500Y-18518500D01*
X73175500Y-18478500D02*
X73255500Y-18478500D01*
X73215500Y-19200500D02*
X73215500Y-19280500D01*
X73175500Y-19240500D02*
X73255500Y-19240500D01*
X73215500Y-19581500D02*
X73215500Y-19661500D01*
X73175500Y-19621500D02*
X73255500Y-19621500D01*
X73215500Y-20343500D02*
X73215500Y-20423500D01*
X73175500Y-20383500D02*
X73255500Y-20383500D01*
X73215500Y-20724500D02*
X73215500Y-20804500D01*
X73175500Y-20764500D02*
X73255500Y-20764500D01*
X73215500Y-21486500D02*
X73215500Y-21566500D01*
X73175500Y-21526500D02*
X73255500Y-21526500D01*
X73215500Y-21867500D02*
X73215500Y-21947500D01*
X73175500Y-21907500D02*
X73255500Y-21907500D01*
X73215500Y-22629500D02*
X73215500Y-22709500D01*
X73175500Y-22669500D02*
X73255500Y-22669500D01*
D15*
X65106620Y-20834420D02*
X65106620Y-20770780D01*
X65042980Y-20770780D01*
X65042980Y-20834420D01*
X65106620Y-20834420D01*
X65360620Y-20834420D02*
X65360620Y-20770780D01*
X65296980Y-20770780D01*
X65296980Y-20834420D01*
X65360620Y-20834420D01*
D16*
X65405000Y-21956000D02*
X65453500Y-21907500D01*
X65405000Y-21859000D01*
X65356500Y-21907500D01*
X65405000Y-21956000D01*
X65405000Y-22210000D02*
X65453500Y-22161500D01*
X65405000Y-22113000D01*
X65356500Y-22161500D01*
X65405000Y-22210000D01*
D10*
X64491400Y-16218700D02*
X64591400Y-16318700D01*
X64591400Y-16218700D02*
X64491400Y-16318700D01*
X64591400Y-16268700D02*
G75*
G03*
X64591400Y-16268700I-50000J0D01*
G01*
X64491400Y-16472700D02*
X64591400Y-16572700D01*
X64591400Y-16472700D02*
X64491400Y-16572700D01*
X64591400Y-16522700D02*
G75*
G03*
X64591400Y-16522700I-50000J0D01*
G01*
X71895500Y-23127500D02*
X71995500Y-23227500D01*
X71995500Y-23127500D02*
X71895500Y-23227500D01*
X71995500Y-23177500D02*
G75*
G03*
X71995500Y-23177500I-50000J0D01*
G01*
X71895500Y-23381500D02*
X71995500Y-23481500D01*
X71995500Y-23381500D02*
X71895500Y-23481500D01*
X71995500Y-23431500D02*
G75*
G03*
X71995500Y-23431500I-50000J0D01*
G01*
X72149500Y-23127500D02*
X72249500Y-23227500D01*
X72249500Y-23127500D02*
X72149500Y-23227500D01*
X72249500Y-23177500D02*
G75*
G03*
X72249500Y-23177500I-50000J0D01*
G01*
X72149500Y-23381500D02*
X72249500Y-23481500D01*
X72249500Y-23381500D02*
X72149500Y-23481500D01*
X72249500Y-23431500D02*
G75*
G03*
X72249500Y-23431500I-50000J0D01*
G01*
X72403500Y-23127500D02*
X72503500Y-23227500D01*
X72503500Y-23127500D02*
X72403500Y-23227500D01*
X72503500Y-23177500D02*
G75*
G03*
X72503500Y-23177500I-50000J0D01*
G01*
X72403500Y-23381500D02*
X72503500Y-23481500D01*
X72503500Y-23381500D02*
X72403500Y-23481500D01*
X72503500Y-23431500D02*
G75*
G03*
X72503500Y-23431500I-50000J0D01*
G01*
X72657500Y-23127500D02*
X72757500Y-23227500D01*
X72757500Y-23127500D02*
X72657500Y-23227500D01*
X72757500Y-23177500D02*
G75*
G03*
X72757500Y-23177500I-50000J0D01*
G01*
X72657500Y-23381500D02*
X72757500Y-23481500D01*
X72757500Y-23381500D02*
X72657500Y-23481500D01*
X72757500Y-23431500D02*
G75*
G03*
X72757500Y-23431500I-50000J0D01*
G01*
X73546500Y-18746000D02*
X73646500Y-18846000D01*
X73646500Y-18746000D02*
X73546500Y-18846000D01*
X73646500Y-18796000D02*
G75*
G03*
X73646500Y-18796000I-50000J0D01*
G01*
X73546500Y-19000000D02*
X73646500Y-19100000D01*
X73646500Y-19000000D02*
X73546500Y-19100000D01*
X73646500Y-19050000D02*
G75*
G03*
X73646500Y-19050000I-50000J0D01*
G01*
X73546500Y-19254000D02*
X73646500Y-19354000D01*
X73646500Y-19254000D02*
X73546500Y-19354000D01*
X73646500Y-19304000D02*
G75*
G03*
X73646500Y-19304000I-50000J0D01*
G01*
X73546500Y-19508000D02*
X73646500Y-19608000D01*
X73646500Y-19508000D02*
X73546500Y-19608000D01*
X73646500Y-19558000D02*
G75*
G03*
X73646500Y-19558000I-50000J0D01*
G01*
X73546500Y-19762000D02*
X73646500Y-19862000D01*
X73646500Y-19762000D02*
X73546500Y-19862000D01*
X73646500Y-19812000D02*
G75*
G03*
X73646500Y-19812000I-50000J0D01*
G01*
X73546500Y-20016000D02*
X73646500Y-20116000D01*
X73646500Y-20016000D02*
X73546500Y-20116000D01*
X73646500Y-20066000D02*
G75*
G03*
X73646500Y-20066000I-50000J0D01*
G01*
X73800500Y-18746000D02*
X73900500Y-18846000D01*
X73900500Y-18746000D02*
X73800500Y-18846000D01*
X73900500Y-18796000D02*
G75*
G03*
X73900500Y-18796000I-50000J0D01*
G01*
X73800500Y-19000000D02*
X73900500Y-19100000D01*
X73900500Y-19000000D02*
X73800500Y-19100000D01*
X73900500Y-19050000D02*
G75*
G03*
X73900500Y-19050000I-50000J0D01*
G01*
X73800500Y-19254000D02*
X73900500Y-19354000D01*
X73900500Y-19254000D02*
X73800500Y-19354000D01*
X73900500Y-19304000D02*
G75*
G03*
X73900500Y-19304000I-50000J0D01*
G01*
X73800500Y-19508000D02*
X73900500Y-19608000D01*
X73900500Y-19508000D02*
X73800500Y-19608000D01*
X73900500Y-19558000D02*
G75*
G03*
X73900500Y-19558000I-50000J0D01*
G01*
X73800500Y-19762000D02*
X73900500Y-19862000D01*
X73900500Y-19762000D02*
X73800500Y-19862000D01*
X73900500Y-19812000D02*
G75*
G03*
X73900500Y-19812000I-50000J0D01*
G01*
X73800500Y-20016000D02*
X73900500Y-20116000D01*
X73900500Y-20016000D02*
X73800500Y-20116000D01*
X73900500Y-20066000D02*
G75*
G03*
X73900500Y-20066000I-50000J0D01*
G01*
D17*
X64787000Y-21289500D02*
X65007000Y-21509500D01*
X65007000Y-21289500D02*
X64787000Y-21509500D01*
X64897000Y-21289500D02*
X64897000Y-21509500D01*
X64787000Y-21399500D02*
X65007000Y-21399500D01*
X64787000Y-22305500D02*
X65007000Y-22525500D01*
X65007000Y-22305500D02*
X64787000Y-22525500D01*
X64897000Y-22305500D02*
X64897000Y-22525500D01*
X64787000Y-22415500D02*
X65007000Y-22415500D01*
D18*
X64483000Y-23081000D02*
X64803000Y-23401000D01*
X64803000Y-23081000D02*
X64483000Y-23401000D01*
X64756138Y-23354138D02*
X64756138Y-23127862D01*
X64529862Y-23127862D01*
X64529862Y-23354138D01*
X64756138Y-23354138D01*
X73690500Y-16223000D02*
X74010500Y-16543000D01*
X74010500Y-16223000D02*
X73690500Y-16543000D01*
X73963638Y-16496138D02*
X73963638Y-16269862D01*
X73737362Y-16269862D01*
X73737362Y-16496138D01*
X73963638Y-16496138D01*
X73690500Y-23081000D02*
X74010500Y-23401000D01*
X74010500Y-23081000D02*
X73690500Y-23401000D01*
X73963638Y-23354138D02*
X73963638Y-23127862D01*
X73737362Y-23127862D01*
X73737362Y-23354138D01*
X73963638Y-23354138D01*
D11*
X64514619Y-24000976D02*
X64514619Y-23800976D01*
X64562238Y-23800976D01*
X64590809Y-23810500D01*
X64609857Y-23829548D01*
X64619381Y-23848595D01*
X64628905Y-23886690D01*
X64628905Y-23915262D01*
X64619381Y-23953357D01*
X64609857Y-23972405D01*
X64590809Y-23991452D01*
X64562238Y-24000976D01*
X64514619Y-24000976D01*
X64714619Y-24000976D02*
X64714619Y-23867643D01*
X64714619Y-23905738D02*
X64724143Y-23886690D01*
X64733667Y-23877167D01*
X64752714Y-23867643D01*
X64771762Y-23867643D01*
X64838428Y-24000976D02*
X64838428Y-23867643D01*
X64838428Y-23800976D02*
X64828905Y-23810500D01*
X64838428Y-23820024D01*
X64847952Y-23810500D01*
X64838428Y-23800976D01*
X64838428Y-23820024D01*
X64962238Y-24000976D02*
X64943190Y-23991452D01*
X64933667Y-23972405D01*
X64933667Y-23800976D01*
X65067000Y-24000976D02*
X65047952Y-23991452D01*
X65038428Y-23972405D01*
X65038428Y-23800976D01*
X65295571Y-24000976D02*
X65295571Y-23800976D01*
X65362238Y-23943833D01*
X65428905Y-23800976D01*
X65428905Y-24000976D01*
X65609857Y-24000976D02*
X65609857Y-23896214D01*
X65600333Y-23877167D01*
X65581286Y-23867643D01*
X65543190Y-23867643D01*
X65524143Y-23877167D01*
X65609857Y-23991452D02*
X65590809Y-24000976D01*
X65543190Y-24000976D01*
X65524143Y-23991452D01*
X65514619Y-23972405D01*
X65514619Y-23953357D01*
X65524143Y-23934309D01*
X65543190Y-23924786D01*
X65590809Y-23924786D01*
X65609857Y-23915262D01*
X65705095Y-23867643D02*
X65705095Y-24067643D01*
X65705095Y-23877167D02*
X65724143Y-23867643D01*
X65762238Y-23867643D01*
X65781286Y-23877167D01*
X65790809Y-23886690D01*
X65800333Y-23905738D01*
X65800333Y-23962881D01*
X65790809Y-23981928D01*
X65781286Y-23991452D01*
X65762238Y-24000976D01*
X65724143Y-24000976D01*
X65705095Y-23991452D01*
X65886048Y-23981928D02*
X65895571Y-23991452D01*
X65886048Y-24000976D01*
X65876524Y-23991452D01*
X65886048Y-23981928D01*
X65886048Y-24000976D01*
X65886048Y-23877167D02*
X65895571Y-23886690D01*
X65886048Y-23896214D01*
X65876524Y-23886690D01*
X65886048Y-23877167D01*
X65886048Y-23896214D01*
D12*
X64217000Y-24310500D02*
X64257000Y-24350500D01*
X64257000Y-24310500D02*
X64217000Y-24350500D01*
D11*
X64552714Y-24220976D02*
X64571762Y-24220976D01*
X64590809Y-24230500D01*
X64600333Y-24240024D01*
X64609857Y-24259071D01*
X64619381Y-24297167D01*
X64619381Y-24344786D01*
X64609857Y-24382881D01*
X64600333Y-24401928D01*
X64590809Y-24411452D01*
X64571762Y-24420976D01*
X64552714Y-24420976D01*
X64533667Y-24411452D01*
X64524143Y-24401928D01*
X64514619Y-24382881D01*
X64505095Y-24344786D01*
X64505095Y-24297167D01*
X64514619Y-24259071D01*
X64524143Y-24240024D01*
X64533667Y-24230500D01*
X64552714Y-24220976D01*
X64705095Y-24401928D02*
X64714619Y-24411452D01*
X64705095Y-24420976D01*
X64695571Y-24411452D01*
X64705095Y-24401928D01*
X64705095Y-24420976D01*
X64886048Y-24287643D02*
X64886048Y-24420976D01*
X64838428Y-24211452D02*
X64790809Y-24354309D01*
X64914619Y-24354309D01*
X65028905Y-24220976D02*
X65047952Y-24220976D01*
X65067000Y-24230500D01*
X65076524Y-24240024D01*
X65086048Y-24259071D01*
X65095571Y-24297167D01*
X65095571Y-24344786D01*
X65086048Y-24382881D01*
X65076524Y-24401928D01*
X65067000Y-24411452D01*
X65047952Y-24420976D01*
X65028905Y-24420976D01*
X65009857Y-24411452D01*
X65000333Y-24401928D01*
X64990809Y-24382881D01*
X64981286Y-24344786D01*
X64981286Y-24297167D01*
X64990809Y-24259071D01*
X65000333Y-24240024D01*
X65009857Y-24230500D01*
X65028905Y-24220976D01*
X65219381Y-24220976D02*
X65238428Y-24220976D01*
X65257476Y-24230500D01*
X65267000Y-24240024D01*
X65276524Y-24259071D01*
X65286048Y-24297167D01*
X65286048Y-24344786D01*
X65276524Y-24382881D01*
X65267000Y-24401928D01*
X65257476Y-24411452D01*
X65238428Y-24420976D01*
X65219381Y-24420976D01*
X65200333Y-24411452D01*
X65190809Y-24401928D01*
X65181286Y-24382881D01*
X65171762Y-24344786D01*
X65171762Y-24297167D01*
X65181286Y-24259071D01*
X65190809Y-24240024D01*
X65200333Y-24230500D01*
X65219381Y-24220976D01*
X65371762Y-24420976D02*
X65371762Y-24287643D01*
X65371762Y-24306690D02*
X65381286Y-24297167D01*
X65400333Y-24287643D01*
X65428905Y-24287643D01*
X65447952Y-24297167D01*
X65457476Y-24316214D01*
X65457476Y-24420976D01*
X65457476Y-24316214D02*
X65467000Y-24297167D01*
X65486048Y-24287643D01*
X65514619Y-24287643D01*
X65533667Y-24297167D01*
X65543190Y-24316214D01*
X65543190Y-24420976D01*
X65638428Y-24420976D02*
X65638428Y-24287643D01*
X65638428Y-24306690D02*
X65647952Y-24297167D01*
X65667000Y-24287643D01*
X65695571Y-24287643D01*
X65714619Y-24297167D01*
X65724143Y-24316214D01*
X65724143Y-24420976D01*
X65724143Y-24316214D02*
X65733667Y-24297167D01*
X65752714Y-24287643D01*
X65781286Y-24287643D01*
X65800333Y-24297167D01*
X65809857Y-24316214D01*
X65809857Y-24420976D01*
X66200333Y-24211452D02*
X66028905Y-24468595D01*
X66457476Y-24220976D02*
X66476524Y-24220976D01*
X66495571Y-24230500D01*
X66505095Y-24240024D01*
X66514619Y-24259071D01*
X66524143Y-24297167D01*
X66524143Y-24344786D01*
X66514619Y-24382881D01*
X66505095Y-24401928D01*
X66495571Y-24411452D01*
X66476524Y-24420976D01*
X66457476Y-24420976D01*
X66438428Y-24411452D01*
X66428905Y-24401928D01*
X66419381Y-24382881D01*
X66409857Y-24344786D01*
X66409857Y-24297167D01*
X66419381Y-24259071D01*
X66428905Y-24240024D01*
X66438428Y-24230500D01*
X66457476Y-24220976D01*
X66609857Y-24401928D02*
X66619381Y-24411452D01*
X66609857Y-24420976D01*
X66600333Y-24411452D01*
X66609857Y-24401928D01*
X66609857Y-24420976D01*
X66743190Y-24220976D02*
X66762238Y-24220976D01*
X66781286Y-24230500D01*
X66790809Y-24240024D01*
X66800333Y-24259071D01*
X66809857Y-24297167D01*
X66809857Y-24344786D01*
X66800333Y-24382881D01*
X66790809Y-24401928D01*
X66781286Y-24411452D01*
X66762238Y-24420976D01*
X66743190Y-24420976D01*
X66724143Y-24411452D01*
X66714619Y-24401928D01*
X66705095Y-24382881D01*
X66695571Y-24344786D01*
X66695571Y-24297167D01*
X66705095Y-24259071D01*
X66714619Y-24240024D01*
X66724143Y-24230500D01*
X66743190Y-24220976D01*
X67000333Y-24420976D02*
X66886048Y-24420976D01*
X66943190Y-24420976D02*
X66943190Y-24220976D01*
X66924143Y-24249548D01*
X66905095Y-24268595D01*
X66886048Y-24278119D01*
X67181286Y-24220976D02*
X67086048Y-24220976D01*
X67076524Y-24316214D01*
X67086048Y-24306690D01*
X67105095Y-24297167D01*
X67152714Y-24297167D01*
X67171762Y-24306690D01*
X67181286Y-24316214D01*
X67190810Y-24335262D01*
X67190810Y-24382881D01*
X67181286Y-24401928D01*
X67171762Y-24411452D01*
X67152714Y-24420976D01*
X67105095Y-24420976D01*
X67086048Y-24411452D01*
X67076524Y-24401928D01*
X67257476Y-24220976D02*
X67390810Y-24220976D01*
X67305095Y-24420976D01*
X67457476Y-24220976D02*
X67457476Y-24259071D01*
X67533667Y-24220976D02*
X67533667Y-24259071D01*
X67828905Y-24497167D02*
X67819381Y-24487643D01*
X67800333Y-24459071D01*
X67790810Y-24440024D01*
X67781286Y-24411452D01*
X67771762Y-24363833D01*
X67771762Y-24325738D01*
X67781286Y-24278119D01*
X67790810Y-24249548D01*
X67800333Y-24230500D01*
X67819381Y-24201928D01*
X67828905Y-24192405D01*
X68009857Y-24420976D02*
X67895571Y-24420976D01*
X67952714Y-24420976D02*
X67952714Y-24220976D01*
X67933667Y-24249548D01*
X67914619Y-24268595D01*
X67895571Y-24278119D01*
X68076524Y-24220976D02*
X68200333Y-24220976D01*
X68133667Y-24297167D01*
X68162238Y-24297167D01*
X68181286Y-24306690D01*
X68190810Y-24316214D01*
X68200333Y-24335262D01*
X68200333Y-24382881D01*
X68190810Y-24401928D01*
X68181286Y-24411452D01*
X68162238Y-24420976D01*
X68105095Y-24420976D01*
X68086048Y-24411452D01*
X68076524Y-24401928D01*
X68438429Y-24420976D02*
X68438429Y-24220976D01*
X68524143Y-24420976D02*
X68524143Y-24316214D01*
X68514619Y-24297167D01*
X68495571Y-24287643D01*
X68467000Y-24287643D01*
X68447952Y-24297167D01*
X68438429Y-24306690D01*
X68647952Y-24420976D02*
X68628905Y-24411452D01*
X68619381Y-24401928D01*
X68609857Y-24382881D01*
X68609857Y-24325738D01*
X68619381Y-24306690D01*
X68628905Y-24297167D01*
X68647952Y-24287643D01*
X68676524Y-24287643D01*
X68695571Y-24297167D01*
X68705095Y-24306690D01*
X68714619Y-24325738D01*
X68714619Y-24382881D01*
X68705095Y-24401928D01*
X68695571Y-24411452D01*
X68676524Y-24420976D01*
X68647952Y-24420976D01*
X68828905Y-24420976D02*
X68809857Y-24411452D01*
X68800333Y-24392405D01*
X68800333Y-24220976D01*
X68981286Y-24411452D02*
X68962238Y-24420976D01*
X68924143Y-24420976D01*
X68905095Y-24411452D01*
X68895571Y-24392405D01*
X68895571Y-24316214D01*
X68905095Y-24297167D01*
X68924143Y-24287643D01*
X68962238Y-24287643D01*
X68981286Y-24297167D01*
X68990810Y-24316214D01*
X68990810Y-24335262D01*
X68895571Y-24354309D01*
X69067000Y-24411452D02*
X69086048Y-24420976D01*
X69124143Y-24420976D01*
X69143190Y-24411452D01*
X69152714Y-24392405D01*
X69152714Y-24382881D01*
X69143190Y-24363833D01*
X69124143Y-24354309D01*
X69095571Y-24354309D01*
X69076524Y-24344786D01*
X69067000Y-24325738D01*
X69067000Y-24316214D01*
X69076524Y-24297167D01*
X69095571Y-24287643D01*
X69124143Y-24287643D01*
X69143190Y-24297167D01*
X69219381Y-24497167D02*
X69228905Y-24487643D01*
X69247952Y-24459071D01*
X69257476Y-24440024D01*
X69267000Y-24411452D01*
X69276524Y-24363833D01*
X69276524Y-24325738D01*
X69267000Y-24278119D01*
X69257476Y-24249548D01*
X69247952Y-24230500D01*
X69228905Y-24201928D01*
X69219381Y-24192405D01*
D13*
X64257000Y-24594500D02*
G75*
G03*
X64257000Y-24594500I-35500J0D01*
G01*
D11*
X64552714Y-24484976D02*
X64571762Y-24484976D01*
X64590809Y-24494500D01*
X64600333Y-24504024D01*
X64609857Y-24523071D01*
X64619381Y-24561167D01*
X64619381Y-24608786D01*
X64609857Y-24646881D01*
X64600333Y-24665928D01*
X64590809Y-24675452D01*
X64571762Y-24684976D01*
X64552714Y-24684976D01*
X64533667Y-24675452D01*
X64524143Y-24665928D01*
X64514619Y-24646881D01*
X64505095Y-24608786D01*
X64505095Y-24561167D01*
X64514619Y-24523071D01*
X64524143Y-24504024D01*
X64533667Y-24494500D01*
X64552714Y-24484976D01*
X64705095Y-24665928D02*
X64714619Y-24675452D01*
X64705095Y-24684976D01*
X64695571Y-24675452D01*
X64705095Y-24665928D01*
X64705095Y-24684976D01*
X64781286Y-24484976D02*
X64914619Y-24484976D01*
X64828905Y-24684976D01*
X65095571Y-24684976D02*
X64981286Y-24684976D01*
X65038428Y-24684976D02*
X65038428Y-24484976D01*
X65019381Y-24513548D01*
X65000333Y-24532595D01*
X64981286Y-24542119D01*
X65219381Y-24484976D02*
X65238428Y-24484976D01*
X65257476Y-24494500D01*
X65267000Y-24504024D01*
X65276524Y-24523071D01*
X65286048Y-24561167D01*
X65286048Y-24608786D01*
X65276524Y-24646881D01*
X65267000Y-24665928D01*
X65257476Y-24675452D01*
X65238428Y-24684976D01*
X65219381Y-24684976D01*
X65200333Y-24675452D01*
X65190809Y-24665928D01*
X65181286Y-24646881D01*
X65171762Y-24608786D01*
X65171762Y-24561167D01*
X65181286Y-24523071D01*
X65190809Y-24504024D01*
X65200333Y-24494500D01*
X65219381Y-24484976D01*
X65371762Y-24684976D02*
X65371762Y-24551643D01*
X65371762Y-24570690D02*
X65381286Y-24561167D01*
X65400333Y-24551643D01*
X65428905Y-24551643D01*
X65447952Y-24561167D01*
X65457476Y-24580214D01*
X65457476Y-24684976D01*
X65457476Y-24580214D02*
X65467000Y-24561167D01*
X65486048Y-24551643D01*
X65514619Y-24551643D01*
X65533667Y-24561167D01*
X65543190Y-24580214D01*
X65543190Y-24684976D01*
X65638428Y-24684976D02*
X65638428Y-24551643D01*
X65638428Y-24570690D02*
X65647952Y-24561167D01*
X65667000Y-24551643D01*
X65695571Y-24551643D01*
X65714619Y-24561167D01*
X65724143Y-24580214D01*
X65724143Y-24684976D01*
X65724143Y-24580214D02*
X65733667Y-24561167D01*
X65752714Y-24551643D01*
X65781286Y-24551643D01*
X65800333Y-24561167D01*
X65809857Y-24580214D01*
X65809857Y-24684976D01*
X66200333Y-24475452D02*
X66028905Y-24732595D01*
X66457476Y-24484976D02*
X66476524Y-24484976D01*
X66495571Y-24494500D01*
X66505095Y-24504024D01*
X66514619Y-24523071D01*
X66524143Y-24561167D01*
X66524143Y-24608786D01*
X66514619Y-24646881D01*
X66505095Y-24665928D01*
X66495571Y-24675452D01*
X66476524Y-24684976D01*
X66457476Y-24684976D01*
X66438428Y-24675452D01*
X66428905Y-24665928D01*
X66419381Y-24646881D01*
X66409857Y-24608786D01*
X66409857Y-24561167D01*
X66419381Y-24523071D01*
X66428905Y-24504024D01*
X66438428Y-24494500D01*
X66457476Y-24484976D01*
X66609857Y-24665928D02*
X66619381Y-24675452D01*
X66609857Y-24684976D01*
X66600333Y-24675452D01*
X66609857Y-24665928D01*
X66609857Y-24684976D01*
X66743190Y-24484976D02*
X66762238Y-24484976D01*
X66781286Y-24494500D01*
X66790809Y-24504024D01*
X66800333Y-24523071D01*
X66809857Y-24561167D01*
X66809857Y-24608786D01*
X66800333Y-24646881D01*
X66790809Y-24665928D01*
X66781286Y-24675452D01*
X66762238Y-24684976D01*
X66743190Y-24684976D01*
X66724143Y-24675452D01*
X66714619Y-24665928D01*
X66705095Y-24646881D01*
X66695571Y-24608786D01*
X66695571Y-24561167D01*
X66705095Y-24523071D01*
X66714619Y-24504024D01*
X66724143Y-24494500D01*
X66743190Y-24484976D01*
X66886048Y-24504024D02*
X66895571Y-24494500D01*
X66914619Y-24484976D01*
X66962238Y-24484976D01*
X66981286Y-24494500D01*
X66990809Y-24504024D01*
X67000333Y-24523071D01*
X67000333Y-24542119D01*
X66990809Y-24570690D01*
X66876524Y-24684976D01*
X67000333Y-24684976D01*
X67114619Y-24570690D02*
X67095571Y-24561167D01*
X67086048Y-24551643D01*
X67076524Y-24532595D01*
X67076524Y-24523071D01*
X67086048Y-24504024D01*
X67095571Y-24494500D01*
X67114619Y-24484976D01*
X67152714Y-24484976D01*
X67171762Y-24494500D01*
X67181286Y-24504024D01*
X67190810Y-24523071D01*
X67190810Y-24532595D01*
X67181286Y-24551643D01*
X67171762Y-24561167D01*
X67152714Y-24570690D01*
X67114619Y-24570690D01*
X67095571Y-24580214D01*
X67086048Y-24589738D01*
X67076524Y-24608786D01*
X67076524Y-24646881D01*
X67086048Y-24665928D01*
X67095571Y-24675452D01*
X67114619Y-24684976D01*
X67152714Y-24684976D01*
X67171762Y-24675452D01*
X67181286Y-24665928D01*
X67190810Y-24646881D01*
X67190810Y-24608786D01*
X67181286Y-24589738D01*
X67171762Y-24580214D01*
X67152714Y-24570690D01*
X67314619Y-24484976D02*
X67333667Y-24484976D01*
X67352714Y-24494500D01*
X67362238Y-24504024D01*
X67371762Y-24523071D01*
X67381286Y-24561167D01*
X67381286Y-24608786D01*
X67371762Y-24646881D01*
X67362238Y-24665928D01*
X67352714Y-24675452D01*
X67333667Y-24684976D01*
X67314619Y-24684976D01*
X67295571Y-24675452D01*
X67286048Y-24665928D01*
X67276524Y-24646881D01*
X67267000Y-24608786D01*
X67267000Y-24561167D01*
X67276524Y-24523071D01*
X67286048Y-24504024D01*
X67295571Y-24494500D01*
X67314619Y-24484976D01*
X67457476Y-24484976D02*
X67457476Y-24523071D01*
X67533667Y-24484976D02*
X67533667Y-24523071D01*
X67828905Y-24761167D02*
X67819381Y-24751643D01*
X67800333Y-24723071D01*
X67790810Y-24704024D01*
X67781286Y-24675452D01*
X67771762Y-24627833D01*
X67771762Y-24589738D01*
X67781286Y-24542119D01*
X67790810Y-24513548D01*
X67800333Y-24494500D01*
X67819381Y-24465928D01*
X67828905Y-24456405D01*
X67895571Y-24504024D02*
X67905095Y-24494500D01*
X67924143Y-24484976D01*
X67971762Y-24484976D01*
X67990810Y-24494500D01*
X68000333Y-24504024D01*
X68009857Y-24523071D01*
X68009857Y-24542119D01*
X68000333Y-24570690D01*
X67886048Y-24684976D01*
X68009857Y-24684976D01*
X68247952Y-24684976D02*
X68247952Y-24484976D01*
X68333667Y-24684976D02*
X68333667Y-24580214D01*
X68324143Y-24561167D01*
X68305095Y-24551643D01*
X68276524Y-24551643D01*
X68257476Y-24561167D01*
X68247952Y-24570690D01*
X68457476Y-24684976D02*
X68438429Y-24675452D01*
X68428905Y-24665928D01*
X68419381Y-24646881D01*
X68419381Y-24589738D01*
X68428905Y-24570690D01*
X68438429Y-24561167D01*
X68457476Y-24551643D01*
X68486048Y-24551643D01*
X68505095Y-24561167D01*
X68514619Y-24570690D01*
X68524143Y-24589738D01*
X68524143Y-24646881D01*
X68514619Y-24665928D01*
X68505095Y-24675452D01*
X68486048Y-24684976D01*
X68457476Y-24684976D01*
X68638429Y-24684976D02*
X68619381Y-24675452D01*
X68609857Y-24656405D01*
X68609857Y-24484976D01*
X68790810Y-24675452D02*
X68771762Y-24684976D01*
X68733667Y-24684976D01*
X68714619Y-24675452D01*
X68705095Y-24656405D01*
X68705095Y-24580214D01*
X68714619Y-24561167D01*
X68733667Y-24551643D01*
X68771762Y-24551643D01*
X68790810Y-24561167D01*
X68800333Y-24580214D01*
X68800333Y-24599262D01*
X68705095Y-24618309D01*
X68876524Y-24675452D02*
X68895571Y-24684976D01*
X68933667Y-24684976D01*
X68952714Y-24675452D01*
X68962238Y-24656405D01*
X68962238Y-24646881D01*
X68952714Y-24627833D01*
X68933667Y-24618309D01*
X68905095Y-24618309D01*
X68886048Y-24608786D01*
X68876524Y-24589738D01*
X68876524Y-24580214D01*
X68886048Y-24561167D01*
X68905095Y-24551643D01*
X68933667Y-24551643D01*
X68952714Y-24561167D01*
X69028905Y-24761167D02*
X69038429Y-24751643D01*
X69057476Y-24723071D01*
X69067000Y-24704024D01*
X69076524Y-24675452D01*
X69086048Y-24627833D01*
X69086048Y-24589738D01*
X69076524Y-24542119D01*
X69067000Y-24513548D01*
X69057476Y-24494500D01*
X69038429Y-24465928D01*
X69028905Y-24456405D01*
D14*
X64217000Y-24818500D02*
X64217000Y-24898500D01*
X64177000Y-24858500D02*
X64257000Y-24858500D01*
D11*
X64552714Y-24748976D02*
X64571762Y-24748976D01*
X64590809Y-24758500D01*
X64600333Y-24768024D01*
X64609857Y-24787071D01*
X64619381Y-24825167D01*
X64619381Y-24872786D01*
X64609857Y-24910881D01*
X64600333Y-24929928D01*
X64590809Y-24939452D01*
X64571762Y-24948976D01*
X64552714Y-24948976D01*
X64533667Y-24939452D01*
X64524143Y-24929928D01*
X64514619Y-24910881D01*
X64505095Y-24872786D01*
X64505095Y-24825167D01*
X64514619Y-24787071D01*
X64524143Y-24768024D01*
X64533667Y-24758500D01*
X64552714Y-24748976D01*
X64705095Y-24929928D02*
X64714619Y-24939452D01*
X64705095Y-24948976D01*
X64695571Y-24939452D01*
X64705095Y-24929928D01*
X64705095Y-24948976D01*
X64828905Y-24834690D02*
X64809857Y-24825167D01*
X64800333Y-24815643D01*
X64790809Y-24796595D01*
X64790809Y-24787071D01*
X64800333Y-24768024D01*
X64809857Y-24758500D01*
X64828905Y-24748976D01*
X64867000Y-24748976D01*
X64886048Y-24758500D01*
X64895571Y-24768024D01*
X64905095Y-24787071D01*
X64905095Y-24796595D01*
X64895571Y-24815643D01*
X64886048Y-24825167D01*
X64867000Y-24834690D01*
X64828905Y-24834690D01*
X64809857Y-24844214D01*
X64800333Y-24853738D01*
X64790809Y-24872786D01*
X64790809Y-24910881D01*
X64800333Y-24929928D01*
X64809857Y-24939452D01*
X64828905Y-24948976D01*
X64867000Y-24948976D01*
X64886048Y-24939452D01*
X64895571Y-24929928D01*
X64905095Y-24910881D01*
X64905095Y-24872786D01*
X64895571Y-24853738D01*
X64886048Y-24844214D01*
X64867000Y-24834690D01*
X65028905Y-24748976D02*
X65047952Y-24748976D01*
X65067000Y-24758500D01*
X65076524Y-24768024D01*
X65086048Y-24787071D01*
X65095571Y-24825167D01*
X65095571Y-24872786D01*
X65086048Y-24910881D01*
X65076524Y-24929928D01*
X65067000Y-24939452D01*
X65047952Y-24948976D01*
X65028905Y-24948976D01*
X65009857Y-24939452D01*
X65000333Y-24929928D01*
X64990809Y-24910881D01*
X64981286Y-24872786D01*
X64981286Y-24825167D01*
X64990809Y-24787071D01*
X65000333Y-24768024D01*
X65009857Y-24758500D01*
X65028905Y-24748976D01*
X65219381Y-24748976D02*
X65238428Y-24748976D01*
X65257476Y-24758500D01*
X65267000Y-24768024D01*
X65276524Y-24787071D01*
X65286048Y-24825167D01*
X65286048Y-24872786D01*
X65276524Y-24910881D01*
X65267000Y-24929928D01*
X65257476Y-24939452D01*
X65238428Y-24948976D01*
X65219381Y-24948976D01*
X65200333Y-24939452D01*
X65190809Y-24929928D01*
X65181286Y-24910881D01*
X65171762Y-24872786D01*
X65171762Y-24825167D01*
X65181286Y-24787071D01*
X65190809Y-24768024D01*
X65200333Y-24758500D01*
X65219381Y-24748976D01*
X65371762Y-24948976D02*
X65371762Y-24815643D01*
X65371762Y-24834690D02*
X65381286Y-24825167D01*
X65400333Y-24815643D01*
X65428905Y-24815643D01*
X65447952Y-24825167D01*
X65457476Y-24844214D01*
X65457476Y-24948976D01*
X65457476Y-24844214D02*
X65467000Y-24825167D01*
X65486048Y-24815643D01*
X65514619Y-24815643D01*
X65533667Y-24825167D01*
X65543190Y-24844214D01*
X65543190Y-24948976D01*
X65638428Y-24948976D02*
X65638428Y-24815643D01*
X65638428Y-24834690D02*
X65647952Y-24825167D01*
X65667000Y-24815643D01*
X65695571Y-24815643D01*
X65714619Y-24825167D01*
X65724143Y-24844214D01*
X65724143Y-24948976D01*
X65724143Y-24844214D02*
X65733667Y-24825167D01*
X65752714Y-24815643D01*
X65781286Y-24815643D01*
X65800333Y-24825167D01*
X65809857Y-24844214D01*
X65809857Y-24948976D01*
X66200333Y-24739452D02*
X66028905Y-24996595D01*
X66457476Y-24748976D02*
X66476524Y-24748976D01*
X66495571Y-24758500D01*
X66505095Y-24768024D01*
X66514619Y-24787071D01*
X66524143Y-24825167D01*
X66524143Y-24872786D01*
X66514619Y-24910881D01*
X66505095Y-24929928D01*
X66495571Y-24939452D01*
X66476524Y-24948976D01*
X66457476Y-24948976D01*
X66438428Y-24939452D01*
X66428905Y-24929928D01*
X66419381Y-24910881D01*
X66409857Y-24872786D01*
X66409857Y-24825167D01*
X66419381Y-24787071D01*
X66428905Y-24768024D01*
X66438428Y-24758500D01*
X66457476Y-24748976D01*
X66609857Y-24929928D02*
X66619381Y-24939452D01*
X66609857Y-24948976D01*
X66600333Y-24939452D01*
X66609857Y-24929928D01*
X66609857Y-24948976D01*
X66743190Y-24748976D02*
X66762238Y-24748976D01*
X66781286Y-24758500D01*
X66790809Y-24768024D01*
X66800333Y-24787071D01*
X66809857Y-24825167D01*
X66809857Y-24872786D01*
X66800333Y-24910881D01*
X66790809Y-24929928D01*
X66781286Y-24939452D01*
X66762238Y-24948976D01*
X66743190Y-24948976D01*
X66724143Y-24939452D01*
X66714619Y-24929928D01*
X66705095Y-24910881D01*
X66695571Y-24872786D01*
X66695571Y-24825167D01*
X66705095Y-24787071D01*
X66714619Y-24768024D01*
X66724143Y-24758500D01*
X66743190Y-24748976D01*
X66876524Y-24748976D02*
X67000333Y-24748976D01*
X66933667Y-24825167D01*
X66962238Y-24825167D01*
X66981286Y-24834690D01*
X66990809Y-24844214D01*
X67000333Y-24863262D01*
X67000333Y-24910881D01*
X66990809Y-24929928D01*
X66981286Y-24939452D01*
X66962238Y-24948976D01*
X66905095Y-24948976D01*
X66886048Y-24939452D01*
X66876524Y-24929928D01*
X67190810Y-24948976D02*
X67076524Y-24948976D01*
X67133667Y-24948976D02*
X67133667Y-24748976D01*
X67114619Y-24777548D01*
X67095571Y-24796595D01*
X67076524Y-24806119D01*
X67371762Y-24748976D02*
X67276524Y-24748976D01*
X67267000Y-24844214D01*
X67276524Y-24834690D01*
X67295571Y-24825167D01*
X67343190Y-24825167D01*
X67362238Y-24834690D01*
X67371762Y-24844214D01*
X67381286Y-24863262D01*
X67381286Y-24910881D01*
X67371762Y-24929928D01*
X67362238Y-24939452D01*
X67343190Y-24948976D01*
X67295571Y-24948976D01*
X67276524Y-24939452D01*
X67267000Y-24929928D01*
X67457476Y-24748976D02*
X67457476Y-24787071D01*
X67533667Y-24748976D02*
X67533667Y-24787071D01*
X67828905Y-25025167D02*
X67819381Y-25015643D01*
X67800333Y-24987071D01*
X67790810Y-24968024D01*
X67781286Y-24939452D01*
X67771762Y-24891833D01*
X67771762Y-24853738D01*
X67781286Y-24806119D01*
X67790810Y-24777548D01*
X67800333Y-24758500D01*
X67819381Y-24729928D01*
X67828905Y-24720405D01*
X67914619Y-24948976D02*
X67952714Y-24948976D01*
X67971762Y-24939452D01*
X67981286Y-24929928D01*
X68000333Y-24901357D01*
X68009857Y-24863262D01*
X68009857Y-24787071D01*
X68000333Y-24768024D01*
X67990810Y-24758500D01*
X67971762Y-24748976D01*
X67933667Y-24748976D01*
X67914619Y-24758500D01*
X67905095Y-24768024D01*
X67895571Y-24787071D01*
X67895571Y-24834690D01*
X67905095Y-24853738D01*
X67914619Y-24863262D01*
X67933667Y-24872786D01*
X67971762Y-24872786D01*
X67990810Y-24863262D01*
X68000333Y-24853738D01*
X68009857Y-24834690D01*
X68124143Y-24834690D02*
X68105095Y-24825167D01*
X68095571Y-24815643D01*
X68086048Y-24796595D01*
X68086048Y-24787071D01*
X68095571Y-24768024D01*
X68105095Y-24758500D01*
X68124143Y-24748976D01*
X68162238Y-24748976D01*
X68181286Y-24758500D01*
X68190810Y-24768024D01*
X68200333Y-24787071D01*
X68200333Y-24796595D01*
X68190810Y-24815643D01*
X68181286Y-24825167D01*
X68162238Y-24834690D01*
X68124143Y-24834690D01*
X68105095Y-24844214D01*
X68095571Y-24853738D01*
X68086048Y-24872786D01*
X68086048Y-24910881D01*
X68095571Y-24929928D01*
X68105095Y-24939452D01*
X68124143Y-24948976D01*
X68162238Y-24948976D01*
X68181286Y-24939452D01*
X68190810Y-24929928D01*
X68200333Y-24910881D01*
X68200333Y-24872786D01*
X68190810Y-24853738D01*
X68181286Y-24844214D01*
X68162238Y-24834690D01*
X68438429Y-24948976D02*
X68438429Y-24748976D01*
X68524143Y-24948976D02*
X68524143Y-24844214D01*
X68514619Y-24825167D01*
X68495571Y-24815643D01*
X68467000Y-24815643D01*
X68447952Y-24825167D01*
X68438429Y-24834690D01*
X68647952Y-24948976D02*
X68628905Y-24939452D01*
X68619381Y-24929928D01*
X68609857Y-24910881D01*
X68609857Y-24853738D01*
X68619381Y-24834690D01*
X68628905Y-24825167D01*
X68647952Y-24815643D01*
X68676524Y-24815643D01*
X68695571Y-24825167D01*
X68705095Y-24834690D01*
X68714619Y-24853738D01*
X68714619Y-24910881D01*
X68705095Y-24929928D01*
X68695571Y-24939452D01*
X68676524Y-24948976D01*
X68647952Y-24948976D01*
X68828905Y-24948976D02*
X68809857Y-24939452D01*
X68800333Y-24920405D01*
X68800333Y-24748976D01*
X68981286Y-24939452D02*
X68962238Y-24948976D01*
X68924143Y-24948976D01*
X68905095Y-24939452D01*
X68895571Y-24920405D01*
X68895571Y-24844214D01*
X68905095Y-24825167D01*
X68924143Y-24815643D01*
X68962238Y-24815643D01*
X68981286Y-24825167D01*
X68990810Y-24844214D01*
X68990810Y-24863262D01*
X68895571Y-24882309D01*
X69067000Y-24939452D02*
X69086048Y-24948976D01*
X69124143Y-24948976D01*
X69143190Y-24939452D01*
X69152714Y-24920405D01*
X69152714Y-24910881D01*
X69143190Y-24891833D01*
X69124143Y-24882309D01*
X69095571Y-24882309D01*
X69076524Y-24872786D01*
X69067000Y-24853738D01*
X69067000Y-24844214D01*
X69076524Y-24825167D01*
X69095571Y-24815643D01*
X69124143Y-24815643D01*
X69143190Y-24825167D01*
X69219381Y-25025167D02*
X69228905Y-25015643D01*
X69247952Y-24987071D01*
X69257476Y-24968024D01*
X69267000Y-24939452D01*
X69276524Y-24891833D01*
X69276524Y-24853738D01*
X69267000Y-24806119D01*
X69257476Y-24777548D01*
X69247952Y-24758500D01*
X69228905Y-24729928D01*
X69219381Y-24720405D01*
D15*
X64243820Y-25154320D02*
X64243820Y-25090680D01*
X64180180Y-25090680D01*
X64180180Y-25154320D01*
X64243820Y-25154320D01*
D11*
X64552714Y-25012976D02*
X64571762Y-25012976D01*
X64590809Y-25022500D01*
X64600333Y-25032024D01*
X64609857Y-25051071D01*
X64619381Y-25089167D01*
X64619381Y-25136786D01*
X64609857Y-25174881D01*
X64600333Y-25193928D01*
X64590809Y-25203452D01*
X64571762Y-25212976D01*
X64552714Y-25212976D01*
X64533667Y-25203452D01*
X64524143Y-25193928D01*
X64514619Y-25174881D01*
X64505095Y-25136786D01*
X64505095Y-25089167D01*
X64514619Y-25051071D01*
X64524143Y-25032024D01*
X64533667Y-25022500D01*
X64552714Y-25012976D01*
X64705095Y-25193928D02*
X64714619Y-25203452D01*
X64705095Y-25212976D01*
X64695571Y-25203452D01*
X64705095Y-25193928D01*
X64705095Y-25212976D01*
X64809857Y-25212976D02*
X64847952Y-25212976D01*
X64867000Y-25203452D01*
X64876524Y-25193928D01*
X64895571Y-25165357D01*
X64905095Y-25127262D01*
X64905095Y-25051071D01*
X64895571Y-25032024D01*
X64886048Y-25022500D01*
X64867000Y-25012976D01*
X64828905Y-25012976D01*
X64809857Y-25022500D01*
X64800333Y-25032024D01*
X64790809Y-25051071D01*
X64790809Y-25098690D01*
X64800333Y-25117738D01*
X64809857Y-25127262D01*
X64828905Y-25136786D01*
X64867000Y-25136786D01*
X64886048Y-25127262D01*
X64895571Y-25117738D01*
X64905095Y-25098690D01*
X65028905Y-25012976D02*
X65047952Y-25012976D01*
X65067000Y-25022500D01*
X65076524Y-25032024D01*
X65086048Y-25051071D01*
X65095571Y-25089167D01*
X65095571Y-25136786D01*
X65086048Y-25174881D01*
X65076524Y-25193928D01*
X65067000Y-25203452D01*
X65047952Y-25212976D01*
X65028905Y-25212976D01*
X65009857Y-25203452D01*
X65000333Y-25193928D01*
X64990809Y-25174881D01*
X64981286Y-25136786D01*
X64981286Y-25089167D01*
X64990809Y-25051071D01*
X65000333Y-25032024D01*
X65009857Y-25022500D01*
X65028905Y-25012976D01*
X65219381Y-25012976D02*
X65238428Y-25012976D01*
X65257476Y-25022500D01*
X65267000Y-25032024D01*
X65276524Y-25051071D01*
X65286048Y-25089167D01*
X65286048Y-25136786D01*
X65276524Y-25174881D01*
X65267000Y-25193928D01*
X65257476Y-25203452D01*
X65238428Y-25212976D01*
X65219381Y-25212976D01*
X65200333Y-25203452D01*
X65190809Y-25193928D01*
X65181286Y-25174881D01*
X65171762Y-25136786D01*
X65171762Y-25089167D01*
X65181286Y-25051071D01*
X65190809Y-25032024D01*
X65200333Y-25022500D01*
X65219381Y-25012976D01*
X65371762Y-25212976D02*
X65371762Y-25079643D01*
X65371762Y-25098690D02*
X65381286Y-25089167D01*
X65400333Y-25079643D01*
X65428905Y-25079643D01*
X65447952Y-25089167D01*
X65457476Y-25108214D01*
X65457476Y-25212976D01*
X65457476Y-25108214D02*
X65467000Y-25089167D01*
X65486048Y-25079643D01*
X65514619Y-25079643D01*
X65533667Y-25089167D01*
X65543190Y-25108214D01*
X65543190Y-25212976D01*
X65638428Y-25212976D02*
X65638428Y-25079643D01*
X65638428Y-25098690D02*
X65647952Y-25089167D01*
X65667000Y-25079643D01*
X65695571Y-25079643D01*
X65714619Y-25089167D01*
X65724143Y-25108214D01*
X65724143Y-25212976D01*
X65724143Y-25108214D02*
X65733667Y-25089167D01*
X65752714Y-25079643D01*
X65781286Y-25079643D01*
X65800333Y-25089167D01*
X65809857Y-25108214D01*
X65809857Y-25212976D01*
X66200333Y-25003452D02*
X66028905Y-25260595D01*
X66457476Y-25012976D02*
X66476524Y-25012976D01*
X66495571Y-25022500D01*
X66505095Y-25032024D01*
X66514619Y-25051071D01*
X66524143Y-25089167D01*
X66524143Y-25136786D01*
X66514619Y-25174881D01*
X66505095Y-25193928D01*
X66495571Y-25203452D01*
X66476524Y-25212976D01*
X66457476Y-25212976D01*
X66438428Y-25203452D01*
X66428905Y-25193928D01*
X66419381Y-25174881D01*
X66409857Y-25136786D01*
X66409857Y-25089167D01*
X66419381Y-25051071D01*
X66428905Y-25032024D01*
X66438428Y-25022500D01*
X66457476Y-25012976D01*
X66609857Y-25193928D02*
X66619381Y-25203452D01*
X66609857Y-25212976D01*
X66600333Y-25203452D01*
X66609857Y-25193928D01*
X66609857Y-25212976D01*
X66743190Y-25012976D02*
X66762238Y-25012976D01*
X66781286Y-25022500D01*
X66790809Y-25032024D01*
X66800333Y-25051071D01*
X66809857Y-25089167D01*
X66809857Y-25136786D01*
X66800333Y-25174881D01*
X66790809Y-25193928D01*
X66781286Y-25203452D01*
X66762238Y-25212976D01*
X66743190Y-25212976D01*
X66724143Y-25203452D01*
X66714619Y-25193928D01*
X66705095Y-25174881D01*
X66695571Y-25136786D01*
X66695571Y-25089167D01*
X66705095Y-25051071D01*
X66714619Y-25032024D01*
X66724143Y-25022500D01*
X66743190Y-25012976D01*
X66876524Y-25012976D02*
X67000333Y-25012976D01*
X66933667Y-25089167D01*
X66962238Y-25089167D01*
X66981286Y-25098690D01*
X66990809Y-25108214D01*
X67000333Y-25127262D01*
X67000333Y-25174881D01*
X66990809Y-25193928D01*
X66981286Y-25203452D01*
X66962238Y-25212976D01*
X66905095Y-25212976D01*
X66886048Y-25203452D01*
X66876524Y-25193928D01*
X67181286Y-25012976D02*
X67086048Y-25012976D01*
X67076524Y-25108214D01*
X67086048Y-25098690D01*
X67105095Y-25089167D01*
X67152714Y-25089167D01*
X67171762Y-25098690D01*
X67181286Y-25108214D01*
X67190810Y-25127262D01*
X67190810Y-25174881D01*
X67181286Y-25193928D01*
X67171762Y-25203452D01*
X67152714Y-25212976D01*
X67105095Y-25212976D01*
X67086048Y-25203452D01*
X67076524Y-25193928D01*
X67362238Y-25079643D02*
X67362238Y-25212976D01*
X67314619Y-25003452D02*
X67267000Y-25146309D01*
X67390810Y-25146309D01*
X67457476Y-25012976D02*
X67457476Y-25051071D01*
X67533667Y-25012976D02*
X67533667Y-25051071D01*
X67828905Y-25289167D02*
X67819381Y-25279643D01*
X67800333Y-25251071D01*
X67790810Y-25232024D01*
X67781286Y-25203452D01*
X67771762Y-25155833D01*
X67771762Y-25117738D01*
X67781286Y-25070119D01*
X67790810Y-25041548D01*
X67800333Y-25022500D01*
X67819381Y-24993928D01*
X67828905Y-24984405D01*
X67895571Y-25032024D02*
X67905095Y-25022500D01*
X67924143Y-25012976D01*
X67971762Y-25012976D01*
X67990810Y-25022500D01*
X68000333Y-25032024D01*
X68009857Y-25051071D01*
X68009857Y-25070119D01*
X68000333Y-25098690D01*
X67886048Y-25212976D01*
X68009857Y-25212976D01*
X68247952Y-25212976D02*
X68247952Y-25012976D01*
X68333667Y-25212976D02*
X68333667Y-25108214D01*
X68324143Y-25089167D01*
X68305095Y-25079643D01*
X68276524Y-25079643D01*
X68257476Y-25089167D01*
X68247952Y-25098690D01*
X68457476Y-25212976D02*
X68438429Y-25203452D01*
X68428905Y-25193928D01*
X68419381Y-25174881D01*
X68419381Y-25117738D01*
X68428905Y-25098690D01*
X68438429Y-25089167D01*
X68457476Y-25079643D01*
X68486048Y-25079643D01*
X68505095Y-25089167D01*
X68514619Y-25098690D01*
X68524143Y-25117738D01*
X68524143Y-25174881D01*
X68514619Y-25193928D01*
X68505095Y-25203452D01*
X68486048Y-25212976D01*
X68457476Y-25212976D01*
X68638429Y-25212976D02*
X68619381Y-25203452D01*
X68609857Y-25184405D01*
X68609857Y-25012976D01*
X68790810Y-25203452D02*
X68771762Y-25212976D01*
X68733667Y-25212976D01*
X68714619Y-25203452D01*
X68705095Y-25184405D01*
X68705095Y-25108214D01*
X68714619Y-25089167D01*
X68733667Y-25079643D01*
X68771762Y-25079643D01*
X68790810Y-25089167D01*
X68800333Y-25108214D01*
X68800333Y-25127262D01*
X68705095Y-25146309D01*
X68876524Y-25203452D02*
X68895571Y-25212976D01*
X68933667Y-25212976D01*
X68952714Y-25203452D01*
X68962238Y-25184405D01*
X68962238Y-25174881D01*
X68952714Y-25155833D01*
X68933667Y-25146309D01*
X68905095Y-25146309D01*
X68886048Y-25136786D01*
X68876524Y-25117738D01*
X68876524Y-25108214D01*
X68886048Y-25089167D01*
X68905095Y-25079643D01*
X68933667Y-25079643D01*
X68952714Y-25089167D01*
X69028905Y-25289167D02*
X69038429Y-25279643D01*
X69057476Y-25251071D01*
X69067000Y-25232024D01*
X69076524Y-25203452D01*
X69086048Y-25155833D01*
X69086048Y-25117738D01*
X69076524Y-25070119D01*
X69067000Y-25041548D01*
X69057476Y-25022500D01*
X69038429Y-24993928D01*
X69028905Y-24984405D01*
D16*
X64208500Y-25435000D02*
X64257000Y-25386500D01*
X64208500Y-25338000D01*
X64160000Y-25386500D01*
X64208500Y-25435000D01*
D11*
X64552714Y-25276976D02*
X64571762Y-25276976D01*
X64590809Y-25286500D01*
X64600333Y-25296024D01*
X64609857Y-25315071D01*
X64619381Y-25353167D01*
X64619381Y-25400786D01*
X64609857Y-25438881D01*
X64600333Y-25457928D01*
X64590809Y-25467452D01*
X64571762Y-25476976D01*
X64552714Y-25476976D01*
X64533667Y-25467452D01*
X64524143Y-25457928D01*
X64514619Y-25438881D01*
X64505095Y-25400786D01*
X64505095Y-25353167D01*
X64514619Y-25315071D01*
X64524143Y-25296024D01*
X64533667Y-25286500D01*
X64552714Y-25276976D01*
X64705095Y-25457928D02*
X64714619Y-25467452D01*
X64705095Y-25476976D01*
X64695571Y-25467452D01*
X64705095Y-25457928D01*
X64705095Y-25476976D01*
X64809857Y-25476976D02*
X64847952Y-25476976D01*
X64867000Y-25467452D01*
X64876524Y-25457928D01*
X64895571Y-25429357D01*
X64905095Y-25391262D01*
X64905095Y-25315071D01*
X64895571Y-25296024D01*
X64886048Y-25286500D01*
X64867000Y-25276976D01*
X64828905Y-25276976D01*
X64809857Y-25286500D01*
X64800333Y-25296024D01*
X64790809Y-25315071D01*
X64790809Y-25362690D01*
X64800333Y-25381738D01*
X64809857Y-25391262D01*
X64828905Y-25400786D01*
X64867000Y-25400786D01*
X64886048Y-25391262D01*
X64895571Y-25381738D01*
X64905095Y-25362690D01*
X64971762Y-25276976D02*
X65105095Y-25276976D01*
X65019381Y-25476976D01*
X65219381Y-25276976D02*
X65238428Y-25276976D01*
X65257476Y-25286500D01*
X65267000Y-25296024D01*
X65276524Y-25315071D01*
X65286048Y-25353167D01*
X65286048Y-25400786D01*
X65276524Y-25438881D01*
X65267000Y-25457928D01*
X65257476Y-25467452D01*
X65238428Y-25476976D01*
X65219381Y-25476976D01*
X65200333Y-25467452D01*
X65190809Y-25457928D01*
X65181286Y-25438881D01*
X65171762Y-25400786D01*
X65171762Y-25353167D01*
X65181286Y-25315071D01*
X65190809Y-25296024D01*
X65200333Y-25286500D01*
X65219381Y-25276976D01*
X65371762Y-25476976D02*
X65371762Y-25343643D01*
X65371762Y-25362690D02*
X65381286Y-25353167D01*
X65400333Y-25343643D01*
X65428905Y-25343643D01*
X65447952Y-25353167D01*
X65457476Y-25372214D01*
X65457476Y-25476976D01*
X65457476Y-25372214D02*
X65467000Y-25353167D01*
X65486048Y-25343643D01*
X65514619Y-25343643D01*
X65533667Y-25353167D01*
X65543190Y-25372214D01*
X65543190Y-25476976D01*
X65638428Y-25476976D02*
X65638428Y-25343643D01*
X65638428Y-25362690D02*
X65647952Y-25353167D01*
X65667000Y-25343643D01*
X65695571Y-25343643D01*
X65714619Y-25353167D01*
X65724143Y-25372214D01*
X65724143Y-25476976D01*
X65724143Y-25372214D02*
X65733667Y-25353167D01*
X65752714Y-25343643D01*
X65781286Y-25343643D01*
X65800333Y-25353167D01*
X65809857Y-25372214D01*
X65809857Y-25476976D01*
X66200333Y-25267452D02*
X66028905Y-25524595D01*
X66457476Y-25276976D02*
X66476524Y-25276976D01*
X66495571Y-25286500D01*
X66505095Y-25296024D01*
X66514619Y-25315071D01*
X66524143Y-25353167D01*
X66524143Y-25400786D01*
X66514619Y-25438881D01*
X66505095Y-25457928D01*
X66495571Y-25467452D01*
X66476524Y-25476976D01*
X66457476Y-25476976D01*
X66438428Y-25467452D01*
X66428905Y-25457928D01*
X66419381Y-25438881D01*
X66409857Y-25400786D01*
X66409857Y-25353167D01*
X66419381Y-25315071D01*
X66428905Y-25296024D01*
X66438428Y-25286500D01*
X66457476Y-25276976D01*
X66609857Y-25457928D02*
X66619381Y-25467452D01*
X66609857Y-25476976D01*
X66600333Y-25467452D01*
X66609857Y-25457928D01*
X66609857Y-25476976D01*
X66743190Y-25276976D02*
X66762238Y-25276976D01*
X66781286Y-25286500D01*
X66790809Y-25296024D01*
X66800333Y-25315071D01*
X66809857Y-25353167D01*
X66809857Y-25400786D01*
X66800333Y-25438881D01*
X66790809Y-25457928D01*
X66781286Y-25467452D01*
X66762238Y-25476976D01*
X66743190Y-25476976D01*
X66724143Y-25467452D01*
X66714619Y-25457928D01*
X66705095Y-25438881D01*
X66695571Y-25400786D01*
X66695571Y-25353167D01*
X66705095Y-25315071D01*
X66714619Y-25296024D01*
X66724143Y-25286500D01*
X66743190Y-25276976D01*
X66876524Y-25276976D02*
X67000333Y-25276976D01*
X66933667Y-25353167D01*
X66962238Y-25353167D01*
X66981286Y-25362690D01*
X66990809Y-25372214D01*
X67000333Y-25391262D01*
X67000333Y-25438881D01*
X66990809Y-25457928D01*
X66981286Y-25467452D01*
X66962238Y-25476976D01*
X66905095Y-25476976D01*
X66886048Y-25467452D01*
X66876524Y-25457928D01*
X67114619Y-25362690D02*
X67095571Y-25353167D01*
X67086048Y-25343643D01*
X67076524Y-25324595D01*
X67076524Y-25315071D01*
X67086048Y-25296024D01*
X67095571Y-25286500D01*
X67114619Y-25276976D01*
X67152714Y-25276976D01*
X67171762Y-25286500D01*
X67181286Y-25296024D01*
X67190810Y-25315071D01*
X67190810Y-25324595D01*
X67181286Y-25343643D01*
X67171762Y-25353167D01*
X67152714Y-25362690D01*
X67114619Y-25362690D01*
X67095571Y-25372214D01*
X67086048Y-25381738D01*
X67076524Y-25400786D01*
X67076524Y-25438881D01*
X67086048Y-25457928D01*
X67095571Y-25467452D01*
X67114619Y-25476976D01*
X67152714Y-25476976D01*
X67171762Y-25467452D01*
X67181286Y-25457928D01*
X67190810Y-25438881D01*
X67190810Y-25400786D01*
X67181286Y-25381738D01*
X67171762Y-25372214D01*
X67152714Y-25362690D01*
X67267000Y-25296024D02*
X67276524Y-25286500D01*
X67295571Y-25276976D01*
X67343190Y-25276976D01*
X67362238Y-25286500D01*
X67371762Y-25296024D01*
X67381286Y-25315071D01*
X67381286Y-25334119D01*
X67371762Y-25362690D01*
X67257476Y-25476976D01*
X67381286Y-25476976D01*
X67457476Y-25276976D02*
X67457476Y-25315071D01*
X67533667Y-25276976D02*
X67533667Y-25315071D01*
X67828905Y-25553167D02*
X67819381Y-25543643D01*
X67800333Y-25515071D01*
X67790810Y-25496024D01*
X67781286Y-25467452D01*
X67771762Y-25419833D01*
X67771762Y-25381738D01*
X67781286Y-25334119D01*
X67790810Y-25305548D01*
X67800333Y-25286500D01*
X67819381Y-25257928D01*
X67828905Y-25248405D01*
X67895571Y-25296024D02*
X67905095Y-25286500D01*
X67924143Y-25276976D01*
X67971762Y-25276976D01*
X67990810Y-25286500D01*
X68000333Y-25296024D01*
X68009857Y-25315071D01*
X68009857Y-25334119D01*
X68000333Y-25362690D01*
X67886048Y-25476976D01*
X68009857Y-25476976D01*
X68247952Y-25476976D02*
X68247952Y-25276976D01*
X68333667Y-25476976D02*
X68333667Y-25372214D01*
X68324143Y-25353167D01*
X68305095Y-25343643D01*
X68276524Y-25343643D01*
X68257476Y-25353167D01*
X68247952Y-25362690D01*
X68457476Y-25476976D02*
X68438429Y-25467452D01*
X68428905Y-25457928D01*
X68419381Y-25438881D01*
X68419381Y-25381738D01*
X68428905Y-25362690D01*
X68438429Y-25353167D01*
X68457476Y-25343643D01*
X68486048Y-25343643D01*
X68505095Y-25353167D01*
X68514619Y-25362690D01*
X68524143Y-25381738D01*
X68524143Y-25438881D01*
X68514619Y-25457928D01*
X68505095Y-25467452D01*
X68486048Y-25476976D01*
X68457476Y-25476976D01*
X68638429Y-25476976D02*
X68619381Y-25467452D01*
X68609857Y-25448405D01*
X68609857Y-25276976D01*
X68790810Y-25467452D02*
X68771762Y-25476976D01*
X68733667Y-25476976D01*
X68714619Y-25467452D01*
X68705095Y-25448405D01*
X68705095Y-25372214D01*
X68714619Y-25353167D01*
X68733667Y-25343643D01*
X68771762Y-25343643D01*
X68790810Y-25353167D01*
X68800333Y-25372214D01*
X68800333Y-25391262D01*
X68705095Y-25410309D01*
X68876524Y-25467452D02*
X68895571Y-25476976D01*
X68933667Y-25476976D01*
X68952714Y-25467452D01*
X68962238Y-25448405D01*
X68962238Y-25438881D01*
X68952714Y-25419833D01*
X68933667Y-25410309D01*
X68905095Y-25410309D01*
X68886048Y-25400786D01*
X68876524Y-25381738D01*
X68876524Y-25372214D01*
X68886048Y-25353167D01*
X68905095Y-25343643D01*
X68933667Y-25343643D01*
X68952714Y-25353167D01*
X69028905Y-25553167D02*
X69038429Y-25543643D01*
X69057476Y-25515071D01*
X69067000Y-25496024D01*
X69076524Y-25467452D01*
X69086048Y-25419833D01*
X69086048Y-25381738D01*
X69076524Y-25334119D01*
X69067000Y-25305548D01*
X69057476Y-25286500D01*
X69038429Y-25257928D01*
X69028905Y-25248405D01*
D10*
X64157000Y-25600500D02*
X64257000Y-25700500D01*
X64257000Y-25600500D02*
X64157000Y-25700500D01*
X64257000Y-25650500D02*
G75*
G03*
X64257000Y-25650500I-50000J0D01*
G01*
D11*
X64619381Y-25740976D02*
X64505095Y-25740976D01*
X64562238Y-25740976D02*
X64562238Y-25540976D01*
X64543190Y-25569548D01*
X64524143Y-25588595D01*
X64505095Y-25598119D01*
X64705095Y-25721928D02*
X64714619Y-25731452D01*
X64705095Y-25740976D01*
X64695571Y-25731452D01*
X64705095Y-25721928D01*
X64705095Y-25740976D01*
X64838428Y-25540976D02*
X64857476Y-25540976D01*
X64876524Y-25550500D01*
X64886048Y-25560024D01*
X64895571Y-25579071D01*
X64905095Y-25617167D01*
X64905095Y-25664786D01*
X64895571Y-25702881D01*
X64886048Y-25721928D01*
X64876524Y-25731452D01*
X64857476Y-25740976D01*
X64838428Y-25740976D01*
X64819381Y-25731452D01*
X64809857Y-25721928D01*
X64800333Y-25702881D01*
X64790809Y-25664786D01*
X64790809Y-25617167D01*
X64800333Y-25579071D01*
X64809857Y-25560024D01*
X64819381Y-25550500D01*
X64838428Y-25540976D01*
X65028905Y-25540976D02*
X65047952Y-25540976D01*
X65067000Y-25550500D01*
X65076524Y-25560024D01*
X65086048Y-25579071D01*
X65095571Y-25617167D01*
X65095571Y-25664786D01*
X65086048Y-25702881D01*
X65076524Y-25721928D01*
X65067000Y-25731452D01*
X65047952Y-25740976D01*
X65028905Y-25740976D01*
X65009857Y-25731452D01*
X65000333Y-25721928D01*
X64990809Y-25702881D01*
X64981286Y-25664786D01*
X64981286Y-25617167D01*
X64990809Y-25579071D01*
X65000333Y-25560024D01*
X65009857Y-25550500D01*
X65028905Y-25540976D01*
X65219381Y-25540976D02*
X65238428Y-25540976D01*
X65257476Y-25550500D01*
X65267000Y-25560024D01*
X65276524Y-25579071D01*
X65286048Y-25617167D01*
X65286048Y-25664786D01*
X65276524Y-25702881D01*
X65267000Y-25721928D01*
X65257476Y-25731452D01*
X65238428Y-25740976D01*
X65219381Y-25740976D01*
X65200333Y-25731452D01*
X65190809Y-25721928D01*
X65181286Y-25702881D01*
X65171762Y-25664786D01*
X65171762Y-25617167D01*
X65181286Y-25579071D01*
X65190809Y-25560024D01*
X65200333Y-25550500D01*
X65219381Y-25540976D01*
X65371762Y-25740976D02*
X65371762Y-25607643D01*
X65371762Y-25626690D02*
X65381286Y-25617167D01*
X65400333Y-25607643D01*
X65428905Y-25607643D01*
X65447952Y-25617167D01*
X65457476Y-25636214D01*
X65457476Y-25740976D01*
X65457476Y-25636214D02*
X65467000Y-25617167D01*
X65486048Y-25607643D01*
X65514619Y-25607643D01*
X65533667Y-25617167D01*
X65543190Y-25636214D01*
X65543190Y-25740976D01*
X65638428Y-25740976D02*
X65638428Y-25607643D01*
X65638428Y-25626690D02*
X65647952Y-25617167D01*
X65667000Y-25607643D01*
X65695571Y-25607643D01*
X65714619Y-25617167D01*
X65724143Y-25636214D01*
X65724143Y-25740976D01*
X65724143Y-25636214D02*
X65733667Y-25617167D01*
X65752714Y-25607643D01*
X65781286Y-25607643D01*
X65800333Y-25617167D01*
X65809857Y-25636214D01*
X65809857Y-25740976D01*
X66200333Y-25531452D02*
X66028905Y-25788595D01*
X66457476Y-25540976D02*
X66476524Y-25540976D01*
X66495571Y-25550500D01*
X66505095Y-25560024D01*
X66514619Y-25579071D01*
X66524143Y-25617167D01*
X66524143Y-25664786D01*
X66514619Y-25702881D01*
X66505095Y-25721928D01*
X66495571Y-25731452D01*
X66476524Y-25740976D01*
X66457476Y-25740976D01*
X66438428Y-25731452D01*
X66428905Y-25721928D01*
X66419381Y-25702881D01*
X66409857Y-25664786D01*
X66409857Y-25617167D01*
X66419381Y-25579071D01*
X66428905Y-25560024D01*
X66438428Y-25550500D01*
X66457476Y-25540976D01*
X66609857Y-25721928D02*
X66619381Y-25731452D01*
X66609857Y-25740976D01*
X66600333Y-25731452D01*
X66609857Y-25721928D01*
X66609857Y-25740976D01*
X66743190Y-25540976D02*
X66762238Y-25540976D01*
X66781286Y-25550500D01*
X66790809Y-25560024D01*
X66800333Y-25579071D01*
X66809857Y-25617167D01*
X66809857Y-25664786D01*
X66800333Y-25702881D01*
X66790809Y-25721928D01*
X66781286Y-25731452D01*
X66762238Y-25740976D01*
X66743190Y-25740976D01*
X66724143Y-25731452D01*
X66714619Y-25721928D01*
X66705095Y-25702881D01*
X66695571Y-25664786D01*
X66695571Y-25617167D01*
X66705095Y-25579071D01*
X66714619Y-25560024D01*
X66724143Y-25550500D01*
X66743190Y-25540976D01*
X66876524Y-25540976D02*
X67000333Y-25540976D01*
X66933667Y-25617167D01*
X66962238Y-25617167D01*
X66981286Y-25626690D01*
X66990809Y-25636214D01*
X67000333Y-25655262D01*
X67000333Y-25702881D01*
X66990809Y-25721928D01*
X66981286Y-25731452D01*
X66962238Y-25740976D01*
X66905095Y-25740976D01*
X66886048Y-25731452D01*
X66876524Y-25721928D01*
X67095571Y-25740976D02*
X67133667Y-25740976D01*
X67152714Y-25731452D01*
X67162238Y-25721928D01*
X67181286Y-25693357D01*
X67190810Y-25655262D01*
X67190810Y-25579071D01*
X67181286Y-25560024D01*
X67171762Y-25550500D01*
X67152714Y-25540976D01*
X67114619Y-25540976D01*
X67095571Y-25550500D01*
X67086048Y-25560024D01*
X67076524Y-25579071D01*
X67076524Y-25626690D01*
X67086048Y-25645738D01*
X67095571Y-25655262D01*
X67114619Y-25664786D01*
X67152714Y-25664786D01*
X67171762Y-25655262D01*
X67181286Y-25645738D01*
X67190810Y-25626690D01*
X67362238Y-25607643D02*
X67362238Y-25740976D01*
X67314619Y-25531452D02*
X67267000Y-25674309D01*
X67390810Y-25674309D01*
X67457476Y-25540976D02*
X67457476Y-25579071D01*
X67533667Y-25540976D02*
X67533667Y-25579071D01*
X67828905Y-25817167D02*
X67819381Y-25807643D01*
X67800333Y-25779071D01*
X67790810Y-25760024D01*
X67781286Y-25731452D01*
X67771762Y-25683833D01*
X67771762Y-25645738D01*
X67781286Y-25598119D01*
X67790810Y-25569548D01*
X67800333Y-25550500D01*
X67819381Y-25521928D01*
X67828905Y-25512405D01*
X67895571Y-25560024D02*
X67905095Y-25550500D01*
X67924143Y-25540976D01*
X67971762Y-25540976D01*
X67990810Y-25550500D01*
X68000333Y-25560024D01*
X68009857Y-25579071D01*
X68009857Y-25598119D01*
X68000333Y-25626690D01*
X67886048Y-25740976D01*
X68009857Y-25740976D01*
X68086048Y-25560024D02*
X68095571Y-25550500D01*
X68114619Y-25540976D01*
X68162238Y-25540976D01*
X68181286Y-25550500D01*
X68190810Y-25560024D01*
X68200333Y-25579071D01*
X68200333Y-25598119D01*
X68190810Y-25626690D01*
X68076524Y-25740976D01*
X68200333Y-25740976D01*
X68438429Y-25740976D02*
X68438429Y-25540976D01*
X68524143Y-25740976D02*
X68524143Y-25636214D01*
X68514619Y-25617167D01*
X68495571Y-25607643D01*
X68467000Y-25607643D01*
X68447952Y-25617167D01*
X68438429Y-25626690D01*
X68647952Y-25740976D02*
X68628905Y-25731452D01*
X68619381Y-25721928D01*
X68609857Y-25702881D01*
X68609857Y-25645738D01*
X68619381Y-25626690D01*
X68628905Y-25617167D01*
X68647952Y-25607643D01*
X68676524Y-25607643D01*
X68695571Y-25617167D01*
X68705095Y-25626690D01*
X68714619Y-25645738D01*
X68714619Y-25702881D01*
X68705095Y-25721928D01*
X68695571Y-25731452D01*
X68676524Y-25740976D01*
X68647952Y-25740976D01*
X68828905Y-25740976D02*
X68809857Y-25731452D01*
X68800333Y-25712405D01*
X68800333Y-25540976D01*
X68981286Y-25731452D02*
X68962238Y-25740976D01*
X68924143Y-25740976D01*
X68905095Y-25731452D01*
X68895571Y-25712405D01*
X68895571Y-25636214D01*
X68905095Y-25617167D01*
X68924143Y-25607643D01*
X68962238Y-25607643D01*
X68981286Y-25617167D01*
X68990810Y-25636214D01*
X68990810Y-25655262D01*
X68895571Y-25674309D01*
X69067000Y-25731452D02*
X69086048Y-25740976D01*
X69124143Y-25740976D01*
X69143190Y-25731452D01*
X69152714Y-25712405D01*
X69152714Y-25702881D01*
X69143190Y-25683833D01*
X69124143Y-25674309D01*
X69095571Y-25674309D01*
X69076524Y-25664786D01*
X69067000Y-25645738D01*
X69067000Y-25636214D01*
X69076524Y-25617167D01*
X69095571Y-25607643D01*
X69124143Y-25607643D01*
X69143190Y-25617167D01*
X69219381Y-25817167D02*
X69228905Y-25807643D01*
X69247952Y-25779071D01*
X69257476Y-25760024D01*
X69267000Y-25731452D01*
X69276524Y-25683833D01*
X69276524Y-25645738D01*
X69267000Y-25598119D01*
X69257476Y-25569548D01*
X69247952Y-25550500D01*
X69228905Y-25521928D01*
X69219381Y-25512405D01*
X64057000Y-25814500D02*
X64257000Y-26014500D01*
X64257000Y-25814500D02*
X64057000Y-26014500D01*
X64157000Y-25814500D02*
X64157000Y-26014500D01*
X64057000Y-25914500D02*
X64257000Y-25914500D01*
X64505095Y-25824024D02*
X64514619Y-25814500D01*
X64533667Y-25804976D01*
X64581286Y-25804976D01*
X64600333Y-25814500D01*
X64609857Y-25824024D01*
X64619381Y-25843071D01*
X64619381Y-25862119D01*
X64609857Y-25890690D01*
X64495571Y-26004976D01*
X64619381Y-26004976D01*
X64705095Y-25985928D02*
X64714619Y-25995452D01*
X64705095Y-26004976D01*
X64695571Y-25995452D01*
X64705095Y-25985928D01*
X64705095Y-26004976D01*
X64790809Y-25824024D02*
X64800333Y-25814500D01*
X64819381Y-25804976D01*
X64867000Y-25804976D01*
X64886048Y-25814500D01*
X64895571Y-25824024D01*
X64905095Y-25843071D01*
X64905095Y-25862119D01*
X64895571Y-25890690D01*
X64781286Y-26004976D01*
X64905095Y-26004976D01*
X65028905Y-25804976D02*
X65047952Y-25804976D01*
X65067000Y-25814500D01*
X65076524Y-25824024D01*
X65086048Y-25843071D01*
X65095571Y-25881167D01*
X65095571Y-25928786D01*
X65086048Y-25966881D01*
X65076524Y-25985928D01*
X65067000Y-25995452D01*
X65047952Y-26004976D01*
X65028905Y-26004976D01*
X65009857Y-25995452D01*
X65000333Y-25985928D01*
X64990809Y-25966881D01*
X64981286Y-25928786D01*
X64981286Y-25881167D01*
X64990809Y-25843071D01*
X65000333Y-25824024D01*
X65009857Y-25814500D01*
X65028905Y-25804976D01*
X65219381Y-25804976D02*
X65238428Y-25804976D01*
X65257476Y-25814500D01*
X65267000Y-25824024D01*
X65276524Y-25843071D01*
X65286048Y-25881167D01*
X65286048Y-25928786D01*
X65276524Y-25966881D01*
X65267000Y-25985928D01*
X65257476Y-25995452D01*
X65238428Y-26004976D01*
X65219381Y-26004976D01*
X65200333Y-25995452D01*
X65190809Y-25985928D01*
X65181286Y-25966881D01*
X65171762Y-25928786D01*
X65171762Y-25881167D01*
X65181286Y-25843071D01*
X65190809Y-25824024D01*
X65200333Y-25814500D01*
X65219381Y-25804976D01*
X65371762Y-26004976D02*
X65371762Y-25871643D01*
X65371762Y-25890690D02*
X65381286Y-25881167D01*
X65400333Y-25871643D01*
X65428905Y-25871643D01*
X65447952Y-25881167D01*
X65457476Y-25900214D01*
X65457476Y-26004976D01*
X65457476Y-25900214D02*
X65467000Y-25881167D01*
X65486048Y-25871643D01*
X65514619Y-25871643D01*
X65533667Y-25881167D01*
X65543190Y-25900214D01*
X65543190Y-26004976D01*
X65638428Y-26004976D02*
X65638428Y-25871643D01*
X65638428Y-25890690D02*
X65647952Y-25881167D01*
X65667000Y-25871643D01*
X65695571Y-25871643D01*
X65714619Y-25881167D01*
X65724143Y-25900214D01*
X65724143Y-26004976D01*
X65724143Y-25900214D02*
X65733667Y-25881167D01*
X65752714Y-25871643D01*
X65781286Y-25871643D01*
X65800333Y-25881167D01*
X65809857Y-25900214D01*
X65809857Y-26004976D01*
X66200333Y-25795452D02*
X66028905Y-26052595D01*
X66457476Y-25804976D02*
X66476524Y-25804976D01*
X66495571Y-25814500D01*
X66505095Y-25824024D01*
X66514619Y-25843071D01*
X66524143Y-25881167D01*
X66524143Y-25928786D01*
X66514619Y-25966881D01*
X66505095Y-25985928D01*
X66495571Y-25995452D01*
X66476524Y-26004976D01*
X66457476Y-26004976D01*
X66438428Y-25995452D01*
X66428905Y-25985928D01*
X66419381Y-25966881D01*
X66409857Y-25928786D01*
X66409857Y-25881167D01*
X66419381Y-25843071D01*
X66428905Y-25824024D01*
X66438428Y-25814500D01*
X66457476Y-25804976D01*
X66609857Y-25985928D02*
X66619381Y-25995452D01*
X66609857Y-26004976D01*
X66600333Y-25995452D01*
X66609857Y-25985928D01*
X66609857Y-26004976D01*
X66743190Y-25804976D02*
X66762238Y-25804976D01*
X66781286Y-25814500D01*
X66790809Y-25824024D01*
X66800333Y-25843071D01*
X66809857Y-25881167D01*
X66809857Y-25928786D01*
X66800333Y-25966881D01*
X66790809Y-25985928D01*
X66781286Y-25995452D01*
X66762238Y-26004976D01*
X66743190Y-26004976D01*
X66724143Y-25995452D01*
X66714619Y-25985928D01*
X66705095Y-25966881D01*
X66695571Y-25928786D01*
X66695571Y-25881167D01*
X66705095Y-25843071D01*
X66714619Y-25824024D01*
X66724143Y-25814500D01*
X66743190Y-25804976D01*
X66924143Y-25890690D02*
X66905095Y-25881167D01*
X66895571Y-25871643D01*
X66886048Y-25852595D01*
X66886048Y-25843071D01*
X66895571Y-25824024D01*
X66905095Y-25814500D01*
X66924143Y-25804976D01*
X66962238Y-25804976D01*
X66981286Y-25814500D01*
X66990809Y-25824024D01*
X67000333Y-25843071D01*
X67000333Y-25852595D01*
X66990809Y-25871643D01*
X66981286Y-25881167D01*
X66962238Y-25890690D01*
X66924143Y-25890690D01*
X66905095Y-25900214D01*
X66895571Y-25909738D01*
X66886048Y-25928786D01*
X66886048Y-25966881D01*
X66895571Y-25985928D01*
X66905095Y-25995452D01*
X66924143Y-26004976D01*
X66962238Y-26004976D01*
X66981286Y-25995452D01*
X66990809Y-25985928D01*
X67000333Y-25966881D01*
X67000333Y-25928786D01*
X66990809Y-25909738D01*
X66981286Y-25900214D01*
X66962238Y-25890690D01*
X67171762Y-25804976D02*
X67133667Y-25804976D01*
X67114619Y-25814500D01*
X67105095Y-25824024D01*
X67086048Y-25852595D01*
X67076524Y-25890690D01*
X67076524Y-25966881D01*
X67086048Y-25985928D01*
X67095571Y-25995452D01*
X67114619Y-26004976D01*
X67152714Y-26004976D01*
X67171762Y-25995452D01*
X67181286Y-25985928D01*
X67190810Y-25966881D01*
X67190810Y-25919262D01*
X67181286Y-25900214D01*
X67171762Y-25890690D01*
X67152714Y-25881167D01*
X67114619Y-25881167D01*
X67095571Y-25890690D01*
X67086048Y-25900214D01*
X67076524Y-25919262D01*
X67362238Y-25804976D02*
X67324143Y-25804976D01*
X67305095Y-25814500D01*
X67295571Y-25824024D01*
X67276524Y-25852595D01*
X67267000Y-25890690D01*
X67267000Y-25966881D01*
X67276524Y-25985928D01*
X67286048Y-25995452D01*
X67305095Y-26004976D01*
X67343190Y-26004976D01*
X67362238Y-25995452D01*
X67371762Y-25985928D01*
X67381286Y-25966881D01*
X67381286Y-25919262D01*
X67371762Y-25900214D01*
X67362238Y-25890690D01*
X67343190Y-25881167D01*
X67305095Y-25881167D01*
X67286048Y-25890690D01*
X67276524Y-25900214D01*
X67267000Y-25919262D01*
X67457476Y-25804976D02*
X67457476Y-25843071D01*
X67533667Y-25804976D02*
X67533667Y-25843071D01*
X67828905Y-26081167D02*
X67819381Y-26071643D01*
X67800333Y-26043071D01*
X67790810Y-26024024D01*
X67781286Y-25995452D01*
X67771762Y-25947833D01*
X67771762Y-25909738D01*
X67781286Y-25862119D01*
X67790810Y-25833548D01*
X67800333Y-25814500D01*
X67819381Y-25785928D01*
X67828905Y-25776405D01*
X67895571Y-25824024D02*
X67905095Y-25814500D01*
X67924143Y-25804976D01*
X67971762Y-25804976D01*
X67990810Y-25814500D01*
X68000333Y-25824024D01*
X68009857Y-25843071D01*
X68009857Y-25862119D01*
X68000333Y-25890690D01*
X67886048Y-26004976D01*
X68009857Y-26004976D01*
X68247952Y-26004976D02*
X68247952Y-25804976D01*
X68333667Y-26004976D02*
X68333667Y-25900214D01*
X68324143Y-25881167D01*
X68305095Y-25871643D01*
X68276524Y-25871643D01*
X68257476Y-25881167D01*
X68247952Y-25890690D01*
X68457476Y-26004976D02*
X68438429Y-25995452D01*
X68428905Y-25985928D01*
X68419381Y-25966881D01*
X68419381Y-25909738D01*
X68428905Y-25890690D01*
X68438429Y-25881167D01*
X68457476Y-25871643D01*
X68486048Y-25871643D01*
X68505095Y-25881167D01*
X68514619Y-25890690D01*
X68524143Y-25909738D01*
X68524143Y-25966881D01*
X68514619Y-25985928D01*
X68505095Y-25995452D01*
X68486048Y-26004976D01*
X68457476Y-26004976D01*
X68638429Y-26004976D02*
X68619381Y-25995452D01*
X68609857Y-25976405D01*
X68609857Y-25804976D01*
X68790810Y-25995452D02*
X68771762Y-26004976D01*
X68733667Y-26004976D01*
X68714619Y-25995452D01*
X68705095Y-25976405D01*
X68705095Y-25900214D01*
X68714619Y-25881167D01*
X68733667Y-25871643D01*
X68771762Y-25871643D01*
X68790810Y-25881167D01*
X68800333Y-25900214D01*
X68800333Y-25919262D01*
X68705095Y-25938309D01*
X68876524Y-25995452D02*
X68895571Y-26004976D01*
X68933667Y-26004976D01*
X68952714Y-25995452D01*
X68962238Y-25976405D01*
X68962238Y-25966881D01*
X68952714Y-25947833D01*
X68933667Y-25938309D01*
X68905095Y-25938309D01*
X68886048Y-25928786D01*
X68876524Y-25909738D01*
X68876524Y-25900214D01*
X68886048Y-25881167D01*
X68905095Y-25871643D01*
X68933667Y-25871643D01*
X68952714Y-25881167D01*
X69028905Y-26081167D02*
X69038429Y-26071643D01*
X69057476Y-26043071D01*
X69067000Y-26024024D01*
X69076524Y-25995452D01*
X69086048Y-25947833D01*
X69086048Y-25909738D01*
X69076524Y-25862119D01*
X69067000Y-25833548D01*
X69057476Y-25814500D01*
X69038429Y-25785928D01*
X69028905Y-25776405D01*
X64057000Y-26134500D02*
X64257000Y-26334500D01*
X64257000Y-26134500D02*
X64057000Y-26334500D01*
X64227711Y-26305211D02*
X64227711Y-26163789D01*
X64086289Y-26163789D01*
X64086289Y-26305211D01*
X64227711Y-26305211D01*
X64495571Y-26124976D02*
X64619381Y-26124976D01*
X64552714Y-26201167D01*
X64581286Y-26201167D01*
X64600333Y-26210690D01*
X64609857Y-26220214D01*
X64619381Y-26239262D01*
X64619381Y-26286881D01*
X64609857Y-26305928D01*
X64600333Y-26315452D01*
X64581286Y-26324976D01*
X64524143Y-26324976D01*
X64505095Y-26315452D01*
X64495571Y-26305928D01*
X64705095Y-26305928D02*
X64714619Y-26315452D01*
X64705095Y-26324976D01*
X64695571Y-26315452D01*
X64705095Y-26305928D01*
X64705095Y-26324976D01*
X64790809Y-26144024D02*
X64800333Y-26134500D01*
X64819381Y-26124976D01*
X64867000Y-26124976D01*
X64886048Y-26134500D01*
X64895571Y-26144024D01*
X64905095Y-26163071D01*
X64905095Y-26182119D01*
X64895571Y-26210690D01*
X64781286Y-26324976D01*
X64905095Y-26324976D01*
X65028905Y-26124976D02*
X65047952Y-26124976D01*
X65067000Y-26134500D01*
X65076524Y-26144024D01*
X65086048Y-26163071D01*
X65095571Y-26201167D01*
X65095571Y-26248786D01*
X65086048Y-26286881D01*
X65076524Y-26305928D01*
X65067000Y-26315452D01*
X65047952Y-26324976D01*
X65028905Y-26324976D01*
X65009857Y-26315452D01*
X65000333Y-26305928D01*
X64990809Y-26286881D01*
X64981286Y-26248786D01*
X64981286Y-26201167D01*
X64990809Y-26163071D01*
X65000333Y-26144024D01*
X65009857Y-26134500D01*
X65028905Y-26124976D01*
X65219381Y-26124976D02*
X65238428Y-26124976D01*
X65257476Y-26134500D01*
X65267000Y-26144024D01*
X65276524Y-26163071D01*
X65286048Y-26201167D01*
X65286048Y-26248786D01*
X65276524Y-26286881D01*
X65267000Y-26305928D01*
X65257476Y-26315452D01*
X65238428Y-26324976D01*
X65219381Y-26324976D01*
X65200333Y-26315452D01*
X65190809Y-26305928D01*
X65181286Y-26286881D01*
X65171762Y-26248786D01*
X65171762Y-26201167D01*
X65181286Y-26163071D01*
X65190809Y-26144024D01*
X65200333Y-26134500D01*
X65219381Y-26124976D01*
X65371762Y-26324976D02*
X65371762Y-26191643D01*
X65371762Y-26210690D02*
X65381286Y-26201167D01*
X65400333Y-26191643D01*
X65428905Y-26191643D01*
X65447952Y-26201167D01*
X65457476Y-26220214D01*
X65457476Y-26324976D01*
X65457476Y-26220214D02*
X65467000Y-26201167D01*
X65486048Y-26191643D01*
X65514619Y-26191643D01*
X65533667Y-26201167D01*
X65543190Y-26220214D01*
X65543190Y-26324976D01*
X65638428Y-26324976D02*
X65638428Y-26191643D01*
X65638428Y-26210690D02*
X65647952Y-26201167D01*
X65667000Y-26191643D01*
X65695571Y-26191643D01*
X65714619Y-26201167D01*
X65724143Y-26220214D01*
X65724143Y-26324976D01*
X65724143Y-26220214D02*
X65733667Y-26201167D01*
X65752714Y-26191643D01*
X65781286Y-26191643D01*
X65800333Y-26201167D01*
X65809857Y-26220214D01*
X65809857Y-26324976D01*
X66200333Y-26115452D02*
X66028905Y-26372595D01*
X66457476Y-26124976D02*
X66476524Y-26124976D01*
X66495571Y-26134500D01*
X66505095Y-26144024D01*
X66514619Y-26163071D01*
X66524143Y-26201167D01*
X66524143Y-26248786D01*
X66514619Y-26286881D01*
X66505095Y-26305928D01*
X66495571Y-26315452D01*
X66476524Y-26324976D01*
X66457476Y-26324976D01*
X66438428Y-26315452D01*
X66428905Y-26305928D01*
X66419381Y-26286881D01*
X66409857Y-26248786D01*
X66409857Y-26201167D01*
X66419381Y-26163071D01*
X66428905Y-26144024D01*
X66438428Y-26134500D01*
X66457476Y-26124976D01*
X66609857Y-26305928D02*
X66619381Y-26315452D01*
X66609857Y-26324976D01*
X66600333Y-26315452D01*
X66609857Y-26305928D01*
X66609857Y-26324976D01*
X66809857Y-26324976D02*
X66695571Y-26324976D01*
X66752714Y-26324976D02*
X66752714Y-26124976D01*
X66733667Y-26153548D01*
X66714619Y-26172595D01*
X66695571Y-26182119D01*
X66886048Y-26144024D02*
X66895571Y-26134500D01*
X66914619Y-26124976D01*
X66962238Y-26124976D01*
X66981286Y-26134500D01*
X66990809Y-26144024D01*
X67000333Y-26163071D01*
X67000333Y-26182119D01*
X66990809Y-26210690D01*
X66876524Y-26324976D01*
X67000333Y-26324976D01*
X67171762Y-26124976D02*
X67133667Y-26124976D01*
X67114619Y-26134500D01*
X67105095Y-26144024D01*
X67086048Y-26172595D01*
X67076524Y-26210690D01*
X67076524Y-26286881D01*
X67086048Y-26305928D01*
X67095571Y-26315452D01*
X67114619Y-26324976D01*
X67152714Y-26324976D01*
X67171762Y-26315452D01*
X67181286Y-26305928D01*
X67190810Y-26286881D01*
X67190810Y-26239262D01*
X67181286Y-26220214D01*
X67171762Y-26210690D01*
X67152714Y-26201167D01*
X67114619Y-26201167D01*
X67095571Y-26210690D01*
X67086048Y-26220214D01*
X67076524Y-26239262D01*
X67314619Y-26124976D02*
X67333667Y-26124976D01*
X67352714Y-26134500D01*
X67362238Y-26144024D01*
X67371762Y-26163071D01*
X67381286Y-26201167D01*
X67381286Y-26248786D01*
X67371762Y-26286881D01*
X67362238Y-26305928D01*
X67352714Y-26315452D01*
X67333667Y-26324976D01*
X67314619Y-26324976D01*
X67295571Y-26315452D01*
X67286048Y-26305928D01*
X67276524Y-26286881D01*
X67267000Y-26248786D01*
X67267000Y-26201167D01*
X67276524Y-26163071D01*
X67286048Y-26144024D01*
X67295571Y-26134500D01*
X67314619Y-26124976D01*
X67457476Y-26124976D02*
X67457476Y-26163071D01*
X67533667Y-26124976D02*
X67533667Y-26163071D01*
X67828905Y-26401167D02*
X67819381Y-26391643D01*
X67800333Y-26363071D01*
X67790810Y-26344024D01*
X67781286Y-26315452D01*
X67771762Y-26267833D01*
X67771762Y-26229738D01*
X67781286Y-26182119D01*
X67790810Y-26153548D01*
X67800333Y-26134500D01*
X67819381Y-26105928D01*
X67828905Y-26096405D01*
X67886048Y-26124976D02*
X68009857Y-26124976D01*
X67943190Y-26201167D01*
X67971762Y-26201167D01*
X67990810Y-26210690D01*
X68000333Y-26220214D01*
X68009857Y-26239262D01*
X68009857Y-26286881D01*
X68000333Y-26305928D01*
X67990810Y-26315452D01*
X67971762Y-26324976D01*
X67914619Y-26324976D01*
X67895571Y-26315452D01*
X67886048Y-26305928D01*
X68247952Y-26324976D02*
X68247952Y-26124976D01*
X68333667Y-26324976D02*
X68333667Y-26220214D01*
X68324143Y-26201167D01*
X68305095Y-26191643D01*
X68276524Y-26191643D01*
X68257476Y-26201167D01*
X68247952Y-26210690D01*
X68457476Y-26324976D02*
X68438429Y-26315452D01*
X68428905Y-26305928D01*
X68419381Y-26286881D01*
X68419381Y-26229738D01*
X68428905Y-26210690D01*
X68438429Y-26201167D01*
X68457476Y-26191643D01*
X68486048Y-26191643D01*
X68505095Y-26201167D01*
X68514619Y-26210690D01*
X68524143Y-26229738D01*
X68524143Y-26286881D01*
X68514619Y-26305928D01*
X68505095Y-26315452D01*
X68486048Y-26324976D01*
X68457476Y-26324976D01*
X68638429Y-26324976D02*
X68619381Y-26315452D01*
X68609857Y-26296405D01*
X68609857Y-26124976D01*
X68790810Y-26315452D02*
X68771762Y-26324976D01*
X68733667Y-26324976D01*
X68714619Y-26315452D01*
X68705095Y-26296405D01*
X68705095Y-26220214D01*
X68714619Y-26201167D01*
X68733667Y-26191643D01*
X68771762Y-26191643D01*
X68790810Y-26201167D01*
X68800333Y-26220214D01*
X68800333Y-26239262D01*
X68705095Y-26258309D01*
X68876524Y-26315452D02*
X68895571Y-26324976D01*
X68933667Y-26324976D01*
X68952714Y-26315452D01*
X68962238Y-26296405D01*
X68962238Y-26286881D01*
X68952714Y-26267833D01*
X68933667Y-26258309D01*
X68905095Y-26258309D01*
X68886048Y-26248786D01*
X68876524Y-26229738D01*
X68876524Y-26220214D01*
X68886048Y-26201167D01*
X68905095Y-26191643D01*
X68933667Y-26191643D01*
X68952714Y-26201167D01*
X69028905Y-26401167D02*
X69038429Y-26391643D01*
X69057476Y-26363071D01*
X69067000Y-26344024D01*
X69076524Y-26315452D01*
X69086048Y-26267833D01*
X69086048Y-26229738D01*
X69076524Y-26182119D01*
X69067000Y-26153548D01*
X69057476Y-26134500D01*
X69038429Y-26105928D01*
X69028905Y-26096405D01*
M02*
