G04 #@! TF.GenerationSoftware,KiCad,Pcbnew,6.0.9-8da3e8f707~116~ubuntu20.04.1*
G04 #@! TF.CreationDate,2023-03-20T15:28:27+01:00*
G04 #@! TF.ProjectId,six_to_six,7369785f-746f-45f7-9369-782e6b696361,rev?*
G04 #@! TF.SameCoordinates,Original*
G04 #@! TF.FileFunction,Paste,Bot*
G04 #@! TF.FilePolarity,Positive*
%FSLAX46Y46*%
G04 Gerber Fmt 4.6, Leading zero omitted, Abs format (unit mm)*
G04 Created by KiCad (PCBNEW 6.0.9-8da3e8f707~116~ubuntu20.04.1) date 2023-03-20 15:28:27*
%MOMM*%
%LPD*%
G01*
G04 APERTURE LIST*
G04 Aperture macros list*
%AMRoundRect*
0 Rectangle with rounded corners*
0 $1 Rounding radius*
0 $2 $3 $4 $5 $6 $7 $8 $9 X,Y pos of 4 corners*
0 Add a 4 corners polygon primitive as box body*
4,1,4,$2,$3,$4,$5,$6,$7,$8,$9,$2,$3,0*
0 Add four circle primitives for the rounded corners*
1,1,$1+$1,$2,$3*
1,1,$1+$1,$4,$5*
1,1,$1+$1,$6,$7*
1,1,$1+$1,$8,$9*
0 Add four rect primitives between the rounded corners*
20,1,$1+$1,$2,$3,$4,$5,0*
20,1,$1+$1,$4,$5,$6,$7,0*
20,1,$1+$1,$6,$7,$8,$9,0*
20,1,$1+$1,$8,$9,$2,$3,0*%
G04 Aperture macros list end*
%ADD10RoundRect,0.237500X0.237500X-0.300000X0.237500X0.300000X-0.237500X0.300000X-0.237500X-0.300000X0*%
%ADD11R,1.200000X0.900000*%
%ADD12RoundRect,0.237500X0.300000X0.237500X-0.300000X0.237500X-0.300000X-0.237500X0.300000X-0.237500X0*%
%ADD13RoundRect,0.250000X-0.625000X0.400000X-0.625000X-0.400000X0.625000X-0.400000X0.625000X0.400000X0*%
%ADD14RoundRect,0.150000X0.587500X0.150000X-0.587500X0.150000X-0.587500X-0.150000X0.587500X-0.150000X0*%
%ADD15RoundRect,0.250000X0.400000X1.075000X-0.400000X1.075000X-0.400000X-1.075000X0.400000X-1.075000X0*%
%ADD16RoundRect,0.250000X0.337500X0.475000X-0.337500X0.475000X-0.337500X-0.475000X0.337500X-0.475000X0*%
%ADD17RoundRect,0.237500X0.237500X-0.250000X0.237500X0.250000X-0.237500X0.250000X-0.237500X-0.250000X0*%
%ADD18RoundRect,0.237500X-0.237500X0.300000X-0.237500X-0.300000X0.237500X-0.300000X0.237500X0.300000X0*%
%ADD19RoundRect,0.250000X-0.475000X0.337500X-0.475000X-0.337500X0.475000X-0.337500X0.475000X0.337500X0*%
%ADD20RoundRect,0.250000X0.400000X0.625000X-0.400000X0.625000X-0.400000X-0.625000X0.400000X-0.625000X0*%
G04 APERTURE END LIST*
D10*
X647065000Y-227964500D03*
X647065000Y-226239500D03*
D11*
X727710000Y-201675000D03*
X727710000Y-198375000D03*
X727710000Y-224535000D03*
X727710000Y-221235000D03*
D12*
X732382500Y-219075000D03*
X730657500Y-219075000D03*
D11*
X665734000Y-186309000D03*
X665734000Y-189609000D03*
D13*
X698500000Y-227050000D03*
X698500000Y-230150000D03*
X698500000Y-211810000D03*
X698500000Y-214910000D03*
X664083000Y-166344000D03*
X664083000Y-169444000D03*
D14*
X732457500Y-199075000D03*
X732457500Y-200975000D03*
X730582500Y-200025000D03*
D12*
X732382500Y-161925000D03*
X730657500Y-161925000D03*
D15*
X743738000Y-211201000D03*
X740638000Y-211201000D03*
D12*
X732382500Y-207645000D03*
X730657500Y-207645000D03*
D16*
X689377500Y-214630000D03*
X687302500Y-214630000D03*
D17*
X735330000Y-223797500D03*
X735330000Y-221972500D03*
D18*
X729615000Y-232182500D03*
X729615000Y-233907500D03*
D13*
X676910000Y-196824000D03*
X676910000Y-199924000D03*
D17*
X735330000Y-178354500D03*
X735330000Y-176529500D03*
D14*
X732457500Y-221935000D03*
X732457500Y-223835000D03*
X730582500Y-222885000D03*
D11*
X665734000Y-192278000D03*
X665734000Y-195578000D03*
D12*
X732382500Y-184785000D03*
X730657500Y-184785000D03*
D17*
X735330000Y-189507500D03*
X735330000Y-187682500D03*
D11*
X727710000Y-167385000D03*
X727710000Y-164085000D03*
D13*
X664210000Y-211810000D03*
X664210000Y-214910000D03*
D14*
X732457500Y-187645000D03*
X732457500Y-189545000D03*
X730582500Y-188595000D03*
X732457500Y-210251000D03*
X732457500Y-212151000D03*
X730582500Y-211201000D03*
D15*
X743738000Y-188595000D03*
X740638000Y-188595000D03*
D12*
X732282500Y-173355000D03*
X730557500Y-173355000D03*
D16*
X689356500Y-229870000D03*
X687281500Y-229870000D03*
D17*
X735330000Y-200937500D03*
X735330000Y-199112500D03*
D16*
X689356500Y-168910000D03*
X687281500Y-168910000D03*
D15*
X743738000Y-222885000D03*
X740638000Y-222885000D03*
D11*
X727710000Y-178815000D03*
X727710000Y-175515000D03*
X660400000Y-195578000D03*
X660400000Y-192278000D03*
D19*
X676910000Y-184382500D03*
X676910000Y-186457500D03*
D11*
X660400000Y-189610000D03*
X660400000Y-186310000D03*
D13*
X698373000Y-166090000D03*
X698373000Y-169190000D03*
D20*
X680746000Y-211836000D03*
X677646000Y-211836000D03*
D15*
X743738000Y-165735000D03*
X740638000Y-165735000D03*
X743738000Y-200025000D03*
X740638000Y-200025000D03*
D14*
X732457500Y-164785000D03*
X732457500Y-166685000D03*
X730582500Y-165735000D03*
D11*
X727710000Y-190245000D03*
X727710000Y-186945000D03*
X727710000Y-213105000D03*
X727710000Y-209805000D03*
D17*
X736092000Y-166647500D03*
X736092000Y-164822500D03*
X735330000Y-212113500D03*
X735330000Y-210288500D03*
D14*
X732457500Y-176469000D03*
X732457500Y-178369000D03*
X730582500Y-177419000D03*
D12*
X732382500Y-196215000D03*
X730657500Y-196215000D03*
D15*
X743738000Y-177165000D03*
X740638000Y-177165000D03*
M02*
