%TF.GenerationSoftware,KiCad,Pcbnew,6.0.9-8da3e8f707~116~ubuntu20.04.1*%
%TF.CreationDate,2023-03-25T19:03:37+01:00*%
%TF.ProjectId,six_to_six,7369785f-746f-45f7-9369-782e6b696361,rev?*%
%TF.SameCoordinates,Original*%
%TF.FileFunction,Drillmap*%
%TF.FilePolarity,Positive*%
%FSLAX45Y45*%
G04 Gerber Fmt 4.5, Leading zero omitted, Abs format (unit mm)*
G04 Created by KiCad (PCBNEW 6.0.9-8da3e8f707~116~ubuntu20.04.1) date 2023-03-25 19:03:37*
%MOMM*%
%LPD*%
G01*
G04 APERTURE LIST*
%ADD10C,0.100000*%
%ADD11C,0.200000*%
G04 APERTURE END LIST*
D10*
X64198500Y-15938500D02*
G75*
G03*
X64135000Y-16002000I0J-63500D01*
G01*
X75501500Y-15938500D02*
X64198500Y-15938500D01*
X75501500Y-23685500D02*
X64198500Y-23685500D01*
X75501500Y-23685500D02*
G75*
G03*
X75565000Y-23622000I0J63500D01*
G01*
X64135000Y-23622000D02*
G75*
G03*
X64198500Y-23685500I63500J0D01*
G01*
X75565000Y-16002000D02*
G75*
G03*
X75501500Y-15938500I-63500J0D01*
G01*
X64135000Y-16002000D02*
X64135000Y-23622000D01*
X75565000Y-16002000D02*
X75565000Y-23622000D01*
D11*
X64387619Y-24000976D02*
X64387619Y-23800976D01*
X64435238Y-23800976D01*
X64463809Y-23810500D01*
X64482857Y-23829548D01*
X64492381Y-23848595D01*
X64501905Y-23886690D01*
X64501905Y-23915262D01*
X64492381Y-23953357D01*
X64482857Y-23972405D01*
X64463809Y-23991452D01*
X64435238Y-24000976D01*
X64387619Y-24000976D01*
X64587619Y-24000976D02*
X64587619Y-23867643D01*
X64587619Y-23905738D02*
X64597143Y-23886690D01*
X64606667Y-23877167D01*
X64625714Y-23867643D01*
X64644762Y-23867643D01*
X64711428Y-24000976D02*
X64711428Y-23867643D01*
X64711428Y-23800976D02*
X64701905Y-23810500D01*
X64711428Y-23820024D01*
X64720952Y-23810500D01*
X64711428Y-23800976D01*
X64711428Y-23820024D01*
X64835238Y-24000976D02*
X64816190Y-23991452D01*
X64806667Y-23972405D01*
X64806667Y-23800976D01*
X64940000Y-24000976D02*
X64920952Y-23991452D01*
X64911428Y-23972405D01*
X64911428Y-23800976D01*
X65168571Y-24000976D02*
X65168571Y-23800976D01*
X65235238Y-23943833D01*
X65301905Y-23800976D01*
X65301905Y-24000976D01*
X65482857Y-24000976D02*
X65482857Y-23896214D01*
X65473333Y-23877167D01*
X65454286Y-23867643D01*
X65416190Y-23867643D01*
X65397143Y-23877167D01*
X65482857Y-23991452D02*
X65463809Y-24000976D01*
X65416190Y-24000976D01*
X65397143Y-23991452D01*
X65387619Y-23972405D01*
X65387619Y-23953357D01*
X65397143Y-23934309D01*
X65416190Y-23924786D01*
X65463809Y-23924786D01*
X65482857Y-23915262D01*
X65578095Y-23867643D02*
X65578095Y-24067643D01*
X65578095Y-23877167D02*
X65597143Y-23867643D01*
X65635238Y-23867643D01*
X65654286Y-23877167D01*
X65663809Y-23886690D01*
X65673333Y-23905738D01*
X65673333Y-23962881D01*
X65663809Y-23981928D01*
X65654286Y-23991452D01*
X65635238Y-24000976D01*
X65597143Y-24000976D01*
X65578095Y-23991452D01*
X65759048Y-23981928D02*
X65768571Y-23991452D01*
X65759048Y-24000976D01*
X65749524Y-23991452D01*
X65759048Y-23981928D01*
X65759048Y-24000976D01*
X65759048Y-23877167D02*
X65768571Y-23886690D01*
X65759048Y-23896214D01*
X65749524Y-23886690D01*
X65759048Y-23877167D01*
X65759048Y-23896214D01*
M02*
