G04 #@! TF.GenerationSoftware,KiCad,Pcbnew,6.0.9-8da3e8f707~116~ubuntu20.04.1*
G04 #@! TF.CreationDate,2023-03-25T19:03:31+01:00*
G04 #@! TF.ProjectId,six_to_six,7369785f-746f-45f7-9369-782e6b696361,rev?*
G04 #@! TF.SameCoordinates,Original*
G04 #@! TF.FileFunction,Legend,Top*
G04 #@! TF.FilePolarity,Positive*
%FSLAX46Y46*%
G04 Gerber Fmt 4.6, Leading zero omitted, Abs format (unit mm)*
G04 Created by KiCad (PCBNEW 6.0.9-8da3e8f707~116~ubuntu20.04.1) date 2023-03-25 19:03:31*
%MOMM*%
%LPD*%
G01*
G04 APERTURE LIST*
%ADD10C,0.710000*%
%ADD11C,0.150000*%
%ADD12C,0.120000*%
%ADD13C,0.500000*%
%ADD14C,0.127000*%
%ADD15R,1.700000X1.700000*%
%ADD16O,1.700000X1.700000*%
%ADD17R,1.308000X1.308000*%
%ADD18C,1.308000*%
%ADD19O,3.000000X1.500000*%
%ADD20O,1.500000X3.000000*%
%ADD21C,5.600000*%
%ADD22R,1.800000X1.800000*%
%ADD23C,1.800000*%
%ADD24C,3.500000*%
%ADD25R,1.478000X1.478000*%
%ADD26C,1.478000*%
%ADD27C,1.270000*%
G04 APERTURE END LIST*
D10*
X729970000Y-234315000D02*
G75*
G03*
X729970000Y-234315000I-355000J0D01*
G01*
D11*
X645995428Y-169552857D02*
X645995428Y-168752857D01*
X645995428Y-168981428D02*
X646052571Y-168867142D01*
X646109714Y-168810000D01*
X646224000Y-168752857D01*
X646338285Y-168752857D01*
X647195428Y-169495714D02*
X647081142Y-169552857D01*
X646852571Y-169552857D01*
X646738285Y-169495714D01*
X646681142Y-169381428D01*
X646681142Y-168924285D01*
X646738285Y-168810000D01*
X646852571Y-168752857D01*
X647081142Y-168752857D01*
X647195428Y-168810000D01*
X647252571Y-168924285D01*
X647252571Y-169038571D01*
X646681142Y-169152857D01*
X647652571Y-168752857D02*
X647938285Y-169552857D01*
X648224000Y-168752857D01*
X648681142Y-169438571D02*
X648738285Y-169495714D01*
X648681142Y-169552857D01*
X648624000Y-169495714D01*
X648681142Y-169438571D01*
X648681142Y-169552857D01*
X648681142Y-168810000D02*
X648738285Y-168867142D01*
X648681142Y-168924285D01*
X648624000Y-168867142D01*
X648681142Y-168810000D01*
X648681142Y-168924285D01*
X650795428Y-169552857D02*
X650109714Y-169552857D01*
X650452571Y-169552857D02*
X650452571Y-168352857D01*
X650338285Y-168524285D01*
X650224000Y-168638571D01*
X650109714Y-168695714D01*
X651309714Y-169438571D02*
X651366857Y-169495714D01*
X651309714Y-169552857D01*
X651252571Y-169495714D01*
X651309714Y-169438571D01*
X651309714Y-169552857D01*
X652109714Y-168352857D02*
X652224000Y-168352857D01*
X652338285Y-168410000D01*
X652395428Y-168467142D01*
X652452571Y-168581428D01*
X652509714Y-168810000D01*
X652509714Y-169095714D01*
X652452571Y-169324285D01*
X652395428Y-169438571D01*
X652338285Y-169495714D01*
X652224000Y-169552857D01*
X652109714Y-169552857D01*
X651995428Y-169495714D01*
X651938285Y-169438571D01*
X651881142Y-169324285D01*
X651824000Y-169095714D01*
X651824000Y-168810000D01*
X651881142Y-168581428D01*
X651938285Y-168467142D01*
X651995428Y-168410000D01*
X652109714Y-168352857D01*
X644995428Y-171484857D02*
X644309714Y-171484857D01*
X644652571Y-171484857D02*
X644652571Y-170284857D01*
X644538285Y-170456285D01*
X644424000Y-170570571D01*
X644309714Y-170627714D01*
X645452571Y-170399142D02*
X645509714Y-170342000D01*
X645624000Y-170284857D01*
X645909714Y-170284857D01*
X646024000Y-170342000D01*
X646081142Y-170399142D01*
X646138285Y-170513428D01*
X646138285Y-170627714D01*
X646081142Y-170799142D01*
X645395428Y-171484857D01*
X646138285Y-171484857D01*
X646652571Y-171370571D02*
X646709714Y-171427714D01*
X646652571Y-171484857D01*
X646595428Y-171427714D01*
X646652571Y-171370571D01*
X646652571Y-171484857D01*
X647452571Y-170284857D02*
X647566857Y-170284857D01*
X647681142Y-170342000D01*
X647738285Y-170399142D01*
X647795428Y-170513428D01*
X647852571Y-170742000D01*
X647852571Y-171027714D01*
X647795428Y-171256285D01*
X647738285Y-171370571D01*
X647681142Y-171427714D01*
X647566857Y-171484857D01*
X647452571Y-171484857D01*
X647338285Y-171427714D01*
X647281142Y-171370571D01*
X647224000Y-171256285D01*
X647166857Y-171027714D01*
X647166857Y-170742000D01*
X647224000Y-170513428D01*
X647281142Y-170399142D01*
X647338285Y-170342000D01*
X647452571Y-170284857D01*
X648252571Y-170284857D02*
X648995428Y-170284857D01*
X648595428Y-170742000D01*
X648766857Y-170742000D01*
X648881142Y-170799142D01*
X648938285Y-170856285D01*
X648995428Y-170970571D01*
X648995428Y-171256285D01*
X648938285Y-171370571D01*
X648881142Y-171427714D01*
X648766857Y-171484857D01*
X648424000Y-171484857D01*
X648309714Y-171427714D01*
X648252571Y-171370571D01*
X649509714Y-171370571D02*
X649566857Y-171427714D01*
X649509714Y-171484857D01*
X649452571Y-171427714D01*
X649509714Y-171370571D01*
X649509714Y-171484857D01*
X650024000Y-170399142D02*
X650081142Y-170342000D01*
X650195428Y-170284857D01*
X650481142Y-170284857D01*
X650595428Y-170342000D01*
X650652571Y-170399142D01*
X650709714Y-170513428D01*
X650709714Y-170627714D01*
X650652571Y-170799142D01*
X649966857Y-171484857D01*
X650709714Y-171484857D01*
X651452571Y-170284857D02*
X651566857Y-170284857D01*
X651681142Y-170342000D01*
X651738285Y-170399142D01*
X651795428Y-170513428D01*
X651852571Y-170742000D01*
X651852571Y-171027714D01*
X651795428Y-171256285D01*
X651738285Y-171370571D01*
X651681142Y-171427714D01*
X651566857Y-171484857D01*
X651452571Y-171484857D01*
X651338285Y-171427714D01*
X651281142Y-171370571D01*
X651224000Y-171256285D01*
X651166857Y-171027714D01*
X651166857Y-170742000D01*
X651224000Y-170513428D01*
X651281142Y-170399142D01*
X651338285Y-170342000D01*
X651452571Y-170284857D01*
X652309714Y-170399142D02*
X652366857Y-170342000D01*
X652481142Y-170284857D01*
X652766857Y-170284857D01*
X652881142Y-170342000D01*
X652938285Y-170399142D01*
X652995428Y-170513428D01*
X652995428Y-170627714D01*
X652938285Y-170799142D01*
X652252571Y-171484857D01*
X652995428Y-171484857D01*
X653395428Y-170284857D02*
X654138285Y-170284857D01*
X653738285Y-170742000D01*
X653909714Y-170742000D01*
X654024000Y-170799142D01*
X654081142Y-170856285D01*
X654138285Y-170970571D01*
X654138285Y-171256285D01*
X654081142Y-171370571D01*
X654024000Y-171427714D01*
X653909714Y-171484857D01*
X653566857Y-171484857D01*
X653452571Y-171427714D01*
X653395428Y-171370571D01*
X643395428Y-173359714D02*
X643566857Y-173416857D01*
X643852571Y-173416857D01*
X643966857Y-173359714D01*
X644024000Y-173302571D01*
X644081142Y-173188285D01*
X644081142Y-173074000D01*
X644024000Y-172959714D01*
X643966857Y-172902571D01*
X643852571Y-172845428D01*
X643624000Y-172788285D01*
X643509714Y-172731142D01*
X643452571Y-172674000D01*
X643395428Y-172559714D01*
X643395428Y-172445428D01*
X643452571Y-172331142D01*
X643509714Y-172274000D01*
X643624000Y-172216857D01*
X643909714Y-172216857D01*
X644081142Y-172274000D01*
X645166857Y-172216857D02*
X644595428Y-172216857D01*
X644538285Y-172788285D01*
X644595428Y-172731142D01*
X644709714Y-172674000D01*
X644995428Y-172674000D01*
X645109714Y-172731142D01*
X645166857Y-172788285D01*
X645224000Y-172902571D01*
X645224000Y-173188285D01*
X645166857Y-173302571D01*
X645109714Y-173359714D01*
X644995428Y-173416857D01*
X644709714Y-173416857D01*
X644595428Y-173359714D01*
X644538285Y-173302571D01*
X646309714Y-172216857D02*
X645738285Y-172216857D01*
X645681142Y-172788285D01*
X645738285Y-172731142D01*
X645852571Y-172674000D01*
X646138285Y-172674000D01*
X646252571Y-172731142D01*
X646309714Y-172788285D01*
X646366857Y-172902571D01*
X646366857Y-173188285D01*
X646309714Y-173302571D01*
X646252571Y-173359714D01*
X646138285Y-173416857D01*
X645852571Y-173416857D01*
X645738285Y-173359714D01*
X645681142Y-173302571D01*
X647109714Y-172216857D02*
X647338285Y-172216857D01*
X647452571Y-172274000D01*
X647566857Y-172388285D01*
X647624000Y-172616857D01*
X647624000Y-173016857D01*
X647566857Y-173245428D01*
X647452571Y-173359714D01*
X647338285Y-173416857D01*
X647109714Y-173416857D01*
X646995428Y-173359714D01*
X646881142Y-173245428D01*
X646824000Y-173016857D01*
X646824000Y-172616857D01*
X646881142Y-172388285D01*
X646995428Y-172274000D01*
X647109714Y-172216857D01*
X648195428Y-173359714D02*
X648195428Y-173416857D01*
X648138285Y-173531142D01*
X648081142Y-173588285D01*
X649566857Y-173359714D02*
X649738285Y-173416857D01*
X650024000Y-173416857D01*
X650138285Y-173359714D01*
X650195428Y-173302571D01*
X650252571Y-173188285D01*
X650252571Y-173074000D01*
X650195428Y-172959714D01*
X650138285Y-172902571D01*
X650024000Y-172845428D01*
X649795428Y-172788285D01*
X649681142Y-172731142D01*
X649624000Y-172674000D01*
X649566857Y-172559714D01*
X649566857Y-172445428D01*
X649624000Y-172331142D01*
X649681142Y-172274000D01*
X649795428Y-172216857D01*
X650081142Y-172216857D01*
X650252571Y-172274000D01*
X651338285Y-172216857D02*
X650766857Y-172216857D01*
X650709714Y-172788285D01*
X650766857Y-172731142D01*
X650881142Y-172674000D01*
X651166857Y-172674000D01*
X651281142Y-172731142D01*
X651338285Y-172788285D01*
X651395428Y-172902571D01*
X651395428Y-173188285D01*
X651338285Y-173302571D01*
X651281142Y-173359714D01*
X651166857Y-173416857D01*
X650881142Y-173416857D01*
X650766857Y-173359714D01*
X650709714Y-173302571D01*
X651966857Y-173416857D02*
X652195428Y-173416857D01*
X652309714Y-173359714D01*
X652366857Y-173302571D01*
X652481142Y-173131142D01*
X652538285Y-172902571D01*
X652538285Y-172445428D01*
X652481142Y-172331142D01*
X652424000Y-172274000D01*
X652309714Y-172216857D01*
X652081142Y-172216857D01*
X651966857Y-172274000D01*
X651909714Y-172331142D01*
X651852571Y-172445428D01*
X651852571Y-172731142D01*
X651909714Y-172845428D01*
X651966857Y-172902571D01*
X652081142Y-172959714D01*
X652309714Y-172959714D01*
X652424000Y-172902571D01*
X652481142Y-172845428D01*
X652538285Y-172731142D01*
X653052571Y-173416857D02*
X653052571Y-172216857D01*
X653452571Y-173074000D01*
X653852571Y-172216857D01*
X653852571Y-173416857D01*
X654309714Y-172216857D02*
X655109714Y-172216857D01*
X654309714Y-173416857D01*
X655109714Y-173416857D01*
X658879714Y-189130857D02*
X659108285Y-189130857D01*
X659222571Y-189188000D01*
X659336857Y-189302285D01*
X659394000Y-189530857D01*
X659394000Y-189930857D01*
X659336857Y-190159428D01*
X659222571Y-190273714D01*
X659108285Y-190330857D01*
X658879714Y-190330857D01*
X658765428Y-190273714D01*
X658651142Y-190159428D01*
X658594000Y-189930857D01*
X658594000Y-189530857D01*
X658651142Y-189302285D01*
X658765428Y-189188000D01*
X658879714Y-189130857D01*
X659908285Y-189530857D02*
X659908285Y-190330857D01*
X659908285Y-189645142D02*
X659965428Y-189588000D01*
X660079714Y-189530857D01*
X660251142Y-189530857D01*
X660365428Y-189588000D01*
X660422571Y-189702285D01*
X660422571Y-190330857D01*
X661451142Y-190273714D02*
X661336857Y-190330857D01*
X661108285Y-190330857D01*
X660994000Y-190273714D01*
X660936857Y-190159428D01*
X660936857Y-189702285D01*
X660994000Y-189588000D01*
X661108285Y-189530857D01*
X661336857Y-189530857D01*
X661451142Y-189588000D01*
X661508285Y-189702285D01*
X661508285Y-189816571D01*
X660936857Y-189930857D01*
X662765428Y-189530857D02*
X663222571Y-189530857D01*
X662936857Y-189130857D02*
X662936857Y-190159428D01*
X662994000Y-190273714D01*
X663108285Y-190330857D01*
X663222571Y-190330857D01*
X663794000Y-190330857D02*
X663679714Y-190273714D01*
X663622571Y-190216571D01*
X663565428Y-190102285D01*
X663565428Y-189759428D01*
X663622571Y-189645142D01*
X663679714Y-189588000D01*
X663794000Y-189530857D01*
X663965428Y-189530857D01*
X664079714Y-189588000D01*
X664136857Y-189645142D01*
X664194000Y-189759428D01*
X664194000Y-190102285D01*
X664136857Y-190216571D01*
X664079714Y-190273714D01*
X663965428Y-190330857D01*
X663794000Y-190330857D01*
X665565428Y-190273714D02*
X665736857Y-190330857D01*
X666022571Y-190330857D01*
X666136857Y-190273714D01*
X666194000Y-190216571D01*
X666251142Y-190102285D01*
X666251142Y-189988000D01*
X666194000Y-189873714D01*
X666136857Y-189816571D01*
X666022571Y-189759428D01*
X665794000Y-189702285D01*
X665679714Y-189645142D01*
X665622571Y-189588000D01*
X665565428Y-189473714D01*
X665565428Y-189359428D01*
X665622571Y-189245142D01*
X665679714Y-189188000D01*
X665794000Y-189130857D01*
X666079714Y-189130857D01*
X666251142Y-189188000D01*
X666765428Y-190330857D02*
X666765428Y-189530857D01*
X666765428Y-189130857D02*
X666708285Y-189188000D01*
X666765428Y-189245142D01*
X666822571Y-189188000D01*
X666765428Y-189130857D01*
X666765428Y-189245142D01*
X667222571Y-190330857D02*
X667851142Y-189530857D01*
X667222571Y-189530857D02*
X667851142Y-190330857D01*
X660136857Y-192205714D02*
X660308285Y-192262857D01*
X660594000Y-192262857D01*
X660708285Y-192205714D01*
X660765428Y-192148571D01*
X660822571Y-192034285D01*
X660822571Y-191920000D01*
X660765428Y-191805714D01*
X660708285Y-191748571D01*
X660594000Y-191691428D01*
X660365428Y-191634285D01*
X660251142Y-191577142D01*
X660194000Y-191520000D01*
X660136857Y-191405714D01*
X660136857Y-191291428D01*
X660194000Y-191177142D01*
X660251142Y-191120000D01*
X660365428Y-191062857D01*
X660651142Y-191062857D01*
X660822571Y-191120000D01*
X661336857Y-191462857D02*
X661336857Y-192662857D01*
X661336857Y-191520000D02*
X661451142Y-191462857D01*
X661679714Y-191462857D01*
X661794000Y-191520000D01*
X661851142Y-191577142D01*
X661908285Y-191691428D01*
X661908285Y-192034285D01*
X661851142Y-192148571D01*
X661794000Y-192205714D01*
X661679714Y-192262857D01*
X661451142Y-192262857D01*
X661336857Y-192205714D01*
X662594000Y-192262857D02*
X662479714Y-192205714D01*
X662422571Y-192091428D01*
X662422571Y-191062857D01*
X663051142Y-192262857D02*
X663051142Y-191462857D01*
X663051142Y-191062857D02*
X662994000Y-191120000D01*
X663051142Y-191177142D01*
X663108285Y-191120000D01*
X663051142Y-191062857D01*
X663051142Y-191177142D01*
X663451142Y-191462857D02*
X663908285Y-191462857D01*
X663622571Y-191062857D02*
X663622571Y-192091428D01*
X663679714Y-192205714D01*
X663794000Y-192262857D01*
X663908285Y-192262857D01*
X664136857Y-191462857D02*
X664594000Y-191462857D01*
X664308285Y-191062857D02*
X664308285Y-192091428D01*
X664365428Y-192205714D01*
X664479714Y-192262857D01*
X664594000Y-192262857D01*
X665451142Y-192205714D02*
X665336857Y-192262857D01*
X665108285Y-192262857D01*
X664994000Y-192205714D01*
X664936857Y-192091428D01*
X664936857Y-191634285D01*
X664994000Y-191520000D01*
X665108285Y-191462857D01*
X665336857Y-191462857D01*
X665451142Y-191520000D01*
X665508285Y-191634285D01*
X665508285Y-191748571D01*
X664936857Y-191862857D01*
X666022571Y-192262857D02*
X666022571Y-191462857D01*
X666022571Y-191691428D02*
X666079714Y-191577142D01*
X666136857Y-191520000D01*
X666251142Y-191462857D01*
X666365428Y-191462857D01*
X743251666Y-231227380D02*
X743251666Y-231941666D01*
X743204047Y-232084523D01*
X743108809Y-232179761D01*
X742965952Y-232227380D01*
X742870714Y-232227380D01*
X743632619Y-231227380D02*
X744251666Y-231227380D01*
X743918333Y-231608333D01*
X744061190Y-231608333D01*
X744156428Y-231655952D01*
X744204047Y-231703571D01*
X744251666Y-231798809D01*
X744251666Y-232036904D01*
X744204047Y-232132142D01*
X744156428Y-232179761D01*
X744061190Y-232227380D01*
X743775476Y-232227380D01*
X743680238Y-232179761D01*
X743632619Y-232132142D01*
X747925446Y-202383274D02*
X747925446Y-201381298D01*
X748498004Y-202383274D02*
X748068585Y-201810717D01*
X748498004Y-201381298D02*
X747925446Y-201953856D01*
X749356840Y-201715290D02*
X749356840Y-202383274D01*
X749118274Y-201333585D02*
X748879709Y-202049282D01*
X749499980Y-202049282D01*
X689062380Y-168901904D02*
X689062380Y-168330476D01*
X690062380Y-168616190D02*
X689062380Y-168616190D01*
X690062380Y-167425714D02*
X689586190Y-167759047D01*
X690062380Y-167997142D02*
X689062380Y-167997142D01*
X689062380Y-167616190D01*
X689110000Y-167520952D01*
X689157619Y-167473333D01*
X689252857Y-167425714D01*
X689395714Y-167425714D01*
X689490952Y-167473333D01*
X689538571Y-167520952D01*
X689586190Y-167616190D01*
X689586190Y-167997142D01*
X689395714Y-166568571D02*
X690062380Y-166568571D01*
X689014761Y-166806666D02*
X689729047Y-167044761D01*
X689729047Y-166425714D01*
X656812285Y-168457619D02*
X656859904Y-168410000D01*
X656955142Y-168362380D01*
X657193238Y-168362380D01*
X657288476Y-168410000D01*
X657336095Y-168457619D01*
X657383714Y-168552857D01*
X657383714Y-168648095D01*
X657336095Y-168790952D01*
X656764666Y-169362380D01*
X657383714Y-169362380D01*
X664908571Y-164282380D02*
X664908571Y-163282380D01*
X665289523Y-163282380D01*
X665384761Y-163330000D01*
X665432380Y-163377619D01*
X665480000Y-163472857D01*
X665480000Y-163615714D01*
X665432380Y-163710952D01*
X665384761Y-163758571D01*
X665289523Y-163806190D01*
X664908571Y-163806190D01*
X665908571Y-164282380D02*
X665908571Y-163615714D01*
X665908571Y-163806190D02*
X665956190Y-163710952D01*
X666003809Y-163663333D01*
X666099047Y-163615714D01*
X666194285Y-163615714D01*
X656764666Y-165822380D02*
X657383714Y-165822380D01*
X657050380Y-166203333D01*
X657193238Y-166203333D01*
X657288476Y-166250952D01*
X657336095Y-166298571D01*
X657383714Y-166393809D01*
X657383714Y-166631904D01*
X657336095Y-166727142D01*
X657288476Y-166774761D01*
X657193238Y-166822380D01*
X656907523Y-166822380D01*
X656812285Y-166774761D01*
X656764666Y-166727142D01*
X666242142Y-170584761D02*
X666385000Y-170632380D01*
X666623095Y-170632380D01*
X666718333Y-170584761D01*
X666765952Y-170537142D01*
X666813571Y-170441904D01*
X666813571Y-170346666D01*
X666765952Y-170251428D01*
X666718333Y-170203809D01*
X666623095Y-170156190D01*
X666432619Y-170108571D01*
X666337380Y-170060952D01*
X666289761Y-170013333D01*
X666242142Y-169918095D01*
X666242142Y-169822857D01*
X666289761Y-169727619D01*
X666337380Y-169680000D01*
X666432619Y-169632380D01*
X666670714Y-169632380D01*
X666813571Y-169680000D01*
X667623095Y-170584761D02*
X667527857Y-170632380D01*
X667337380Y-170632380D01*
X667242142Y-170584761D01*
X667194523Y-170489523D01*
X667194523Y-170108571D01*
X667242142Y-170013333D01*
X667337380Y-169965714D01*
X667527857Y-169965714D01*
X667623095Y-170013333D01*
X667670714Y-170108571D01*
X667670714Y-170203809D01*
X667194523Y-170299047D01*
X668527857Y-170584761D02*
X668432619Y-170632380D01*
X668242142Y-170632380D01*
X668146904Y-170584761D01*
X668099285Y-170537142D01*
X668051666Y-170441904D01*
X668051666Y-170156190D01*
X668099285Y-170060952D01*
X668146904Y-170013333D01*
X668242142Y-169965714D01*
X668432619Y-169965714D01*
X668527857Y-170013333D01*
X657288476Y-171235714D02*
X657288476Y-171902380D01*
X657050380Y-170854761D02*
X656812285Y-171569047D01*
X657431333Y-171569047D01*
X657383714Y-164282380D02*
X656812285Y-164282380D01*
X657098000Y-164282380D02*
X657098000Y-163282380D01*
X657002761Y-163425238D01*
X656907523Y-163520476D01*
X656812285Y-163568095D01*
X747925446Y-182063274D02*
X747925446Y-181061298D01*
X748498004Y-182063274D02*
X748068585Y-181490717D01*
X748498004Y-181061298D02*
X747925446Y-181633856D01*
X748831996Y-181061298D02*
X749452266Y-181061298D01*
X749118274Y-181443004D01*
X749261414Y-181443004D01*
X749356840Y-181490717D01*
X749404553Y-181538430D01*
X749452266Y-181633856D01*
X749452266Y-181872422D01*
X749404553Y-181967848D01*
X749356840Y-182015561D01*
X749261414Y-182063274D01*
X748975135Y-182063274D01*
X748879709Y-182015561D01*
X748831996Y-181967848D01*
X654058095Y-201255380D02*
X654629523Y-201255380D01*
X654343809Y-202255380D02*
X654343809Y-201255380D01*
X655534285Y-202255380D02*
X655200952Y-201779190D01*
X654962857Y-202255380D02*
X654962857Y-201255380D01*
X655343809Y-201255380D01*
X655439047Y-201303000D01*
X655486666Y-201350619D01*
X655534285Y-201445857D01*
X655534285Y-201588714D01*
X655486666Y-201683952D01*
X655439047Y-201731571D01*
X655343809Y-201779190D01*
X654962857Y-201779190D01*
X656486666Y-202255380D02*
X655915238Y-202255380D01*
X656200952Y-202255380D02*
X656200952Y-201255380D01*
X656105714Y-201398238D01*
X656010476Y-201493476D01*
X655915238Y-201541095D01*
X652597380Y-235299285D02*
X652645000Y-235346904D01*
X652692619Y-235442142D01*
X652692619Y-235680238D01*
X652645000Y-235775476D01*
X652597380Y-235823095D01*
X652502142Y-235870714D01*
X652406904Y-235870714D01*
X652264047Y-235823095D01*
X651692619Y-235251666D01*
X651692619Y-235870714D01*
X651692619Y-200056714D02*
X651692619Y-199485285D01*
X651692619Y-199771000D02*
X652692619Y-199771000D01*
X652549761Y-199675761D01*
X652454523Y-199580523D01*
X652406904Y-199485285D01*
X647279285Y-235775476D02*
X646612619Y-235775476D01*
X647660238Y-235537380D02*
X646945952Y-235299285D01*
X646945952Y-235918333D01*
X647612619Y-199437666D02*
X647612619Y-200056714D01*
X647231666Y-199723380D01*
X647231666Y-199866238D01*
X647184047Y-199961476D01*
X647136428Y-200009095D01*
X647041190Y-200056714D01*
X646803095Y-200056714D01*
X646707857Y-200009095D01*
X646660238Y-199961476D01*
X646612619Y-199866238D01*
X646612619Y-199580523D01*
X646660238Y-199485285D01*
X646707857Y-199437666D01*
X689062380Y-214621904D02*
X689062380Y-214050476D01*
X690062380Y-214336190D02*
X689062380Y-214336190D01*
X690062380Y-213145714D02*
X689586190Y-213479047D01*
X690062380Y-213717142D02*
X689062380Y-213717142D01*
X689062380Y-213336190D01*
X689110000Y-213240952D01*
X689157619Y-213193333D01*
X689252857Y-213145714D01*
X689395714Y-213145714D01*
X689490952Y-213193333D01*
X689538571Y-213240952D01*
X689586190Y-213336190D01*
X689586190Y-213717142D01*
X689062380Y-212240952D02*
X689062380Y-212717142D01*
X689538571Y-212764761D01*
X689490952Y-212717142D01*
X689443333Y-212621904D01*
X689443333Y-212383809D01*
X689490952Y-212288571D01*
X689538571Y-212240952D01*
X689633809Y-212193333D01*
X689871904Y-212193333D01*
X689967142Y-212240952D01*
X690014761Y-212288571D01*
X690062380Y-212383809D01*
X690062380Y-212621904D01*
X690014761Y-212717142D01*
X689967142Y-212764761D01*
X657383714Y-210002380D02*
X656812285Y-210002380D01*
X657098000Y-210002380D02*
X657098000Y-209002380D01*
X657002761Y-209145238D01*
X656907523Y-209240476D01*
X656812285Y-209288095D01*
X656764666Y-211542380D02*
X657383714Y-211542380D01*
X657050380Y-211923333D01*
X657193238Y-211923333D01*
X657288476Y-211970952D01*
X657336095Y-212018571D01*
X657383714Y-212113809D01*
X657383714Y-212351904D01*
X657336095Y-212447142D01*
X657288476Y-212494761D01*
X657193238Y-212542380D01*
X656907523Y-212542380D01*
X656812285Y-212494761D01*
X656764666Y-212447142D01*
X656812285Y-214177619D02*
X656859904Y-214130000D01*
X656955142Y-214082380D01*
X657193238Y-214082380D01*
X657288476Y-214130000D01*
X657336095Y-214177619D01*
X657383714Y-214272857D01*
X657383714Y-214368095D01*
X657336095Y-214510952D01*
X656764666Y-215082380D01*
X657383714Y-215082380D01*
X666242142Y-216304761D02*
X666385000Y-216352380D01*
X666623095Y-216352380D01*
X666718333Y-216304761D01*
X666765952Y-216257142D01*
X666813571Y-216161904D01*
X666813571Y-216066666D01*
X666765952Y-215971428D01*
X666718333Y-215923809D01*
X666623095Y-215876190D01*
X666432619Y-215828571D01*
X666337380Y-215780952D01*
X666289761Y-215733333D01*
X666242142Y-215638095D01*
X666242142Y-215542857D01*
X666289761Y-215447619D01*
X666337380Y-215400000D01*
X666432619Y-215352380D01*
X666670714Y-215352380D01*
X666813571Y-215400000D01*
X667623095Y-216304761D02*
X667527857Y-216352380D01*
X667337380Y-216352380D01*
X667242142Y-216304761D01*
X667194523Y-216209523D01*
X667194523Y-215828571D01*
X667242142Y-215733333D01*
X667337380Y-215685714D01*
X667527857Y-215685714D01*
X667623095Y-215733333D01*
X667670714Y-215828571D01*
X667670714Y-215923809D01*
X667194523Y-216019047D01*
X668527857Y-216304761D02*
X668432619Y-216352380D01*
X668242142Y-216352380D01*
X668146904Y-216304761D01*
X668099285Y-216257142D01*
X668051666Y-216161904D01*
X668051666Y-215876190D01*
X668099285Y-215780952D01*
X668146904Y-215733333D01*
X668242142Y-215685714D01*
X668432619Y-215685714D01*
X668527857Y-215733333D01*
X664908571Y-210002380D02*
X664908571Y-209002380D01*
X665289523Y-209002380D01*
X665384761Y-209050000D01*
X665432380Y-209097619D01*
X665480000Y-209192857D01*
X665480000Y-209335714D01*
X665432380Y-209430952D01*
X665384761Y-209478571D01*
X665289523Y-209526190D01*
X664908571Y-209526190D01*
X665908571Y-210002380D02*
X665908571Y-209335714D01*
X665908571Y-209526190D02*
X665956190Y-209430952D01*
X666003809Y-209383333D01*
X666099047Y-209335714D01*
X666194285Y-209335714D01*
X657288476Y-216955714D02*
X657288476Y-217622380D01*
X657050380Y-216574761D02*
X656812285Y-217289047D01*
X657431333Y-217289047D01*
X723352380Y-168901904D02*
X723352380Y-168330476D01*
X724352380Y-168616190D02*
X723352380Y-168616190D01*
X724352380Y-167425714D02*
X723876190Y-167759047D01*
X724352380Y-167997142D02*
X723352380Y-167997142D01*
X723352380Y-167616190D01*
X723400000Y-167520952D01*
X723447619Y-167473333D01*
X723542857Y-167425714D01*
X723685714Y-167425714D01*
X723780952Y-167473333D01*
X723828571Y-167520952D01*
X723876190Y-167616190D01*
X723876190Y-167997142D01*
X723352380Y-167092380D02*
X723352380Y-166425714D01*
X724352380Y-166854285D01*
X691054666Y-165822380D02*
X691673714Y-165822380D01*
X691340380Y-166203333D01*
X691483238Y-166203333D01*
X691578476Y-166250952D01*
X691626095Y-166298571D01*
X691673714Y-166393809D01*
X691673714Y-166631904D01*
X691626095Y-166727142D01*
X691578476Y-166774761D01*
X691483238Y-166822380D01*
X691197523Y-166822380D01*
X691102285Y-166774761D01*
X691054666Y-166727142D01*
X691102285Y-168457619D02*
X691149904Y-168410000D01*
X691245142Y-168362380D01*
X691483238Y-168362380D01*
X691578476Y-168410000D01*
X691626095Y-168457619D01*
X691673714Y-168552857D01*
X691673714Y-168648095D01*
X691626095Y-168790952D01*
X691054666Y-169362380D01*
X691673714Y-169362380D01*
X699198571Y-164282380D02*
X699198571Y-163282380D01*
X699579523Y-163282380D01*
X699674761Y-163330000D01*
X699722380Y-163377619D01*
X699770000Y-163472857D01*
X699770000Y-163615714D01*
X699722380Y-163710952D01*
X699674761Y-163758571D01*
X699579523Y-163806190D01*
X699198571Y-163806190D01*
X700198571Y-164282380D02*
X700198571Y-163615714D01*
X700198571Y-163806190D02*
X700246190Y-163710952D01*
X700293809Y-163663333D01*
X700389047Y-163615714D01*
X700484285Y-163615714D01*
X691578476Y-171235714D02*
X691578476Y-171902380D01*
X691340380Y-170854761D02*
X691102285Y-171569047D01*
X691721333Y-171569047D01*
X691673714Y-164282380D02*
X691102285Y-164282380D01*
X691388000Y-164282380D02*
X691388000Y-163282380D01*
X691292761Y-163425238D01*
X691197523Y-163520476D01*
X691102285Y-163568095D01*
X700532142Y-170584761D02*
X700675000Y-170632380D01*
X700913095Y-170632380D01*
X701008333Y-170584761D01*
X701055952Y-170537142D01*
X701103571Y-170441904D01*
X701103571Y-170346666D01*
X701055952Y-170251428D01*
X701008333Y-170203809D01*
X700913095Y-170156190D01*
X700722619Y-170108571D01*
X700627380Y-170060952D01*
X700579761Y-170013333D01*
X700532142Y-169918095D01*
X700532142Y-169822857D01*
X700579761Y-169727619D01*
X700627380Y-169680000D01*
X700722619Y-169632380D01*
X700960714Y-169632380D01*
X701103571Y-169680000D01*
X701913095Y-170584761D02*
X701817857Y-170632380D01*
X701627380Y-170632380D01*
X701532142Y-170584761D01*
X701484523Y-170489523D01*
X701484523Y-170108571D01*
X701532142Y-170013333D01*
X701627380Y-169965714D01*
X701817857Y-169965714D01*
X701913095Y-170013333D01*
X701960714Y-170108571D01*
X701960714Y-170203809D01*
X701484523Y-170299047D01*
X702817857Y-170584761D02*
X702722619Y-170632380D01*
X702532142Y-170632380D01*
X702436904Y-170584761D01*
X702389285Y-170537142D01*
X702341666Y-170441904D01*
X702341666Y-170156190D01*
X702389285Y-170060952D01*
X702436904Y-170013333D01*
X702532142Y-169965714D01*
X702722619Y-169965714D01*
X702817857Y-170013333D01*
X747925446Y-167839274D02*
X747925446Y-166837298D01*
X748498004Y-167839274D02*
X748068585Y-167266717D01*
X748498004Y-166837298D02*
X747925446Y-167409856D01*
X749452266Y-167839274D02*
X748879709Y-167839274D01*
X749165988Y-167839274D02*
X749165988Y-166837298D01*
X749070561Y-166980438D01*
X748975135Y-167075864D01*
X748879709Y-167123577D01*
X723352380Y-199635904D02*
X723352380Y-199064476D01*
X724352380Y-199350190D02*
X723352380Y-199350190D01*
X724352380Y-198159714D02*
X723876190Y-198493047D01*
X724352380Y-198731142D02*
X723352380Y-198731142D01*
X723352380Y-198350190D01*
X723400000Y-198254952D01*
X723447619Y-198207333D01*
X723542857Y-198159714D01*
X723685714Y-198159714D01*
X723780952Y-198207333D01*
X723828571Y-198254952D01*
X723876190Y-198350190D01*
X723876190Y-198731142D01*
X723780952Y-197588285D02*
X723733333Y-197683523D01*
X723685714Y-197731142D01*
X723590476Y-197778761D01*
X723542857Y-197778761D01*
X723447619Y-197731142D01*
X723400000Y-197683523D01*
X723352380Y-197588285D01*
X723352380Y-197397809D01*
X723400000Y-197302571D01*
X723447619Y-197254952D01*
X723542857Y-197207333D01*
X723590476Y-197207333D01*
X723685714Y-197254952D01*
X723733333Y-197302571D01*
X723780952Y-197397809D01*
X723780952Y-197588285D01*
X723828571Y-197683523D01*
X723876190Y-197731142D01*
X723971428Y-197778761D01*
X724161904Y-197778761D01*
X724257142Y-197731142D01*
X724304761Y-197683523D01*
X724352380Y-197588285D01*
X724352380Y-197397809D01*
X724304761Y-197302571D01*
X724257142Y-197254952D01*
X724161904Y-197207333D01*
X723971428Y-197207333D01*
X723876190Y-197254952D01*
X723828571Y-197302571D01*
X723780952Y-197397809D01*
X691673714Y-192222380D02*
X691102285Y-192222380D01*
X691388000Y-192222380D02*
X691388000Y-191222380D01*
X691292761Y-191365238D01*
X691197523Y-191460476D01*
X691102285Y-191508095D01*
X691578476Y-203922380D02*
X691388000Y-203922380D01*
X691292761Y-203970000D01*
X691245142Y-204017619D01*
X691149904Y-204160476D01*
X691102285Y-204350952D01*
X691102285Y-204731904D01*
X691149904Y-204827142D01*
X691197523Y-204874761D01*
X691292761Y-204922380D01*
X691483238Y-204922380D01*
X691578476Y-204874761D01*
X691626095Y-204827142D01*
X691673714Y-204731904D01*
X691673714Y-204493809D01*
X691626095Y-204398571D01*
X691578476Y-204350952D01*
X691483238Y-204303333D01*
X691292761Y-204303333D01*
X691197523Y-204350952D01*
X691149904Y-204398571D01*
X691102285Y-204493809D01*
X691102285Y-198937619D02*
X691149904Y-198890000D01*
X691245142Y-198842380D01*
X691483238Y-198842380D01*
X691578476Y-198890000D01*
X691626095Y-198937619D01*
X691673714Y-199032857D01*
X691673714Y-199128095D01*
X691626095Y-199270952D01*
X691054666Y-199842380D01*
X691673714Y-199842380D01*
X691054666Y-193762380D02*
X691673714Y-193762380D01*
X691340380Y-194143333D01*
X691483238Y-194143333D01*
X691578476Y-194190952D01*
X691626095Y-194238571D01*
X691673714Y-194333809D01*
X691673714Y-194571904D01*
X691626095Y-194667142D01*
X691578476Y-194714761D01*
X691483238Y-194762380D01*
X691197523Y-194762380D01*
X691102285Y-194714761D01*
X691054666Y-194667142D01*
X691578476Y-201715714D02*
X691578476Y-202382380D01*
X691340380Y-201334761D02*
X691102285Y-202049047D01*
X691721333Y-202049047D01*
X699738285Y-194365619D02*
X699785904Y-194318000D01*
X699881142Y-194270380D01*
X700119238Y-194270380D01*
X700214476Y-194318000D01*
X700262095Y-194365619D01*
X700309714Y-194460857D01*
X700309714Y-194556095D01*
X700262095Y-194698952D01*
X699690666Y-195270380D01*
X700309714Y-195270380D01*
X698785714Y-192984380D02*
X698214285Y-192984380D01*
X698500000Y-192984380D02*
X698500000Y-191984380D01*
X698404761Y-192127238D01*
X698309523Y-192222476D01*
X698214285Y-192270095D01*
X701214666Y-196810380D02*
X701833714Y-196810380D01*
X701500380Y-197191333D01*
X701643238Y-197191333D01*
X701738476Y-197238952D01*
X701786095Y-197286571D01*
X701833714Y-197381809D01*
X701833714Y-197619904D01*
X701786095Y-197715142D01*
X701738476Y-197762761D01*
X701643238Y-197810380D01*
X701357523Y-197810380D01*
X701262285Y-197762761D01*
X701214666Y-197715142D01*
X691626095Y-196302380D02*
X691149904Y-196302380D01*
X691102285Y-196778571D01*
X691149904Y-196730952D01*
X691245142Y-196683333D01*
X691483238Y-196683333D01*
X691578476Y-196730952D01*
X691626095Y-196778571D01*
X691673714Y-196873809D01*
X691673714Y-197111904D01*
X691626095Y-197207142D01*
X691578476Y-197254761D01*
X691483238Y-197302380D01*
X691245142Y-197302380D01*
X691149904Y-197254761D01*
X691102285Y-197207142D01*
X723352380Y-214621904D02*
X723352380Y-214050476D01*
X724352380Y-214336190D02*
X723352380Y-214336190D01*
X724352380Y-213145714D02*
X723876190Y-213479047D01*
X724352380Y-213717142D02*
X723352380Y-213717142D01*
X723352380Y-213336190D01*
X723400000Y-213240952D01*
X723447619Y-213193333D01*
X723542857Y-213145714D01*
X723685714Y-213145714D01*
X723780952Y-213193333D01*
X723828571Y-213240952D01*
X723876190Y-213336190D01*
X723876190Y-213717142D01*
X724352380Y-212669523D02*
X724352380Y-212479047D01*
X724304761Y-212383809D01*
X724257142Y-212336190D01*
X724114285Y-212240952D01*
X723923809Y-212193333D01*
X723542857Y-212193333D01*
X723447619Y-212240952D01*
X723400000Y-212288571D01*
X723352380Y-212383809D01*
X723352380Y-212574285D01*
X723400000Y-212669523D01*
X723447619Y-212717142D01*
X723542857Y-212764761D01*
X723780952Y-212764761D01*
X723876190Y-212717142D01*
X723923809Y-212669523D01*
X723971428Y-212574285D01*
X723971428Y-212383809D01*
X723923809Y-212288571D01*
X723876190Y-212240952D01*
X723780952Y-212193333D01*
X691578476Y-216955714D02*
X691578476Y-217622380D01*
X691340380Y-216574761D02*
X691102285Y-217289047D01*
X691721333Y-217289047D01*
X700532142Y-216304761D02*
X700675000Y-216352380D01*
X700913095Y-216352380D01*
X701008333Y-216304761D01*
X701055952Y-216257142D01*
X701103571Y-216161904D01*
X701103571Y-216066666D01*
X701055952Y-215971428D01*
X701008333Y-215923809D01*
X700913095Y-215876190D01*
X700722619Y-215828571D01*
X700627380Y-215780952D01*
X700579761Y-215733333D01*
X700532142Y-215638095D01*
X700532142Y-215542857D01*
X700579761Y-215447619D01*
X700627380Y-215400000D01*
X700722619Y-215352380D01*
X700960714Y-215352380D01*
X701103571Y-215400000D01*
X701913095Y-216304761D02*
X701817857Y-216352380D01*
X701627380Y-216352380D01*
X701532142Y-216304761D01*
X701484523Y-216209523D01*
X701484523Y-215828571D01*
X701532142Y-215733333D01*
X701627380Y-215685714D01*
X701817857Y-215685714D01*
X701913095Y-215733333D01*
X701960714Y-215828571D01*
X701960714Y-215923809D01*
X701484523Y-216019047D01*
X702817857Y-216304761D02*
X702722619Y-216352380D01*
X702532142Y-216352380D01*
X702436904Y-216304761D01*
X702389285Y-216257142D01*
X702341666Y-216161904D01*
X702341666Y-215876190D01*
X702389285Y-215780952D01*
X702436904Y-215733333D01*
X702532142Y-215685714D01*
X702722619Y-215685714D01*
X702817857Y-215733333D01*
X699198571Y-210002380D02*
X699198571Y-209002380D01*
X699579523Y-209002380D01*
X699674761Y-209050000D01*
X699722380Y-209097619D01*
X699770000Y-209192857D01*
X699770000Y-209335714D01*
X699722380Y-209430952D01*
X699674761Y-209478571D01*
X699579523Y-209526190D01*
X699198571Y-209526190D01*
X700198571Y-210002380D02*
X700198571Y-209335714D01*
X700198571Y-209526190D02*
X700246190Y-209430952D01*
X700293809Y-209383333D01*
X700389047Y-209335714D01*
X700484285Y-209335714D01*
X691054666Y-211542380D02*
X691673714Y-211542380D01*
X691340380Y-211923333D01*
X691483238Y-211923333D01*
X691578476Y-211970952D01*
X691626095Y-212018571D01*
X691673714Y-212113809D01*
X691673714Y-212351904D01*
X691626095Y-212447142D01*
X691578476Y-212494761D01*
X691483238Y-212542380D01*
X691197523Y-212542380D01*
X691102285Y-212494761D01*
X691054666Y-212447142D01*
X691673714Y-210002380D02*
X691102285Y-210002380D01*
X691388000Y-210002380D02*
X691388000Y-209002380D01*
X691292761Y-209145238D01*
X691197523Y-209240476D01*
X691102285Y-209288095D01*
X691102285Y-214177619D02*
X691149904Y-214130000D01*
X691245142Y-214082380D01*
X691483238Y-214082380D01*
X691578476Y-214130000D01*
X691626095Y-214177619D01*
X691673714Y-214272857D01*
X691673714Y-214368095D01*
X691626095Y-214510952D01*
X691054666Y-215082380D01*
X691673714Y-215082380D01*
X747925446Y-174780149D02*
X747925446Y-173778173D01*
X748498004Y-174780149D02*
X748068585Y-174207592D01*
X748498004Y-173778173D02*
X747925446Y-174350731D01*
X748879709Y-173873600D02*
X748927422Y-173825887D01*
X749022848Y-173778173D01*
X749261414Y-173778173D01*
X749356840Y-173825887D01*
X749404553Y-173873600D01*
X749452266Y-173969026D01*
X749452266Y-174064452D01*
X749404553Y-174207592D01*
X748831996Y-174780149D01*
X749452266Y-174780149D01*
X752776666Y-181062380D02*
X752776666Y-181776666D01*
X752729047Y-181919523D01*
X752633809Y-182014761D01*
X752490952Y-182062380D01*
X752395714Y-182062380D01*
X753681428Y-181395714D02*
X753681428Y-182062380D01*
X753443333Y-181014761D02*
X753205238Y-181729047D01*
X753824285Y-181729047D01*
X689062380Y-184141904D02*
X689062380Y-183570476D01*
X690062380Y-183856190D02*
X689062380Y-183856190D01*
X690062380Y-182665714D02*
X689586190Y-182999047D01*
X690062380Y-183237142D02*
X689062380Y-183237142D01*
X689062380Y-182856190D01*
X689110000Y-182760952D01*
X689157619Y-182713333D01*
X689252857Y-182665714D01*
X689395714Y-182665714D01*
X689490952Y-182713333D01*
X689538571Y-182760952D01*
X689586190Y-182856190D01*
X689586190Y-183237142D01*
X689157619Y-182284761D02*
X689110000Y-182237142D01*
X689062380Y-182141904D01*
X689062380Y-181903809D01*
X689110000Y-181808571D01*
X689157619Y-181760952D01*
X689252857Y-181713333D01*
X689348095Y-181713333D01*
X689490952Y-181760952D01*
X690062380Y-182332380D01*
X690062380Y-181713333D01*
X669464666Y-181062380D02*
X670083714Y-181062380D01*
X669750380Y-181443333D01*
X669893238Y-181443333D01*
X669988476Y-181490952D01*
X670036095Y-181538571D01*
X670083714Y-181633809D01*
X670083714Y-181871904D01*
X670036095Y-181967142D01*
X669988476Y-182014761D01*
X669893238Y-182062380D01*
X669607523Y-182062380D01*
X669512285Y-182014761D01*
X669464666Y-181967142D01*
X669512285Y-183697619D02*
X669559904Y-183650000D01*
X669655142Y-183602380D01*
X669893238Y-183602380D01*
X669988476Y-183650000D01*
X670036095Y-183697619D01*
X670083714Y-183792857D01*
X670083714Y-183888095D01*
X670036095Y-184030952D01*
X669464666Y-184602380D01*
X670083714Y-184602380D01*
X678942142Y-185824761D02*
X679085000Y-185872380D01*
X679323095Y-185872380D01*
X679418333Y-185824761D01*
X679465952Y-185777142D01*
X679513571Y-185681904D01*
X679513571Y-185586666D01*
X679465952Y-185491428D01*
X679418333Y-185443809D01*
X679323095Y-185396190D01*
X679132619Y-185348571D01*
X679037380Y-185300952D01*
X678989761Y-185253333D01*
X678942142Y-185158095D01*
X678942142Y-185062857D01*
X678989761Y-184967619D01*
X679037380Y-184920000D01*
X679132619Y-184872380D01*
X679370714Y-184872380D01*
X679513571Y-184920000D01*
X680323095Y-185824761D02*
X680227857Y-185872380D01*
X680037380Y-185872380D01*
X679942142Y-185824761D01*
X679894523Y-185729523D01*
X679894523Y-185348571D01*
X679942142Y-185253333D01*
X680037380Y-185205714D01*
X680227857Y-185205714D01*
X680323095Y-185253333D01*
X680370714Y-185348571D01*
X680370714Y-185443809D01*
X679894523Y-185539047D01*
X681227857Y-185824761D02*
X681132619Y-185872380D01*
X680942142Y-185872380D01*
X680846904Y-185824761D01*
X680799285Y-185777142D01*
X680751666Y-185681904D01*
X680751666Y-185396190D01*
X680799285Y-185300952D01*
X680846904Y-185253333D01*
X680942142Y-185205714D01*
X681132619Y-185205714D01*
X681227857Y-185253333D01*
X677608571Y-179522380D02*
X677608571Y-178522380D01*
X677989523Y-178522380D01*
X678084761Y-178570000D01*
X678132380Y-178617619D01*
X678180000Y-178712857D01*
X678180000Y-178855714D01*
X678132380Y-178950952D01*
X678084761Y-178998571D01*
X677989523Y-179046190D01*
X677608571Y-179046190D01*
X678608571Y-179522380D02*
X678608571Y-178855714D01*
X678608571Y-179046190D02*
X678656190Y-178950952D01*
X678703809Y-178903333D01*
X678799047Y-178855714D01*
X678894285Y-178855714D01*
X669988476Y-186475714D02*
X669988476Y-187142380D01*
X669750380Y-186094761D02*
X669512285Y-186809047D01*
X670131333Y-186809047D01*
X670083714Y-179522380D02*
X669512285Y-179522380D01*
X669798000Y-179522380D02*
X669798000Y-178522380D01*
X669702761Y-178665238D01*
X669607523Y-178760476D01*
X669512285Y-178808095D01*
X643945714Y-178252380D02*
X643945714Y-177252380D01*
X644517142Y-178252380D01*
X644517142Y-177252380D01*
X644993333Y-177728571D02*
X645326666Y-177728571D01*
X645469523Y-178252380D02*
X644993333Y-178252380D01*
X644993333Y-177252380D01*
X645469523Y-177252380D01*
X646421904Y-178252380D02*
X645850476Y-178252380D01*
X646136190Y-178252380D02*
X646136190Y-177252380D01*
X646040952Y-177395238D01*
X645945714Y-177490476D01*
X645850476Y-177538095D01*
X747925446Y-209070149D02*
X747925446Y-208068173D01*
X748498004Y-209070149D02*
X748068585Y-208497592D01*
X748498004Y-208068173D02*
X747925446Y-208640731D01*
X749404553Y-208068173D02*
X748927422Y-208068173D01*
X748879709Y-208545305D01*
X748927422Y-208497592D01*
X749022848Y-208449879D01*
X749261414Y-208449879D01*
X749356840Y-208497592D01*
X749404553Y-208545305D01*
X749452266Y-208640731D01*
X749452266Y-208879297D01*
X749404553Y-208974723D01*
X749356840Y-209022436D01*
X749261414Y-209070149D01*
X749022848Y-209070149D01*
X748927422Y-209022436D01*
X748879709Y-208974723D01*
X644826666Y-181570380D02*
X644826666Y-182284666D01*
X644779047Y-182427523D01*
X644683809Y-182522761D01*
X644540952Y-182570380D01*
X644445714Y-182570380D01*
X645826666Y-182570380D02*
X645255238Y-182570380D01*
X645540952Y-182570380D02*
X645540952Y-181570380D01*
X645445714Y-181713238D01*
X645350476Y-181808476D01*
X645255238Y-181856095D01*
X662352666Y-183983380D02*
X662352666Y-184697666D01*
X662305047Y-184840523D01*
X662209809Y-184935761D01*
X662066952Y-184983380D01*
X661971714Y-184983380D01*
X662781238Y-184078619D02*
X662828857Y-184031000D01*
X662924095Y-183983380D01*
X663162190Y-183983380D01*
X663257428Y-184031000D01*
X663305047Y-184078619D01*
X663352666Y-184173857D01*
X663352666Y-184269095D01*
X663305047Y-184411952D01*
X662733619Y-184983380D01*
X663352666Y-184983380D01*
X660344380Y-182133619D02*
X660296761Y-182228857D01*
X660201523Y-182276476D01*
X659344380Y-182276476D01*
X660344380Y-181752666D02*
X659677714Y-181752666D01*
X659344380Y-181752666D02*
X659392000Y-181800285D01*
X659439619Y-181752666D01*
X659392000Y-181705047D01*
X659344380Y-181752666D01*
X659439619Y-181752666D01*
X660344380Y-181276476D02*
X659677714Y-181276476D01*
X659772952Y-181276476D02*
X659725333Y-181228857D01*
X659677714Y-181133619D01*
X659677714Y-180990761D01*
X659725333Y-180895523D01*
X659820571Y-180847904D01*
X660344380Y-180847904D01*
X659820571Y-180847904D02*
X659725333Y-180800285D01*
X659677714Y-180705047D01*
X659677714Y-180562190D01*
X659725333Y-180466952D01*
X659820571Y-180419333D01*
X660344380Y-180419333D01*
X660344380Y-179943142D02*
X659677714Y-179943142D01*
X659344380Y-179943142D02*
X659392000Y-179990761D01*
X659439619Y-179943142D01*
X659392000Y-179895523D01*
X659344380Y-179943142D01*
X659439619Y-179943142D01*
X659677714Y-179609809D02*
X659677714Y-179228857D01*
X659344380Y-179466952D02*
X660201523Y-179466952D01*
X660296761Y-179419333D01*
X660344380Y-179324095D01*
X660344380Y-179228857D01*
X660296761Y-178514571D02*
X660344380Y-178609809D01*
X660344380Y-178800285D01*
X660296761Y-178895523D01*
X660201523Y-178943142D01*
X659820571Y-178943142D01*
X659725333Y-178895523D01*
X659677714Y-178800285D01*
X659677714Y-178609809D01*
X659725333Y-178514571D01*
X659820571Y-178466952D01*
X659915809Y-178466952D01*
X660011047Y-178943142D01*
X660344380Y-178038380D02*
X659677714Y-178038380D01*
X659868190Y-178038380D02*
X659772952Y-177990761D01*
X659725333Y-177943142D01*
X659677714Y-177847904D01*
X659677714Y-177752666D01*
X660056666Y-197578571D02*
X659723333Y-197578571D01*
X659723333Y-198102380D02*
X659723333Y-197102380D01*
X660199523Y-197102380D01*
X661104285Y-198102380D02*
X660532857Y-198102380D01*
X660818571Y-198102380D02*
X660818571Y-197102380D01*
X660723333Y-197245238D01*
X660628095Y-197340476D01*
X660532857Y-197388095D01*
X747925446Y-220500149D02*
X747925446Y-219498173D01*
X748498004Y-220500149D02*
X748068585Y-219927592D01*
X748498004Y-219498173D02*
X747925446Y-220070731D01*
X749356840Y-219498173D02*
X749165988Y-219498173D01*
X749070561Y-219545887D01*
X749022848Y-219593600D01*
X748927422Y-219736739D01*
X748879709Y-219927592D01*
X748879709Y-220309297D01*
X748927422Y-220404723D01*
X748975135Y-220452436D01*
X749070561Y-220500149D01*
X749261414Y-220500149D01*
X749356840Y-220452436D01*
X749404553Y-220404723D01*
X749452266Y-220309297D01*
X749452266Y-220070731D01*
X749404553Y-219975305D01*
X749356840Y-219927592D01*
X749261414Y-219879879D01*
X749070561Y-219879879D01*
X748975135Y-219927592D01*
X748927422Y-219975305D01*
X748879709Y-220070731D01*
X689062380Y-230338095D02*
X689062380Y-229766666D01*
X690062380Y-230052380D02*
X689062380Y-230052380D01*
X690062380Y-228861904D02*
X689586190Y-229195238D01*
X690062380Y-229433333D02*
X689062380Y-229433333D01*
X689062380Y-229052380D01*
X689110000Y-228957142D01*
X689157619Y-228909523D01*
X689252857Y-228861904D01*
X689395714Y-228861904D01*
X689490952Y-228909523D01*
X689538571Y-228957142D01*
X689586190Y-229052380D01*
X689586190Y-229433333D01*
X690062380Y-227909523D02*
X690062380Y-228480952D01*
X690062380Y-228195238D02*
X689062380Y-228195238D01*
X689205238Y-228290476D01*
X689300476Y-228385714D01*
X689348095Y-228480952D01*
X689062380Y-227290476D02*
X689062380Y-227195238D01*
X689110000Y-227100000D01*
X689157619Y-227052380D01*
X689252857Y-227004761D01*
X689443333Y-226957142D01*
X689681428Y-226957142D01*
X689871904Y-227004761D01*
X689967142Y-227052380D01*
X690014761Y-227100000D01*
X690062380Y-227195238D01*
X690062380Y-227290476D01*
X690014761Y-227385714D01*
X689967142Y-227433333D01*
X689871904Y-227480952D01*
X689681428Y-227528571D01*
X689443333Y-227528571D01*
X689252857Y-227480952D01*
X689157619Y-227433333D01*
X689110000Y-227385714D01*
X689062380Y-227290476D01*
X656812285Y-229417619D02*
X656859904Y-229370000D01*
X656955142Y-229322380D01*
X657193238Y-229322380D01*
X657288476Y-229370000D01*
X657336095Y-229417619D01*
X657383714Y-229512857D01*
X657383714Y-229608095D01*
X657336095Y-229750952D01*
X656764666Y-230322380D01*
X657383714Y-230322380D01*
X657336095Y-226782380D02*
X656859904Y-226782380D01*
X656812285Y-227258571D01*
X656859904Y-227210952D01*
X656955142Y-227163333D01*
X657193238Y-227163333D01*
X657288476Y-227210952D01*
X657336095Y-227258571D01*
X657383714Y-227353809D01*
X657383714Y-227591904D01*
X657336095Y-227687142D01*
X657288476Y-227734761D01*
X657193238Y-227782380D01*
X656955142Y-227782380D01*
X656859904Y-227734761D01*
X656812285Y-227687142D01*
X664495714Y-223464380D02*
X663924285Y-223464380D01*
X664210000Y-223464380D02*
X664210000Y-222464380D01*
X664114761Y-222607238D01*
X664019523Y-222702476D01*
X663924285Y-222750095D01*
X657383714Y-222702380D02*
X656812285Y-222702380D01*
X657098000Y-222702380D02*
X657098000Y-221702380D01*
X657002761Y-221845238D01*
X656907523Y-221940476D01*
X656812285Y-221988095D01*
X666924666Y-227290380D02*
X667543714Y-227290380D01*
X667210380Y-227671333D01*
X667353238Y-227671333D01*
X667448476Y-227718952D01*
X667496095Y-227766571D01*
X667543714Y-227861809D01*
X667543714Y-228099904D01*
X667496095Y-228195142D01*
X667448476Y-228242761D01*
X667353238Y-228290380D01*
X667067523Y-228290380D01*
X666972285Y-228242761D01*
X666924666Y-228195142D01*
X665448285Y-224845619D02*
X665495904Y-224798000D01*
X665591142Y-224750380D01*
X665829238Y-224750380D01*
X665924476Y-224798000D01*
X665972095Y-224845619D01*
X666019714Y-224940857D01*
X666019714Y-225036095D01*
X665972095Y-225178952D01*
X665400666Y-225750380D01*
X666019714Y-225750380D01*
X656764666Y-224242380D02*
X657383714Y-224242380D01*
X657050380Y-224623333D01*
X657193238Y-224623333D01*
X657288476Y-224670952D01*
X657336095Y-224718571D01*
X657383714Y-224813809D01*
X657383714Y-225051904D01*
X657336095Y-225147142D01*
X657288476Y-225194761D01*
X657193238Y-225242380D01*
X656907523Y-225242380D01*
X656812285Y-225194761D01*
X656764666Y-225147142D01*
X657288476Y-234402380D02*
X657098000Y-234402380D01*
X657002761Y-234450000D01*
X656955142Y-234497619D01*
X656859904Y-234640476D01*
X656812285Y-234830952D01*
X656812285Y-235211904D01*
X656859904Y-235307142D01*
X656907523Y-235354761D01*
X657002761Y-235402380D01*
X657193238Y-235402380D01*
X657288476Y-235354761D01*
X657336095Y-235307142D01*
X657383714Y-235211904D01*
X657383714Y-234973809D01*
X657336095Y-234878571D01*
X657288476Y-234830952D01*
X657193238Y-234783333D01*
X657002761Y-234783333D01*
X656907523Y-234830952D01*
X656859904Y-234878571D01*
X656812285Y-234973809D01*
X657288476Y-232195714D02*
X657288476Y-232862380D01*
X657050380Y-231814761D02*
X656812285Y-232529047D01*
X657431333Y-232529047D01*
X723352380Y-230338095D02*
X723352380Y-229766666D01*
X724352380Y-230052380D02*
X723352380Y-230052380D01*
X724352380Y-228861904D02*
X723876190Y-229195238D01*
X724352380Y-229433333D02*
X723352380Y-229433333D01*
X723352380Y-229052380D01*
X723400000Y-228957142D01*
X723447619Y-228909523D01*
X723542857Y-228861904D01*
X723685714Y-228861904D01*
X723780952Y-228909523D01*
X723828571Y-228957142D01*
X723876190Y-229052380D01*
X723876190Y-229433333D01*
X724352380Y-227909523D02*
X724352380Y-228480952D01*
X724352380Y-228195238D02*
X723352380Y-228195238D01*
X723495238Y-228290476D01*
X723590476Y-228385714D01*
X723638095Y-228480952D01*
X724352380Y-226957142D02*
X724352380Y-227528571D01*
X724352380Y-227242857D02*
X723352380Y-227242857D01*
X723495238Y-227338095D01*
X723590476Y-227433333D01*
X723638095Y-227528571D01*
X691673714Y-225242380D02*
X691102285Y-225242380D01*
X691388000Y-225242380D02*
X691388000Y-224242380D01*
X691292761Y-224385238D01*
X691197523Y-224480476D01*
X691102285Y-224528095D01*
X699198571Y-225242380D02*
X699198571Y-224242380D01*
X699579523Y-224242380D01*
X699674761Y-224290000D01*
X699722380Y-224337619D01*
X699770000Y-224432857D01*
X699770000Y-224575714D01*
X699722380Y-224670952D01*
X699674761Y-224718571D01*
X699579523Y-224766190D01*
X699198571Y-224766190D01*
X700198571Y-225242380D02*
X700198571Y-224575714D01*
X700198571Y-224766190D02*
X700246190Y-224670952D01*
X700293809Y-224623333D01*
X700389047Y-224575714D01*
X700484285Y-224575714D01*
X691054666Y-226782380D02*
X691673714Y-226782380D01*
X691340380Y-227163333D01*
X691483238Y-227163333D01*
X691578476Y-227210952D01*
X691626095Y-227258571D01*
X691673714Y-227353809D01*
X691673714Y-227591904D01*
X691626095Y-227687142D01*
X691578476Y-227734761D01*
X691483238Y-227782380D01*
X691197523Y-227782380D01*
X691102285Y-227734761D01*
X691054666Y-227687142D01*
X700532142Y-231544761D02*
X700675000Y-231592380D01*
X700913095Y-231592380D01*
X701008333Y-231544761D01*
X701055952Y-231497142D01*
X701103571Y-231401904D01*
X701103571Y-231306666D01*
X701055952Y-231211428D01*
X701008333Y-231163809D01*
X700913095Y-231116190D01*
X700722619Y-231068571D01*
X700627380Y-231020952D01*
X700579761Y-230973333D01*
X700532142Y-230878095D01*
X700532142Y-230782857D01*
X700579761Y-230687619D01*
X700627380Y-230640000D01*
X700722619Y-230592380D01*
X700960714Y-230592380D01*
X701103571Y-230640000D01*
X701913095Y-231544761D02*
X701817857Y-231592380D01*
X701627380Y-231592380D01*
X701532142Y-231544761D01*
X701484523Y-231449523D01*
X701484523Y-231068571D01*
X701532142Y-230973333D01*
X701627380Y-230925714D01*
X701817857Y-230925714D01*
X701913095Y-230973333D01*
X701960714Y-231068571D01*
X701960714Y-231163809D01*
X701484523Y-231259047D01*
X702817857Y-231544761D02*
X702722619Y-231592380D01*
X702532142Y-231592380D01*
X702436904Y-231544761D01*
X702389285Y-231497142D01*
X702341666Y-231401904D01*
X702341666Y-231116190D01*
X702389285Y-231020952D01*
X702436904Y-230973333D01*
X702532142Y-230925714D01*
X702722619Y-230925714D01*
X702817857Y-230973333D01*
X691102285Y-229417619D02*
X691149904Y-229370000D01*
X691245142Y-229322380D01*
X691483238Y-229322380D01*
X691578476Y-229370000D01*
X691626095Y-229417619D01*
X691673714Y-229512857D01*
X691673714Y-229608095D01*
X691626095Y-229750952D01*
X691054666Y-230322380D01*
X691673714Y-230322380D01*
X691578476Y-232195714D02*
X691578476Y-232862380D01*
X691340380Y-231814761D02*
X691102285Y-232529047D01*
X691721333Y-232529047D01*
X723352380Y-184141904D02*
X723352380Y-183570476D01*
X724352380Y-183856190D02*
X723352380Y-183856190D01*
X724352380Y-182665714D02*
X723876190Y-182999047D01*
X724352380Y-183237142D02*
X723352380Y-183237142D01*
X723352380Y-182856190D01*
X723400000Y-182760952D01*
X723447619Y-182713333D01*
X723542857Y-182665714D01*
X723685714Y-182665714D01*
X723780952Y-182713333D01*
X723828571Y-182760952D01*
X723876190Y-182856190D01*
X723876190Y-183237142D01*
X723352380Y-181808571D02*
X723352380Y-181999047D01*
X723400000Y-182094285D01*
X723447619Y-182141904D01*
X723590476Y-182237142D01*
X723780952Y-182284761D01*
X724161904Y-182284761D01*
X724257142Y-182237142D01*
X724304761Y-182189523D01*
X724352380Y-182094285D01*
X724352380Y-181903809D01*
X724304761Y-181808571D01*
X724257142Y-181760952D01*
X724161904Y-181713333D01*
X723923809Y-181713333D01*
X723828571Y-181760952D01*
X723780952Y-181808571D01*
X723733333Y-181903809D01*
X723733333Y-182094285D01*
X723780952Y-182189523D01*
X723828571Y-182237142D01*
X723923809Y-182284761D01*
X691054666Y-178522380D02*
X691673714Y-178522380D01*
X691340380Y-178903333D01*
X691483238Y-178903333D01*
X691578476Y-178950952D01*
X691626095Y-178998571D01*
X691673714Y-179093809D01*
X691673714Y-179331904D01*
X691626095Y-179427142D01*
X691578476Y-179474761D01*
X691483238Y-179522380D01*
X691197523Y-179522380D01*
X691102285Y-179474761D01*
X691054666Y-179427142D01*
X698785714Y-177744380D02*
X698214285Y-177744380D01*
X698500000Y-177744380D02*
X698500000Y-176744380D01*
X698404761Y-176887238D01*
X698309523Y-176982476D01*
X698214285Y-177030095D01*
X699738285Y-179125619D02*
X699785904Y-179078000D01*
X699881142Y-179030380D01*
X700119238Y-179030380D01*
X700214476Y-179078000D01*
X700262095Y-179125619D01*
X700309714Y-179220857D01*
X700309714Y-179316095D01*
X700262095Y-179458952D01*
X699690666Y-180030380D01*
X700309714Y-180030380D01*
X691578476Y-188682380D02*
X691388000Y-188682380D01*
X691292761Y-188730000D01*
X691245142Y-188777619D01*
X691149904Y-188920476D01*
X691102285Y-189110952D01*
X691102285Y-189491904D01*
X691149904Y-189587142D01*
X691197523Y-189634761D01*
X691292761Y-189682380D01*
X691483238Y-189682380D01*
X691578476Y-189634761D01*
X691626095Y-189587142D01*
X691673714Y-189491904D01*
X691673714Y-189253809D01*
X691626095Y-189158571D01*
X691578476Y-189110952D01*
X691483238Y-189063333D01*
X691292761Y-189063333D01*
X691197523Y-189110952D01*
X691149904Y-189158571D01*
X691102285Y-189253809D01*
X701214666Y-181570380D02*
X701833714Y-181570380D01*
X701500380Y-181951333D01*
X701643238Y-181951333D01*
X701738476Y-181998952D01*
X701786095Y-182046571D01*
X701833714Y-182141809D01*
X701833714Y-182379904D01*
X701786095Y-182475142D01*
X701738476Y-182522761D01*
X701643238Y-182570380D01*
X701357523Y-182570380D01*
X701262285Y-182522761D01*
X701214666Y-182475142D01*
X691102285Y-183697619D02*
X691149904Y-183650000D01*
X691245142Y-183602380D01*
X691483238Y-183602380D01*
X691578476Y-183650000D01*
X691626095Y-183697619D01*
X691673714Y-183792857D01*
X691673714Y-183888095D01*
X691626095Y-184030952D01*
X691054666Y-184602380D01*
X691673714Y-184602380D01*
X691673714Y-176982380D02*
X691102285Y-176982380D01*
X691388000Y-176982380D02*
X691388000Y-175982380D01*
X691292761Y-176125238D01*
X691197523Y-176220476D01*
X691102285Y-176268095D01*
X691578476Y-186475714D02*
X691578476Y-187142380D01*
X691340380Y-186094761D02*
X691102285Y-186809047D01*
X691721333Y-186809047D01*
X691626095Y-181062380D02*
X691149904Y-181062380D01*
X691102285Y-181538571D01*
X691149904Y-181490952D01*
X691245142Y-181443333D01*
X691483238Y-181443333D01*
X691578476Y-181490952D01*
X691626095Y-181538571D01*
X691673714Y-181633809D01*
X691673714Y-181871904D01*
X691626095Y-181967142D01*
X691578476Y-182014761D01*
X691483238Y-182062380D01*
X691245142Y-182062380D01*
X691149904Y-182014761D01*
X691102285Y-181967142D01*
X689062380Y-199381904D02*
X689062380Y-198810476D01*
X690062380Y-199096190D02*
X689062380Y-199096190D01*
X690062380Y-197905714D02*
X689586190Y-198239047D01*
X690062380Y-198477142D02*
X689062380Y-198477142D01*
X689062380Y-198096190D01*
X689110000Y-198000952D01*
X689157619Y-197953333D01*
X689252857Y-197905714D01*
X689395714Y-197905714D01*
X689490952Y-197953333D01*
X689538571Y-198000952D01*
X689586190Y-198096190D01*
X689586190Y-198477142D01*
X689062380Y-197572380D02*
X689062380Y-196953333D01*
X689443333Y-197286666D01*
X689443333Y-197143809D01*
X689490952Y-197048571D01*
X689538571Y-197000952D01*
X689633809Y-196953333D01*
X689871904Y-196953333D01*
X689967142Y-197000952D01*
X690014761Y-197048571D01*
X690062380Y-197143809D01*
X690062380Y-197429523D01*
X690014761Y-197524761D01*
X689967142Y-197572380D01*
X678942142Y-201064761D02*
X679085000Y-201112380D01*
X679323095Y-201112380D01*
X679418333Y-201064761D01*
X679465952Y-201017142D01*
X679513571Y-200921904D01*
X679513571Y-200826666D01*
X679465952Y-200731428D01*
X679418333Y-200683809D01*
X679323095Y-200636190D01*
X679132619Y-200588571D01*
X679037380Y-200540952D01*
X678989761Y-200493333D01*
X678942142Y-200398095D01*
X678942142Y-200302857D01*
X678989761Y-200207619D01*
X679037380Y-200160000D01*
X679132619Y-200112380D01*
X679370714Y-200112380D01*
X679513571Y-200160000D01*
X680323095Y-201064761D02*
X680227857Y-201112380D01*
X680037380Y-201112380D01*
X679942142Y-201064761D01*
X679894523Y-200969523D01*
X679894523Y-200588571D01*
X679942142Y-200493333D01*
X680037380Y-200445714D01*
X680227857Y-200445714D01*
X680323095Y-200493333D01*
X680370714Y-200588571D01*
X680370714Y-200683809D01*
X679894523Y-200779047D01*
X681227857Y-201064761D02*
X681132619Y-201112380D01*
X680942142Y-201112380D01*
X680846904Y-201064761D01*
X680799285Y-201017142D01*
X680751666Y-200921904D01*
X680751666Y-200636190D01*
X680799285Y-200540952D01*
X680846904Y-200493333D01*
X680942142Y-200445714D01*
X681132619Y-200445714D01*
X681227857Y-200493333D01*
X669464666Y-196302380D02*
X670083714Y-196302380D01*
X669750380Y-196683333D01*
X669893238Y-196683333D01*
X669988476Y-196730952D01*
X670036095Y-196778571D01*
X670083714Y-196873809D01*
X670083714Y-197111904D01*
X670036095Y-197207142D01*
X669988476Y-197254761D01*
X669893238Y-197302380D01*
X669607523Y-197302380D01*
X669512285Y-197254761D01*
X669464666Y-197207142D01*
X670083714Y-194762380D02*
X669512285Y-194762380D01*
X669798000Y-194762380D02*
X669798000Y-193762380D01*
X669702761Y-193905238D01*
X669607523Y-194000476D01*
X669512285Y-194048095D01*
X669512285Y-198937619D02*
X669559904Y-198890000D01*
X669655142Y-198842380D01*
X669893238Y-198842380D01*
X669988476Y-198890000D01*
X670036095Y-198937619D01*
X670083714Y-199032857D01*
X670083714Y-199128095D01*
X670036095Y-199270952D01*
X669464666Y-199842380D01*
X670083714Y-199842380D01*
X669988476Y-201715714D02*
X669988476Y-202382380D01*
X669750380Y-201334761D02*
X669512285Y-202049047D01*
X670131333Y-202049047D01*
X677608571Y-194762380D02*
X677608571Y-193762380D01*
X677989523Y-193762380D01*
X678084761Y-193810000D01*
X678132380Y-193857619D01*
X678180000Y-193952857D01*
X678180000Y-194095714D01*
X678132380Y-194190952D01*
X678084761Y-194238571D01*
X677989523Y-194286190D01*
X677608571Y-194286190D01*
X678608571Y-194762380D02*
X678608571Y-194095714D01*
X678608571Y-194286190D02*
X678656190Y-194190952D01*
X678703809Y-194143333D01*
X678799047Y-194095714D01*
X678894285Y-194095714D01*
D12*
X731460000Y-233045000D02*
X731460000Y-230445000D01*
X734060000Y-235645000D02*
X741740000Y-235645000D01*
X734060000Y-235645000D02*
X734060000Y-233045000D01*
X741740000Y-235645000D02*
X741740000Y-230445000D01*
X732790000Y-235645000D02*
X731460000Y-235645000D01*
X734060000Y-233045000D02*
X731460000Y-233045000D01*
X731460000Y-230445000D02*
X741740000Y-230445000D01*
X731460000Y-235645000D02*
X731460000Y-234315000D01*
D13*
X746700000Y-204925000D02*
X746700000Y-195125000D01*
X726500000Y-195125000D02*
X726500000Y-204925000D01*
X746700000Y-195125000D02*
X726500000Y-195125000D01*
X726500000Y-204925000D02*
X746700000Y-204925000D01*
D12*
X664210000Y-163830000D02*
X664210000Y-168910000D01*
X665480000Y-166370000D02*
X665480000Y-171450000D01*
X665480000Y-171450000D02*
X661670000Y-171450000D01*
X661670000Y-166370000D02*
X665480000Y-166370000D01*
X664210000Y-168910000D02*
X661670000Y-168910000D01*
X661670000Y-163830000D02*
X664210000Y-163830000D01*
X661355000Y-160990000D02*
X688355000Y-160990000D01*
X688355000Y-160990000D02*
X688355000Y-174290000D01*
X688355000Y-174290000D02*
X661355000Y-174290000D01*
X661355000Y-174290000D02*
X661355000Y-160990000D01*
X663807210Y-163068000D02*
G75*
G03*
X663807210Y-163068000I-359210J0D01*
G01*
X666601210Y-167132000D02*
G75*
G03*
X666601210Y-167132000I-359210J0D01*
G01*
D13*
X746700000Y-183695000D02*
X726500000Y-183695000D01*
X726500000Y-193495000D02*
X746700000Y-193495000D01*
X746700000Y-193495000D02*
X746700000Y-183695000D01*
X726500000Y-183695000D02*
X726500000Y-193495000D01*
D12*
X647065000Y-230251000D02*
X647065000Y-204851000D01*
X652145000Y-204851000D02*
X652145000Y-230251000D01*
X656255000Y-204028000D02*
X642955000Y-204028000D01*
X642955000Y-204028000D02*
X642955000Y-231028000D01*
X642955000Y-231028000D02*
X656255000Y-231028000D01*
X656255000Y-231028000D02*
X656255000Y-204028000D01*
X646154210Y-205613000D02*
G75*
G03*
X646154210Y-205613000I-359210J0D01*
G01*
X653774210Y-205613000D02*
G75*
G03*
X653774210Y-205613000I-359210J0D01*
G01*
X664210000Y-214630000D02*
X661670000Y-214630000D01*
X665480000Y-217170000D02*
X661670000Y-217170000D01*
X664210000Y-209550000D02*
X664210000Y-214630000D01*
X661670000Y-209550000D02*
X664210000Y-209550000D01*
X665480000Y-212090000D02*
X665480000Y-217170000D01*
X661670000Y-212090000D02*
X665480000Y-212090000D01*
X661355000Y-206710000D02*
X688355000Y-206710000D01*
X688355000Y-206710000D02*
X688355000Y-220010000D01*
X688355000Y-220010000D02*
X661355000Y-220010000D01*
X661355000Y-220010000D02*
X661355000Y-206710000D01*
X663807210Y-208788000D02*
G75*
G03*
X663807210Y-208788000I-359210J0D01*
G01*
X666601210Y-212852000D02*
G75*
G03*
X666601210Y-212852000I-359210J0D01*
G01*
X699770000Y-166370000D02*
X699770000Y-171450000D01*
X695960000Y-163830000D02*
X698500000Y-163830000D01*
X699770000Y-171450000D02*
X695960000Y-171450000D01*
X698500000Y-163830000D02*
X698500000Y-168910000D01*
X695960000Y-166370000D02*
X699770000Y-166370000D01*
X698500000Y-168910000D02*
X695960000Y-168910000D01*
X695645000Y-160990000D02*
X722645000Y-160990000D01*
X722645000Y-160990000D02*
X722645000Y-174290000D01*
X722645000Y-174290000D02*
X695645000Y-174290000D01*
X695645000Y-174290000D02*
X695645000Y-160990000D01*
X698097210Y-163068000D02*
G75*
G03*
X698097210Y-163068000I-359210J0D01*
G01*
X700891210Y-167132000D02*
G75*
G03*
X700891210Y-167132000I-359210J0D01*
G01*
D13*
X746700000Y-160835000D02*
X726500000Y-160835000D01*
X726500000Y-160835000D02*
X726500000Y-170635000D01*
X726500000Y-170635000D02*
X746700000Y-170635000D01*
X746700000Y-170635000D02*
X746700000Y-160835000D01*
D12*
X699262000Y-194310000D02*
X699262000Y-201930000D01*
X695960000Y-194310000D02*
X699262000Y-194310000D01*
X697738000Y-199390000D02*
X695960000Y-199390000D01*
X699262000Y-201930000D02*
X695960000Y-201930000D01*
X697738000Y-192024000D02*
X697738000Y-199390000D01*
X700786000Y-204216000D02*
X695960000Y-204216000D01*
X695960000Y-196850000D02*
X700786000Y-196850000D01*
X695960000Y-192024000D02*
X697738000Y-192024000D01*
X700786000Y-196850000D02*
X700786000Y-204216000D01*
X695645000Y-191470000D02*
X722645000Y-191470000D01*
X722645000Y-191470000D02*
X722645000Y-204770000D01*
X722645000Y-204770000D02*
X695645000Y-204770000D01*
X695645000Y-204770000D02*
X695645000Y-191470000D01*
X700383210Y-195834000D02*
G75*
G03*
X700383210Y-195834000I-359210J0D01*
G01*
X701907210Y-198374000D02*
G75*
G03*
X701907210Y-198374000I-359210J0D01*
G01*
X698859210Y-193548000D02*
G75*
G03*
X698859210Y-193548000I-359210J0D01*
G01*
X698500000Y-209550000D02*
X698500000Y-214630000D01*
X695960000Y-212090000D02*
X699770000Y-212090000D01*
X699770000Y-212090000D02*
X699770000Y-217170000D01*
X699770000Y-217170000D02*
X695960000Y-217170000D01*
X698500000Y-214630000D02*
X695960000Y-214630000D01*
X695960000Y-209550000D02*
X698500000Y-209550000D01*
X695645000Y-206710000D02*
X722645000Y-206710000D01*
X722645000Y-206710000D02*
X722645000Y-220010000D01*
X722645000Y-220010000D02*
X695645000Y-220010000D01*
X695645000Y-220010000D02*
X695645000Y-206710000D01*
X698097210Y-208788000D02*
G75*
G03*
X698097210Y-208788000I-359210J0D01*
G01*
X700891210Y-212852000D02*
G75*
G03*
X700891210Y-212852000I-359210J0D01*
G01*
D13*
X746700000Y-172265000D02*
X726500000Y-172265000D01*
X726500000Y-182065000D02*
X746700000Y-182065000D01*
X746700000Y-182065000D02*
X746700000Y-172265000D01*
X726500000Y-172265000D02*
X726500000Y-182065000D01*
D12*
X750407929Y-192785000D02*
X750862071Y-192785000D01*
X750475000Y-185165000D02*
X750862071Y-185165000D01*
X748095000Y-183515000D02*
X749365000Y-183515000D01*
X750407929Y-197105000D02*
X750862071Y-197105000D01*
X750407929Y-186945000D02*
X750862071Y-186945000D01*
X750407929Y-187705000D02*
X750862071Y-187705000D01*
X750407929Y-197865000D02*
X750862071Y-197865000D01*
X750407929Y-192025000D02*
X750862071Y-192025000D01*
X750407929Y-194565000D02*
X750862071Y-194565000D01*
X750407929Y-195325000D02*
X750862071Y-195325000D01*
X750407929Y-190245000D02*
X750862071Y-190245000D01*
X750407929Y-189485000D02*
X750862071Y-189485000D01*
X750475000Y-184405000D02*
X750862071Y-184405000D01*
X748095000Y-184785000D02*
X748095000Y-183515000D01*
X674370000Y-181610000D02*
X678180000Y-181610000D01*
X676910000Y-179070000D02*
X676910000Y-184150000D01*
X678180000Y-186690000D02*
X674370000Y-186690000D01*
X674370000Y-179070000D02*
X676910000Y-179070000D01*
X676910000Y-184150000D02*
X674370000Y-184150000D01*
X678180000Y-181610000D02*
X678180000Y-186690000D01*
X674055000Y-176230000D02*
X688405000Y-176230000D01*
X688405000Y-176230000D02*
X688405000Y-189530000D01*
X688405000Y-189530000D02*
X674055000Y-189530000D01*
X674055000Y-189530000D02*
X674055000Y-176230000D01*
X679301210Y-182118000D02*
G75*
G03*
X679301210Y-182118000I-359210J0D01*
G01*
X676507210Y-178308000D02*
G75*
G03*
X676507210Y-178308000I-359210J0D01*
G01*
X654070000Y-179345000D02*
X654070000Y-176255000D01*
X654070000Y-176255170D02*
G75*
G03*
X648520000Y-177800462I-2560000J-1544830D01*
G01*
X648520000Y-177799538D02*
G75*
G03*
X654070000Y-179344830I2990000J-462D01*
G01*
X654010000Y-177800000D02*
G75*
G03*
X654010000Y-177800000I-2500000J0D01*
G01*
D13*
X726500000Y-206555000D02*
X726500000Y-216355000D01*
X726500000Y-216355000D02*
X746700000Y-216355000D01*
X746700000Y-216355000D02*
X746700000Y-206555000D01*
X746700000Y-206555000D02*
X726500000Y-206555000D01*
D14*
X655950000Y-183755000D02*
X655950000Y-198515000D01*
X655950000Y-198515000D02*
X641604000Y-198515000D01*
X641604000Y-198515000D02*
X641604000Y-183755000D01*
X641604000Y-183755000D02*
X655950000Y-183755000D01*
D12*
X662245000Y-179070000D02*
X662245000Y-177740000D01*
X662245000Y-180340000D02*
X664905000Y-180340000D01*
X664905000Y-180340000D02*
X664905000Y-182940000D01*
X662245000Y-180340000D02*
X662245000Y-182940000D01*
X662245000Y-182940000D02*
X664905000Y-182940000D01*
X662245000Y-177740000D02*
X663575000Y-177740000D01*
X667240000Y-198610000D02*
X667240000Y-202710000D01*
X658640000Y-198610000D02*
X658640000Y-202710000D01*
X658640000Y-202710000D02*
X667240000Y-202710000D01*
X658640000Y-198610000D02*
X667240000Y-198610000D01*
D13*
X746700000Y-217985000D02*
X726500000Y-217985000D01*
X726500000Y-217985000D02*
X726500000Y-227785000D01*
X746700000Y-227785000D02*
X746700000Y-217985000D01*
X726500000Y-227785000D02*
X746700000Y-227785000D01*
D12*
X663448000Y-222504000D02*
X663448000Y-229870000D01*
X661670000Y-224790000D02*
X664972000Y-224790000D01*
X664972000Y-224790000D02*
X664972000Y-232410000D01*
X663448000Y-229870000D02*
X661670000Y-229870000D01*
X661670000Y-227330000D02*
X666496000Y-227330000D01*
X666496000Y-234696000D02*
X661670000Y-234696000D01*
X664972000Y-232410000D02*
X661670000Y-232410000D01*
X661670000Y-222504000D02*
X663448000Y-222504000D01*
X666496000Y-227330000D02*
X666496000Y-234696000D01*
X661355000Y-221950000D02*
X688355000Y-221950000D01*
X688355000Y-221950000D02*
X688355000Y-235250000D01*
X688355000Y-235250000D02*
X661355000Y-235250000D01*
X661355000Y-235250000D02*
X661355000Y-221950000D01*
X667617210Y-228854000D02*
G75*
G03*
X667617210Y-228854000I-359210J0D01*
G01*
X666093210Y-226314000D02*
G75*
G03*
X666093210Y-226314000I-359210J0D01*
G01*
X664569210Y-224028000D02*
G75*
G03*
X664569210Y-224028000I-359210J0D01*
G01*
X698500000Y-224790000D02*
X698500000Y-229870000D01*
X695960000Y-224790000D02*
X698500000Y-224790000D01*
X699770000Y-227330000D02*
X699770000Y-232410000D01*
X698500000Y-229870000D02*
X695960000Y-229870000D01*
X695960000Y-227330000D02*
X699770000Y-227330000D01*
X699770000Y-232410000D02*
X695960000Y-232410000D01*
X695645000Y-221950000D02*
X722645000Y-221950000D01*
X722645000Y-221950000D02*
X722645000Y-235250000D01*
X722645000Y-235250000D02*
X695645000Y-235250000D01*
X695645000Y-235250000D02*
X695645000Y-221950000D01*
X700891210Y-228092000D02*
G75*
G03*
X700891210Y-228092000I-359210J0D01*
G01*
X698097210Y-224028000D02*
G75*
G03*
X698097210Y-224028000I-359210J0D01*
G01*
X700786000Y-188976000D02*
X695960000Y-188976000D01*
X695960000Y-179070000D02*
X699262000Y-179070000D01*
X699262000Y-179070000D02*
X699262000Y-186690000D01*
X699262000Y-186690000D02*
X695960000Y-186690000D01*
X700786000Y-181610000D02*
X700786000Y-188976000D01*
X697738000Y-176784000D02*
X697738000Y-184150000D01*
X697738000Y-184150000D02*
X695960000Y-184150000D01*
X695960000Y-176784000D02*
X697738000Y-176784000D01*
X695960000Y-181610000D02*
X700786000Y-181610000D01*
X695645000Y-176230000D02*
X722645000Y-176230000D01*
X722645000Y-176230000D02*
X722645000Y-189530000D01*
X722645000Y-189530000D02*
X695645000Y-189530000D01*
X695645000Y-189530000D02*
X695645000Y-176230000D01*
X700383210Y-180594000D02*
G75*
G03*
X700383210Y-180594000I-359210J0D01*
G01*
X698859210Y-178308000D02*
G75*
G03*
X698859210Y-178308000I-359210J0D01*
G01*
X701907210Y-183134000D02*
G75*
G03*
X701907210Y-183134000I-359210J0D01*
G01*
X678180000Y-201930000D02*
X674370000Y-201930000D01*
X678180000Y-196850000D02*
X678180000Y-201930000D01*
X674370000Y-196850000D02*
X678180000Y-196850000D01*
X674370000Y-194310000D02*
X676910000Y-194310000D01*
X676910000Y-194310000D02*
X676910000Y-199390000D01*
X676910000Y-199390000D02*
X674370000Y-199390000D01*
X674055000Y-191470000D02*
X688405000Y-191470000D01*
X688405000Y-191470000D02*
X688405000Y-204770000D01*
X688405000Y-204770000D02*
X674055000Y-204770000D01*
X674055000Y-204770000D02*
X674055000Y-191470000D01*
X679301210Y-197358000D02*
G75*
G03*
X679301210Y-197358000I-359210J0D01*
G01*
X676507210Y-193548000D02*
G75*
G03*
X676507210Y-193548000I-359210J0D01*
G01*
%LPC*%
D15*
X732790000Y-234315000D03*
D16*
X732790000Y-231775000D03*
X735330000Y-234315000D03*
X735330000Y-231775000D03*
X737870000Y-234315000D03*
X737870000Y-231775000D03*
X740410000Y-234315000D03*
X740410000Y-231775000D03*
D17*
X727710000Y-203835000D03*
D18*
X735330000Y-203835000D03*
X740410000Y-203835000D03*
X745490000Y-203835000D03*
X745490000Y-196215000D03*
X740410000Y-196215000D03*
X735330000Y-196215000D03*
X727710000Y-196215000D03*
D19*
X659130000Y-163830000D03*
X659130000Y-168910000D03*
X659130000Y-166370000D03*
X659130000Y-171450000D03*
D17*
X727710000Y-192405000D03*
D18*
X735330000Y-192405000D03*
X740410000Y-192405000D03*
X745490000Y-192405000D03*
X745490000Y-184785000D03*
X740410000Y-184785000D03*
X735330000Y-184785000D03*
X727710000Y-184785000D03*
D20*
X652145000Y-201803000D03*
X652145000Y-233299000D03*
X647065000Y-201803000D03*
X647065000Y-233299000D03*
D19*
X659130000Y-209550000D03*
X659130000Y-214630000D03*
X659130000Y-212090000D03*
X659130000Y-217170000D03*
D21*
X751205000Y-163830000D03*
D19*
X693420000Y-163830000D03*
X693420000Y-168910000D03*
X693420000Y-166370000D03*
X693420000Y-171450000D03*
D17*
X727710000Y-169545000D03*
D18*
X735330000Y-169545000D03*
X740410000Y-169545000D03*
X745490000Y-169545000D03*
X745490000Y-161925000D03*
X740410000Y-161925000D03*
X735330000Y-161925000D03*
X727710000Y-161925000D03*
D21*
X652145000Y-163830000D03*
D19*
X693420000Y-191770000D03*
X693420000Y-199390000D03*
X693420000Y-194310000D03*
X693420000Y-201930000D03*
X693420000Y-196850000D03*
X693420000Y-204470000D03*
X693420000Y-209550000D03*
X693420000Y-214630000D03*
X693420000Y-212090000D03*
X693420000Y-217170000D03*
D17*
X727710000Y-180975000D03*
D18*
X735330000Y-180975000D03*
X740410000Y-180975000D03*
X745490000Y-180975000D03*
X745490000Y-173355000D03*
X740410000Y-173355000D03*
X735330000Y-173355000D03*
X727710000Y-173355000D03*
D15*
X749365000Y-184785000D03*
D16*
X751905000Y-184785000D03*
X749365000Y-187325000D03*
X751905000Y-187325000D03*
X749365000Y-189865000D03*
X751905000Y-189865000D03*
X749365000Y-192405000D03*
X751905000Y-192405000D03*
X749365000Y-194945000D03*
X751905000Y-194945000D03*
X749365000Y-197485000D03*
X751905000Y-197485000D03*
D19*
X671830000Y-179070000D03*
X671830000Y-184150000D03*
X671830000Y-181610000D03*
X671830000Y-186690000D03*
D22*
X652780000Y-177800000D03*
D23*
X650240000Y-177800000D03*
D17*
X727710000Y-215265000D03*
D18*
X735330000Y-215265000D03*
X740410000Y-215265000D03*
X745490000Y-215265000D03*
X745490000Y-207645000D03*
X740410000Y-207645000D03*
X735330000Y-207645000D03*
X727710000Y-207645000D03*
D24*
X648970000Y-196215000D03*
X648970000Y-186055000D03*
D25*
X654050000Y-191135000D03*
D26*
X654050000Y-193675000D03*
D21*
X751205000Y-232410000D03*
D15*
X663575000Y-179070000D03*
D16*
X663575000Y-181610000D03*
D27*
X660390000Y-199860000D03*
X665490000Y-201460000D03*
D17*
X727710000Y-226695000D03*
D18*
X735330000Y-226695000D03*
X740410000Y-226695000D03*
X745490000Y-226695000D03*
X745490000Y-219075000D03*
X740410000Y-219075000D03*
X735330000Y-219075000D03*
X727710000Y-219075000D03*
D19*
X659130000Y-222250000D03*
X659130000Y-229870000D03*
X659130000Y-224790000D03*
X659130000Y-232410000D03*
X659130000Y-227330000D03*
X659130000Y-234950000D03*
X693420000Y-224790000D03*
X693420000Y-229870000D03*
X693420000Y-227330000D03*
X693420000Y-232410000D03*
X693420000Y-176530000D03*
X693420000Y-184150000D03*
X693420000Y-179070000D03*
X693420000Y-186690000D03*
X693420000Y-181610000D03*
X693420000Y-189230000D03*
X671830000Y-194310000D03*
X671830000Y-199390000D03*
X671830000Y-196850000D03*
X671830000Y-201930000D03*
M02*
