G04 #@! TF.GenerationSoftware,KiCad,Pcbnew,6.0.9-8da3e8f707~116~ubuntu20.04.1*
G04 #@! TF.CreationDate,2023-03-27T15:32:41+02:00*
G04 #@! TF.ProjectId,six_to_six,7369785f-746f-45f7-9369-782e6b696361,rev?*
G04 #@! TF.SameCoordinates,Original*
G04 #@! TF.FileFunction,Soldermask,Top*
G04 #@! TF.FilePolarity,Negative*
%FSLAX46Y46*%
G04 Gerber Fmt 4.6, Leading zero omitted, Abs format (unit mm)*
G04 Created by KiCad (PCBNEW 6.0.9-8da3e8f707~116~ubuntu20.04.1) date 2023-03-27 15:32:41*
%MOMM*%
%LPD*%
G01*
G04 APERTURE LIST*
%ADD10O,1.500000X3.000000*%
%ADD11R,1.700000X1.700000*%
%ADD12O,1.700000X1.700000*%
%ADD13R,1.308000X1.308000*%
%ADD14C,1.308000*%
%ADD15O,3.000000X1.500000*%
%ADD16C,5.600000*%
%ADD17R,1.800000X1.800000*%
%ADD18C,1.800000*%
%ADD19C,3.500000*%
%ADD20R,1.478000X1.478000*%
%ADD21C,1.478000*%
%ADD22C,1.270000*%
G04 APERTURE END LIST*
D10*
X652780000Y-203200000D03*
X647700000Y-203200000D03*
X650240000Y-203200000D03*
X645160000Y-203200000D03*
D11*
X732790000Y-234315000D03*
D12*
X732790000Y-231775000D03*
X735330000Y-234315000D03*
X735330000Y-231775000D03*
X737870000Y-234315000D03*
X737870000Y-231775000D03*
X740410000Y-234315000D03*
X740410000Y-231775000D03*
D13*
X727710000Y-203835000D03*
D14*
X735330000Y-203835000D03*
X740410000Y-203835000D03*
X745490000Y-203835000D03*
X745490000Y-196215000D03*
X740410000Y-196215000D03*
X735330000Y-196215000D03*
X727710000Y-196215000D03*
D15*
X659130000Y-163830000D03*
X659130000Y-168910000D03*
X659130000Y-166370000D03*
X659130000Y-171450000D03*
D13*
X727710000Y-192405000D03*
D14*
X735330000Y-192405000D03*
X740410000Y-192405000D03*
X745490000Y-192405000D03*
X745490000Y-184785000D03*
X740410000Y-184785000D03*
X735330000Y-184785000D03*
X727710000Y-184785000D03*
D15*
X659130000Y-209550000D03*
X659130000Y-214630000D03*
X659130000Y-212090000D03*
X659130000Y-217170000D03*
D16*
X751205000Y-163830000D03*
D15*
X693420000Y-163830000D03*
X693420000Y-168910000D03*
X693420000Y-166370000D03*
X693420000Y-171450000D03*
D13*
X727710000Y-169545000D03*
D14*
X735330000Y-169545000D03*
X740410000Y-169545000D03*
X745490000Y-169545000D03*
X745490000Y-161925000D03*
X740410000Y-161925000D03*
X735330000Y-161925000D03*
X727710000Y-161925000D03*
D16*
X652145000Y-163830000D03*
D15*
X693420000Y-191770000D03*
X693420000Y-199390000D03*
X693420000Y-194310000D03*
X693420000Y-201930000D03*
X693420000Y-196850000D03*
X693420000Y-204470000D03*
X693420000Y-209550000D03*
X693420000Y-214630000D03*
X693420000Y-212090000D03*
X693420000Y-217170000D03*
D13*
X727710000Y-180975000D03*
D14*
X735330000Y-180975000D03*
X740410000Y-180975000D03*
X745490000Y-180975000D03*
X745490000Y-173355000D03*
X740410000Y-173355000D03*
X735330000Y-173355000D03*
X727710000Y-173355000D03*
D11*
X749365000Y-184785000D03*
D12*
X751905000Y-184785000D03*
X749365000Y-187325000D03*
X751905000Y-187325000D03*
X749365000Y-189865000D03*
X751905000Y-189865000D03*
X749365000Y-192405000D03*
X751905000Y-192405000D03*
X749365000Y-194945000D03*
X751905000Y-194945000D03*
X749365000Y-197485000D03*
X751905000Y-197485000D03*
D15*
X671830000Y-179070000D03*
X671830000Y-184150000D03*
X671830000Y-181610000D03*
X671830000Y-186690000D03*
D17*
X652780000Y-177800000D03*
D18*
X650240000Y-177800000D03*
D13*
X727710000Y-215265000D03*
D14*
X735330000Y-215265000D03*
X740410000Y-215265000D03*
X745490000Y-215265000D03*
X745490000Y-207645000D03*
X740410000Y-207645000D03*
X735330000Y-207645000D03*
X727710000Y-207645000D03*
D19*
X648970000Y-196215000D03*
X648970000Y-186055000D03*
D20*
X654050000Y-191135000D03*
D21*
X654050000Y-193675000D03*
D16*
X751205000Y-232410000D03*
D11*
X663575000Y-179070000D03*
D12*
X663575000Y-181610000D03*
D22*
X660390000Y-199860000D03*
X665490000Y-201460000D03*
D13*
X727710000Y-226695000D03*
D14*
X735330000Y-226695000D03*
X740410000Y-226695000D03*
X745490000Y-226695000D03*
X745490000Y-219075000D03*
X740410000Y-219075000D03*
X735330000Y-219075000D03*
X727710000Y-219075000D03*
D15*
X659130000Y-222250000D03*
X659130000Y-229870000D03*
X659130000Y-224790000D03*
X659130000Y-232410000D03*
X659130000Y-227330000D03*
X659130000Y-234950000D03*
X693420000Y-224790000D03*
X693420000Y-229870000D03*
X693420000Y-227330000D03*
X693420000Y-232410000D03*
X693420000Y-176530000D03*
X693420000Y-184150000D03*
X693420000Y-179070000D03*
X693420000Y-186690000D03*
X693420000Y-181610000D03*
X693420000Y-189230000D03*
X671830000Y-194310000D03*
X671830000Y-199390000D03*
X671830000Y-196850000D03*
X671830000Y-201930000D03*
M02*
